<svg width="150" height="200" viewBox="0 0 150 200" fill="none" xmlns="http://www.w3.org/2000/svg">
<path fill-rule="evenodd" clip-rule="evenodd" d="M144.643 175.086C143.507 169.637 142.511 164.167 141.655 158.682C141.464 157.431 141.176 156.018 142.172 155.109C143.57 153.809 144.853 152.705 145.007 150.853C145.16 149.115 144.47 147.215 144.049 145.526C143.116 141.986 142.011 138.48 140.736 135.018C139.472 131.493 138.074 128.001 136.657 124.525C135.335 121.277 134.071 117.98 132.348 114.862C129.092 108.933 123.538 104.548 116.721 101.608C114.997 100.878 111.55 98.2789 109.769 97.7104C108.141 97.1582 108.141 98.7336 106.532 98.1327C105.249 97.6617 104.043 97.0445 103.334 95.9888C102.568 94.8519 100.595 93.2439 100.289 91.9284C99.657 89.1023 100.346 86.6985 97.9909 84.5709C95.8226 82.7079 93.1043 81.3729 90.1198 80.7053C83.6659 79.1949 75.0863 80.2506 71.1987 85.3342C69.341 87.7542 68.709 90.694 66.1811 92.6592C63.9979 94.3971 64.4958 95.5827 61.6615 96.4598C61.4891 96.5085 57.1418 95.7289 56.9886 95.7776C53.8862 95.2092 50.9178 96.7846 48.0834 97.6942C43.8487 99.0655 39.8031 100.825 36.0183 102.94C28.4129 107.237 21.7774 112.655 16.4269 118.938C9.67761 126.809 4.71589 135.676 1.79554 145.087C1.46997 146.127 1.12525 147.199 1.50827 148.238C1.83384 149.099 2.54242 149.733 3.38507 150.252C4.53412 150.951 6.83224 151.389 6.77479 152.802C6.75564 153.874 6.31517 154.995 6.1045 156.051C5.85554 157.301 5.66403 158.568 5.45337 159.819C4.53412 165.568 3.80639 171.35 3.48082 177.132C3.05878 182.865 3.02681 188.613 3.38507 194.348C3.40422 194.722 3.53827 195.079 3.76809 195.355C3.57658 195.42 3.53827 195.745 3.78724 195.794L4.30431 195.875C4.69159 196.122 5.16076 196.258 5.64488 196.265L6.69818 196.297C10.3943 196.947 14.0905 197.581 17.8249 198.052C22.3828 198.62 26.9408 199.075 31.5178 199.465C40.9401 200.244 50.2858 199.984 59.6889 199.562C69.0898 199.14 78.5066 199.032 87.9175 199.237C97.3397 199.465 106.762 199.806 116.184 199.952C126.717 200.114 137.25 199.871 147.745 199.14C149.181 199.059 150.082 198.084 149.794 196.866C148.09 189.606 146.156 182.395 144.624 175.102L144.643 175.086Z" fill="#D08B5B"/>
<path fill-rule="evenodd" clip-rule="evenodd" d="M48.0643 97.6939L48.2941 97.6289C51.071 96.7032 53.9628 95.2252 56.9886 95.7774C57.0844 95.7449 59.0569 96.086 60.4167 96.2971L59.1335 97.4341L56.8737 97.7751C64.6682 108.673 73.8798 114.131 84.5086 114.131C95.1374 114.131 103.219 108.673 108.715 97.7751L109.481 97.6127C109.558 97.6127 109.673 97.6452 109.769 97.6777C111.55 98.2624 115.016 100.861 116.721 101.592C123.538 104.515 129.073 108.901 132.348 114.845C134.014 117.866 135.259 121.017 136.523 124.184L136.657 124.509C138.074 127.985 139.472 131.493 140.736 135.001C141.942 138.314 143.034 141.66 143.915 145.038L144.049 145.509C144.47 147.199 145.16 149.083 145.007 150.837C144.949 151.442 144.754 152.032 144.432 152.575L129.035 157.285L136.389 199.724C129.667 199.968 122.925 200.049 116.184 199.935C106.762 199.789 97.3397 199.448 87.9174 199.237C78.7824 199.042 69.6666 199.123 60.5316 199.513L58.2334 199.611C49.3357 200.114 40.4062 200.06 31.5178 199.448L30.9242 199.399V193.179L34.0458 158.6L18.1505 156.067L2.58071 149.651C2.09152 149.256 1.7234 148.765 1.50826 148.222C1.14439 147.247 1.4125 146.273 1.69977 145.298L1.79552 145.087C4.75835 135.689 9.71651 126.828 16.4269 118.938C21.7703 112.651 28.3992 107.227 35.9992 102.924C39.7911 100.812 43.8319 99.042 48.0643 97.6777V97.6939Z" fill="#FFCF77"/>
<path fill-rule="evenodd" clip-rule="evenodd" d="M54.0394 95.5989C55.0161 95.5502 56.012 95.6963 56.9887 95.7613C57.0653 95.7776 57.1036 95.8913 56.9887 95.9075C55.2651 96.2161 53.5415 96.6384 51.837 97.0607L51.1093 97.2556C49.1942 97.7428 47.3174 98.2301 45.4406 98.8797C41.7253 100.163 38.2016 101.884 34.9459 103.882C22.4403 111.548 13.401 123.161 7.6749 135.18C5.74814 139.241 4.19233 143.422 3.02121 147.686C2.94461 147.946 2.6382 148.563 2.8297 148.823C2.96376 149.034 3.51914 149.164 3.78725 149.294L4.64905 149.668L9.47509 151.763L9.91557 151.941C17.1929 154.962 24.9299 157.528 33.0882 157.707L33.1648 157.106C33.4544 153.817 34.0889 150.555 35.0608 147.361C35.1182 147.199 35.3672 147.264 35.3864 147.41C35.9609 151.162 35.7694 154.946 35.5779 158.73C35.2332 165.389 34.7544 172.081 34.3331 178.756C34.1032 182.102 33.8351 185.415 33.5862 188.778C33.3372 192.107 33.2606 195.534 32.6861 198.847C32.5712 199.594 31.537 199.984 30.771 199.919C29.9283 199.838 29.258 199.188 29.2389 198.458C29.2389 196.525 29.5262 194.56 29.6985 192.643L30.1773 187.153C30.771 180.478 31.4796 173.803 32.1307 167.127C32.3605 164.761 32.603 162.395 32.8584 160.03C24.2022 159.786 16.1205 157.057 8.40264 153.89C8.28773 156.034 8.01962 158.194 7.75151 160.322C7.02377 166.299 6.39179 172.276 5.91301 178.269C5.52311 183.283 5.25494 188.302 5.10867 193.325L5.07037 194.462C5.07037 195.177 4.97461 195.843 4.24688 196.362C3.53829 196.898 2.54244 196.931 1.83385 196.362C0.876306 195.615 1.02951 194.592 1.06782 193.585C1.14024 191.028 1.25516 188.473 1.41253 185.919C1.79136 179.97 2.46223 174.036 3.42339 168.134L3.8064 165.86C4.47669 161.638 5.24273 157.301 6.77481 153.208C6.18113 152.965 5.58745 152.721 4.99377 152.445C3.94046 152.006 2.84886 151.568 1.8147 151.081C1.01036 150.674 0.301777 150.139 0.0911159 149.326C-0.176998 148.433 0.206022 147.459 0.474135 146.582V146.517C1.73959 142.072 3.44366 137.726 5.56829 133.523C8.90893 126.739 13.2735 120.352 18.5527 114.52C23.2512 109.213 28.9985 104.635 35.5396 100.991C38.7551 99.2405 42.2164 97.8382 45.8428 96.817C48.4856 96.0583 51.2499 95.6475 54.0394 95.5989ZM71.2944 84.8794C72.4435 83.8237 74.7608 84.9119 74.2054 86.3087C73.0183 89.6171 70.7067 92.555 67.56 94.7543C64.5853 96.8844 60.7605 97.9656 56.8738 97.7753L57.1993 98.1651C59.7666 101.277 62.727 104.142 66.0279 106.708C72.9223 111.776 82.2679 114.504 91.3072 112.555C98.4122 111.029 104.675 106.253 106.513 100.179C106.264 100.277 105.939 100.325 105.594 100.26C104.119 99.9842 102.664 98.6686 101.706 97.7266C100.691 96.7033 99.8868 95.6151 99.2932 94.3645C98.2207 92.0907 97.876 89.1509 99.3506 86.9421C99.5421 86.666 99.9251 86.8284 99.9826 87.1045L100.04 87.5105C100.327 89.5732 100.672 91.571 101.821 93.455C102.684 94.8861 103.868 96.1606 105.307 97.2068C105.804 97.5317 106.417 97.7915 106.858 98.1813L106.954 98.2463C107.068 97.4342 107.739 97.0607 108.409 97.0769C109.041 97.1094 109.807 97.3368 110.094 97.4505L110.113 97.4667C114.561 99.3315 118.744 101.62 122.581 104.288C130.635 109.626 136.547 116.944 139.51 125.24C140.947 129.349 141.77 133.588 142.632 137.811L143.168 140.41C143.972 144.292 144.872 148.271 146.692 151.893C147.171 152.818 146.807 153.695 145.639 154.069C144.207 154.534 142.77 154.988 141.33 155.433C142.038 158.032 142.479 160.712 142.996 163.311C144.145 168.849 145.524 174.355 146.711 179.877C147.324 182.719 147.879 185.562 148.492 188.371L149.392 192.464L149.852 194.673L149.871 194.787C149.967 195.177 150.062 195.583 149.947 195.973C149.794 196.411 149.392 196.72 149.028 197.045C148.722 197.304 148.301 197.304 147.937 197.158L147.803 197.109C147.151 196.85 146.654 196.59 146.405 195.973C146.27 195.567 146.213 195.128 146.117 194.722C145.602 192.364 145.104 190.004 144.624 187.641L144.317 186.163C143.321 181.063 142.364 175.947 141.866 170.814C141.674 168.54 141.425 166.25 141.195 163.96L141.023 162.255C140.812 160.095 140.544 157.87 140.506 155.677L139.644 155.937L135.393 157.22C134.339 157.545 132.999 158.194 131.869 158.064C131.314 158.016 130.911 157.87 130.567 157.593C130.95 162.271 131.486 166.916 132.195 171.561C133.299 178.909 134.704 186.223 136.408 193.488C136.523 194.007 136.676 194.527 136.772 195.047C136.867 195.648 136.676 196.005 136.293 196.509C135.967 196.898 135.335 197.109 134.799 196.833C134.11 196.46 133.746 196.135 133.554 195.469C133.363 194.868 133.248 194.235 133.114 193.618C132.303 190.1 131.575 186.57 130.931 183.028C129.437 174.582 128.498 166.072 128.02 157.561C127.791 153.352 127.702 149.138 127.752 144.925C127.752 142.765 127.847 140.605 128.02 138.444C128.211 136.268 128.594 134.14 128.939 131.98C128.939 131.899 129.073 131.899 129.073 131.98C129.226 134.4 129.475 136.82 129.609 139.24C129.724 141.563 129.782 143.869 129.877 146.192C129.992 149.229 130.165 152.282 130.394 155.32C130.596 155.129 130.85 154.983 131.134 154.895C131.418 154.807 131.723 154.78 132.022 154.816C132.922 154.654 133.88 154.264 134.722 154.004L137.94 153.111L142.996 151.698C141.533 147.387 140.382 143.004 139.549 138.574L139.165 136.577C138.399 132.646 137.538 128.699 136.14 124.883C134.664 120.9 132.411 117.156 129.475 113.806C126.485 110.525 123.103 107.515 119.383 104.824C116.242 102.485 112.929 100.374 109.73 98.1001C109.75 98.2463 109.769 98.425 109.73 98.5874C109.06 102.794 106.475 106.708 102.874 109.615C95.6545 115.462 84.9491 116.664 75.68 113.92C66.7365 111.272 58.8272 104.987 56.0311 97.2231C55.9737 97.0931 56.1843 97.0607 56.2801 97.1419L56.7397 97.6778C56.7397 97.6129 56.778 97.5317 56.8738 97.5154C60.2159 96.4969 63.2598 94.8793 65.7981 92.7729C67.5678 91.2176 68.9545 89.379 69.8773 87.3644L69.9539 87.202C70.2794 86.3899 70.5667 85.5453 71.2944 84.8956V84.8794Z" fill="black"/>
<path fill-rule="evenodd" clip-rule="evenodd" d="M62.4555 15.0235C74.4952 14.4713 85.178 11.5965 93.644 18.0283C93.644 18.0283 107.365 9.32271 109.659 12.636C111.187 14.8611 109.066 17.8334 109.62 20.5944C113.347 25.9542 113.137 35.082 113.347 37.2259C113.882 42.6019 117.207 62.8716 117.207 67.6791C117.207 70.1316 114.838 76.5633 113.347 80.1527C110.041 88.1112 103.734 92.1716 93.3955 92.1716C83.0758 92.1716 66.1821 84.8304 60.7738 78.3174C60.296 77.749 57.2384 79.4056 54.0278 76.5308C50.5305 73.3637 48.6195 67.403 48.6195 63.8298C48.6195 59.3146 45.1796 56.18 45.5809 50.3817C46.4791 37.4696 49.5941 15.6245 62.4555 15.0073V15.0235Z" fill="#D08B5B"/>
<path fill-rule="evenodd" clip-rule="evenodd" d="M109.659 12.6029C111.187 14.828 109.085 17.8003 109.659 20.5614C111.073 22.6241 111.933 25.2715 112.449 27.8376L109.62 29.1045L108.588 29.2344C91.7328 31.3458 80.9545 33.2461 76.2915 34.9353C71.5903 36.6406 65.8762 42.6501 59.1493 52.9311L58.9582 53.2559L57.6205 60.922L51.5051 62.5137L48.6385 63.6668C48.562 59.2328 45.1986 56.0982 45.5808 50.3649C46.479 37.4527 49.594 15.6076 62.4745 14.9905C74.5142 14.4382 85.1779 11.5635 93.663 17.9952C102.798 12.1969 108.13 10.3941 109.659 12.6029Z" fill="#FFCF77"/>
<path fill-rule="evenodd" clip-rule="evenodd" d="M61.1177 0H61.5955L62.1115 0.064967C62.9954 0.214677 63.7994 0.601857 64.4047 1.1694L64.443 1.21813C64.7246 1.39823 64.9869 1.59934 65.2265 1.81907L65.3603 1.72162L65.7425 1.46175C66.3158 1.03947 67.0038 0.730877 67.73 0.552218L67.8255 0.535976H67.8829C68.3988 0.373559 68.953 0.308592 69.4881 0.308592C70.157 0.292351 70.8068 0.373559 71.3992 0.584701C72.1445 0.844568 72.7752 1.23437 73.3103 1.72162C73.6542 1.98149 73.96 2.24135 74.2658 2.5337C75.0269 3.22123 75.5895 4.0497 75.9093 4.95372C77.62 4.76753 79.3453 4.69692 81.0691 4.74258C84.0825 4.82976 87.0532 5.37431 89.8409 6.3505C90.5289 6.57789 91.1977 6.88648 91.8284 7.2438L92.3635 7.5199L93.147 7.92595C93.7586 8.25078 94.351 8.64058 94.9052 9.06287C95.6472 9.57011 96.3435 10.1239 96.9882 10.7195C98.1922 11.2717 99.2815 11.9864 100.275 12.8309C101.975 12.0064 103.784 11.3575 105.664 10.8982C106.838 10.6102 108.041 10.4198 109.257 10.3297L110.041 10.281L110.385 10.2485H110.671C110.748 10.2323 110.863 10.3947 110.863 10.4597L110.882 10.5084L111.054 10.6708H111.206C111.34 10.6708 111.512 10.8819 111.608 10.9794L111.684 11.0444C111.783 11.135 111.849 11.2477 111.875 11.3692C111.99 12.0351 112.066 12.7172 112.162 13.3994C112.181 13.9029 112.162 14.4064 112.066 14.9099L111.837 16.3716L111.455 17.3949L111.321 17.7847C111.015 18.6455 110.652 19.4738 110.232 20.2859C110.538 20.5782 110.824 20.8706 111.092 21.1954L111.283 21.3578L111.359 21.3091C111.455 21.2766 111.512 21.3091 111.57 21.3741C112.181 21.8613 112.602 22.446 112.888 23.0957L113.041 23.4205L113.137 23.5992C113.524 24.4846 113.787 25.406 113.92 26.344C114.321 27.5239 114.672 28.7157 114.971 29.9172C115.018 30.0791 115.004 30.2492 114.933 30.4045L115.105 30.5669L115.411 30.8105C115.927 31.249 116.462 31.72 116.844 32.2398C117.226 32.7757 117.532 33.3604 117.857 33.9289L117.914 34.0588L118.067 34.3025C118.512 35.0397 118.772 35.847 118.832 36.6737C118.975 37.5308 118.85 38.4047 118.469 39.2075C118.277 39.9546 117.8 40.6367 117.073 41.0752C116.901 41.2052 116.749 41.3189 116.557 41.4001C116.365 41.5008 116.15 41.5658 115.926 41.591C115.702 41.6162 115.474 41.601 115.258 41.5463H115.201L115.048 41.4975C115.124 41.5463 115.162 41.6112 115.048 41.6599C114.952 41.7014 114.849 41.7289 114.742 41.7412C114.78 41.7899 114.78 41.8386 114.704 41.8711C114.513 41.9523 114.36 41.9848 114.207 41.9523L114.245 42.1797C114.494 43.8851 114.723 44.2261 114.914 46.0777C115.048 47.9455 115.258 49.8133 115.545 51.6811L115.64 52.3632C116.041 55.4702 116.68 58.5518 117.551 61.5885C117.838 62.3031 118.029 63.0178 118.125 63.7649C118.287 64.5225 118.402 65.2869 118.469 66.055C118.679 66.5422 118.793 67.0457 118.793 67.5655C118.813 68.2476 118.793 68.9298 118.698 69.6119C118.66 70.3265 118.545 71.0249 118.354 71.7233C118.192 72.6703 117.897 73.5973 117.475 74.4844C116.609 77.0151 115.308 79.4231 113.614 81.6308C112.659 82.8976 111.646 84.132 110.48 85.2689C107.02 88.6497 102.55 91.1746 97.5424 92.5777C94.634 93.3359 91.5543 93.4918 88.5605 93.0324C87.2903 92.8893 86.0413 92.6334 84.8339 92.2691C83.8402 91.9767 82.9229 91.6194 81.9673 91.2458C80.4466 90.5953 79.0643 89.7335 77.8777 88.6959C77.7821 88.6309 77.8395 88.5335 77.9541 88.501H77.9923L77.8586 88.3873L77.8203 88.3711L77.763 88.3223C77.6866 88.2574 77.763 88.1437 77.8203 88.1112H77.9159V88.0787L77.8968 88.0462H77.8586C77.763 87.965 77.8203 87.8513 77.935 87.8188H78.1834L78.2217 87.8351L78.1452 87.7864C78.0306 87.7052 78.0688 87.6239 78.2026 87.5752C78.3172 87.5752 78.4128 87.6077 78.5274 87.6239H78.6039L78.7185 87.6727L78.5274 87.5103C78.451 87.4778 78.5274 87.3478 78.5848 87.3153C78.6612 87.2666 78.8141 87.3154 78.8905 87.3641C79.0625 87.3803 79.2727 87.4453 79.3683 87.5103L80.0754 88.0462C80.2283 88.0949 80.362 88.1437 80.4767 88.2086C80.7443 88.4523 81.05 88.6634 81.3367 88.8583L81.5469 88.9883L81.6616 89.0532L82.9229 89.6866L87.5094 91.0022L87.7387 91.0509L89.2102 91.2134C90.204 91.2946 91.1786 91.2946 92.1533 91.2134C94.1162 91.1274 96.0539 90.7991 97.9055 90.2389C99.8809 89.5944 101.76 88.7549 103.505 87.7376C104.846 86.8696 106.111 85.9197 107.289 84.8953L107.461 84.7654L108.474 83.7422L108.779 83.4336C110.041 82.118 111.168 80.6725 112.162 79.2107C113.156 77.749 113.978 76.206 114.646 74.6143C114.838 74.0459 115.029 73.4774 115.181 72.8927C115.531 72.0663 115.743 71.2027 115.812 70.3265V70.0992L115.831 69.9855C115.896 69.5326 115.934 69.0772 115.946 68.6212V67.2081L115.927 67.0782L115.869 66.7534L115.621 64.8368L115.506 64.106L115.43 63.6837L115.392 63.4401C115.305 63.0033 115.196 62.5699 115.067 62.1407L115.009 61.9621L114.666 60.5328L114.283 59.136C113.407 55.2101 112.782 51.2467 112.41 47.2633C112.277 45.8665 112.219 44.4535 112.181 43.0405C112.181 42.9755 112.219 42.9268 112.296 42.8943V42.6344C112.277 42.3908 112.277 42.6832 112.258 42.4071V41.5463C111.245 41.6112 110.557 41.5463 109.582 41.5138H109.391C108.493 41.465 107.595 41.3838 106.716 41.2539C106.716 41.3026 106.677 41.3189 106.62 41.3351H106.352L106.391 41.4488C106.391 41.4975 106.372 41.53 106.295 41.5463H106.047C105.403 41.5832 104.757 41.5283 104.136 41.3838L103.562 41.2539L102.129 40.8641C101.632 40.7667 101.116 40.7342 100.6 40.8479C100.027 40.9616 99.5682 41.1727 98.9757 41.0428L98.6318 40.9291H98.4789C97.8673 40.8479 97.3322 40.523 96.7589 40.3444C96.5564 40.2979 96.3415 40.3093 96.1474 40.3769L96.09 40.4093L95.8989 40.523L95.6696 40.7667L95.5549 40.8803C95.3632 41.0955 95.1307 41.2822 94.867 41.4326C94.5499 41.6967 94.126 41.8478 93.6821 41.8549C93.4337 41.8549 93.1661 41.8061 92.9177 41.7412C91.9622 42.001 90.9493 42.0497 89.9938 41.8061C89.4319 41.736 88.8924 41.5703 88.4076 41.3189C87.7387 41.5463 87.089 41.8711 86.4583 42.131L86.3054 42.2122C85.6555 42.535 84.9178 42.7085 84.1651 42.7157C83.2168 42.661 82.2727 42.5634 81.3367 42.4233L81.2029 42.4071L80.7443 42.3421L80.3621 42.2771L80.1709 42.3421C78.6421 42.8294 76.9795 43.2192 75.4315 42.8781C74.7427 42.8043 74.0862 42.5866 73.5205 42.2446L73.272 42.1147H73.2529L73.2338 42.0985C72.827 41.9459 72.4876 41.6876 72.2644 41.3607C72.0412 41.0339 71.9457 40.6553 71.9916 40.2794C71.9343 40.0358 71.9343 39.7922 71.9916 39.5323L71.1699 40.3444C70.1213 41.3998 69.1205 42.4888 68.1695 43.609L67.9784 43.8688C67.4433 44.486 66.9655 45.1357 66.526 45.7853L65.1309 47.7343C64.5194 48.3028 63.927 48.9037 63.3345 49.5209L63.1052 49.7646L62.2643 50.6903C61.2288 51.9145 60.3691 53.2395 59.7035 54.6371C59.2282 55.7234 58.895 56.8508 58.7098 57.9991V58.1615C58.6841 58.3505 58.665 58.5401 58.6524 58.73L58.7862 58.8112L58.92 58.8599L59.0347 58.8761C59.2258 58.9249 59.5124 59.0386 59.436 59.136L59.0729 59.737C59.1111 59.7694 59.1302 59.8182 59.1111 59.8506L58.3467 61.0525V61.085L58.9391 61.3611C59.3213 61.556 59.608 61.7834 59.8755 62.0433C60.1431 62.1894 60.4106 62.3356 60.6399 62.5143C61.2254 63.0382 61.669 63.6646 61.9395 64.3496C61.9968 64.512 62.035 64.6907 62.035 64.8856C61.8057 66.2661 59.9329 65.3241 59.8946 65.2104C59.7127 64.4644 59.2967 63.7741 58.6907 63.2127L58.6716 63.1964C58.2893 63.0503 57.9071 62.9041 57.5249 62.8066L57.3338 62.8229C57.3911 62.9041 57.3529 62.9853 57.2192 63.0015C56.6267 63.099 56.0152 63.1315 55.4037 63.0827L54.4672 62.9691C54.085 63.099 53.7028 63.2614 53.3779 63.4563L53.2633 63.5213H53.2442C52.2633 64.2078 51.5066 65.0971 51.0464 66.1037L50.9891 66.2174C50.4594 68.333 50.8391 70.5398 52.0593 72.438C52.6683 73.2763 53.3056 74.0995 53.9704 74.9067L54.6201 75.6376C55.0718 75.9951 55.5115 76.3634 55.9387 76.742L56.5312 77.0181L56.7796 77.0831C57.1618 77.2455 57.5631 77.3267 58.0027 77.343C58.576 77.3754 59.1111 77.3105 59.6462 77.1805L59.7609 77.1318L59.8373 77.1156C60.124 76.9531 60.4106 76.7583 60.6591 76.5309C60.7164 76.4821 60.8119 76.4821 60.9457 76.4984L61.1368 76.3197C61.175 76.271 61.2515 76.271 61.3088 76.3197C61.4999 76.2872 61.9777 76.5309 61.8439 76.6446L61.7866 76.742L62.035 76.8557C62.4172 76.9532 63.0288 77.2942 62.9905 77.3917H62.9714C62.8759 77.5541 62.7612 77.684 62.5892 77.7815L62.551 77.814L62.4363 77.8789C62.6083 77.9601 62.7421 78.0576 62.6657 78.1226L62.5701 78.285L63.5256 79.292C63.8505 79.8929 64.2518 80.4289 64.7296 80.9486C65.1118 81.5171 65.5896 82.0043 66.1629 82.4591L66.2967 82.5728L67.5771 83.3037L67.7682 83.4011C67.8637 83.4498 68.0357 83.5148 67.9593 83.6447L67.9211 83.6772C68.2077 83.8396 68.4944 83.9858 68.8002 84.1157H68.8193C68.9339 84.197 69.0868 84.3106 68.9339 84.3918C68.8002 84.4731 68.4371 84.2619 68.2651 84.1645L68.1504 84.1482L68.3224 84.2294L68.3988 84.2619C68.4753 84.3106 68.8002 84.4893 68.5899 84.5705C68.4562 84.5705 68.3606 84.5543 68.2651 84.4893L67.9211 84.3431C67.9593 84.3918 67.9593 84.4406 67.8637 84.4731C67.8319 84.4753 67.8 84.4753 67.7682 84.4731C67.9975 84.603 68.2268 84.7167 68.4753 84.8141L68.5135 84.8304C68.6091 84.8953 68.7619 84.9928 68.6473 85.0902C68.5135 85.1877 68.1504 84.9766 68.074 84.9278L67.7873 84.7816C67.7634 84.7915 67.7374 84.797 67.7109 84.7979L67.9593 84.9278L68.074 84.9928C68.2268 85.0578 68.4371 85.1552 68.3606 85.2851C68.2842 85.3988 68.0548 85.3014 67.9211 85.2364L67.7682 85.1552L67.7491 85.139V85.1552C67.6535 85.2689 67.4815 85.2039 67.3669 85.1552L67.2522 85.0902L66.7553 84.8304L66.5069 84.7004C65.1356 84.0235 63.8922 83.1748 62.8186 82.183C62.035 81.4196 61.4235 80.5426 60.8502 79.6493L60.8884 79.5518L60.6973 79.227C59.7758 79.4277 58.8095 79.4277 57.888 79.227C56.8587 79.0791 55.8801 78.7409 55.0214 78.2362L54.8877 78.1388C54.5246 77.9764 54.1997 77.7815 53.8939 77.5541C52.8255 76.787 51.8752 75.9085 51.0656 74.9392L50.0145 73.6886C49.0361 72.3794 48.4036 70.9054 48.1607 69.3683C47.9643 68.3955 47.9643 67.4013 48.1607 66.4285L47.9696 66.2824C47.9696 66.3311 47.9314 66.3636 47.9123 66.3473L47.4728 65.9738C45.8957 64.5203 44.9515 62.6518 44.7973 60.679C44.6635 59.8344 44.7973 59.0223 44.9311 58.194C44.9311 58.1453 44.9693 58.1128 45.0266 58.0803L45.0457 57.8854C44.3785 57.3485 43.8477 56.7012 43.4862 55.9833C43.1246 55.2654 42.94 54.4922 42.9436 53.7113C42.9818 53.1916 43.0964 52.6718 43.3258 52.2008L43.364 52.1521C42.3129 52.0059 41.4721 51.3725 40.8414 50.5929L40.6885 50.4792C39.5419 49.6671 38.7775 48.4977 38.2424 47.2796C37.8557 46.5651 37.6041 45.8032 37.4971 45.022V44.8596C37.2306 43.6281 37.1535 42.3724 37.2677 41.124C36.8828 39.9833 36.6268 38.814 36.5033 37.632V37.5508L36.4651 37.3884V37.2909C36.2414 33.8256 36.9607 30.3631 38.5672 27.1724L38.9877 26.3115L39.1215 26.003C40.6503 23.924 42.9436 22.2349 44.8546 20.4645C45.5235 19.8474 44.4533 18.9216 43.7844 19.5388C42.504 20.7244 41.1281 21.8613 39.905 23.0632C39.3082 23.1044 38.7075 23.0605 38.1277 22.9333C37.2295 22.8196 36.4078 22.511 35.6815 22.0562C34.6878 21.6664 33.8278 20.9193 33.7514 19.9448V19.6687C33.6558 19.1814 33.7514 18.6942 33.9807 18.2394C34.1495 17.7225 34.5117 17.2664 35.0127 16.9401L35.0318 16.9076L35.1656 16.8102L35.3567 16.664C35.0964 16.3047 34.8665 15.9302 34.6687 15.5433C34.3774 14.9523 34.2342 14.3162 34.2483 13.6755L34.2291 13.4319C34.1718 12.7822 34.2674 12.1163 34.554 11.5154L34.6114 11.3692L34.8025 10.9631C35.0891 10.4597 35.4904 10.0211 35.9873 9.66381C36.4285 9.29753 36.9473 9.00547 37.5162 8.803C37.9366 8.6081 38.4717 8.44568 38.8921 8.42944H39.045C39.0832 7.50366 39.2361 6.48044 39.6565 5.63587C39.905 5.03493 40.2872 4.49895 40.8605 4.09291C41.1663 3.80056 41.5867 3.57317 42.1027 3.41076L42.1983 3.37827H42.2174C42.6772 3.19509 43.1812 3.10609 43.6889 3.11841C44.4043 3.07934 45.1152 3.23894 45.7146 3.57317L46.0013 3.15089C46.3835 2.6474 46.8039 2.20887 47.339 1.80283L47.5301 1.67289L48.2945 1.13692C48.9061 0.795843 49.5558 0.519734 50.2438 0.357317C51.0273 0.113692 51.8682 -4.96141e-07 52.69 0.0324829H52.9766C54.6671 0.114184 56.2731 0.687665 57.5249 1.65665C57.6778 1.49424 57.8498 1.33182 58.06 1.1694L58.2511 1.03947L58.3849 0.925777C58.6142 0.76336 58.8627 0.600943 59.1302 0.471009C59.4169 0.324834 59.7418 0.227384 60.0857 0.162417C60.4106 0.0649668 60.7546 0 61.1177 0ZM57.1809 66.9645C57.2192 66.9645 58.9964 67.5167 59.8564 67.8903H59.9137C60.9266 68.3288 61.4426 68.6374 62.3408 69.1896C62.3981 69.2383 62.4555 69.2871 62.4555 69.352C62.4555 70.1479 62.2261 71.1386 61.4426 70.6839L61.0986 70.5214L60.9075 70.424C59.1875 69.5145 57.372 68.8161 55.4419 68.3126C55.3081 68.2801 56.2827 67.0132 56.5503 67.0944C56.3974 67.0457 57.1618 66.9645 57.1809 66.9645ZM75.336 31.5414C73.4574 31.7089 71.5782 31.8714 69.6984 32.0286C68.2089 32.1339 66.7095 32.0573 65.2456 31.8012C64.978 31.9637 64.7105 32.1261 64.443 32.256L61.4044 34.2213C59.3786 35.5856 57.3911 37.0311 55.5948 38.6065C52.4227 41.3724 49.9397 44.6537 48.2945 48.2541C48.1607 48.319 48.0461 48.449 48.0079 48.6439C47.7212 50.1056 46.8995 51.4699 46.5937 52.9317C46.307 54.3934 46.6892 55.6116 47.7594 56.7647C47.9888 57.0084 48.4665 56.9921 48.7532 56.8297C48.8105 56.9434 49.0972 56.9271 49.2118 56.4399C49.6896 56.0014 50.0909 55.5466 50.3585 54.9781C50.5496 54.5559 50.2247 54.2635 49.8043 54.2148C50.4877 52.115 51.5309 50.1121 52.9002 48.2703C53.8359 47.085 54.8909 45.971 56.0534 44.9408L56.2827 44.7134C56.321 44.6809 56.3783 44.6809 56.4738 44.7134L56.6649 44.5022C56.7414 44.4373 56.8178 44.4698 56.8561 44.5022C56.9898 44.5022 57.2 44.5997 57.2765 44.6322C57.3912 44.6971 57.4294 44.7784 57.3338 44.8758L57.2765 44.9245C57.4103 44.957 57.544 45.022 57.6396 45.0869C57.9836 45.1519 58.4805 45.428 58.404 45.5255L57.8689 46.0127C58.0218 46.0939 58.1174 46.1751 58.0791 46.2239C54.5238 49.3927 52.2942 53.4678 51.7344 57.8204V57.9341C51.6771 58.5026 51.6771 60.0455 51.6006 60.4191C52.1174 60.6222 52.6547 60.7852 53.2059 60.9064L53.3588 60.8576C54.0625 60.6176 54.818 60.5069 55.5756 60.5328H55.6903L56.0916 60.549V60.3541C56.0343 60.3541 56.0152 60.3054 56.0152 60.2729C55.8254 58.8438 55.9748 57.3968 56.4547 56.0176C56.7028 55.1531 57.0286 54.306 57.4294 53.4839C58.576 51.1451 60.2195 49.0337 61.863 46.9223C63.067 45.3955 64.1945 43.8363 65.4558 42.3096C66.5069 41.0265 67.6153 39.7597 68.8002 38.574C70.1722 37.1753 71.6602 35.8617 73.2529 34.6435C74.5333 33.669 75.9284 32.8569 77.3808 32.0773C77.4381 32.0449 77.5337 32.0773 77.6101 32.1423L77.8395 32.0124L77.9541 31.9637C77.9923 31.9474 78.0306 31.9637 78.0688 31.9961L78.3554 31.8662L78.5848 31.72C77.4955 31.6875 76.4253 31.6063 75.3551 31.5251L75.336 31.5414ZM88.8089 20.7082C87.9489 20.562 87.089 20.5457 86.1908 20.6594C85.8277 20.6919 85.4646 20.7569 85.1015 20.8219C85.9232 21.4228 86.5921 22.2024 87.0125 23.0957C87.4712 24.0702 85.6366 24.4925 85.1779 23.5342C84.7384 22.6084 83.8975 21.91 82.8846 21.4878L82.254 21.8126C81.363 22.4324 80.6669 23.2304 80.2283 24.1352C80.0827 24.5592 79.9867 24.9944 79.9416 25.4345C79.7505 27.1074 80.3238 28.7478 81.2794 30.1933H81.3367C82.1967 29.7873 83.114 29.4462 84.0504 29.1701C86.3957 27.84 88.9857 26.852 91.7137 26.2466L91.9431 26.1979L93.2617 25.938L93.5292 25.9055L93.491 25.6619C93.1822 23.9448 92.1416 22.3841 90.5671 21.2766V21.2604C90.2422 21.098 89.8982 20.968 89.5542 20.8706L89.4205 20.8219L88.8089 20.7082ZM65.5131 19.2626C61.7284 18.9681 57.9122 19.271 54.257 20.1559L54.6966 20.9031C55.4228 22.1537 56.1681 23.388 57.0472 24.5574C57.9106 25.7156 58.9304 26.784 60.0857 27.7408C60.468 28.0332 60.9075 28.2768 61.3853 28.4879C61.7675 28.7153 62.1497 28.9265 62.551 29.1051L62.7039 29.1701L64.1372 29.6411L64.3665 29.6898L64.4812 29.7223L64.7105 29.7548L64.8634 29.6736L64.9589 29.6411C64.9972 29.6249 65.0354 29.6573 65.0354 29.6898V29.7385L65.2265 29.6411C65.7758 29.8321 66.3554 29.9525 66.9464 29.9984H66.9655V30.0147H67.1758C68.6091 30.1446 70.0615 29.9822 71.4947 29.771C73.5014 29.6086 75.508 29.3975 77.5337 29.2188C77.5719 29.2188 77.591 29.2351 77.591 29.2675L77.7248 29.2513C77.9159 29.2351 78.107 29.4949 77.9732 29.5761L78.2599 29.771H78.3172C78.039 29.3109 77.8211 28.8261 77.6675 28.3255L77.4764 27.4809C77.3893 27.0246 77.351 26.5626 77.3617 26.1004V25.7431L76.2151 25.402L72.8516 25.0447C71.4194 25.1036 69.991 25.2174 68.5708 25.3858C68.5135 25.3858 68.3797 25.3208 68.3033 25.2234L67.9784 25.2558C67.8064 25.2721 67.6344 24.996 67.8637 24.931L68.0931 24.8498L68.2268 24.8173H68.074C67.8829 24.8173 67.6917 24.8498 67.5389 24.866C67.3095 24.8823 67.3478 24.6387 67.5197 24.5737H67.5962C67.4624 24.4925 67.3478 24.2976 67.5006 24.2489L67.5389 24.2326L67.7491 24.1514V24.1027L67.4433 24.1352C67.4242 24.1352 67.558 23.9727 67.6344 23.924L67.7873 23.8915C67.7873 23.8266 67.9211 23.7129 67.9784 23.6966C68.865 23.4416 69.7719 23.2408 70.6921 23.0957C70.6921 23.0632 70.7303 23.047 70.7494 23.047C72.8527 22.8148 74.9909 23.021 76.9795 23.6479L77.1706 23.7129L77.7057 23.8915C77.8091 23.5582 77.9432 23.2324 78.107 22.917L77.9159 22.8358C77.8968 22.9008 77.8012 22.9495 77.763 22.917C76.4253 22.1537 75.0302 21.5202 73.5587 21.0168C72.101 20.4634 70.5756 20.0494 69.0104 19.7824C67.8637 19.5225 66.7171 19.3439 65.5131 19.2626ZM109.276 21.8613L108.779 22.5435C107.919 23.6804 106.868 24.7199 105.703 25.6456C106.528 25.6421 107.35 25.7295 108.149 25.9055C108.187 25.873 108.225 25.8568 108.263 25.873L108.397 25.9542C109.451 26.1941 110.451 26.5781 111.359 27.0911V26.344C111.131 25.1942 110.727 24.0748 110.155 23.0145V22.9333C109.907 22.5597 109.601 22.1862 109.276 21.8451V21.8613ZM109.525 12.636L108.34 12.8797C107.595 12.9771 106.888 13.1395 106.2 13.3669C105.247 13.658 104.31 13.9831 103.39 14.3414C101.613 15.0398 99.9313 15.9169 98.4024 16.9563L98.1158 17.1512C97.7706 17.4037 97.439 17.6692 97.122 17.9471L96.1283 18.8566C95.7269 19.2302 95.2683 19.555 94.8861 19.9448L94.695 20.1884L94.9052 20.2534C95.0963 20.3184 95.0581 20.5945 94.8861 20.562L94.695 20.5133C94.7332 20.5295 94.7523 20.562 94.7523 20.5782C94.7523 20.6594 94.695 20.7731 94.5612 20.7406L94.4274 20.6919L94.3892 20.8543H94.4274C94.5612 20.8868 94.8096 21.0655 94.8096 21.1792C94.8479 21.2604 94.7714 21.3416 94.6567 21.3416L94.4083 21.2441C94.4656 21.2929 94.5039 21.3416 94.5039 21.3741C94.5039 21.4553 94.4274 21.5527 94.3128 21.5365C94.1451 21.4924 93.9892 21.4206 93.8541 21.3253C93.8159 21.3741 93.7586 21.4066 93.7203 21.3903L93.6439 21.3741L93.7012 21.4228L93.7394 21.4553C94.2554 21.9425 94.7141 22.4623 95.0772 23.047L95.1536 22.9982L95.6887 22.6409L95.7461 22.5922L95.7843 22.5597L95.4021 22.6734C95.4212 22.6247 95.5167 22.511 95.5549 22.4947C96.1283 22.0725 96.7016 21.7151 97.3705 21.4228C98.8667 20.7472 100.434 20.1926 102.053 19.7661L102.569 19.62C102.607 19.62 102.626 19.62 102.626 19.6525L102.702 19.6362C102.874 19.5875 103.142 19.8311 103.027 19.9448L103.218 20.091L103.257 20.1235H103.314C103.448 20.0747 103.677 20.2534 103.811 20.3833L103.925 20.4808C104.002 20.562 104.174 20.7082 103.964 20.7731L103.734 20.8381C103.734 20.8868 103.715 20.9193 103.639 20.9518L103.39 21.0168L103.524 21.1304L103.6 21.1954C103.696 21.2766 103.887 21.439 103.715 21.5202H103.696L103.467 21.5852C103.486 21.6502 103.467 21.6989 103.371 21.7476C102.014 22.1374 100.657 22.5922 99.3579 23.1282C98.3833 23.5829 97.3322 23.9403 96.2429 24.1514C96.1665 24.1839 95.9563 24.0702 95.8798 23.9565L95.7269 23.989L95.6314 24.0052C95.8491 24.5198 95.9965 25.0538 96.0709 25.5969L96.7207 25.5644C98.1922 25.4995 99.7019 25.5319 101.173 25.6781C101.958 25.2836 102.705 24.8383 103.409 24.3463C105.313 22.9407 106.872 21.2298 107.996 19.3114C109.053 17.5613 109.615 15.6262 109.639 13.6593V13.5456L109.525 12.6198V12.636ZM95.5358 23.518L95.383 23.5505L95.4594 23.7129L95.6505 23.5829C95.6123 23.5829 95.5741 23.5505 95.5358 23.518ZM109.257 10.3297C109.601 10.2323 109.869 10.1998 110.041 10.281C109.773 10.281 109.525 10.3135 109.276 10.3297H109.257Z" fill="black"/>
<path fill-rule="evenodd" clip-rule="evenodd" d="M85.064 73.0551C87.1707 71.9832 94.9651 72.7628 101.113 73.0551C105.996 73.2825 109.482 72.8277 110.592 73.4612C113.101 74.9067 111.895 81.8581 107.528 82.8164C103.2 83.7584 87.1132 85.0902 84.3555 82.8164C81.5594 80.5425 81.3105 74.9716 85.064 73.0551Z" fill="white"/>
<path fill-rule="evenodd" clip-rule="evenodd" d="M87.7643 71.2198C91.0582 70.8787 94.2373 71.7233 97.4546 72.1618C99.482 72.4419 101.53 72.6047 103.583 72.6491C103.621 72.3892 103.774 72.1618 104.157 71.9994C104.924 71.7233 105.517 71.5934 106.341 71.6096C107.107 71.6421 107.873 71.7071 108.62 71.8208C110.009 72.0056 111.303 72.5371 112.335 73.3475C114.633 75.264 114.269 78.3662 112.507 80.4613C108.83 84.7979 102.147 85.009 96.4205 84.944H95.8843C90.6561 84.8628 83.1872 85.5287 80.8125 80.4938C80.3834 79.565 80.1907 78.5697 80.2468 77.5733C80.3029 76.5769 80.6066 75.6017 81.138 74.7118C82.402 72.6004 85.0831 71.4959 87.7643 71.2198ZM104.081 78.4311H104.043C101.63 78.5123 99.2165 78.5611 96.8035 78.5935C96.9311 79.5322 97.0779 80.469 97.244 81.4034C97.2823 81.582 97.3972 81.8581 97.3589 82.0205V82.0855C97.4478 82.1202 97.5275 82.1697 97.5933 82.2311C97.6591 82.2925 97.7097 82.3645 97.7419 82.4428C99.6187 82.4428 101.63 82.4266 103.526 82.1342V82.1017C103.564 81.8906 103.679 81.7607 103.813 81.6632C103.947 81.0136 103.928 80.2989 103.985 79.6493L104.081 78.4311ZM94.965 78.626C93.2414 78.6585 91.5179 78.6748 89.7751 78.6585H88.9708C89.1623 79.4056 89.3346 80.1527 89.4687 80.9323C89.6411 81.7119 88.8176 82.2317 88.0898 82.1992L88.3388 82.2317C90.5603 82.4915 92.8776 82.4266 95.1374 82.4266C95.0225 81.8256 95.0608 81.1272 95.0416 80.64V80.5588L94.965 78.626ZM83.1872 78.4961C83.2446 78.8859 83.3787 79.2757 83.5319 79.633C84.2979 81.1435 85.9832 81.8419 87.7834 82.1505C87.4578 82.053 87.2089 81.8256 87.1514 81.4683C87.0038 80.5207 86.9334 79.5656 86.9408 78.6098C85.6768 78.6098 84.432 78.5773 83.1872 78.4798V78.4961ZM110.611 78.1713C109.711 78.3337 108.696 78.2687 107.815 78.3012L105.345 78.3824L105.46 79.8117C105.517 80.4126 105.517 81.0623 105.651 81.6795C107.317 81.1922 108.792 80.4289 109.903 79.2107C110.171 78.9021 110.42 78.5611 110.611 78.1713ZM87.4004 73.7048C85.9066 73.9971 84.5277 74.6306 83.7617 75.7837C83.3191 76.4809 83.1074 77.2666 83.1489 78.0576C84.3937 77.9439 85.6768 77.8951 86.9408 77.8627L86.9599 77.278L86.9791 76.7907C87.0174 75.8325 87.0365 74.6468 87.4004 73.7048ZM95.0608 73.8185L94.4288 73.7535C92.6095 73.5911 90.7901 73.3962 88.9899 73.4937L88.1856 73.5749C88.5111 74.5494 88.4728 75.7025 88.6069 76.677L88.7984 77.7977H89.124C91.0582 77.7002 93.0116 77.6353 94.965 77.5703V76.3359C95.0033 75.5563 94.9459 74.6631 95.0799 73.8347L95.0608 73.8185ZM104.177 73.6885C101.545 74.0096 98.8801 74.0858 96.229 73.9159L96.3247 74.9229L96.5737 76.9369L96.6695 77.5216L103.851 77.213H104.177L104.272 76.0761C104.349 75.329 104.406 74.5818 104.521 73.8347L104.445 73.8185L104.177 73.6885ZM105.019 73.9647L105.249 77.148L106.819 77.0831L107.624 77.0506C108.639 77.0019 109.96 76.7257 110.975 76.9856C111.052 76.206 110.784 75.4427 109.96 74.9229C108.486 73.9971 106.647 74.322 105.019 73.9647ZM99.6187 64.4958C101.974 63.3588 107.854 62.1894 108.237 65.7788C108.428 67.4193 106.973 68.7998 105.268 69.4007L105.211 69.417C103.621 69.9692 100.806 70.6026 99.4464 69.417C98.2973 68.41 99.8294 66.6234 101.227 67.4355C101.974 67.8578 103.506 67.5492 104.311 67.338H104.368C105.249 67.1107 106.417 66.4123 106.053 65.5027C105.728 64.6907 104.368 64.5282 103.506 64.5282C102.223 64.4795 100.978 64.7231 99.7145 64.8043C99.523 64.8043 99.4655 64.577 99.6187 64.4795V64.4958ZM109.347 58.7299C112.546 58.6 114.518 61.556 113.79 63.976C113.676 64.3983 113.12 64.7881 112.584 64.7556H112.45L112.258 64.7231C111.741 64.5932 111.301 64.1547 111.339 63.6837V63.5537C111.416 62.4168 111.263 61.1012 109.673 60.8251C108.313 60.5815 107.566 61.6859 107.528 62.7092C107.528 62.8878 107.298 63.034 107.107 62.9203C106.111 62.4331 105.958 61.4098 106.341 60.549C106.57 60.0257 106.979 59.5727 107.515 59.2485C108.051 58.9242 108.689 58.7436 109.347 58.7299ZM85.6768 59.3634C88.0132 58.7137 90.5028 59.7532 91.6328 61.491C92.0158 61.5885 92.4179 61.8484 92.3605 62.2382C92.2839 62.8066 92.169 63.1639 91.7094 63.6025C90.9816 64.2684 89.6028 63.9273 89.3155 63.099V63.0665C88.9516 61.9945 87.5727 61.2799 86.3088 61.6535C84.815 62.092 84.8725 63.4238 83.8192 64.1872C83.7043 64.2846 83.551 64.3008 83.417 64.2359C82.3062 63.7811 82.4977 62.4331 82.8999 61.6372C83.417 60.6302 84.432 59.7207 85.6768 59.3634ZM82.536 53.3864C84.4128 51.7623 89.3346 50.1868 90.6178 53.1915C90.8667 53.76 90.3305 54.5234 89.6411 54.6533C88.492 54.8482 87.4578 54.4259 86.3279 54.4909C85.3733 54.5407 84.4558 54.8226 83.6851 55.303C81.6359 56.651 81.1955 58.9248 79.7592 60.6465C79.6825 60.7277 79.5676 60.6952 79.5485 60.5977C79.4294 59.2857 79.6335 57.9671 80.1479 56.7256C80.6622 55.4841 81.4755 54.3469 82.536 53.3864ZM107.049 51.7785C108.325 51.425 109.7 51.425 110.975 51.7785C112.848 52.2667 114.425 53.3489 115.38 54.7995C115.533 55.0431 115.706 55.5141 115.878 55.8064C116.855 56.2937 117.276 57.3819 116.395 58.1615L116.357 58.2102L116.242 58.3077C116.005 58.5065 115.71 58.6488 115.387 58.7201C115.064 58.7914 114.725 58.7892 114.403 58.7137C112.967 58.3564 112.795 57.3981 112.297 56.3749C111.956 55.6918 111.407 55.0977 110.707 54.6533C109.801 54.1364 108.775 53.7906 107.698 53.6393C106.621 53.488 105.518 53.5347 104.464 53.7762C104.368 53.7925 104.253 53.6788 104.311 53.6138C104.694 53.1915 104.885 52.8667 105.402 52.5419C105.9 52.217 106.456 51.9572 107.049 51.7785Z" fill="black"/>
<path fill-rule="evenodd" clip-rule="evenodd" d="M106.666 82.5558C104.885 81.2078 102.874 78.4954 100.327 80.6393C99.6953 81.2565 99.4272 82.6046 98.4696 82.8807C97.1674 83.2218 95.9034 82.0686 95.4629 81.1915C93.6627 76.2541 101.074 74.906 105.307 75.7018C107.375 76.4165 108.888 79.3237 108.984 80.8342C109.041 81.8412 108.026 83.3354 106.666 82.5558ZM120.129 74.971L120.053 74.7923C119.268 74.5324 118.636 74.7923 118.253 75.2796C118.253 75.3933 118.31 75.5069 118.329 75.6369C118.042 76.1566 117.755 76.8225 117.372 77.2773L117.123 77.2611C110.42 77.8458 113.695 71.9175 106.915 70.4395C101.668 69.7087 92.2073 70.5532 89.7368 75.1821C87.7834 82.5721 77.8632 77.4235 74.6075 73.5742C71.122 70.0822 68.8814 65.8107 66.7173 61.6528C66.2577 60.7757 64.8405 61.4092 64.9937 62.2537C62.9829 65.6645 63.0595 69.7411 62.5616 73.4605C61.7189 80.9317 60.8954 91.3588 69.0537 95.9065C79.6825 106.09 106.207 109.679 118.463 100.324C122.715 92.5932 122.179 83.1568 120.129 74.971Z" fill="black"/>
</svg>
