<svg width="150" height="200" viewBox="0 0 150 200" fill="none" xmlns="http://www.w3.org/2000/svg">
<path fill-rule="evenodd" clip-rule="evenodd" d="M144.643 173.743C143.507 168 142.511 162.236 141.655 156.455C141.464 155.137 141.176 153.648 142.172 152.689C143.57 151.32 144.853 150.156 145.007 148.204C145.16 146.373 144.47 144.37 144.049 142.59C143.116 138.859 142.011 135.164 140.736 131.515C139.472 127.801 138.074 124.121 136.657 120.458C135.335 117.034 134.071 113.559 132.348 110.273C129.092 104.025 123.538 99.4035 116.721 96.3053C114.997 95.5351 111.55 92.7963 109.769 92.1972C108.141 91.6152 108.141 93.2756 106.532 92.6423C105.249 92.1459 104.043 91.4954 103.334 90.3828C102.568 89.1846 100.595 87.49 100.289 86.1035C99.657 83.1252 100.346 80.5918 97.9909 78.3495C95.8226 76.3861 93.1043 74.9792 90.1198 74.2756C83.6659 72.6837 75.0863 73.7964 71.1987 79.154C69.341 81.7045 68.709 84.8026 66.1811 86.8738C63.9979 88.7053 64.4958 89.9549 61.6615 90.8792C61.4891 90.9306 57.1419 90.1089 56.9886 90.1603C53.8862 89.5612 50.9178 91.2216 48.0834 92.1801C43.8487 93.6254 39.8031 95.4793 36.0183 97.7089C28.4129 102.237 21.7774 107.948 16.4269 114.569C9.67761 122.864 4.71589 132.209 1.79554 142.128C1.46997 143.223 1.12525 144.353 1.50827 145.448C1.83384 146.356 2.54242 147.023 3.38507 147.571C4.53412 148.307 6.83224 148.769 6.77479 150.258C6.75564 151.388 6.31517 152.569 6.1045 153.682C5.85554 155 5.66403 156.335 5.45337 157.653C4.53412 163.712 3.80639 169.806 3.48082 175.9C3.05878 181.941 3.02681 187.999 3.38507 194.044C3.40422 194.438 3.53827 194.814 3.76809 195.105C3.57658 195.174 3.53827 195.516 3.78724 195.567L4.30431 195.653C4.69159 195.913 5.16076 196.056 5.64488 196.064L6.69818 196.098C10.3943 196.783 14.0905 197.45 17.8249 197.947C22.3828 198.546 26.9408 199.025 31.5178 199.436C40.9401 200.257 50.2858 199.984 59.6889 199.538C69.0898 199.094 78.5066 198.98 87.9175 199.196C97.3397 199.436 106.762 199.795 116.184 199.949C126.717 200.12 137.25 199.864 147.745 199.093C149.181 199.008 150.082 197.981 149.794 196.697C148.09 189.046 146.156 181.446 144.624 173.76L144.643 173.743Z" fill="#FFDBB4"/>
<path fill-rule="evenodd" clip-rule="evenodd" d="M48.0643 92.1802L48.2941 92.1117C51.071 91.136 53.9628 89.5784 56.9886 90.1603C57.0844 90.1261 59.0569 90.4856 60.4167 90.7081L59.1335 91.9063L56.8737 92.2657C64.6682 103.751 73.8798 109.503 84.5086 109.503C95.1374 109.503 103.219 103.751 108.715 92.2657L109.481 92.0946C109.558 92.0946 109.673 92.1288 109.769 92.163C111.55 92.7793 115.016 95.518 116.721 96.2883C123.538 99.3693 129.073 103.991 132.348 110.256C134.014 113.44 135.259 116.76 136.523 120.098L136.657 120.44C138.074 124.104 139.472 127.801 140.736 131.498C141.942 134.99 143.034 138.516 143.915 142.076L144.049 142.573C144.47 144.353 145.16 146.339 145.007 148.187C144.949 148.825 144.754 149.447 144.432 150.019L129.035 154.983L136.389 199.71C129.667 199.966 122.925 200.052 116.184 199.932C106.762 199.778 97.3397 199.419 87.9175 199.196C78.7824 198.991 69.6666 199.076 60.5316 199.487L58.2334 199.59C49.3357 200.12 40.4062 200.063 31.5178 199.419L30.9242 199.367V192.812L34.0458 156.369L18.1505 153.699L2.58071 146.938C2.09152 146.521 1.7234 146.004 1.50826 145.431C1.14439 144.404 1.4125 143.377 1.69977 142.35L1.79552 142.128C4.75835 132.223 9.71651 122.884 16.4269 114.569C21.7703 107.943 28.3992 102.227 35.9992 97.6919C39.7911 95.4666 43.8319 93.6009 48.0643 92.163V92.1802Z" fill="#8FA7DF"/>
<path fill-rule="evenodd" clip-rule="evenodd" d="M54.0394 89.9719C55.0161 89.9206 56.012 90.0746 56.9887 90.1431C57.0653 90.1602 57.1036 90.28 56.9887 90.2971C55.2651 90.6224 53.5415 91.0674 51.837 91.5125L51.1093 91.7179C49.1942 92.2314 47.3174 92.7449 45.4406 93.4296C41.7253 94.7818 38.2016 96.5962 34.9459 98.7016C22.4403 106.781 13.401 119.02 7.6749 131.686C5.74814 135.967 4.19233 140.373 3.02121 144.866C2.94461 145.14 2.6382 145.791 2.8297 146.065C2.96376 146.287 3.51914 146.424 3.78725 146.561L4.64905 146.955L9.47509 149.163L9.91557 149.351C17.1929 152.535 24.9299 155.239 33.0882 155.428L33.1648 154.794C33.4544 151.327 34.0889 147.89 35.0608 144.524C35.1182 144.353 35.3672 144.421 35.3864 144.575C35.9609 148.529 35.7694 152.518 35.5779 156.506C35.2332 163.524 34.7544 170.576 34.3331 177.611C34.1032 181.138 33.8351 184.629 33.5862 188.173C33.3372 191.682 33.2606 195.293 32.6861 198.785C32.5712 199.573 31.537 199.983 30.771 199.915C29.9283 199.829 29.258 199.145 29.2389 198.374C29.2389 196.338 29.5262 194.266 29.6985 192.247L30.1773 186.461C30.771 179.426 31.4796 172.391 32.1307 165.356C32.3605 162.861 32.603 160.368 32.8584 157.875C24.2022 157.619 16.1205 154.743 8.40264 151.405C8.28773 153.665 8.01962 155.941 7.75151 158.184C7.02377 164.483 6.39179 170.782 5.91301 177.098C5.52311 182.382 5.25494 187.672 5.10867 192.965L5.07037 194.164C5.07037 194.917 4.97461 195.619 4.24688 196.166C3.53829 196.731 2.54244 196.765 1.83385 196.166C0.876306 195.379 1.02951 194.301 1.06782 193.239C1.14024 190.545 1.25516 187.852 1.41253 185.16C1.79136 178.89 2.46223 172.637 3.42339 166.417L3.8064 164.02C4.47669 159.57 5.24273 155 6.77481 150.686C6.18113 150.429 5.58745 150.173 4.99377 149.882C3.94046 149.42 2.84886 148.957 1.8147 148.444C1.01036 148.016 0.301777 147.451 0.0911159 146.595C-0.176998 145.654 0.206022 144.627 0.474135 143.702V143.634C1.73959 138.95 3.44366 134.369 5.56829 129.94C8.90893 122.791 13.2735 116.059 18.5527 109.913C23.2512 104.319 28.9985 99.4951 35.5396 95.6548C38.7551 93.8098 42.2164 92.3319 45.8428 91.2557C48.4856 90.456 51.2499 90.0231 54.0394 89.9719ZM71.2944 78.6746C72.4435 77.562 74.7608 78.7089 74.2054 80.1809C73.0183 83.6677 70.7067 86.7639 67.56 89.0818C64.5853 91.3267 60.7605 92.4662 56.8738 92.2656L57.1993 92.6764C59.7666 95.956 62.727 98.9751 66.0279 101.68C72.9223 107.021 82.2679 109.896 91.3072 107.842C98.4122 106.233 104.675 101.201 106.513 94.7989C106.264 94.9016 105.939 94.953 105.594 94.8845C104.119 94.5935 102.664 93.207 101.706 92.2143C100.691 91.1359 99.8868 89.989 99.2932 88.671C98.2207 86.2746 97.876 83.1764 99.3506 80.8485C99.5421 80.5575 99.9251 80.7287 99.9826 81.0197L100.04 81.4476C100.327 83.6215 100.672 85.7269 101.821 87.7125C102.684 89.2207 103.868 90.5639 105.307 91.6665C105.804 92.0089 106.417 92.2827 106.858 92.6935L106.954 92.762C107.068 91.9062 107.739 91.5125 108.409 91.5296C109.041 91.5638 109.807 91.8034 110.094 91.9233L110.113 91.9404C114.561 93.9057 118.744 96.3176 122.581 99.1296C130.635 104.755 136.547 112.467 139.51 121.211C140.947 125.541 141.77 130.009 142.632 134.459L143.168 137.198C143.972 141.289 144.872 145.483 146.692 149.3C147.171 150.275 146.807 151.2 145.639 151.593C144.207 152.083 142.77 152.562 141.33 153.031C142.038 155.77 142.479 158.594 142.996 161.333C144.145 167.17 145.524 172.973 146.711 178.793C147.324 181.788 147.879 184.783 148.492 187.745L149.392 192.058L149.852 194.386L149.871 194.506C149.967 194.917 150.062 195.345 149.947 195.756C149.794 196.218 149.392 196.543 149.028 196.885C148.722 197.159 148.301 197.159 147.937 197.005L147.803 196.954C147.151 196.68 146.654 196.406 146.405 195.756C146.27 195.328 146.213 194.865 146.117 194.438C145.602 191.953 145.104 189.465 144.624 186.974L144.317 185.417C143.321 180.042 142.364 174.65 141.866 169.241C141.674 166.845 141.425 164.431 141.195 162.018L141.023 160.22C140.812 157.944 140.544 155.599 140.506 153.288L139.644 153.562L135.393 154.914C134.339 155.257 132.999 155.941 131.869 155.804C131.314 155.753 130.911 155.599 130.567 155.308C130.95 160.238 131.486 165.133 132.195 170.029C133.299 177.773 134.704 185.48 136.408 193.137C136.523 193.684 136.676 194.232 136.772 194.78C136.867 195.413 136.676 195.79 136.293 196.32C135.967 196.731 135.335 196.954 134.799 196.663C134.11 196.269 133.746 195.927 133.554 195.225C133.363 194.592 133.248 193.924 133.114 193.274C132.303 189.567 131.575 185.846 130.931 182.113C129.437 173.212 128.498 164.243 128.02 155.274C127.791 150.838 127.702 146.397 127.752 141.957C127.752 139.68 127.847 137.403 128.02 135.127C128.211 132.833 128.594 130.591 128.939 128.314C128.939 128.229 129.073 128.229 129.073 128.314C129.226 130.865 129.475 133.415 129.609 135.966C129.724 138.413 129.782 140.844 129.877 143.292C129.992 146.493 130.165 149.711 130.394 152.911C130.596 152.71 130.85 152.557 131.134 152.464C131.418 152.371 131.723 152.343 132.022 152.381C132.922 152.21 133.88 151.799 134.722 151.525L137.94 150.584L142.996 149.094C141.533 144.551 140.382 139.932 139.549 135.264L139.165 133.158C138.399 129.016 137.538 124.857 136.14 120.834C134.664 116.637 132.411 112.691 129.475 109.16C126.485 105.702 123.103 102.53 119.383 99.6944C116.242 97.2296 112.929 95.0043 109.73 92.6079C109.75 92.762 109.769 92.9503 109.73 93.1215C109.06 97.5548 106.475 101.68 102.874 104.744C95.6545 110.906 84.9491 112.173 75.68 109.28C66.7365 106.49 58.8272 99.8656 56.0311 91.6836C55.9737 91.5467 56.1843 91.5125 56.2801 91.598L56.7397 92.1629C56.7397 92.0944 56.778 92.0089 56.8738 91.9917C60.2159 90.9184 63.2598 89.2136 65.7981 86.9935C67.5678 85.3545 68.9545 83.4168 69.8773 81.2936L69.9539 81.1224C70.2794 80.2665 70.5667 79.3764 71.2944 78.6918V78.6746Z" fill="black"/>
<path fill-rule="evenodd" clip-rule="evenodd" d="M85.694 13.4072C96.5488 13.4072 112.449 19.8946 113.634 26.1423C115.029 33.5027 118.163 61.1639 116.462 70.2189C114.742 79.2738 108.13 85.9666 93.4528 85.9666C78.7759 85.9666 67.8065 78.7945 65.303 76.3296C62.7804 73.8648 59.7418 66.2135 59.7418 66.2135C59.7418 66.2135 51.7154 64.9981 51.658 59.2468C51.6198 53.5126 55.7095 51.7495 55.7095 51.7495C55.7095 51.7495 53.5118 27.9568 58.1174 22.0514C62.7613 16.146 74.8583 13.4072 85.694 13.4072Z" fill="#FFDBB4"/>
<path d="M118.469 43.7045C119.042 49.4901 119.271 55.3441 119.405 61.1297C119.501 66.6414 118.965 72.3756 115.468 77.0828C112.411 81.1909 107.748 84.1864 102.549 85.7954C99.5327 86.6553 96.3892 87.1053 93.2235 87.1306C91.5991 87.1819 89.9747 87.1306 88.3885 86.9594L87.777 86.908C86.4393 86.8053 85.0824 86.7026 84.0887 85.7783C83.7829 85.4873 83.7829 84.9053 84.2415 84.717C84.9986 84.3805 85.8588 84.2781 86.6877 84.4261C89.1946 84.7373 91.7311 84.8118 94.2555 84.6486C97.4623 84.4075 100.595 83.6538 103.505 82.4234C108.088 80.5838 111.797 77.3523 113.978 73.2999C116.366 68.627 116.233 63.2009 116.137 58.1513V57.9459C116.003 52.3486 115.755 46.7684 115.22 41.1883C114.789 37.0562 114.19 32.9397 113.423 28.8469L113.118 27.5631L112.869 26.6216L112.487 26.6559C111.684 26.6559 110.805 26.4847 110.213 25.9883C109.956 26.1375 109.659 26.2204 109.353 26.2279C107.232 26.3306 105.091 26.2793 102.951 26.2279C98.479 26.2071 94.0071 26.1957 89.5352 26.1937H88.0063C84.6172 26.2269 81.2277 26.204 77.8395 26.1252C75.336 26.091 72.7943 26.0568 70.3482 25.646C69.3353 28.8982 69.3735 32.4414 71.4948 35.3513C72.0872 36.1559 71.6095 37.1144 70.8259 37.6279C69.8134 38.3453 68.6186 38.8275 67.3478 39.0315C67.2353 39.272 67.1206 39.5116 67.0038 39.7504C66.0901 41.5549 65.4228 43.4515 65.0163 45.3991C65.0273 45.5304 65.0401 45.6617 65.0545 45.7928L65.0928 45.9297L65.131 46.1694L65.303 46.9225C65.4941 47.7441 65.6087 48.5657 65.7043 49.3874C65.8954 50.8937 65.8763 52.845 64.2328 53.7351C63.3537 54.2144 62.3217 54.163 61.3662 53.8549C60.8502 53.6838 60.4107 53.427 59.9329 53.1702L59.6462 53.0333C59.4934 52.9477 59.3405 52.8621 59.1876 52.8108C58.9965 52.7081 58.8054 52.6396 58.6143 52.5198L58.3658 52.3486C56.8171 52.6556 55.4257 53.4141 54.4099 54.5054C53.7366 55.2418 53.2398 56.0944 52.9505 57.0103C52.6612 57.9262 52.5855 58.8856 52.7282 59.8288C52.9193 61.5919 53.6837 63.5945 55.2126 64.7585C55.7056 65.1415 56.3043 65.3992 56.9463 65.5045C57.5883 65.6099 58.2501 65.5592 58.8627 65.3576L59.436 65.2891C59.7036 65.2549 59.9711 65.2378 60.1813 65.1522C60.7547 64.9468 61.4426 65.5801 61.2133 66.0936L61.0795 66.4189C60.9649 66.6585 60.8884 66.8982 60.7164 67.1036C62.3041 69.4195 64.0264 71.6593 65.8763 73.8135C67.0611 75.1828 68.3607 76.381 69.6984 77.6134L71.361 79.154C72.1637 79.9414 72.5077 81.4819 71.0361 81.8243C69.7366 82.1152 68.7238 81.054 67.9211 80.1981L67.6153 79.8729C64.0648 76.3797 61.5254 72.1597 60.2196 67.5828C59.6462 67.9252 59.0156 68.1306 58.3276 68.2162C56.9855 68.379 55.621 68.1382 54.4482 67.5315C49.9763 65.2207 48.9061 58.9729 50.9892 55.036C51.4983 54.0921 52.2361 53.2618 53.1486 52.6054C53.0722 52.4856 53.0531 52.3486 53.0913 52.1946L53.3589 51.3901C53.2442 51.3387 53.1678 51.2531 53.1869 51.1333L53.3971 49.182L53.4353 48.8396L53.4162 47.7612C53.378 46.9567 53.3589 46.1522 53.3589 45.3306C53.3589 44.4748 53.4162 43.5847 53.4353 42.7288L53.5309 39.7333C53.5309 36.4982 53.6073 33.2631 53.6837 30.045C53.8521 23.5645 53.8839 17.0817 53.7793 10.6V10.5316L53.722 9.33337C53.5691 6.98833 53.378 4.33518 55.7286 2.94869C55.9555 2.82294 56.2129 2.74796 56.479 2.73008C56.7451 2.71221 57.0121 2.75196 57.2574 2.84599C58.7513 2.00201 60.4349 1.46425 62.1879 1.27122C64.7297 0.911759 67.2714 0.689237 69.8322 0.466714L72.0681 0.278426C73.7881 0.107255 75.5845 0.0559042 77.3044 0.107255L80.0181 0.0559042C80.8781 0.02167 81.7381 -0.0125642 82.5789 0.00455291C84.6325 0.0227492 86.6849 0.102674 88.7325 0.244192L88.8854 0.227075C91.9049 -0.0296813 94.9435 0.107255 97.982 0.227075C98.7082 0.278426 99.4344 0.312661 100.18 0.329778C103.773 0.466714 107.556 0.809056 110.786 2.34959C111.167 2.53031 111.521 2.75472 111.837 3.01716C112.258 3.06851 112.659 3.18833 113.022 3.3595C114.054 3.17121 115.22 3.58203 115.468 4.6604C115.851 6.25137 115.941 7.88753 115.736 9.50454V9.55589C116.156 11.0451 116.118 12.6712 115.774 14.1262C115.95 16.2621 116.032 18.4034 116.022 20.5451C116.042 21.555 116.061 22.5649 115.965 23.5577C115.842 24.6319 115.332 25.6411 114.513 26.4333C114.36 26.6045 114.092 26.6045 113.882 26.5874L113.729 26.536C114.13 27.3063 114.474 28.1108 114.799 28.9153L115.01 29.4288C115.667 30.9396 116.229 32.4826 116.691 34.0504C117.57 37.2342 118.144 40.4522 118.488 43.7045H118.469Z" fill="black"/>
<path d="M57.5632 58.0484L56.9899 57.7403C56.9899 57.7403 55.9388 57.4322 56.1299 57.8259C56.2063 57.9628 56.0152 58.1169 55.9006 57.997C55.5184 57.6547 55.7286 57.261 56.0917 56.97C56.7032 56.4394 57.6205 56.5592 58.3849 56.679C59.4742 56.8502 60.4871 57.2781 61.4044 57.8088C62.3599 58.3907 63.5639 59.1781 63.755 60.2907C63.9461 61.2835 62.7995 62.3961 61.6528 61.7286C61.0413 61.3691 60.6018 60.8214 60.1622 60.2736C59.5114 59.4283 58.68 58.7069 57.7161 58.1511L57.5632 58.0484Z" fill="black"/>
<path fill-rule="evenodd" clip-rule="evenodd" d="M106.092 71.5711C107.317 71.3143 108.256 72.2387 108.026 73.2828C107.777 74.4125 106.436 74.7891 105.307 74.7549C104.023 74.7206 102.759 74.481 101.476 74.4297C100.136 74.3783 98.8335 74.3783 97.5121 74.4125C96.2865 74.4297 95.0225 74.6351 93.816 74.4639C93.3564 74.3954 93.3947 73.8306 93.7011 73.6423C94.6203 73.0432 95.8077 72.8035 96.861 72.5639C99.0722 72.0394 101.353 71.786 103.64 71.8107C104.158 71.8107 104.789 71.9134 105.307 71.8107C105.556 71.7765 105.824 71.6396 106.111 71.5711H106.092ZM102.606 57.0729C104.062 57.8603 106.245 59.6918 104.713 61.6261C102.874 63.3378 100.232 61.3864 98.9293 60.4963C97.7228 59.8117 96.3822 61.5747 97.493 62.3792C106.877 68.5927 110.707 57.2783 103.334 56.1486C102.53 56.0117 102.223 56.8333 102.606 57.0729ZM92.1307 51.1846C94.0458 50.8937 94.3905 53.3585 92.4754 53.5297L91.2689 53.6324L91.3647 53.9747L91.403 54.3171C91.4604 54.9162 90.9816 55.5495 90.4263 55.8405C89.8517 56.1486 88.9899 56.1828 88.4154 55.8405C88.0977 55.6759 87.8336 55.4398 87.6494 55.1558C87.4304 54.8486 87.311 54.493 87.3047 54.1288C86.4237 54.3513 85.5236 54.6423 84.6235 54.7792L84.7193 54.8648C84.7384 54.8991 84.7193 54.9333 84.681 54.9162L84.2405 54.8306L83.8192 54.8648C83.5894 54.8648 83.3979 54.6081 83.6277 54.4198C84.5334 53.6851 85.5949 53.1205 86.7493 52.7594L87.8217 52.3657C89.2006 51.8522 90.6561 51.4072 92.1307 51.1675V51.1846ZM107.681 51.9378C108.945 51.818 110.209 51.8693 111.473 51.9378C113.618 52.0576 112.718 54.8477 110.994 54.1973C111.014 54.3 111.033 54.4027 110.994 54.4882C110.937 54.9846 110.765 55.3955 110.267 55.6522C110.034 55.7724 109.77 55.8357 109.501 55.8357C109.232 55.8357 108.968 55.7724 108.735 55.6522C108.514 55.5347 108.325 55.3759 108.179 55.1868C108.034 54.9978 107.936 54.7828 107.892 54.5567C107.777 54.1801 107.835 53.872 107.892 53.5126C107.892 53.3928 107.969 53.2729 108.045 53.1702L107.681 53.1018C106.609 52.8792 105.575 52.9306 104.502 52.7937C104.387 52.7765 104.368 52.6225 104.464 52.5711C105.421 52.1603 106.647 52.0576 107.681 51.9378ZM91.92 43.3621C92.6669 43.1225 93.5862 43.5333 93.95 44.0982C94.3714 44.7486 94.199 45.5018 93.6628 46.0324C92.8776 46.8883 91.3455 47.4018 90.2156 47.8639L90.1199 47.9153C87.2352 49.2063 84.149 50.1008 80.9657 50.5684C80.4486 50.6198 80.0464 50.4828 79.5485 50.4828C79.4719 50.4828 79.4528 50.3973 79.5102 50.363C79.9698 50.1063 80.3146 49.7639 80.8316 49.5072L82.4212 48.7711C84.6292 47.738 86.7595 46.5773 88.7984 45.2964C89.8134 44.6459 90.7518 43.7558 91.92 43.3621ZM104.943 42.8486C105.862 42.6775 106.781 43.054 107.049 43.8757C107.298 44.6802 107.049 44.8513 107.72 45.4162C108.294 45.8783 108.869 46.2892 109.462 46.6829L110.343 47.282C111.952 48.3261 113.561 49.336 115.399 50.0378C115.552 50.1063 115.457 50.3117 115.323 50.3117C112.44 50.441 109.566 49.9355 106.954 48.8396C105.67 48.3533 104.573 47.5446 103.794 46.5117C102.97 45.2621 102.989 43.1738 104.981 42.8315L104.943 42.8486Z" fill="black"/>
</svg>
