<svg width="231" height="231" viewBox="0 0 231 231" fill="none" xmlns="http://www.w3.org/2000/svg">
<g clip-path="url(#clip0_252_181)">
<path d="M115.5 51.75C99.5037 51.749 84.0916 57.7618 72.3221 68.5951C60.5527 79.4284 53.286 94.2904 51.9641 110.232C50.6423 126.174 55.3618 142.03 65.1863 154.653C75.0107 167.277 89.222 175.746 105 178.38V192.47C85.782 194.224 67.3099 200.766 51.271 211.497C70.2777 224.215 92.632 231.003 115.501 231.003C138.37 231.003 160.724 224.215 179.731 211.497C163.692 200.765 145.22 194.223 126.002 192.468V178.384C140.883 175.899 154.401 168.217 164.151 156.703C173.902 145.189 179.252 130.59 179.252 115.503C179.252 98.6128 172.549 82.4128 160.615 70.4603C148.682 58.5077 132.492 51.7795 115.602 51.753C115.569 51.753 115.536 51.753 115.502 51.753L115.5 51.75Z" fill="#F2C280"/>
<path d="M141.74 195.003C155.268 198.151 168.113 203.724 179.652 211.453L179.722 211.503C178.552 212.293 177.362 213.053 176.162 213.793C157.989 224.999 137.067 230.95 115.717 230.987C94.3668 231.024 73.424 225.146 55.2121 214.003C53.8787 213.183 52.5453 212.337 51.2119 211.463C62.7737 203.704 75.6507 198.113 89.2139 194.963C94.4142 193.772 99.6903 192.94 105.005 192.473V177.903C106.325 178.123 107.655 178.293 109.005 178.413C111.005 178.603 113.005 178.693 115.125 178.703C118.096 178.702 121.063 178.495 124.006 178.083C124.676 177.993 125.346 177.883 126.006 177.773V192.463C131.304 192.954 136.563 193.803 141.747 195.003H141.74Z" fill="#0E00B1"/>
<path d="M79.2921 212.004C78.9509 212.596 78.7928 213.276 78.8378 213.959C78.8829 214.641 79.1291 215.294 79.5453 215.837C79.9615 216.379 80.5291 216.786 81.1764 217.006C81.8237 217.226 82.5217 217.25 83.1823 217.074C83.6227 216.96 84.0356 216.759 84.3965 216.483C84.7573 216.206 85.0587 215.859 85.2824 215.464C85.7354 214.667 85.855 213.724 85.6152 212.84C85.3754 211.956 84.7956 211.202 84.0023 210.744C83.61 210.516 83.1762 210.369 82.7264 210.31C82.2766 210.252 81.8197 210.284 81.3822 210.404C80.5043 210.646 79.7549 211.219 79.2921 212.004ZM139.414 212.464C138.967 213.251 138.843 214.181 139.068 215.058C139.294 215.935 139.852 216.69 140.624 217.164H140.684C141.479 217.62 142.422 217.743 143.307 217.505C144.192 217.267 144.946 216.687 145.404 215.894L145.474 215.764C145.888 214.972 145.979 214.051 145.729 213.194C145.48 212.337 144.908 211.609 144.134 211.164C143.349 210.726 142.423 210.611 141.554 210.844C140.672 211.088 139.919 211.665 139.454 212.454L139.414 212.464ZM149.215 218.164L155.075 224.034C153.685 224.534 152.285 225.034 150.865 225.474L146.384 221.004C145.779 221.363 145.126 221.636 144.444 221.814C143.442 222.087 142.395 222.157 141.365 222.022C140.335 221.886 139.342 221.547 138.444 221.024C136.646 219.987 135.33 218.282 134.783 216.28C134.237 214.278 134.503 212.14 135.524 210.334V210.264C136.572 208.455 138.294 207.136 140.313 206.596C142.332 206.056 144.483 206.339 146.294 207.384L146.414 207.454C148.173 208.509 149.45 210.211 149.971 212.196C150.492 214.18 150.217 216.289 149.204 218.074V218.144L149.215 218.164ZM111.514 215.804L102.013 225.314V230.214C100.663 230.054 99.333 229.884 98.0129 229.674V223.674L98.5929 223.094L108.693 213.004C107.738 211.348 107.419 209.401 107.794 207.527C108.17 205.653 109.215 203.98 110.733 202.819C112.252 201.659 114.141 201.091 116.048 201.221C117.955 201.352 119.749 202.172 121.096 203.528C122.443 204.884 123.25 206.684 123.367 208.592C123.484 210.499 122.903 212.384 121.732 213.895C120.561 215.405 118.88 216.438 117.003 216.8C115.127 217.163 113.182 216.83 111.533 215.864L111.514 215.804ZM118.834 209.894C119.041 209.12 118.974 208.299 118.643 207.57C118.312 206.841 117.739 206.249 117.021 205.895C116.303 205.541 115.484 205.447 114.705 205.629C113.925 205.811 113.233 206.258 112.746 206.893C112.258 207.529 112.007 208.313 112.033 209.113C112.06 209.913 112.363 210.68 112.891 211.281C113.42 211.883 114.14 212.283 114.93 212.413C115.72 212.542 116.531 212.394 117.224 211.994C117.62 211.77 117.966 211.469 118.243 211.108C118.519 210.747 118.72 210.334 118.834 209.894ZM89.0928 217.714L92.1829 220.814L92.7729 221.404V228.764C91.4328 228.504 90.0928 228.214 88.7727 227.894V223.054L86.2626 220.544C85.6571 220.903 85.004 221.176 84.3225 221.354C83.0703 221.689 81.7546 221.711 80.4921 221.416C79.2296 221.122 78.0593 220.52 77.0849 219.665C76.1104 218.81 75.362 217.728 74.906 216.514C74.45 215.301 74.3004 213.993 74.4705 212.708C74.6406 211.423 75.1252 210.2 75.8812 209.147C76.6373 208.094 77.6415 207.243 78.8049 206.671C79.9682 206.099 81.2547 205.823 82.5504 205.867C83.846 205.911 85.1108 206.274 86.2326 206.924C87.1284 207.44 87.9138 208.127 88.5438 208.946C89.1739 209.766 89.6363 210.702 89.9047 211.7C90.1731 212.698 90.2422 213.74 90.108 214.765C89.9738 215.79 89.639 216.778 89.1227 217.674L89.0928 217.714Z" fill="#D1FFFE"/>
<path d="M32.9022 67.6641C32.5392 69.3868 26.668 98.3591 38.5155 120.26C43.0998 128.734 47.5236 133.499 51.2655 136.153C48.9725 129.268 47.8012 122.06 47.7967 114.803C47.793 108.84 48.5771 102.903 50.1287 97.1451C45.6373 94.6805 39.2607 90.2439 36.2947 83.6251C32.1321 74.3401 32.6793 68.9521 32.9022 67.6641ZM198.092 67.6641C198.315 68.9523 198.862 74.34 194.7 83.6251C191.733 90.2434 185.357 94.6801 180.866 97.1451C182.417 102.903 183.201 108.84 183.198 114.803C183.193 122.06 182.022 129.268 179.729 136.153C183.471 133.5 187.894 128.735 192.479 120.26C204.326 98.3601 198.455 69.3871 198.092 67.6641Z" fill="white"/>
<path d="M115.73 13.1897C108.351 13.0562 102.221 18.9785 102.099 26.3577C101.998 32.2404 105.55 36.8757 110.155 38.8777C111.216 39.3389 112.342 39.6578 113.497 39.8347V48.2638C114.165 48.2435 114.833 48.2331 115.501 48.2326C116.167 48.2325 116.832 48.2423 117.497 48.2619V39.8504C120.097 39.4663 122.656 38.302 124.806 36.2254C129.038 32.1376 129.805 26.3499 127.964 21.6764C126.123 17.0038 121.614 13.293 115.732 13.1901L115.73 13.1897Z" fill="white"/>
<path d="M161.73 86.0156H69.2198C65.8498 86.0156 63.2197 88.4154 63.2197 91.3155V119.766C63.2197 122.766 65.9597 125.066 69.2198 125.066H101.58C108.67 125.066 109.02 105.636 115.4 105.636C121.78 105.636 122.28 125.076 129.23 125.076H161.59C164.96 125.076 167.59 122.676 167.59 119.776V91.3155C167.73 88.4154 164.99 86.0156 161.69 86.0156H161.73Z" fill="#1F2644"/>
<path d="M161.73 86.0156H69.2198C65.8498 86.0156 63.2197 88.4154 63.2197 91.3155V119.766L167.77 91.3155C167.77 88.4154 165.03 86.0156 161.77 86.0156H161.73Z" fill="#9B97CE"/>
<path d="M161.73 86.0156H69.2198C65.8498 86.0156 63.2197 88.4154 63.2197 91.3155V119.766C63.2197 122.766 65.9597 125.066 69.2198 125.066H101.58C108.67 125.066 109.02 105.636 115.4 105.636C121.78 105.636 122.28 125.076 129.23 125.076H161.59C164.96 125.076 167.59 122.676 167.59 119.776V91.3155C167.73 88.4154 164.99 86.0156 161.69 86.0156H161.73Z" stroke="#301E19" stroke-width="4.0026" stroke-linecap="round" stroke-linejoin="round"/>
<path d="M121.61 160.742H109.39L115.5 171.312L121.61 160.742Z" fill="#FF9809"/>
<path d="M132.64 144.062C127.429 147.05 121.527 148.622 115.52 148.622C109.513 148.622 103.611 147.05 98.3999 144.062" stroke="black" stroke-width="5.9998" stroke-linecap="round" stroke-linejoin="round"/>
</g>
<defs>
<clipPath id="clip0_252_181">
<rect width="231" height="231" fill="white"/>
</clipPath>
</defs>
</svg>
