<svg width="231" height="231" viewBox="0 0 231 231" fill="none" xmlns="http://www.w3.org/2000/svg">
<g clip-path="url(#clip0_252_194)">
<path d="M115.5 51.75C99.5037 51.749 84.0916 57.7618 72.3221 68.5951C60.5527 79.4284 53.286 94.2904 51.9641 110.232C50.6423 126.174 55.3618 142.03 65.1863 154.653C75.0107 167.277 89.222 175.746 105 178.38V192.47C85.782 194.224 67.3099 200.766 51.271 211.497C70.2777 224.215 92.632 231.003 115.501 231.003C138.37 231.003 160.724 224.215 179.731 211.497C163.692 200.765 145.22 194.223 126.002 192.468V178.384C140.883 175.899 154.401 168.217 164.151 156.703C173.902 145.189 179.252 130.59 179.252 115.503C179.252 98.6128 172.549 82.4128 160.615 70.4603C148.682 58.5077 132.492 51.7795 115.602 51.753C115.569 51.753 115.536 51.753 115.502 51.753L115.5 51.75Z" fill="#B27E5B"/>
<path d="M88.1798 194.109C83.9719 195.13 79.8253 196.389 75.7598 197.879V223.951C101.419 233.353 129.581 233.353 155.24 223.951V197.879C151.154 196.388 146.987 195.13 142.76 194.109V202.814C142.76 212.203 135.149 219.814 125.76 219.814H105.18C95.791 219.814 88.1798 212.203 88.1798 202.814V194.109Z" fill="#FF14E4"/>
<path d="M32.9022 67.6641C32.5392 69.3868 26.668 98.3591 38.5155 120.26C43.0998 128.734 47.5236 133.499 51.2655 136.153C48.9725 129.268 47.8012 122.06 47.7967 114.803C47.793 108.84 48.5771 102.903 50.1287 97.1451C45.6373 94.6805 39.2607 90.2439 36.2947 83.6251C32.1321 74.3401 32.6793 68.9521 32.9022 67.6641ZM198.092 67.6641C198.315 68.9523 198.862 74.34 194.7 83.6251C191.733 90.2434 185.357 94.6801 180.866 97.1451C182.417 102.903 183.201 108.84 183.198 114.803C183.193 122.06 182.022 129.268 179.729 136.153C183.471 133.5 187.894 128.735 192.479 120.26C204.326 98.3601 198.455 69.3871 198.092 67.6641Z" fill="white"/>
<path d="M115.73 13.1897C108.351 13.0562 102.221 18.9785 102.099 26.3577C101.998 32.2404 105.55 36.8757 110.155 38.8777C111.216 39.3389 112.342 39.6578 113.497 39.8347V48.2638C114.165 48.2435 114.833 48.2331 115.501 48.2326C116.167 48.2325 116.832 48.2423 117.497 48.2619V39.8504C120.097 39.4663 122.656 38.302 124.806 36.2254C129.038 32.1376 129.805 26.3499 127.964 21.6764C126.123 17.0038 121.614 13.293 115.732 13.1901L115.73 13.1897Z" fill="white"/>
<path d="M145.39 104.703L133.87 115.903H151.13M85.6101 104.703L97.1301 115.903H79.8701" stroke="black" stroke-width="5.4998" stroke-linecap="round" stroke-linejoin="round"/>
<path d="M115.5 161.712C107.26 161.712 101.04 157.562 96.3101 150.462C99.6801 148.022 102.82 145.892 106.31 143.672C107.119 143.142 108.059 142.845 109.026 142.815C109.993 142.785 110.95 143.023 111.79 143.502C113.09 144.317 114.32 145.237 115.47 146.252C116.62 145.237 117.851 144.317 119.15 143.502C119.99 143.023 120.947 142.785 121.914 142.815C122.881 142.845 123.821 143.142 124.63 143.672C128.15 145.892 131.29 148.022 134.63 150.462C129.89 157.562 123.63 161.712 115.44 161.712H115.5Z" fill="#D12823"/>
</g>
<defs>
<clipPath id="clip0_252_194">
<rect width="231" height="231" fill="white"/>
</clipPath>
</defs>
</svg>
