<svg width="150" height="200" viewBox="0 0 150 200" fill="none" xmlns="http://www.w3.org/2000/svg">
<path fill-rule="evenodd" clip-rule="evenodd" d="M144.643 173.494C143.507 167.696 142.511 161.878 141.655 156.041C141.464 154.711 141.176 153.207 142.172 152.24C143.57 150.857 144.853 149.682 145.007 147.713C145.16 145.864 144.47 143.842 144.049 142.045C143.116 138.279 142.011 134.549 140.736 130.865C139.472 127.115 138.074 123.4 136.657 119.702C135.335 116.247 134.071 112.739 132.348 109.421C129.092 103.114 123.538 98.4486 116.721 95.321C114.997 94.5434 111.55 91.7787 109.769 91.1739C108.141 90.5864 108.141 92.2626 106.532 91.6232C105.249 91.1221 104.043 90.4655 103.334 89.3423C102.568 88.1327 100.595 86.4221 100.289 85.0224C99.657 82.0158 100.346 79.4584 97.9909 77.1948C95.8226 75.2128 93.1043 73.7925 90.1198 73.0823C83.6659 71.4753 75.0863 72.5984 71.1987 78.0069C69.341 80.5816 68.709 83.7092 66.1811 85.8C63.9979 87.6489 64.4958 88.9103 61.6615 89.8434C61.4891 89.8953 57.1419 89.0658 56.9886 89.1177C53.8862 88.5129 50.9178 90.189 48.0834 91.1567C43.8487 92.6156 39.8031 94.4871 36.0183 96.7379C28.4129 101.309 21.7774 107.074 16.4269 113.758C9.67761 122.132 4.71589 131.566 1.79554 141.578C1.46997 142.684 1.12525 143.825 1.50827 144.931C1.83384 145.846 2.54242 146.52 3.38507 147.073C4.53412 147.816 6.83224 148.283 6.77479 149.786C6.75564 150.927 6.31517 152.119 6.1045 153.242C5.85554 154.573 5.66403 155.92 5.45337 157.251C4.53412 163.368 3.80639 169.519 3.48082 175.671C3.05878 181.77 3.02681 187.885 3.38507 193.987C3.40422 194.385 3.53827 194.765 3.76809 195.059C3.57658 195.128 3.53827 195.473 3.78724 195.525L4.30431 195.611C4.69159 195.874 5.16076 196.019 5.64488 196.026L6.69818 196.061C10.3943 196.752 14.0905 197.426 17.8249 197.927C22.3828 198.532 26.9408 199.016 31.5178 199.43C40.9401 200.26 50.2858 199.983 59.6889 199.534C69.0898 199.085 78.5066 198.97 87.9175 199.188C97.3397 199.43 106.762 199.793 116.184 199.949C126.717 200.121 137.25 199.862 147.745 199.085C149.181 198.998 150.082 197.961 149.794 196.666C148.09 188.942 146.156 181.269 144.624 173.511L144.643 173.494Z" fill="#FFDBB4"/>
<path fill-rule="evenodd" clip-rule="evenodd" d="M48.0643 91.1566L48.2941 91.0875C51.071 90.1025 53.9628 88.5301 56.9886 89.1176C57.0844 89.083 59.0569 89.4459 60.4167 89.6705L59.1335 90.8801L56.8737 91.243C64.6682 102.838 73.8798 108.643 84.5086 108.643C95.1374 108.643 103.219 102.838 108.715 91.243L109.481 91.0702C109.558 91.0702 109.673 91.1047 109.769 91.1393C111.55 91.7614 115.016 94.5261 116.721 95.3037C123.538 98.414 129.073 103.079 132.348 109.404C134.014 112.618 135.259 115.97 136.523 119.34L136.657 119.685C138.074 123.383 139.472 127.115 140.736 130.848C141.942 134.373 143.034 137.932 143.915 141.526L144.049 142.028C144.47 143.825 145.16 145.829 145.007 147.695C144.949 148.339 144.754 148.967 144.432 149.544L129.035 154.555L136.389 199.707C129.667 199.966 122.925 200.052 116.184 199.931C106.762 199.776 97.3397 199.413 87.9175 199.188C78.7824 198.981 69.6666 199.067 60.5316 199.482L58.2334 199.586C49.3357 200.121 40.4062 200.063 31.5178 199.413L30.9242 199.361V192.743L34.0458 155.955L18.1505 153.259L2.58071 146.434C2.09152 146.013 1.7234 145.491 1.50826 144.913C1.14439 143.876 1.4125 142.84 1.69977 141.803L1.79552 141.578C4.75835 131.58 9.71651 122.152 16.4269 113.758C21.7703 107.069 28.3992 101.299 35.9992 96.7206C39.7911 94.4743 43.8319 92.5908 48.0643 91.1393V91.1566Z" fill="#E279C7"/>
<path fill-rule="evenodd" clip-rule="evenodd" d="M54.0394 88.9276C55.0161 88.8758 56.012 89.0313 56.9887 89.1004C57.0653 89.1177 57.1036 89.2386 56.9887 89.2559C55.2651 89.5842 53.5415 90.0335 51.837 90.4828L51.1093 90.6901C49.1942 91.2085 47.3174 91.7269 45.4406 92.4181C41.7253 93.7831 38.2016 95.6148 34.9459 97.7402C22.4403 105.896 13.401 118.251 7.6749 131.038C5.74814 135.359 4.19233 139.807 3.02121 144.343C2.94461 144.62 2.6382 145.276 2.8297 145.553C2.96376 145.777 3.51914 145.916 3.78725 146.054L4.64905 146.451L9.47509 148.68L9.91557 148.87C17.1929 152.084 24.9299 154.814 33.0882 155.005L33.1648 154.365C33.4544 150.865 34.0889 147.396 35.0608 143.997C35.1182 143.825 35.3672 143.894 35.3864 144.049C35.9609 148.041 35.7694 152.067 35.5779 156.093C35.2332 163.178 34.7544 170.297 34.3331 177.399C34.1032 180.958 33.8351 184.483 33.5862 188.06C33.3372 191.603 33.2606 195.249 32.6861 198.774C32.5712 199.569 31.537 199.983 30.771 199.914C29.9283 199.828 29.258 199.137 29.2389 198.359C29.2389 196.303 29.5262 194.212 29.6985 192.173L30.1773 186.332C30.771 179.23 31.4796 172.129 32.1307 165.027C32.3605 162.509 32.603 159.992 32.8584 157.476C24.2022 157.216 16.1205 154.313 8.40264 150.944C8.28773 153.225 8.01962 155.523 7.75151 157.787C7.02377 164.145 6.39179 170.504 5.91301 176.88C5.52311 182.214 5.25494 187.555 5.10867 192.899L5.07037 194.108C5.07037 194.868 4.97461 195.577 4.24688 196.13C3.53829 196.7 2.54244 196.735 1.83385 196.13C0.876306 195.335 1.02951 194.246 1.06782 193.175C1.14024 190.455 1.25516 187.736 1.41253 185.019C1.79136 178.69 2.46223 172.377 3.42339 166.098L3.8064 163.679C4.47669 159.186 5.24273 154.573 6.77481 150.218C6.18113 149.959 5.58745 149.7 4.99377 149.406C3.94046 148.939 2.84886 148.473 1.8147 147.955C1.01036 147.523 0.301777 146.952 0.0911159 146.088C-0.176998 145.138 0.206022 144.101 0.474135 143.168V143.099C1.73959 138.37 3.44366 133.746 5.56829 129.275C8.90893 122.058 13.2735 115.262 18.5527 109.058C23.2512 103.411 28.9985 98.5412 35.5396 94.6644C38.7551 92.8019 42.2164 91.31 45.8428 90.2236C48.4856 89.4163 51.2499 88.9793 54.0394 88.9276ZM71.2944 77.5231C72.4435 76.3999 74.7608 77.5577 74.2054 79.0437C73.0183 82.5635 70.7067 85.6892 67.56 88.0291C64.5853 90.2952 60.7605 91.4456 56.8738 91.2431L57.1993 91.6578C59.7666 94.9685 62.727 98.0162 66.0279 100.747C72.9223 106.138 82.2679 109.041 91.3072 106.967C98.4122 105.343 104.675 100.263 106.513 93.8004C106.264 93.9041 105.939 93.9559 105.594 93.8868C104.119 93.5931 102.664 92.1934 101.706 91.1912C100.691 90.1026 99.8868 88.9449 99.2932 87.6144C98.2207 85.1952 97.876 82.0676 99.3506 79.7176C99.5421 79.4239 99.9251 79.5966 99.9826 79.8904L100.04 80.3224C100.327 82.5169 100.672 84.6423 101.821 86.6467C102.684 88.1693 103.868 89.5252 105.307 90.6383C105.804 90.9839 106.417 91.2603 106.858 91.675L106.954 91.7442C107.068 90.8802 107.739 90.4828 108.409 90.5C109.041 90.5346 109.807 90.7765 110.094 90.8975L110.113 90.9147C114.561 92.8987 118.744 95.3335 122.581 98.1721C130.635 103.851 136.547 111.636 139.51 120.463C140.947 124.834 141.77 129.344 142.632 133.837L143.168 136.602C143.972 140.732 144.872 144.965 146.692 148.818C147.171 149.803 146.807 150.737 145.639 151.134C144.207 151.628 142.77 152.112 141.33 152.585C142.038 155.35 142.479 158.201 142.996 160.966C144.145 166.858 145.524 172.716 146.711 178.591C147.324 181.615 147.879 184.639 148.492 187.628L149.392 191.983L149.852 194.333L149.871 194.454C149.967 194.868 150.062 195.3 149.947 195.715C149.794 196.182 149.392 196.51 149.028 196.856C148.722 197.132 148.301 197.132 147.937 196.977L147.803 196.925C147.151 196.648 146.654 196.372 146.405 195.715C146.27 195.283 146.213 194.817 146.117 194.385C145.602 191.876 145.104 189.365 144.624 186.851L144.317 185.278C143.321 179.853 142.364 174.409 141.866 168.949C141.674 166.53 141.425 164.094 141.195 161.657L141.023 159.843C140.812 157.545 140.544 155.177 140.506 152.845L139.644 153.121L135.393 154.486C134.339 154.832 132.999 155.523 131.869 155.385C131.314 155.333 130.911 155.177 130.567 154.884C130.95 159.86 131.486 164.802 132.195 169.744C133.299 177.562 134.704 185.342 136.408 193.071C136.523 193.624 136.676 194.177 136.772 194.73C136.867 195.37 136.676 195.75 136.293 196.285C135.967 196.7 135.335 196.925 134.799 196.631C134.11 196.234 133.746 195.888 133.554 195.179C133.363 194.54 133.248 193.866 133.114 193.21C132.303 189.468 131.575 185.712 130.931 181.943C129.437 172.958 128.498 163.904 128.02 154.849C127.791 150.371 127.702 145.888 127.752 141.406C127.752 139.107 127.847 136.809 128.02 134.511C128.211 132.196 128.594 129.932 128.939 127.634C128.939 127.547 129.073 127.547 129.073 127.634C129.226 130.208 129.475 132.783 129.609 135.358C129.724 137.829 129.782 140.282 129.877 142.753C129.992 145.985 130.165 149.233 130.394 152.464C130.596 152.261 130.85 152.106 131.134 152.013C131.418 151.919 131.723 151.89 132.022 151.929C132.922 151.756 133.88 151.341 134.722 151.065L137.94 150.114L142.996 148.611C141.533 144.025 140.382 139.362 139.549 134.649L139.165 132.524C138.399 128.342 137.538 124.143 136.14 120.083C134.664 115.846 132.411 111.862 129.475 108.298C126.485 104.807 123.103 101.605 119.383 98.7424C116.242 96.2541 112.929 94.0078 109.73 91.5886C109.75 91.7442 109.769 91.9342 109.73 92.107C109.06 96.5824 106.475 100.747 102.874 103.84C95.6545 110.06 84.9491 111.339 75.68 108.419C66.7365 105.602 58.8272 98.9152 56.0311 90.6555C55.9737 90.5173 56.1843 90.4828 56.2801 90.5692L56.7397 91.1394C56.7397 91.0703 56.778 90.9839 56.8738 90.9666C60.2159 89.883 63.2598 88.1621 65.7981 85.921C67.5678 84.2664 68.9545 82.3103 69.8773 80.1669L69.9539 79.9941C70.2794 79.1301 70.5667 78.2316 71.2944 77.5404V77.5231Z" fill="black"/>
<path fill-rule="evenodd" clip-rule="evenodd" d="M76.7883 12.915C105.76 11.6191 118.832 30.0563 119.672 38.316C120.246 44.0182 116.519 50.6017 116.519 55.7165C116.519 58.3084 120.055 63.9242 118.411 67.7257C114.742 76.1927 107.002 85.5755 97.122 85.5755C87.2609 85.5755 74.3995 88.0465 63.4874 73.9118C62.4745 72.5986 49.5367 65.0647 48.2754 57.911C45.1412 40.0785 56.1107 13.8308 76.7883 12.915Z" fill="#FFDBB4"/>
<path d="M79.7697 0.00733767C78.2026 -0.0617805 76.4635 0.352928 75.4124 1.44154C73.8873 0.932541 72.2456 0.776571 70.6368 0.987832C69.028 1.19909 67.5031 1.77087 66.2012 2.65111C63.7168 1.80441 60.8311 2.54743 59.2831 4.48274C56.2254 3.79156 52.8429 5.51951 51.8491 8.19784C49.8425 8.38791 48.1034 10.2887 48.715 12.0512C46.2688 10.8416 43.364 12.846 43.0774 15.1961C41.9296 15.6953 40.9814 16.5044 40.3637 17.5115C39.9693 18.2492 39.8944 19.0936 40.1535 19.8788C38.8922 20.6391 37.7455 21.6068 37.478 22.9891C37.3343 23.7655 37.5038 24.5627 37.9557 25.2355C36.9021 25.9723 36.1244 26.9841 35.7279 28.1338C35.3313 29.2836 35.3352 30.5157 35.7389 31.6635C34.6839 32.5741 34.0374 33.8046 33.9234 35.1194C33.9043 36.0352 34.2674 37.0028 34.9554 37.694C33.9507 38.8834 33.329 40.3006 33.159 41.7893C33.1017 42.9988 33.5221 44.1566 34.3438 45.0551C33.1399 46.9386 33.5794 49.4441 35.2038 51.0338C34.7785 52.0141 34.6822 53.0861 34.9269 54.1157C35.1716 55.1452 35.7465 56.0867 36.5798 56.8225C36.4606 57.2219 36.4218 57.6374 36.4651 58.0493C36.3504 58.4295 36.3122 58.8269 36.3313 59.207C36.4269 60.5894 37.3824 61.5571 38.6246 62.1446L38.701 62.231C38.4335 63.1468 38.5099 64.1317 39.0642 65.0648C39.6375 66.067 40.7459 66.7928 41.9307 67.0865C42.0561 67.9636 42.4895 68.7812 43.1672 69.4189C43.845 70.0566 44.7312 70.4807 45.6955 70.6288C45.8293 71.5273 46.2688 72.4086 47.0333 73.0825C47.8744 73.8035 48.9892 74.2055 50.1483 74.2057C50.4923 75.0351 51.1038 75.7608 52.002 76.3138C53.378 77.1778 55.1552 77.2642 56.665 76.7458L56.8561 76.7803L56.9134 76.7976C57.8419 77.3159 58.8955 77.6228 59.9839 77.692C61.0723 77.7612 62.163 77.5907 63.1626 77.195C64.0034 77.6789 65.0163 77.8689 65.9527 77.627L66.2012 78.1454C66.4305 78.6984 66.6216 79.2686 66.8127 79.8215L67.2522 81.0829C67.7491 82.3789 68.3033 83.3638 69.9277 83.5539C70.501 83.623 71.1126 83.2083 71.3801 82.7936C71.9917 81.8432 71.5903 80.9447 71.189 80.0289L71.017 79.7006L70.9597 79.5278L70.673 78.8539C70.3673 78.1108 70.0615 77.3678 69.7175 76.6421C68.8548 75.0335 67.7343 73.5487 66.3923 72.2358C65.4176 71.199 64.2901 70.2832 63.2008 69.3501L62.3982 68.6762C61.1534 67.6047 59.9793 66.4681 58.8818 65.2722C59.6462 65.1512 60.1431 64.8574 60.4298 64.0971C60.5253 63.8379 60.4298 63.5788 60.2387 63.406C59.6462 62.7839 58.8627 62.8012 58.0601 62.8185C57.6778 62.8185 57.2956 62.8185 56.9134 62.7666C55.8241 62.5938 54.7539 62.1791 53.9322 61.5225C53.1214 60.8486 52.5083 60.0033 52.1481 59.0623C51.7878 58.1213 51.6917 57.1142 51.8682 56.1313C52.1167 54.2996 52.9766 52.779 54.8304 51.9151C55.7726 51.4995 56.7881 51.2364 57.8307 51.1375C58.0601 51.414 58.404 51.5868 58.9391 51.5868H59.0347C60.5062 52.1397 62.379 52.2088 63.5639 51.2412C63.6786 51.1548 63.7741 51.0684 63.8506 50.9647L64.1372 50.8265C66.01 49.8588 67.1376 48.079 67.2331 46.1955C68.2358 45.4139 68.9439 44.3689 69.2588 43.2062C69.45 42.3768 69.3544 41.5646 68.9913 40.8907C69.3425 40.2595 69.5565 39.5732 69.6219 38.869C69.6715 38.4047 69.6262 37.9361 69.4882 37.4867C70.2551 37.0112 70.9003 36.3925 71.3801 35.6723C73.6734 36.4153 76.2915 36.2425 78.4319 35.1539C79.5786 35.8624 81.1074 36.1389 82.5025 35.9833C83.458 35.8797 84.3562 35.5686 85.1779 35.1194C86.0573 35.4581 87.0111 35.6094 87.9655 35.5615C88.9199 35.5135 89.8493 35.2677 90.6818 34.8429L90.7582 34.791C91.1787 34.8256 91.5991 34.791 92.0004 34.7219C92.5737 35.1194 93.2617 35.4131 93.9115 35.5513C94.6464 35.6913 95.4057 35.6897 96.14 35.5468C96.8742 35.4039 97.5669 35.1229 98.1731 34.7219C99.2154 35.254 100.396 35.5234 101.593 35.5022C102.79 35.4809 103.958 35.1697 104.976 34.601C105.878 35.0728 106.902 35.3183 107.944 35.3122C108.985 35.3062 110.006 35.0487 110.901 34.5664C111.723 35.2576 112.754 35.7414 113.882 35.9488L113.786 36.519C113.538 38.1087 113.366 39.6984 113.309 41.3054C113.232 44.554 113.462 47.8025 113.844 51.0338L114.417 54.9217C114.646 56.3905 114.876 57.8592 115.048 59.3107L115.029 59.6909C115.489 62.7698 115.307 65.8996 114.494 68.9181C112.162 76.8149 104.403 83.3811 95.1537 82.9146C94.3235 82.8759 93.4949 82.8125 92.6693 82.7245L92.3253 82.6726H92.2489L92.1151 82.6554C90.8729 82.4826 89.6307 82.3098 88.3885 82.0333C87.2037 81.7914 86.057 81.4631 84.8913 81.1002L84.8148 81.0657C84.1312 80.8366 83.3922 80.7769 82.6745 80.8929H82.5598L82.426 80.9101H81.9483C81.2985 80.9274 80.9163 81.5149 81.031 82.0679C81.1108 82.5474 81.3019 83.0062 81.5918 83.4142C81.8816 83.8221 82.2636 84.1701 82.7127 84.4352C83.5727 84.919 84.6237 85.1955 85.6175 85.4374L85.9997 85.5238C88.4076 86.1113 90.8729 86.4396 93.3382 86.6642C95.3065 86.837 97.1985 86.9061 99.1478 86.6469C101.861 86.2841 104.537 85.4374 106.907 84.1587C110.227 82.3599 113.043 79.8904 115.131 76.9435C117.22 73.9966 118.526 70.6524 118.946 67.1729C119.137 67.1729 119.329 67.1556 119.52 67.1038C120.631 66.7959 121.583 66.1346 122.197 65.2422C122.812 64.3497 123.049 63.2863 122.864 62.2482C123.872 61.2957 124.428 60.0242 124.412 58.7059C125.043 58.3949 125.578 57.9283 125.979 57.289C126.552 56.425 126.686 55.4401 126.514 54.5243C127.148 53.972 127.634 53.2951 127.932 52.5459C128.23 51.7967 128.334 50.9955 128.234 50.2044C129.126 49.4412 129.677 48.408 129.782 47.3014C129.878 46.2992 129.553 45.3143 128.941 44.5367C129.285 43.7764 129.304 42.947 129.075 42.1694C129.591 40.9598 129.686 39.5775 129.018 38.3679C128.826 38.0223 128.597 37.7459 128.31 37.5212L128.406 37.0892L128.444 36.9856C128.635 36.0525 128.502 35.3094 128.119 34.3936C127.814 33.7024 127.89 33.0285 127.947 32.3201C127.986 32.0436 128.005 31.7499 128.005 31.4561C128.005 30.3156 127.47 29.0715 126.419 28.5186C126.571 27.753 126.493 26.9645 126.194 26.2352C125.895 25.5059 125.385 24.8624 124.718 24.3715C124.527 22.7818 123.762 21.2612 122.233 20.57C122.386 19.1876 122.252 17.8053 121.469 16.5784C120.796 15.5113 119.683 14.7285 118.373 14.4012C118.134 12.9544 117.346 11.6281 116.142 10.6504C114.939 9.67276 113.396 9.10489 111.78 9.04454C111.343 7.95384 110.51 7.02969 109.416 6.42371C108.322 5.81773 107.033 5.56592 105.76 5.70959C104.764 4.52811 103.401 3.64213 101.845 3.16501C100.29 2.68788 98.6117 2.64131 97.0265 3.03126C96.0901 1.99448 94.6568 1.40698 93.2044 1.19963C91.8666 1.00955 90.5862 1.14779 89.2867 1.3033C88.2739 1.42426 87.261 1.52794 86.229 1.4761C85.0824 1.44154 84.0313 1.09595 82.9802 0.750358C81.9291 0.404767 80.8781 0.0764559 79.7505 0.0246173L79.7697 0.00733767Z" fill="black"/>
<path d="M60.468 56.8918C59.4742 55.5958 58.041 54.1962 56.149 54.2999C54.945 54.3517 53.55 55.1293 53.6073 56.3216C53.6073 56.4252 53.7411 56.4771 53.7984 56.408C54.3335 55.8896 55.0597 55.6649 55.7859 55.7859C55.0215 56.0797 54.3335 56.7536 54.6393 57.5139C54.8304 57.9977 55.4037 58.4124 55.9961 58.205C56.2181 58.1422 56.4204 58.0327 56.5865 57.8856C56.7526 57.7384 56.8777 57.5577 56.9517 57.3583L57.009 57.1855L57.1236 57.0127V56.9955L57.2001 56.9091L57.3912 56.6499C57.7734 57.0646 58.041 57.5657 58.2894 58.0322C58.9965 59.3628 61.4235 58.0841 60.468 56.8918Z" fill="black"/>
<path fill-rule="evenodd" clip-rule="evenodd" d="M104.789 68.4344C103.561 67.9451 102.174 67.8896 100.902 68.2788C99.4098 68.7561 98.0414 69.5028 96.8801 70.4733C96.4013 70.8189 95.9608 71.2336 95.5395 71.6311C94.965 72.1495 94.3904 72.6678 93.7776 73.0825C94.1628 71.4569 95.0223 69.9536 96.2672 68.7281C97.5695 67.2939 99.3889 66.1362 101.342 65.5832C102.327 65.2982 103.37 65.2124 104.396 65.3318C105.422 65.4513 106.406 65.7731 107.279 66.2744C108.945 67.2421 110.152 68.8318 110.401 70.7671C110.458 71.1818 110.247 71.5619 109.922 71.8384C109.558 72.184 109.041 72.3914 108.581 72.3914C108.083 72.3914 107.643 72.2186 107.317 71.9248C106.975 71.6157 106.77 71.2036 106.743 70.7671C106.724 70.2833 106.59 69.8686 106.149 69.3674C105.843 69.0219 105.287 68.6417 104.789 68.4171V68.4344ZM107.854 51.725C107.375 51.8978 106.781 52.2953 106.609 52.7272C106.57 52.8309 106.551 52.9173 106.551 53.021C106.379 52.7273 106.322 52.3644 106.36 52.0188C106.417 50.8956 107.585 50.1008 108.6 49.6169C108.945 49.4441 109.309 49.3405 109.673 49.2713L110.975 49.0813L109.769 48.6147C108.647 48.1998 107.601 47.6348 106.666 46.9386C105.339 45.9613 104.387 44.6309 103.947 43.1371L103.908 42.9989C103.851 42.757 103.774 42.636 103.717 42.4805C103.66 42.4114 103.621 42.3077 103.564 42.1867C103.545 42.1003 103.525 42.0312 103.564 41.9794C103.564 41.9275 103.64 41.9103 103.698 41.893C104.081 41.7547 104.732 41.8411 105 41.9448C105.651 42.1695 106.226 42.6878 106.781 43.1717C107.068 43.4136 107.317 43.6382 107.585 43.8283C109.247 45.0485 111.274 45.7945 113.407 45.9709L113.522 45.9882C114.058 46.0228 114.576 46.2129 114.92 46.5412C115.246 46.8349 115.437 47.2324 115.437 47.6816C115.43 48.1374 115.224 48.5722 114.863 48.8912C114.697 49.047 114.498 49.1703 114.277 49.2536C114.056 49.3368 113.819 49.3782 113.58 49.375C113.235 49.375 112.89 49.3405 112.546 49.3059L111.262 49.1331L112.22 49.9107C112.412 50.0489 112.603 50.2217 112.775 50.4291C113.656 51.5177 114.039 53.1938 114.001 54.507C114.001 54.7662 113.924 55.0254 113.771 55.2501C113.654 55.4527 113.474 55.6207 113.254 55.7339C113.002 55.8583 112.718 55.9236 112.431 55.924C112.128 55.9316 111.83 55.8464 111.588 55.6821C111.287 55.4645 111.055 55.1781 110.918 54.8526C110.726 54.4206 110.726 53.9714 110.688 53.5048C110.688 53.1938 110.688 52.8828 110.611 52.5717C110.535 52.1743 110.324 51.6732 110.075 51.5004C109.692 51.2758 108.735 51.4486 108.103 51.6559L107.873 51.725H107.854ZM102.606 55.6993C104.062 56.5115 106.245 58.3604 104.713 60.313C102.874 62.0409 100.231 60.0711 98.9292 59.1725C97.7227 58.4813 96.3822 60.2611 97.4929 61.0733C106.877 67.3457 110.707 55.924 103.334 54.7835C102.53 54.6453 102.223 55.4747 102.606 55.7166V55.6993ZM92.3604 53.1938C91.997 52.7687 91.5235 52.4305 90.9816 52.2089C90.2481 51.9509 89.4418 51.9145 88.6835 52.1052C87.8716 52.3328 87.1737 52.8096 86.7109 53.453C86.2896 54.0059 86.0023 54.6626 85.83 55.3365C85.5434 55.0452 85.357 54.6849 85.2937 54.2997C85.1855 53.6901 85.2514 53.0656 85.4852 52.4853C86.0023 51.1721 87.2088 49.9971 88.626 49.496C89.9295 49.0659 91.3574 49.0545 92.6692 49.4637C93.9809 49.8729 95.0961 50.6776 95.8268 51.7423C95.9724 51.9519 96.0605 52.1897 96.0838 52.4361C96.1071 52.6826 96.065 52.9305 95.9608 53.1592C95.8442 53.4004 95.6733 53.617 95.459 53.7955C95.2447 53.974 94.9917 54.1103 94.716 54.196C94.4288 54.2824 94.1415 54.2824 93.8925 54.196C93.5287 54.1269 93.2031 53.9541 92.935 53.7467C92.7243 53.5739 92.552 53.3839 92.3604 53.1938ZM94.7735 44.9169C94.6038 45.1279 94.3781 45.297 94.1171 45.4087C93.8561 45.5204 93.5681 45.5712 93.2797 45.5562L93.1648 45.6599L92.935 45.9018C92.1403 46.6607 91.2236 47.3073 90.2155 47.8199C87.7777 49.0728 84.9566 49.5819 82.1721 49.2713L81.8466 49.2195C81.0614 49.1158 80.0081 48.9776 79.3569 48.5283C79.625 48.4592 79.874 48.4592 80.123 48.4419C81.0632 48.427 81.997 48.2992 82.8999 48.0618C84.3362 47.6989 85.6576 47.1978 86.9216 46.4721C88.2009 45.7526 89.3344 44.8409 90.273 43.7764L90.3879 43.6382L90.522 43.4654C90.905 43.0334 91.2305 42.6014 91.8242 42.325C92.2838 42.1176 92.7626 42.0485 93.2031 42.1176C93.743 42.2092 94.2457 42.43 94.6586 42.757C94.8146 42.877 94.9411 43.025 95.0301 43.1916C95.1192 43.3582 95.1687 43.5397 95.1756 43.7246C95.2139 44.1393 95.0607 44.5886 94.7926 44.9342L94.7735 44.9169Z" fill="black"/>
</svg>
