<svg width="231" height="231" viewBox="0 0 231 231" fill="none" xmlns="http://www.w3.org/2000/svg">
<g clip-path="url(#clip0_252_203)">
<path d="M115.5 51.75C99.5037 51.749 84.0916 57.7618 72.3221 68.5951C60.5527 79.4284 53.286 94.2904 51.9641 110.232C50.6423 126.174 55.3618 142.03 65.1863 154.653C75.0107 167.277 89.222 175.746 105 178.38V192.47C85.782 194.224 67.3099 200.766 51.271 211.497C70.2777 224.215 92.632 231.003 115.501 231.003C138.37 231.003 160.724 224.215 179.731 211.497C163.692 200.765 145.22 194.223 126.002 192.468V178.384C140.883 175.899 154.401 168.217 164.151 156.703C173.902 145.189 179.252 130.59 179.252 115.503C179.252 98.6128 172.549 82.4128 160.615 70.4603C148.682 58.5077 132.492 51.7795 115.602 51.753C115.569 51.753 115.536 51.753 115.502 51.753L115.5 51.75Z" fill="#FAE3B9"/>
<path d="M88.1798 194.109C83.9719 195.13 79.8253 196.389 75.7598 197.879V223.951C101.419 233.353 129.581 233.353 155.24 223.951V197.879C151.154 196.388 146.987 195.13 142.76 194.109V202.814C142.76 212.203 135.149 219.814 125.76 219.814H105.18C95.791 219.814 88.1798 212.203 88.1798 202.814V194.109Z" fill="#491F49"/>
<path d="M32.9022 67.6641C32.5392 69.3868 26.668 98.3591 38.5155 120.26C43.0998 128.734 47.5236 133.499 51.2655 136.153C48.9725 129.268 47.8012 122.06 47.7967 114.803C47.793 108.84 48.5771 102.903 50.1287 97.1451C45.6373 94.6805 39.2607 90.2439 36.2947 83.6251C32.1321 74.3401 32.6793 68.9521 32.9022 67.6641ZM198.092 67.6641C198.315 68.9523 198.862 74.34 194.7 83.6251C191.733 90.2434 185.357 94.6801 180.866 97.1451C182.417 102.903 183.201 108.84 183.198 114.803C183.193 122.06 182.022 129.268 179.729 136.153C183.471 133.5 187.894 128.735 192.479 120.26C204.326 98.3601 198.455 69.3871 198.092 67.6641Z" fill="#A21D00"/>
<path d="M115.73 13.1897C108.351 13.0562 102.221 18.9785 102.099 26.3577C101.998 32.2404 105.55 36.8757 110.155 38.8777C111.216 39.3389 112.342 39.6578 113.497 39.8347V48.2638C114.165 48.2435 114.833 48.2331 115.501 48.2326C116.167 48.2325 116.832 48.2423 117.497 48.2619V39.8504C120.097 39.4663 122.656 38.302 124.806 36.2254C129.038 32.1376 129.805 26.3499 127.964 21.6764C126.123 17.0038 121.614 13.293 115.732 13.1901L115.73 13.1897Z" fill="white"/>
<path d="M83.7388 83.9219H147.272C152.312 83.935 157.142 85.9394 160.711 89.4983C164.279 93.0573 166.296 97.8822 166.323 102.922C166.294 107.961 164.276 112.784 160.708 116.343C157.14 119.901 152.311 121.906 147.272 121.922H83.7388C78.7067 121.898 73.8875 119.889 70.3292 116.331C66.7709 112.773 64.7615 107.954 64.7378 102.922C64.7615 97.8901 66.7709 93.0711 70.3292 89.513C73.8875 85.9549 78.7067 83.9455 83.7388 83.9219Z" fill="#FF2D00"/>
<path d="M140.23 93.5391C138.375 93.5391 136.561 94.0892 135.019 95.1199C133.476 96.1506 132.274 97.6155 131.564 99.3295C130.854 101.043 130.668 102.929 131.03 104.749C131.392 106.569 132.285 108.24 133.597 109.552C134.909 110.864 136.581 111.757 138.4 112.119C140.22 112.481 142.106 112.295 143.82 111.585C145.534 110.875 146.999 109.673 148.03 108.13C149.06 106.588 149.611 104.774 149.611 102.919C149.611 100.431 148.622 98.0455 146.863 96.2864C145.104 94.5273 142.718 93.5391 140.23 93.5391ZM90.8282 93.5391C88.9729 93.5391 87.1593 94.0892 85.6167 95.1199C84.0741 96.1506 82.8718 97.6155 82.1618 99.3295C81.4518 101.043 81.2661 102.929 81.628 104.749C81.9899 106.569 82.8833 108.24 84.1952 109.552C85.5071 110.864 87.1785 111.757 88.9981 112.119C90.8178 112.481 92.7038 112.295 94.4179 111.585C96.1319 110.875 97.5969 109.673 98.6277 108.13C99.6584 106.588 100.209 104.774 100.209 102.919C100.206 100.432 99.2168 98.0478 97.4582 96.2893C95.6996 94.5308 93.3152 93.5417 90.8282 93.5391Z" fill="white"/>
<path d="M115.5 153.933C113.517 153.939 111.556 153.524 109.746 152.715C107.936 151.907 106.318 150.723 105 149.243C104.386 148.579 104.06 147.699 104.094 146.795C104.127 145.892 104.516 145.038 105.177 144.421C105.838 143.804 106.716 143.473 107.62 143.502C108.523 143.53 109.379 143.915 110 144.573L110.08 144.653L110.16 144.743C110.818 145.449 111.608 146.019 112.486 146.421C113.365 146.822 114.313 147.046 115.278 147.08C116.243 147.114 117.205 146.958 118.11 146.621C119.014 146.283 119.843 145.771 120.55 145.113L120.92 144.743C121.209 144.397 121.563 144.111 121.962 143.903C122.362 143.695 122.798 143.567 123.247 143.528C123.696 143.489 124.148 143.538 124.578 143.674C125.007 143.81 125.406 144.03 125.75 144.32C126.095 144.611 126.378 144.966 126.585 145.367C126.791 145.767 126.917 146.204 126.954 146.653C126.991 147.102 126.939 147.554 126.801 147.983C126.663 148.412 126.442 148.81 126.15 149.153L126.07 149.243C124.748 150.727 123.125 151.913 121.31 152.722C119.494 153.53 117.527 153.943 115.54 153.933H115.5Z" fill="black"/>
<path d="M115.27 127.321C107.607 127.291 100.019 128.763 94.6238 132.467C87.0038 137.797 84.7185 143.979 80.4968 150.576C77.0589 155.821 71.1708 160.6 67.0298 156.91C92.4548 186.665 138.439 186.696 163.905 156.977C157.094 160.907 152.36 154.507 150.397 150.576C139.7 132.971 136.282 127.921 115.27 127.321ZM115.002 135.719C122.459 135.799 129.988 137.016 132.148 141.671C134.725 152.99 124.56 159.125 115.467 159.186C109.377 159.136 103.267 156.806 100.207 151.446C93.8472 140.286 103.842 135.839 115.002 135.719Z" fill="black"/>
</g>
<defs>
<clipPath id="clip0_252_203">
<rect width="231" height="231" fill="white"/>
</clipPath>
</defs>
</svg>
