<svg width="150" height="200" viewBox="0 0 150 200" fill="none" xmlns="http://www.w3.org/2000/svg">
<path fill-rule="evenodd" clip-rule="evenodd" d="M144.643 174.358C143.507 168.749 142.511 163.12 141.655 157.474C141.464 156.187 141.176 154.732 142.172 153.796C143.57 152.459 144.853 151.322 145.007 149.416C145.16 147.628 144.47 145.672 144.049 143.933C143.116 140.29 142.011 136.682 140.736 133.118C139.472 129.49 138.074 125.896 136.657 122.319C135.335 118.976 134.071 115.582 132.348 112.372C129.092 106.271 123.538 101.757 116.721 98.7318C114.997 97.9795 111.55 95.3049 109.769 94.7198C108.141 94.1514 108.141 95.7729 106.532 95.1544C105.249 94.6696 104.043 94.0344 103.334 92.9478C102.568 91.7777 100.595 90.1227 100.289 88.7687C99.657 85.86 100.346 83.3859 97.9909 81.1961C95.8226 79.2786 93.1043 77.9046 90.1198 77.2175C83.6659 75.6629 75.0863 76.7495 71.1987 81.9818C69.341 84.4725 68.709 87.4982 66.1811 89.5209C63.9979 91.3096 64.4958 92.5299 61.6615 93.4326C61.4891 93.4828 57.1419 92.6804 56.9886 92.7305C53.8862 92.1454 50.9178 93.7669 48.0834 94.7031C43.8487 96.1145 39.8031 97.925 36.0183 100.103C28.4129 104.525 21.7774 110.102 16.4269 116.568C9.67761 124.669 4.71589 133.796 1.79554 143.482C1.46997 144.552 1.12525 145.655 1.50827 146.725C1.83384 147.611 2.54242 148.263 3.38507 148.798C4.53412 149.517 6.83224 149.968 6.77479 151.422C6.75564 152.526 6.31517 153.679 6.1045 154.766C5.85554 156.053 5.66403 157.357 5.45337 158.644C4.53412 164.562 3.80639 170.513 3.48082 176.464C3.05878 182.364 3.02681 188.28 3.38507 194.183C3.40422 194.568 3.53827 194.936 3.76809 195.22C3.57658 195.287 3.53827 195.621 3.78724 195.671L4.30431 195.755C4.69159 196.008 5.16076 196.149 5.64488 196.156L6.69818 196.189C10.3943 196.858 14.0905 197.51 17.8249 197.995C22.3828 198.58 26.9408 199.048 31.5178 199.449C40.9401 200.252 50.2858 199.984 59.6889 199.549C69.0898 199.115 78.5066 199.004 87.9175 199.215C97.3397 199.449 106.762 199.8 116.184 199.951C126.717 200.118 137.25 199.867 147.745 199.115C149.181 199.031 150.082 198.028 149.794 196.775C148.09 189.302 146.156 181.88 144.624 174.374L144.643 174.358Z" fill="#AE5D29"/>
<path fill-rule="evenodd" clip-rule="evenodd" d="M48.0643 94.7032L48.2941 94.6363C51.071 93.6835 53.9628 92.1623 56.9886 92.7306C57.0844 92.6972 59.0569 93.0482 60.4167 93.2656L59.1335 94.4357L56.8737 94.7868C64.6682 106.004 73.8798 111.62 84.5086 111.62C95.1374 111.62 103.219 106.004 108.715 94.7868L109.481 94.6196C109.558 94.6196 109.673 94.653 109.769 94.6865C111.55 95.2883 115.016 97.9629 116.721 98.7152C123.538 101.724 129.073 106.238 132.348 112.356C134.014 115.465 135.259 118.708 136.523 121.968L136.657 122.302C138.074 125.88 139.472 129.49 140.736 133.101C141.942 136.511 143.034 139.955 143.915 143.432L144.049 143.917C144.47 145.655 145.16 147.594 145.007 149.4C144.949 150.023 144.754 150.63 144.432 151.189L129.035 156.036L136.389 199.717C129.667 199.967 122.925 200.051 116.184 199.934C106.762 199.784 97.3397 199.433 87.9175 199.215C78.7824 199.015 69.6666 199.098 60.5316 199.499L58.2334 199.6C49.3357 200.118 40.4062 200.062 31.5178 199.433L30.9242 199.382V192.98L34.0458 157.39L18.1505 154.783L2.58071 148.18C2.09152 147.773 1.7234 147.268 1.50826 146.708C1.14439 145.705 1.4125 144.702 1.69977 143.699L1.79552 143.482C4.75835 133.809 9.71651 124.689 16.4269 116.568C21.7703 110.098 28.3992 104.515 35.9992 100.086C39.7911 97.9128 43.8319 96.0907 48.0643 94.6865V94.7032Z" fill="#9DDADB"/>
<path fill-rule="evenodd" clip-rule="evenodd" d="M54.0394 92.5468C55.0161 92.4966 56.012 92.6471 56.9887 92.7139C57.0653 92.7306 57.1036 92.8477 56.9887 92.8644C55.2651 93.182 53.5415 93.6166 51.837 94.0513L51.1093 94.2519C49.1942 94.7533 47.3174 95.2548 45.4406 95.9235C41.7253 97.2441 38.2016 99.0161 34.9459 101.072C22.4403 108.962 13.401 120.915 7.6749 133.285C5.74814 137.465 4.19233 141.769 3.02121 146.157C2.94461 146.424 2.6382 147.06 2.8297 147.327C2.96376 147.544 3.51914 147.678 3.78725 147.812L4.64905 148.196L9.47509 150.353L9.91557 150.537C17.1929 153.646 24.9299 156.287 33.0882 156.471L33.1648 155.852C33.4544 152.467 34.0889 149.11 35.0608 145.823C35.1182 145.655 35.3672 145.722 35.3864 145.873C35.9609 149.734 35.7694 153.629 35.5779 157.524C35.2332 164.378 34.7544 171.265 34.3331 178.136C34.1032 181.579 33.8351 184.989 33.5862 188.45C33.3372 191.877 33.2606 195.404 32.6861 198.814C32.5712 199.583 31.537 199.984 30.771 199.917C29.9283 199.834 29.258 199.165 29.2389 198.413C29.2389 196.424 29.5262 194.401 29.6985 192.428L30.1773 186.778C30.771 179.908 31.4796 173.037 32.1307 166.167C32.3605 163.731 32.603 161.296 32.8584 158.861C24.2022 158.611 16.1205 155.802 8.40264 152.543C8.28773 154.749 8.01962 156.972 7.75151 159.162C7.02377 165.314 6.39179 171.466 5.91301 177.634C5.52311 182.794 5.25494 187.961 5.10867 193.13L5.07037 194.301C5.07037 195.036 4.97461 195.722 4.24688 196.256C3.53829 196.808 2.54244 196.842 1.83385 196.256C0.876306 195.487 1.02951 194.434 1.06782 193.398C1.14024 190.767 1.25516 188.136 1.41253 185.508C1.79136 179.384 2.46223 173.278 3.42339 167.203L3.8064 164.863C4.47669 160.516 5.24273 156.053 6.77481 151.84C6.18113 151.59 5.58745 151.339 4.99377 151.055C3.94046 150.603 2.84886 150.152 1.8147 149.651C1.01036 149.233 0.301777 148.681 0.0911159 147.845C-0.176998 146.926 0.206022 145.923 0.474135 145.02V144.953C1.73959 140.379 3.44366 135.905 5.56829 131.58C8.90893 124.598 13.2735 118.023 18.5527 112.022C23.2512 106.558 28.9985 101.847 35.5396 98.0967C38.7551 96.2948 42.2164 94.8515 45.8428 93.8005C48.4856 93.0196 51.2499 92.5967 54.0394 92.5468ZM71.2944 81.5138C72.4435 80.4272 74.7608 81.5473 74.2054 82.9849C73.0183 86.39 70.7067 89.4138 67.56 91.6775C64.5853 93.8698 60.7605 94.9827 56.8738 94.7868L57.1993 95.188C59.7666 98.3908 62.727 101.339 66.0279 103.981C72.9223 109.196 82.2679 112.005 91.3072 109.999C98.4122 108.428 104.675 103.513 106.513 97.2608C106.264 97.3611 105.939 97.4113 105.594 97.3444C104.119 97.0602 102.664 95.7062 101.706 94.7366C100.691 93.6835 99.8868 92.5635 99.2932 91.2763C98.2207 88.936 97.876 85.9103 99.3506 83.6368C99.5421 83.3526 99.9251 83.5198 99.9826 83.804L100.04 84.2219C100.327 86.3449 100.672 88.4011 101.821 90.3402C102.684 91.8132 103.868 93.1249 105.307 94.2017C105.804 94.536 106.417 94.8035 106.858 95.2047L106.954 95.2716C107.068 94.4357 107.739 94.0513 108.409 94.068C109.041 94.1014 109.807 94.3354 110.094 94.4525L110.113 94.4692C114.561 96.3885 118.744 98.744 122.581 101.49C130.635 106.984 136.547 114.515 139.51 123.055C140.947 127.284 141.77 131.647 142.632 135.993L143.168 138.668C143.972 142.663 144.872 146.759 146.692 150.486C147.171 151.439 146.807 152.342 145.639 152.726C144.207 153.205 142.77 153.673 141.33 154.131C142.038 156.805 142.479 159.564 142.996 162.238C144.145 167.939 145.524 173.605 146.711 179.289C147.324 182.215 147.879 185.14 148.492 188.032L149.392 192.244L149.852 194.518L149.871 194.635C149.967 195.036 150.062 195.454 149.947 195.855C149.794 196.307 149.392 196.624 149.028 196.959C148.722 197.226 148.301 197.226 147.937 197.076L147.803 197.025C147.151 196.758 146.654 196.49 146.405 195.855C146.27 195.437 146.213 194.986 146.117 194.568C145.602 192.141 145.104 189.712 144.624 187.28L144.317 185.758C143.321 180.509 142.364 175.244 141.866 169.961C141.674 167.621 141.425 165.264 141.195 162.907L141.023 161.152C140.812 158.928 140.544 156.638 140.506 154.381L139.644 154.649L135.393 155.969C134.339 156.304 132.999 156.972 131.869 156.839C131.314 156.789 130.911 156.638 130.567 156.354C130.95 161.168 131.486 165.949 132.195 170.73C133.299 178.293 134.704 185.82 136.408 193.298C136.523 193.833 136.676 194.367 136.772 194.902C136.867 195.521 136.676 195.889 136.293 196.407C135.967 196.808 135.335 197.025 134.799 196.741C134.11 196.357 133.746 196.022 133.554 195.337C133.363 194.719 133.248 194.067 133.114 193.431C132.303 189.811 131.575 186.178 130.931 182.532C129.437 173.839 128.498 165.08 128.02 156.321C127.791 151.988 127.702 147.652 127.752 143.315C127.752 141.092 127.847 138.868 128.02 136.645C128.211 134.405 128.594 132.215 128.939 129.992C128.939 129.908 129.073 129.908 129.073 129.992C129.226 132.483 129.475 134.973 129.609 137.464C129.724 139.855 129.782 142.228 129.877 144.619C129.992 147.745 130.165 150.888 130.394 154.014C130.596 153.817 130.85 153.667 131.134 153.577C131.418 153.486 131.723 153.458 132.022 153.495C132.922 153.328 133.88 152.927 134.722 152.66L137.94 151.74L142.996 150.286C141.533 145.849 140.382 141.338 139.549 136.779L139.165 134.723C138.399 130.677 137.538 126.615 136.14 122.687C134.664 118.588 132.411 114.734 129.475 111.286C126.485 107.909 123.103 104.811 119.383 102.042C116.242 99.6346 112.929 97.4614 109.73 95.1211C109.75 95.2716 109.769 95.4554 109.73 95.6226C109.06 99.9522 106.475 103.981 102.874 106.973C95.6545 112.991 84.9491 114.228 75.68 111.403C66.7365 108.678 58.8272 102.209 56.0311 94.2184C55.9737 94.0847 56.1843 94.0513 56.2801 94.1348L56.7397 94.6865C56.7397 94.6196 56.778 94.536 56.8738 94.5193C60.2159 93.4711 63.2598 91.8062 65.7981 89.6381C67.5678 88.0374 68.9545 86.145 69.8773 84.0715L69.9539 83.9043C70.2794 83.0685 70.5667 82.1992 71.2944 81.5305V81.5138Z" fill="black"/>
<path fill-rule="evenodd" clip-rule="evenodd" d="M111.188 13.7114C100.982 11.0869 65.8381 13.7782 64.959 14.3466C63.5449 15.383 56.6459 18.6595 55.5566 19.4117C45.8103 28.4387 55.098 41.8286 54.3718 52.7111C54.4291 56.5727 52.5372 60.0999 51.6963 63.811C51.207 65.7459 51.5114 67.7697 52.5563 69.528C54.6011 72.654 58.901 73.2725 62.3982 74.543C64.1373 75.2117 65.7808 76.1311 67.2714 77.1508C77.3236 84.924 82.9039 90.2399 97.5617 88.4846C97.6381 89.1031 98.2688 89.7049 99.0332 89.4375C100.83 88.7855 102.626 88.1001 104.441 87.4983C104.824 88.3342 105.932 88.5515 106.697 87.8327C110.06 85.4589 112.2 82.1825 113.787 78.7054C114.9 76.6839 115.808 74.5807 116.5 72.42C116.577 72.1692 116.577 71.9519 116.5 71.7513C119.701 62.0512 120.904 51.9307 120.055 41.8621C119.864 39.7892 119.443 37.6829 119.539 35.6101C119.634 33.7378 120.571 31.9659 121.259 30.2106C124.909 22.7717 119.348 16.0517 111.188 13.7114Z" fill="#AE5D29"/>
<path fill-rule="evenodd" clip-rule="evenodd" d="M112.468 1.64175L112.582 1.55817C113.767 0.755774 114.876 -0.314087 116.538 0.0871107C117.895 0.421442 118.583 1.40772 118.87 2.5946L120.093 1.42444C121.163 0.304426 123.533 0.889507 123.877 2.2937C124.621 5.54856 124.517 8.90842 123.571 12.123C124.297 11.3374 124.966 10.5183 125.559 9.66571C126.208 8.72958 127.661 9.19765 127.775 10.2006L127.814 10.9696C128.272 11.1201 128.578 11.5213 128.463 12.0227C127.814 14.8144 126.973 17.5392 125.96 20.2473C127.584 19.4783 129.4 19.0437 131.12 19.5786C133.853 20.4145 134.502 23.0223 133.986 25.2623C133.617 26.6454 132.939 27.9511 131.991 29.1043C131.044 30.2576 129.845 31.2356 128.463 31.9823L127.508 33.2862C127.508 34.5066 127.259 35.7436 126.743 36.8803C126.138 38.1622 125.147 39.277 123.877 40.1066C123.437 40.9424 122.252 41.5777 121.22 41.4105H121.182C121.431 42.2296 121.66 43.0487 121.851 43.8846C123.38 50.3706 122.616 57.1074 121.22 63.5433L121.182 63.7606C119.921 69.4776 118.469 75.412 115.64 80.7446C113.098 85.5423 108.76 89.7716 102.588 90.8247C95.3256 92.0617 87.261 90.1059 80.9927 86.8462C78.7185 85.676 80.8016 82.5333 83.0566 83.7369C86.3245 85.4754 89.86 86.6957 93.6057 87.3309C97.122 87.9327 101.021 88.1333 104.384 86.8963C109.066 85.1745 111.837 80.9786 113.595 77.0335C114.627 74.6932 115.411 72.286 116.137 69.8621C117.073 66.7696 117.933 63.6268 118.583 60.4674C119.806 54.5664 120.188 48.4315 118.908 42.5305C118.5 40.6209 117.918 38.7427 117.169 36.9137C117.042 36.7828 116.927 36.643 116.825 36.4958C116.061 35.2755 115.487 33.9048 114.914 32.6009C114.398 31.8152 113.844 31.0629 113.232 30.3274C112.353 29.7256 111.512 29.0904 110.729 28.3883C113.017 27.142 114.957 25.4625 116.405 23.4736C116.653 23.1393 116.5 22.8049 116.213 22.6378C115.067 23.8748 113.576 24.9447 112.009 25.8808C111.211 26.4781 110.361 27.0202 109.467 27.5023C108.818 27.6193 108.168 27.6862 107.556 27.7531C105.741 27.9202 103.925 27.8701 102.148 27.6528C98.2687 27.2014 81.91 23.273 75.0111 24.8109C73.5778 25.1118 72.9089 26.2486 72.1445 27.3184C71.4947 28.2211 70.6539 28.9901 69.6601 29.6086L69.5264 29.6755C67.558 30.8791 63.6021 34.6403 61.9395 38.017C59.7991 42.3633 57.7351 55.3688 58.6907 55.4859C61.175 55.7868 62.5319 56.9235 64.5576 58.1605C64.6914 58.2274 64.6149 58.4447 64.4429 58.3945C63.1052 57.9766 61.6719 57.7259 60.2577 57.5253C58.9888 57.2891 57.6713 57.3467 56.4356 57.6924C54.5628 58.311 53.6455 59.6817 53.2633 61.2364C53.124 61.8474 53.0536 62.4689 53.0531 63.0919V63.2758C53.0531 65.2651 53.4735 67.4549 55.117 68.9093C55.827 69.5372 56.754 69.9426 57.7543 70.0627C58.8244 70.1797 59.4933 69.7618 60.4871 69.5445C61.6337 69.277 62.5319 69.9457 62.4363 70.7982L63.1434 71.3833C63.2963 71.4502 63.4492 71.5171 63.5639 71.6174C63.7932 71.7845 63.9652 71.9517 64.1181 72.1523C64.4429 72.2024 64.7487 72.3529 64.9972 72.6538C65.5322 73.2389 66.01 73.8239 66.4496 74.4425L68.8575 76.6992L71.6667 79.4742L72.1254 79.9422L73.6351 81.4467L73.7689 81.5972C74.2849 82.0987 74.6671 82.433 74.7244 83.1518C74.7627 83.6867 74.1129 84.0378 73.5778 83.9208C72.756 83.7369 72.3547 83.1685 71.8578 82.6002L70.4054 80.9619L69.3544 79.7918C69.2588 80.5106 68.3797 81.0957 67.5771 81.1291H67.386C65.5131 81.196 63.239 80.9619 61.8057 79.7918C61.175 80.3601 60.3724 80.8115 59.3786 81.0789C58.3379 81.3399 57.2254 81.2718 56.2364 80.8866C55.2473 80.5014 54.4451 79.8238 53.9704 78.9727C52.2313 79.6413 50.2438 79.7583 48.3519 79.2736C48.1012 79.211 47.873 79.0934 47.6889 78.9319C47.5049 78.7705 47.3711 78.5705 47.3002 78.3511C47.2294 78.1317 47.2238 77.9 47.2841 77.6782C47.3444 77.4564 47.4686 77.2517 47.6448 77.0837L47.683 77.0502C47.5301 76.8664 47.4345 76.6323 47.4345 76.3983C47.4154 76.1141 47.6448 75.8132 47.6065 75.529C47.4154 74.5093 45.5044 75.2616 44.8737 75.4956C44.7591 75.529 44.6635 75.5625 44.5488 75.5625C43.5933 75.7965 42.5805 74.7266 43.0773 73.8239L46.3835 67.806L45.963 67.923C43.9373 68.3743 41.5103 67.5051 41.9498 65.3821C42.0836 64.8806 42.5996 64.5462 43.0964 64.3791C44.1093 64.0949 44.8546 64.3122 45.619 64.0447C47.4416 63.2518 49.0307 62.102 50.2629 60.6847C50.5113 59.6316 50.9509 58.662 51.6389 57.8095L51.7535 57.659C47.3581 56.7396 47.9314 52.9449 45.9821 49.5849L45.8101 49.3007C44.4915 47.0607 43.3258 44.5198 44.0138 41.9454C44.1284 41.5108 44.3004 41.0762 44.5106 40.675L43.4595 40.7753C42.6378 40.8588 41.816 39.9394 42.1218 39.2708C42.764 37.9769 43.6561 36.7894 44.7591 35.7603C43.4022 35.7269 42.0263 35.7269 40.6885 35.5931C39.4081 35.4594 38.0704 34.8409 38.1086 33.5537C38.1468 32.3334 39.3699 31.3973 40.5165 30.8122C41.6336 29.5012 43.0447 28.4034 44.6635 27.5859L43.708 27.4522H43.536C42.6457 27.3765 41.7783 27.1614 40.9752 26.8169C40.2299 26.516 40.249 25.6133 40.7267 25.1453C42.3129 23.6575 44.6635 24.1423 46.4981 24.9948L46.0777 24.5936L46.0013 24.51C45.0839 23.7745 46.4408 22.6043 47.339 23.3399C47.6257 23.5572 47.8741 23.8079 48.1034 24.0754L48.1225 24.042C49.3335 21.9225 51.0316 20.0445 53.1104 18.5255L53.5881 18.1912C57.2956 15.4664 58.4422 14.1792 63.3728 14.5804C63.1816 13.7947 63.1817 12.9087 63.239 12.1899V12.1063C63.4301 9.38153 64.5767 6.10508 67.6344 4.88477C68.3988 4.56715 69.297 5.08537 69.0868 5.88776C68.953 6.43941 68.7619 6.99106 68.5517 7.50927C69.2015 6.90748 69.9086 6.33911 70.6539 5.80418C73.7307 3.68118 77.8395 1.84235 81.8718 2.44415C84.0886 2.77848 85.8277 3.99879 87.6814 5.0185C89.5428 6.02593 91.6393 6.65437 93.8159 6.85733C96.8736 7.17494 99.9313 6.85733 102.951 6.37255C105.027 5.5776 107.05 4.679 109.009 3.68118C110.213 3.06266 111.379 2.394 112.487 1.65847L112.468 1.64175ZM58.2893 60.8184C58.9545 60.674 59.6499 60.674 60.3151 60.8184C61.9777 61.1862 63.5448 62.4065 63.6403 63.9444C63.6785 64.6465 63.0288 65.3152 62.3026 65.4991C61.4426 65.6997 60.7164 65.3319 60.2195 64.7636C59.7035 64.145 59.5698 63.4597 58.92 62.908L58.7671 62.7743C58.2129 62.3229 57.3912 61.7211 56.6267 61.8214C56.5121 61.8382 56.4356 61.7044 56.5312 61.6543C57.1618 61.3534 57.5631 60.9856 58.2893 60.8184ZM66.9847 53.5467C67.2713 53.3461 67.6535 53.5802 67.5197 53.8811V53.9145C67.1566 54.5497 67.5771 55.3187 67.9975 55.8536C68.3797 56.3217 67.6726 56.7563 67.1949 56.5557C65.8189 55.9874 65.8954 54.3157 66.9847 53.5467ZM71.9534 34.1555C71.9534 34.0051 72.1827 33.9382 72.2401 34.0886C73.2529 36.6797 73.5587 38.9699 73.3867 41.7114V41.9454C73.1956 44.5866 72.6605 47.3783 70.845 49.5348C70.4246 50.0363 69.5455 49.7354 69.6984 49.1168C70.2526 46.6094 71.3228 44.2022 71.7432 41.6612C72.1827 38.9866 72.3738 36.8134 71.9725 34.1555H71.9534ZM62.4555 43.5669C62.6083 42.8648 63.8123 42.1627 64.4238 42.8481C64.6149 43.0989 64.3856 43.3831 64.1372 43.4666C63.9079 43.5502 63.6976 43.4332 63.4683 43.4666C63.2772 43.5168 63.1434 43.6171 63.067 43.7508L63.0479 43.7843C62.8568 44.0852 62.379 43.8511 62.4555 43.5669ZM61.9586 38.0505C62.3981 37.3651 63.3919 36.9137 64.2518 37.3484C64.5385 37.4988 64.4238 37.9167 64.0607 37.9H63.8696C63.2581 37.8833 62.6466 37.9 62.1497 38.2343C62.0159 38.3012 61.9012 38.1508 61.9586 38.0672V38.0505ZM63.4874 18.793C61.0413 17.8401 58.6142 18.7094 56.6076 20.0634C56.4547 20.1637 56.3783 20.2975 56.3592 20.4312C58.751 19.6476 61.263 19.18 63.8123 19.0437C63.755 18.9434 63.6403 18.8598 63.4874 18.793Z" fill="black"/>
<path fill-rule="evenodd" clip-rule="evenodd" d="M94.3713 77.518C94.3713 77.518 97.0908 79.3568 102.147 79.3568C107.202 79.3568 110.133 77.7019 110.133 77.7019C110.133 77.7019 105.709 75.3615 102.147 75.1609C98.5846 74.9771 94.3713 77.5013 94.3713 77.5013V77.518Z" fill="#FF6C6C"/>
<path fill-rule="evenodd" clip-rule="evenodd" d="M88.3388 72.871C88.3388 71.0322 90.1773 70.6979 91.92 70.9486C94.8514 71.3856 97.8143 71.6426 100.787 71.7176H101.304C101.4 71.6173 101.534 71.5504 101.725 71.517C103.372 71.3498 105.058 71.3833 106.705 71.3498C108.16 71.2997 109.654 71.1827 111.109 71.283H111.224C112.986 71.4501 114.863 72.2191 114.652 74.0412C114.461 75.7129 112.603 77.2174 111.148 78.1368C110.721 78.4086 110.273 78.6543 109.807 78.8723C108.357 79.5424 106.768 79.9517 105.134 80.0759C101.41 80.4309 97.6442 79.9654 94.1798 78.7218C93.0882 78.2872 92.0732 77.7523 91.1731 77.0836C89.7751 76.0806 88.3196 74.526 88.3388 72.8543V72.871ZM102.319 76.1809C100.917 76.1403 99.5182 76.3099 98.1824 76.6824C97.2823 76.9499 96.4588 77.4347 95.5779 77.7857C98.5778 78.6891 101.762 79.0309 104.924 78.7887C106.225 78.7133 107.501 78.4418 108.696 77.9863L108.122 77.652C106.357 76.7486 104.363 76.243 102.319 76.1809ZM102.606 60.4172C102.223 60.1664 102.53 59.3808 103.334 59.5145C110.688 60.6178 106.877 71.6675 97.4929 65.5993C96.3822 64.8137 97.7228 63.0918 98.9293 63.7605L99.3697 64.0447C100.749 64.9808 103.047 66.385 104.694 64.8805C106.264 62.9748 104.062 61.1862 102.606 60.4172ZM107.586 52.0589C109.156 50.8887 111.109 51.7246 112.258 52.9114L112.45 53.1288C112.699 53.3628 112.948 53.647 113.101 53.9479C114.384 52.995 116.108 52.3264 117.755 52.7777C118.515 52.9694 119.166 53.4002 119.584 53.9868C120.001 54.5734 120.155 55.2742 120.014 55.9539C119.689 57.5921 118.291 58.6954 116.759 59.5312L116.318 59.782C114.499 60.785 112.795 61.8214 111.282 63.2256C111.033 63.4429 110.516 63.4095 110.343 63.1086L110.228 62.8745L110.094 62.6238C109.022 60.6345 107.873 58.662 106.934 56.6392C106.245 55.1348 106.015 53.2123 107.586 52.0422V52.0589ZM90.0049 52.8446C91.154 51.6744 93.0882 50.9055 94.6203 52.0255C96.2481 53.2291 95.9226 55.2016 95.1948 56.7563C94.333 58.5951 93.318 60.4005 92.3222 62.2226L92.1307 62.6071L91.8626 63.1086C91.6902 63.3927 91.1731 63.4429 90.905 63.2089C89.4687 61.8548 87.8217 60.8518 86.0598 59.8655L85.5236 59.5646C83.9915 58.7121 82.5169 57.6088 82.1913 55.9372C82.0513 55.2575 82.2048 54.5567 82.6221 53.9701C83.0395 53.3835 83.6911 52.9527 84.4511 52.761C86.0981 52.3264 87.8217 52.9783 89.1048 53.9312C89.258 53.6303 89.5261 53.3294 89.7751 53.0953L90.0049 52.8446ZM91.8626 44.737C92.4371 45.3723 91.8243 46.4087 91.0008 46.5759C90.0049 46.7765 88.9708 46.6427 87.9749 46.9102C87.0649 47.1745 86.2061 47.5577 85.4278 48.0469C84.5277 48.5819 83.7042 49.1669 82.9574 49.8356C82.5169 50.2368 81.9424 51.1729 81.2529 51.1896C80.5635 51.2064 81.4827 49.3508 81.5593 49.1837C82.1147 48.0135 82.8616 46.9603 83.8192 46.0242C85.6959 44.1854 89.6793 42.2463 91.8626 44.737ZM112.833 44.2355L113.293 44.3358C114.493 44.5811 115.639 44.9991 116.682 45.5729L116.759 45.623L116.893 45.7066C118.138 46.509 119.9 48.1305 118.999 49.5514C118.961 49.6517 118.808 49.6517 118.712 49.6183C117.544 49.1669 116.663 48.281 115.418 47.8965L115.188 47.8296C113.902 47.401 112.543 47.1637 111.167 47.1275C110.247 47.3783 109.022 47.1777 108.773 46.1914V46.1412L108.754 46.0409C108.601 45.3723 108.811 44.5364 109.596 44.2021C110.688 43.7675 111.741 43.9681 112.833 44.2355Z" fill="black"/>
<path fill-rule="evenodd" clip-rule="evenodd" d="M119.363 61.1862C117.602 63.1086 110.726 65.2484 107.049 62.9415C103.411 60.6179 101.936 59.0131 101.457 56.1211C101.4 55.8202 100.768 55.6196 100.5 55.8369C99.0849 57.1106 97.9203 58.579 97.0525 60.1832C95.9418 61.9385 94.8502 63.6937 92.8776 64.914C89.3538 66.5522 82.9957 66.7863 81.1189 66.0675C79.2015 65.3118 77.541 64.1355 76.2992 62.6531C75.0574 61.1707 74.2767 59.4329 74.0331 57.6089C74.0331 57.6089 73.3819 55.8035 72.7883 55.419C72.252 55.0512 69.2262 54.7336 68.9006 54.6835C62.9638 53.7139 55.4183 53.0954 50.1135 56.4889C49.4049 56.8733 46.9536 58.2943 46.9153 57.9432C46.9153 56.5724 48.6772 53.4632 52.718 51.9921C57.7164 50.1533 65.1662 50.0697 69.4751 50.4709C69.6858 50.4709 70.4327 50.3204 70.471 50.3037C77.0015 47.8464 84.5278 48.4983 91.4988 49.5348C92.5138 49.7019 101.457 51.6411 105.038 50.4709C110.937 48.3646 117.219 46.8434 123.577 47.4452C123.634 47.4452 124.438 51.7079 123.806 51.9921C123.309 52.2261 122.466 52.8279 122.159 53.1456C121.859 53.4706 121.709 53.8821 121.738 54.299C121.929 56.7701 121.085 59.2177 119.363 61.1862ZM95.1183 58.6453C95.8843 57.6925 96.1141 55.5695 95.7886 54.0315C95.6354 53.2459 95.3289 52.6273 94.9459 52.3097C94.8303 52.2109 94.692 52.1345 94.5402 52.0855C94.3884 52.0365 94.2265 52.0161 94.065 52.0255C93.8926 52.0255 93.7011 52.0757 93.4905 52.176C90.6731 50.9323 87.5248 50.3723 84.3746 50.5545C81.885 50.5545 80.1231 51.056 78.9166 51.8751C77.4611 52.8279 76.81 54.2154 76.7717 55.7032C76.8027 57.6145 77.5643 59.4619 78.9357 60.9522C80.1518 62.4143 81.9592 63.4182 83.9916 63.7606C86.1939 64.1451 88.4537 63.7606 90.4071 62.8746C92.4434 61.9271 94.0903 60.4486 95.1183 58.6453ZM116.912 59.6483C118.176 58.3444 119.019 56.6393 119.134 54.9677C119.249 53.4632 118.789 51.9587 117.487 50.6882C116.338 49.819 114.25 49.8022 112.067 50.287C109.603 50.8145 107.311 51.8266 105.364 53.2459C105.134 53.3629 104.924 53.53 104.751 53.9145V54.0817C104.445 55.2518 104.617 56.4554 105.134 57.5587C105.713 58.7764 106.627 59.8503 107.796 60.6847C109.328 61.788 110.937 62.1224 112.431 61.9385C114.197 61.6733 115.791 60.8527 116.912 59.6316V59.6483Z" fill="white"/>
<path fill-rule="evenodd" clip-rule="evenodd" d="M104.828 49.986C110.803 47.8797 117.199 46.3585 123.634 46.9603C124.17 46.7932 124.841 46.9269 125.07 47.5956C127.369 53.7138 122.236 52.0087 122.313 54.2822C122.849 67.1205 103.104 69.3104 100.883 56.2213L100.844 56.238C97.6462 58.8458 96.9759 63.0751 93.2224 65.3319C91.4582 66.4582 89.3854 67.1592 87.2123 67.3645C85.0393 67.5697 82.8427 67.2719 80.8433 66.5009C78.844 65.73 77.1125 64.5131 75.8229 62.9727C74.5332 61.4323 73.731 59.6227 73.4969 57.7258L73.4586 57.6088C72.9989 55.8368 72.4436 55.4022 70.1454 55.4189L69.7816 55.3521C63.8448 54.3323 55.9354 53.4129 50.4391 56.9234C49.2517 57.5252 49.2134 59.0966 48.1984 59.7652C47.0877 59.9324 46.4174 58.7957 46.3408 57.9933C46.1493 50.0028 62.5425 49.4344 69.8582 50.1198C70.0114 49.986 70.2986 50.0028 70.4135 50.1532C77.0398 47.6457 84.5087 47.9968 91.5945 49.0499C95.9992 49.8022 100.347 51.4905 104.828 50.0195V49.986ZM123.04 48.4147C119.459 48.2475 116.146 48.4314 112.641 49.1836C110.784 49.5681 109.367 50.0696 107.586 50.6547C96.5163 54.9341 95.2524 47.3281 70.471 50.3204C70.7966 51.5072 70.854 52.6941 70.854 53.8308C75.929 53.6637 74.7417 57.8763 76.6376 60.8351L76.6951 60.9187C77.3638 62.0033 78.2781 62.958 79.3823 63.7249C80.4865 64.4918 81.7577 65.0549 83.1187 65.3801C84.4798 65.7052 85.9023 65.7856 87.3 65.6164C88.6977 65.4472 90.0415 65.0319 91.2498 64.3957C95.6545 62.1557 96.0567 56.5055 100.442 54.2488C104.215 54.115 102.702 58.5951 104.77 60.4339C105.52 61.2529 106.458 61.9254 107.524 62.408C108.59 62.8906 109.76 63.1726 110.958 63.2356C112.157 63.2986 113.357 63.1413 114.482 62.7739C115.606 62.4065 116.63 61.8371 117.487 61.1026C119.191 59.5646 120.091 57.6255 120.149 55.5359C120.244 54.1986 119.976 52.8446 121.125 51.9084C121.949 51.1896 123.385 51.4237 123.538 50.3371C123.653 49.7019 123.347 48.9998 123.06 48.4147H123.04ZM84.1256 50.1699C87.6877 50.0028 91.4413 50.5544 94.5055 52.0756C96.7653 50.5042 97.3207 56.7562 95.8077 58.5449C93.6437 62.4065 88.607 64.9474 83.7618 64.1115C76.2163 63.1587 70.9306 50.1532 84.1256 50.1699ZM94.2757 52.5102L94.0842 52.4768C90.8285 52.0255 81.885 50.0028 78.4378 53.1956C75.1055 58.4948 83.5703 67.388 92.3989 60.3002C94.8502 58.127 95.8077 55.4858 94.2757 52.4935V52.5102ZM104.675 53.1789C106.36 51.4237 115.016 47.863 118.023 50.1365C123.538 55.5192 114.806 66.4184 107.49 61.1026C105.058 59.3473 103.468 56.5055 104.177 53.7807V53.6637C104.177 53.6135 104.177 53.6302 104.234 53.5801C104.33 53.3628 104.502 53.2458 104.694 53.1622L104.675 53.1789ZM117.946 56.4386C119.804 47.6457 112.048 50.989 105.709 53.3294C106.034 53.5968 106.034 53.9813 105.939 54.2822C105.268 60.8017 114.365 64.4793 117.965 56.4386H117.946ZM69.7433 50.521C67.0621 51.3234 49.5007 49.9025 47.8729 57.0906C49.5964 54.6667 53.1394 53.7138 56.3376 53.1956C60.6849 52.4768 64.9938 52.8947 69.2645 53.6302L69.3602 52.8613C69.456 52.0422 69.5518 51.2732 69.7433 50.521Z" fill="black"/>
</svg>
