<svg width="150" height="200" viewBox="0 0 150 200" fill="none" xmlns="http://www.w3.org/2000/svg">
<path fill-rule="evenodd" clip-rule="evenodd" d="M144.643 173.987C143.507 168.298 142.511 162.588 141.655 156.86C141.464 155.554 141.176 154.079 142.172 153.129C143.57 151.772 144.853 150.619 145.007 148.686C145.16 146.872 144.47 144.888 144.049 143.124C143.116 139.428 142.011 135.767 140.736 132.152C139.472 128.472 138.074 124.826 136.657 121.197C135.335 117.806 134.071 114.363 132.348 111.107C129.092 104.918 123.538 100.339 116.721 97.2696C114.997 96.5065 111.55 93.7932 109.769 93.1997C108.141 92.6231 108.141 94.268 106.532 93.6406C105.249 93.1488 104.043 92.5044 103.334 91.4022C102.568 90.2151 100.595 88.5363 100.289 87.1627C99.657 84.212 100.346 81.7022 97.9909 79.4807C95.8226 77.5356 93.1043 76.1417 90.1198 75.4447C83.6659 73.8676 75.0863 74.9699 71.1987 80.2777C69.341 82.8045 68.709 85.8739 66.1811 87.9258C63.9979 89.7403 64.4958 90.9782 61.6615 91.8939C61.4891 91.9448 57.1418 91.1308 56.9886 91.1817C53.8862 90.5882 50.9178 92.2331 48.0834 93.1827C43.8487 94.6146 39.8031 96.4512 36.0183 98.6602C28.4129 103.146 21.7774 108.804 16.4269 115.364C9.67761 123.581 4.71589 132.84 1.79554 142.666C1.46997 143.751 1.12525 144.871 1.50827 145.956C1.83384 146.855 2.54242 147.516 3.38507 148.059C4.53412 148.788 6.83224 149.246 6.77479 150.721C6.75564 151.84 6.31517 153.01 6.1045 154.113C5.85554 155.418 5.66403 156.741 5.45337 158.047C4.53412 164.05 3.80639 170.087 3.48082 176.124C3.05878 182.109 3.02681 188.111 3.38507 194.1C3.40422 194.49 3.53827 194.863 3.76809 195.151C3.57658 195.219 3.53827 195.558 3.78724 195.609L4.30431 195.694C4.69159 195.951 5.16076 196.093 5.64488 196.101L6.69818 196.134C10.3943 196.813 14.0905 197.474 17.8249 197.966C22.3828 198.559 26.9408 199.034 31.5178 199.441C40.9401 200.255 50.2858 199.984 59.6889 199.543C69.0898 199.103 78.5066 198.99 87.9175 199.204C97.3397 199.441 106.762 199.797 116.184 199.95C126.717 200.12 137.25 199.865 147.745 199.102C149.181 199.017 150.082 198 149.794 196.728C148.09 189.148 146.156 181.618 144.624 174.004L144.643 173.987Z" fill="#AE5D29"/>
<path fill-rule="evenodd" clip-rule="evenodd" d="M48.0643 93.1827L48.2941 93.1148C51.071 92.1482 53.9628 90.6051 56.9886 91.1816C57.0844 91.1477 59.0569 91.5038 60.4167 91.7243L59.1335 92.9113L56.8737 93.2675C64.6682 104.646 73.8798 110.344 84.5086 110.344C95.1374 110.344 103.219 104.646 108.715 93.2675L109.481 93.0979C109.558 93.0979 109.673 93.1318 109.769 93.1657C111.55 93.7762 115.016 96.4895 116.721 97.2526C123.538 100.305 129.073 104.884 132.348 111.09C134.014 114.244 135.259 117.534 136.523 120.841L136.657 121.18C138.074 124.809 139.472 128.472 140.736 132.135C141.942 135.595 143.034 139.088 143.915 142.615L144.049 143.107C144.47 144.871 145.16 146.838 145.007 148.669C144.949 149.301 144.754 149.917 144.432 150.484L129.035 155.401L136.389 199.713C129.667 199.967 122.925 200.052 116.184 199.933C106.762 199.78 97.3397 199.424 87.9174 199.204C78.7824 199 69.6666 199.085 60.5316 199.492L58.2334 199.594C49.3357 200.119 40.4062 200.063 31.5178 199.424L30.9242 199.373V192.878L34.0458 156.775L18.1505 154.13L2.58071 147.431C2.09152 147.018 1.7234 146.506 1.50826 145.939C1.14439 144.921 1.4125 143.904 1.69977 142.886L1.79552 142.666C4.75835 132.853 9.71651 123.601 16.4269 115.364C21.7703 108.799 28.3992 103.136 35.9992 98.6431C39.7911 96.4386 43.8319 94.5902 48.0643 93.1657V93.1827Z" fill="#E279C7"/>
<path fill-rule="evenodd" clip-rule="evenodd" d="M54.0394 90.9951C55.0161 90.9442 56.012 91.0968 56.9887 91.1646C57.0653 91.1816 57.1036 91.3003 56.9887 91.3173C55.2651 91.6395 53.5415 92.0804 51.837 92.5213L51.1093 92.7248C49.1942 93.2335 47.3174 93.7423 45.4406 94.4206C41.7253 95.7603 38.2016 97.5578 34.9459 99.6436C22.4403 107.648 13.401 119.773 7.6749 132.322C5.74814 136.562 4.19233 140.928 3.02121 145.379C2.94461 145.651 2.6382 146.295 2.8297 146.566C2.96376 146.787 3.51914 146.922 3.78725 147.058L4.64905 147.448L9.47509 149.636L9.91557 149.822C17.1929 152.976 24.9299 155.656 33.0882 155.842L33.1648 155.215C33.4544 151.78 34.0889 148.375 35.0608 145.04C35.1182 144.87 35.3672 144.938 35.3864 145.091C35.9609 149.008 35.7694 152.959 35.5779 156.911C35.2332 163.863 34.7544 170.85 34.3331 177.82C34.1032 181.313 33.8351 184.773 33.5862 188.283C33.3372 191.759 33.2606 195.337 32.6861 198.797C32.5712 199.577 31.537 199.984 30.771 199.916C29.9283 199.831 29.258 199.153 29.2389 198.39C29.2389 196.372 29.5262 194.32 29.6985 192.319L30.1773 186.587C30.771 179.617 31.4796 172.648 32.1307 165.678C32.3605 163.207 32.603 160.736 32.8584 158.267C24.2022 158.013 16.1205 155.164 8.40264 151.857C8.28773 154.096 8.01962 156.351 7.75151 158.573C7.02377 164.813 6.39179 171.054 5.91301 177.311C5.52311 182.546 5.25494 187.787 5.10867 193.031L5.07037 194.218C5.07037 194.964 4.97461 195.66 4.24688 196.202C3.53829 196.762 2.54244 196.796 1.83385 196.202C0.876306 195.422 1.02951 194.354 1.06782 193.302C1.14024 190.633 1.25516 187.965 1.41253 185.298C1.79136 179.087 2.46223 172.892 3.42339 166.729L3.8064 164.355C4.47669 159.946 5.24273 155.418 6.77481 151.145C6.18113 150.891 5.58745 150.636 4.99377 150.348C3.94046 149.89 2.84886 149.432 1.8147 148.923C1.01036 148.499 0.301777 147.94 0.0911159 147.092C-0.176998 146.159 0.206022 145.142 0.474135 144.226V144.158C1.73959 139.518 3.44366 134.98 5.56829 130.592C8.90893 123.509 13.2735 116.839 18.5527 110.751C23.2512 105.209 28.9985 100.43 35.5396 96.6251C38.7551 94.7972 42.2164 93.3331 45.8428 92.2669C48.4856 91.4747 51.2499 91.0458 54.0394 90.9951ZM71.2944 79.8028C72.4435 78.7005 74.7608 79.8367 74.2054 81.2951C73.0183 84.7495 70.7067 87.8169 67.56 90.1133C64.5853 92.3372 60.7605 93.4662 56.8738 93.2674L57.1993 93.6744C59.7666 96.9235 62.727 99.9145 66.0279 102.594C72.9223 107.885 82.2679 110.734 91.3072 108.699C98.4122 107.105 104.675 102.119 106.513 95.7772C106.264 95.879 105.939 95.9298 105.594 95.862C104.119 95.5737 102.664 94.2001 101.706 93.2166C100.691 92.1482 99.8868 91.012 99.2932 89.7063C98.2207 87.3321 97.876 84.2628 99.3506 81.9565C99.5421 81.6682 99.9251 81.8378 99.9826 82.1261L100.04 82.55C100.327 84.7037 100.672 86.7895 101.821 88.7566C102.684 90.2509 103.868 91.5815 105.307 92.6739C105.804 93.0131 106.417 93.2844 106.858 93.6914L106.954 93.7592C107.068 92.9113 107.739 92.5213 108.409 92.5382C109.041 92.5722 109.807 92.8096 110.094 92.9283L110.113 92.9452C114.561 94.8923 118.744 97.2818 122.581 100.068C130.635 105.641 136.547 113.281 139.51 121.943C140.947 126.234 141.77 130.66 142.632 135.069L143.168 137.782C143.972 141.835 144.872 145.99 146.692 149.771C147.171 150.738 146.807 151.654 145.639 152.044C144.207 152.529 142.77 153.004 141.33 153.468C142.038 156.181 142.479 158.98 142.996 161.693C144.145 167.475 145.524 173.224 146.711 178.99C147.324 181.958 147.879 184.925 148.492 187.859L149.392 192.132L149.852 194.439L149.871 194.557C149.967 194.964 150.062 195.388 149.947 195.795C149.794 196.253 149.392 196.575 149.028 196.914C148.722 197.186 148.301 197.186 147.937 197.033L147.803 196.982C147.151 196.711 146.654 196.44 146.405 195.795C146.27 195.371 146.213 194.913 146.117 194.489C145.602 192.028 145.104 189.563 144.624 187.096L144.317 185.553C143.321 180.228 142.364 174.886 141.866 169.527C141.674 167.153 141.425 164.762 141.195 162.371L141.023 160.591C140.812 158.335 140.544 156.012 140.506 153.723L139.644 153.994L135.393 155.334C134.339 155.673 132.999 156.351 131.869 156.215C131.314 156.164 130.911 156.012 130.567 155.724C130.95 160.607 131.486 165.457 132.195 170.307C133.299 177.979 134.704 185.615 136.408 193.201C136.523 193.743 136.676 194.286 136.772 194.829C136.867 195.456 136.676 195.829 136.293 196.355C135.967 196.762 135.335 196.982 134.799 196.694C134.11 196.304 133.746 195.965 133.554 195.27C133.363 194.642 133.248 193.981 133.114 193.336C132.303 189.664 131.575 185.978 130.931 182.28C129.437 173.462 128.498 164.576 128.02 155.69C127.791 151.295 127.702 146.895 127.752 142.496C127.752 140.241 127.847 137.986 128.02 135.73C128.211 133.458 128.594 131.236 128.939 128.981C128.939 128.896 129.073 128.896 129.073 128.981C129.226 131.508 129.475 134.034 129.609 136.561C129.724 138.986 129.782 141.394 129.877 143.819C129.992 146.99 130.165 150.178 130.394 153.349C130.596 153.15 130.85 152.998 131.134 152.906C131.418 152.814 131.723 152.786 132.022 152.824C132.922 152.654 133.88 152.247 134.722 151.976L137.94 151.043L142.996 149.568C141.533 145.067 140.382 140.491 139.549 135.866L139.165 133.78C138.399 129.676 137.538 125.555 136.14 121.57C134.664 117.412 132.411 113.503 129.475 110.005C126.485 106.579 123.103 103.437 119.383 100.627C116.242 98.1852 112.929 95.9807 109.73 93.6066C109.75 93.7592 109.769 93.9458 109.73 94.1153C109.06 98.5074 106.475 102.594 102.874 105.63C95.6545 111.735 84.9491 112.99 75.68 110.124C66.7365 107.359 58.8272 100.797 56.0311 92.6909C55.9737 92.5552 56.1843 92.5213 56.2801 92.6061L56.7397 93.1657C56.7397 93.0979 56.778 93.0131 56.8738 92.9961C60.2159 91.9327 63.2598 90.2438 65.7981 88.0444C67.5678 86.4206 68.9545 84.5009 69.8773 82.3974L69.9539 82.2278C70.2794 81.3799 70.5667 80.4981 71.2944 79.8198V79.8028Z" fill="black"/>
<path fill-rule="evenodd" clip-rule="evenodd" d="M85.694 15.1421C96.5488 15.1421 107.786 22.6036 111.761 27.3518C116.347 32.8631 119.978 59.3006 118.277 68.2713C116.577 77.2591 108.13 87.0268 93.4338 87.0268C78.776 87.0268 69.8322 85.4158 69.4882 83.0926C69.106 80.7524 59.7992 67.7965 59.7992 67.7965C59.7992 67.7965 50.263 65.4224 50.2439 59.7245C50.1866 54.0436 55.3464 51.9748 55.3464 51.9748C55.3464 51.9748 53.5118 29.5394 58.1174 23.7059C62.7613 17.8554 74.8583 15.1421 85.694 15.1421Z" fill="#AE5D29"/>
<path fill-rule="evenodd" clip-rule="evenodd" d="M78.3936 0.642913C79.846 -0.883303 82.4068 0.575081 82.3686 2.23696C82.9419 2.37262 83.6299 2.84745 83.8975 3.49185C84.4708 3.45793 85.0441 3.55968 85.5601 3.83101L85.6748 3.69534C87.4903 1.74518 89.8791 0.0663424 92.3443 1.49081C93.0132 1.8978 93.2999 2.5422 93.1661 3.23748V3.28835L93.2043 3.08486L93.147 3.37314L92.9559 3.7123C95.4785 2.11825 99.3197 3.05094 97.294 6.13729L98.1157 5.849C100.982 4.86544 104.499 3.81405 107.098 5.57768C108.263 6.56124 106.983 7.88396 105.798 8.20616L105.989 8.1892C108.283 7.85004 113.003 7.00214 113.672 9.61367C113.92 10.5633 113.213 11.2416 112.334 11.6317C114.207 11.6317 116.08 11.903 117.723 12.717C119.271 13.7005 118.01 15.3285 116.385 15.2607C116.882 15.8203 117.054 16.753 116.577 17.3465C117.494 17.5669 118.354 17.8552 119.137 18.2792L119.348 18.2961C120.934 18.4657 122.73 18.5844 123.59 19.958C124.871 22.9257 120.341 22.807 118.373 21.7725C118.488 21.9421 118.564 22.1117 118.621 22.3152L119.252 22.4678C121.641 23.0613 124.335 23.7057 125.864 25.4863C126.571 26.5038 125.597 28.2505 124.144 27.9283C128.119 29.6241 126.59 34.0501 122.692 31.7438C122.501 31.8964 122.291 32.0151 122.061 32.049L122.883 32.456C124.966 33.4735 127.47 34.8471 127.03 37.1534C126.629 38.3744 124.737 38.1539 123.743 37.6791C125.444 38.9848 127.03 40.3754 128.482 41.8847L128.884 42.3086C130.03 43.4957 131.98 45.7171 129.839 46.8872C127.24 48.0573 125.922 44.564 124.412 43.3261C125.616 45.8698 121.66 47.6334 120.284 45.0728C120.055 45.1067 119.806 45.1067 119.577 45.0728C120.781 46.2089 123.991 53.8909 119.997 52.1951C119.362 51.5899 118.787 50.9375 118.277 50.2449C118.927 54.654 119.386 59.0631 119.692 63.4721L119.806 65.0831C119.921 66.745 119.997 68.4069 119.806 70.0688C119.55 71.9739 118.93 73.8262 117.972 75.5462C117.088 77.1527 115.984 78.6564 114.685 80.0231C114.03 80.7771 113.257 81.4451 112.391 82.0072C111.665 82.4481 110.824 82.7194 110.022 82.9907C108.662 84.1273 107.099 85.0556 105.397 85.7379C102.679 86.85 99.7737 87.5603 96.7971 87.8407C93.7394 88.1629 90.6817 88.0781 87.6814 87.6202C84.8148 87.1793 81.7189 86.0601 79.9416 83.8895C79.7887 83.7199 80.0754 83.5503 80.2665 83.6182C84.0567 85.1079 88.1547 85.8818 92.3001 85.8905C96.4455 85.8993 100.548 85.1428 104.346 83.669C106.371 82.8211 108.072 81.6171 109.888 80.4979C110.232 80.0909 110.595 79.6839 110.996 79.3109L111.627 78.7173C113.594 76.9024 115.111 74.7419 116.08 72.375C117.456 68.9156 117.093 65.151 116.844 61.5389L116.825 61.2337C116.468 55.7684 115.792 50.3233 114.799 44.9201C114.341 44.2418 113.844 43.5974 113.29 43.0039C113.748 44.5471 112.181 46.7007 110.27 45.6832C108.091 44.0214 108.187 41.342 106.352 39.307C104.46 36.7125 91.3506 31.642 87.4329 30.9298C88.0827 31.7438 89.2293 32.3034 89.4969 33.27C94.2745 37.0177 86.4774 39.0357 84.0312 33.66C84.0886 35.4406 84.2988 37.2212 84.7383 38.9509C85.3881 40.5619 85.885 45.1915 82.6362 43.7839C81.0691 44.1909 79.8843 43.0039 79.6931 41.6812C78.5465 44.6827 79.6167 49.4988 77.5528 51.7203C76.9221 52.2968 75.9284 51.9068 75.6035 51.2454C73.6924 50.8045 73.8644 48.8205 73.616 47.4129C71.896 53.0599 69.6983 56.9772 69.3926 62.8786C70.7303 64.5744 67.7873 65.8293 66.5069 64.4726C64.7296 62.1833 66.3731 59.0461 66.7935 56.5363C66.2775 56.5363 65.7807 56.3159 65.3793 55.8919C65.15 56.672 65.2838 57.7064 65.3602 58.5713C64.2136 62.4886 59.9137 59.9788 60.1048 56.7907C59.9137 57.6895 59.7608 58.6052 59.6844 59.504C60.5061 60.3519 61.1177 61.3693 61.4999 62.4546C61.7483 63.2347 60.8692 63.7095 60.1621 63.5908C59.8182 64.6931 58.2511 65.4732 57.2191 64.4387C56.1871 63.506 56.0152 62.1833 55.9387 60.8776C55.8602 60.8096 55.7992 60.7276 55.7596 60.6369C55.72 60.5461 55.7029 60.449 55.7094 60.3519C55.7227 60.1729 55.7815 59.999 55.8814 59.8431L55.8049 59.0461C55.0023 61.2337 55.5183 63.506 55.5947 65.7445C57.04 66.3803 58.587 66.8149 60.1813 67.0333L60.4106 67.0842C60.9075 67.169 61.0795 67.8303 60.6972 68.1016C61.691 68.9495 62.551 70.0009 63.3727 70.9336C64.4811 72.2055 65.5513 73.5112 66.5833 74.817L67.1948 75.5801C68.953 77.8186 71.3992 80.8371 70.3099 83.6012C70.157 83.9743 69.5454 84.11 69.297 83.7199C68.4944 82.4142 68.0548 80.9727 67.2904 79.65C66.5451 78.3612 65.6278 77.1572 64.7105 75.9532L64.1754 75.2749C63.2963 74.0878 62.4172 72.9347 61.6145 71.7137L61.0412 70.8997C60.4966 70.1239 60.0175 69.3134 59.6079 68.4747C58.2129 68.763 56.7605 68.5595 55.4418 68.0338L55.4227 68.1186L55.3845 68.2712C55.1934 68.9835 54.085 69.4583 53.3779 69.0004C52.6016 68.4408 51.9708 67.7389 51.5287 66.9428C51.0867 66.1466 50.844 65.2751 50.8171 64.3879C50.4922 63.8791 50.1864 63.3365 49.9571 62.7938C49.8424 63.8961 49.3838 64.9644 47.8741 64.9305C45.3132 64.7609 45.0457 62.5903 45.7528 60.4366C42.6951 61.2845 42.3511 57.4351 43.3066 55.4341C42.9522 55.3478 42.6419 55.1562 42.4275 54.8914L42.2747 55.1288C41.7013 56.0276 41.0134 56.9094 40.0961 57.3842C38.7965 58.0286 36.9237 57.2146 37.0001 55.7902C37.2868 53.433 39.5992 51.6524 41.0134 49.7701C40.7458 49.804 40.4974 49.804 40.2489 49.7701C37.4206 51.1607 36.0828 47.8708 37.0766 45.9715C37.87 44.288 39.0402 42.765 40.5165 41.4946L40.1152 41.7151C39.3507 42.1051 38.529 42.4782 37.7072 42.3256C32.3563 45.4628 30.579 40.2058 36.5988 38.5609V38.527C36.0064 38.0182 35.7388 37.2043 36.2166 36.3733C33.9998 37.0516 30.8465 35.5254 32.7767 33.3887C34.0389 32.2882 35.5593 31.4486 37.2295 30.9298C37.1339 30.5398 37.1148 30.1497 37.153 29.7428H37.0384C36.0064 29.8954 34.7069 30.2685 34.0571 29.2679C33.7322 28.7592 33.7705 27.9283 34.3055 27.5382C36.1593 26.1816 38.2614 25.0624 40.5547 24.6045L40.8223 23.8753C38.873 23.8414 36.6753 21.5351 38.9112 20.2293C40.8287 19.2862 42.9871 18.7957 45.1795 18.8049C43.8799 17.6687 44.6444 15.5829 46.3834 15.2776C45.2368 13.124 48.0652 12.0047 50.1673 12.3609C50.0909 11.3943 50.6642 10.3259 51.7726 10.0885C51.1993 7.06998 54.7921 7.35826 57.0662 8.05354C56.3018 6.9004 57.0662 5.5268 58.404 5.11981C60.6017 4.67891 62.7039 6.52732 64.3665 7.6635C63.7932 6.47645 64.2709 5.39114 65.6278 4.91632C67.0228 4.44149 68.5326 5.37418 69.6792 6.00163C70.329 5.30635 71.3992 5.06894 72.3547 5.11981C72.4694 4.84848 72.6222 4.62803 72.8133 4.44149C72.8133 2.83049 75.9475 1.93172 77.0177 3.44097C77.1902 2.41382 77.6722 1.44709 78.4127 0.642913H78.3936ZM117.532 30.2345L117.57 30.4041L117.704 30.5228L118.105 30.6076L117.532 30.2345ZM119.959 25.9442L119.902 25.9951V26.029L120.246 26.1477L120.418 26.2155L120.475 26.2325C120.284 26.1477 120.131 26.0459 119.959 25.9442ZM91.7901 4.40758L91.6755 4.42454L91.5799 4.44149L91.4079 4.5602H91.5608L91.7901 4.39062V4.40758Z" fill="black"/>
<path fill-rule="evenodd" clip-rule="evenodd" d="M85.0639 67.4572C87.1705 66.338 94.965 67.152 101.112 67.4572C105.996 67.6946 109.481 67.2198 110.592 67.8812C113.101 69.3904 111.894 76.6484 107.528 77.6489C103.2 78.6325 87.1131 80.0231 84.3553 77.6489C81.5593 75.2748 81.3103 69.4583 85.0639 67.4572Z" fill="white"/>
<path fill-rule="evenodd" clip-rule="evenodd" d="M87.7643 65.5409C91.0582 65.1848 94.2373 66.0666 97.4546 66.5245C99.482 66.8169 101.53 66.9868 103.583 67.0332C103.621 66.7619 103.774 66.5245 104.157 66.3549C104.924 66.0666 105.517 65.931 106.341 65.9479C107.107 65.9818 107.873 66.0497 108.62 66.1684C110.009 66.3614 111.303 66.9163 112.335 67.7624C114.633 69.7635 114.269 73.0024 112.507 75.19C108.83 79.7178 102.147 79.9382 96.4205 79.8704H95.8843C90.6561 79.7856 83.1872 80.4809 80.8125 75.2239C80.3834 74.2541 80.1907 73.215 80.2468 72.1746C80.3029 71.1342 80.6066 70.1161 81.138 69.1869C82.402 66.9824 85.0831 65.8292 87.7643 65.5409ZM104.081 73.0703H104.043C101.63 73.155 99.2165 73.2059 96.8035 73.2398C96.9311 74.2199 97.0779 75.198 97.244 76.1736C97.2823 76.3601 97.3972 76.6484 97.3589 76.818V76.8858C97.4478 76.922 97.5275 76.9737 97.5933 77.0378C97.6591 77.1019 97.7097 77.1771 97.7419 77.2589C99.6187 77.2589 101.63 77.2419 103.526 76.9367V76.9028C103.564 76.6823 103.679 76.5466 103.813 76.4449C103.947 75.7666 103.928 75.0204 103.985 74.3421L104.081 73.0703ZM94.965 73.2738C93.2414 73.3077 91.5179 73.3246 89.7751 73.3077H88.9708C89.1623 74.0877 89.3346 74.8678 89.4687 75.6818C89.6411 76.4958 88.8176 77.0384 88.0898 77.0045L88.3388 77.0384C90.5603 77.3097 92.8776 77.2419 95.1374 77.2419C95.0225 76.6145 95.0608 75.8853 95.0416 75.3765V75.2917L94.965 73.2738ZM83.1872 73.1381C83.2446 73.5451 83.3787 73.9521 83.5319 74.3251C84.2979 75.9022 85.9832 76.6314 87.7834 76.9536C87.4578 76.8519 87.2089 76.6145 87.1514 76.2414C87.0038 75.252 86.9334 74.2548 86.9408 73.2568C85.6768 73.2568 84.432 73.2229 83.1872 73.1211V73.1381ZM110.611 72.7989C109.711 72.9685 108.696 72.9007 107.815 72.9346L105.345 73.0194L105.46 74.5117C105.517 75.1391 105.517 75.8174 105.651 76.4618C107.317 75.9531 108.792 75.1561 109.903 73.8842C110.171 73.562 110.42 73.2059 110.611 72.7989ZM87.4004 68.1355C85.9066 68.4407 84.5277 69.1021 83.7617 70.3061C83.3191 71.034 83.1074 71.8544 83.1489 72.6802C84.3937 72.5615 85.6768 72.5106 86.9408 72.4767L86.9599 71.8662L86.9791 71.3575C87.0174 70.357 87.0365 69.1191 87.4004 68.1355ZM95.0608 68.2542L94.4288 68.1864C92.6095 68.0168 90.7901 67.8133 88.9899 67.915L88.1856 67.9998C88.5111 69.0173 88.4728 70.2213 88.6069 71.2388L88.7984 72.4089H89.124C91.0582 72.3071 93.0116 72.2393 94.965 72.1715V70.8827C95.0033 70.0687 94.9459 69.136 95.0799 68.2712L95.0608 68.2542ZM104.177 68.1185C101.545 68.4537 98.8801 68.5333 96.229 68.3559L96.3247 69.4073L96.5737 71.5101L96.6695 72.1206L103.851 71.7984H104.177L104.272 70.6114C104.349 69.8313 104.406 69.0512 104.521 68.2712L104.445 68.2542L104.177 68.1185ZM105.019 68.4068L105.249 71.7306L106.819 71.6627L107.624 71.6288C108.639 71.578 109.96 71.2897 110.975 71.561C111.052 70.747 110.784 69.95 109.96 69.4073C108.486 68.4407 106.647 68.7799 105.019 68.4068ZM99.6187 58.5203C101.974 57.3333 107.854 56.1123 108.237 59.86C108.428 61.5728 106.973 63.0142 105.268 63.6416L105.211 63.6586C103.621 64.2352 100.806 64.8965 99.4464 63.6586C98.2973 62.6072 99.8294 60.7418 101.227 61.5897C101.974 62.0306 103.506 61.7084 104.311 61.488H104.368C105.249 61.2506 106.417 60.5214 106.053 59.5717C105.728 58.7238 104.368 58.5543 103.506 58.5543C102.223 58.5034 100.978 58.7577 99.7145 58.8425C99.523 58.8425 99.4655 58.6051 99.6187 58.5034V58.5203ZM109.347 52.5003C112.546 52.3646 114.518 55.4509 113.79 57.9777C113.676 58.4186 113.12 58.8256 112.584 58.7917H112.45L112.258 58.7577C111.741 58.6221 111.301 58.1642 111.339 57.6724V57.5368C111.416 56.3497 111.263 54.9761 109.673 54.6878C108.313 54.4335 107.566 55.5866 107.528 56.655C107.528 56.8415 107.298 56.9941 107.107 56.8754C106.111 56.3667 105.958 55.2983 106.341 54.3996C106.57 53.8532 106.979 53.3802 107.515 53.0417C108.051 52.7031 108.689 52.5145 109.347 52.5003ZM85.6768 53.1616C88.0132 52.4833 90.5028 53.5686 91.6328 55.3831C92.0158 55.4849 92.4179 55.7562 92.3605 56.1632C92.2839 56.7567 92.169 57.1298 91.7094 57.5876C90.9816 58.2829 89.6028 57.9268 89.3155 57.062V57.028C88.9516 55.9088 87.5727 55.1627 86.3088 55.5527C84.815 56.0106 84.8725 57.4011 83.8192 58.1981C83.7043 58.2999 83.551 58.3168 83.417 58.249C82.3062 57.7742 82.4977 56.3667 82.8999 55.5357C83.417 54.4843 84.432 53.5347 85.6768 53.1616ZM82.536 46.9211C84.4128 45.2253 89.3346 43.5804 90.6178 46.7176C90.8667 47.3111 90.3305 48.1082 89.6411 48.2438C88.492 48.4473 87.4578 48.0064 86.3279 48.0742C85.3733 48.1262 84.4558 48.4206 83.6851 48.9221C81.6359 50.3296 81.1955 52.7038 79.7592 54.5013C79.6825 54.5861 79.5676 54.5522 79.5485 54.4504C79.4294 53.0806 79.6335 51.7037 80.1479 50.4075C80.6622 49.1113 81.4755 47.924 82.536 46.9211ZM107.049 45.2423C108.325 44.8732 109.7 44.8732 110.975 45.2423C112.848 45.752 114.425 46.8819 115.38 48.3964C115.533 48.6508 115.706 49.1426 115.878 49.4478C116.855 49.9566 117.276 51.0928 116.395 51.9067L116.357 51.9576L116.242 52.0594C116.005 52.267 115.71 52.4155 115.387 52.4899C115.064 52.5644 114.725 52.5621 114.403 52.4833C112.967 52.1102 112.795 51.1097 112.297 50.0414C111.956 49.3282 111.407 48.7079 110.707 48.2438C109.801 47.7041 108.775 47.3431 107.698 47.1851C106.621 47.0271 105.518 47.0759 104.464 47.3281C104.368 47.345 104.253 47.2263 104.311 47.1585C104.694 46.7176 104.885 46.3784 105.402 46.0393C105.9 45.7001 106.456 45.4288 107.049 45.2423Z" fill="black"/>
</svg>
