<svg width="231" height="231" viewBox="0 0 231 231" fill="none" xmlns="http://www.w3.org/2000/svg">
<g clip-path="url(#clip0_252_42)">
<path d="M115.5 51.75C99.5037 51.749 84.0916 57.7618 72.3221 68.5951C60.5527 79.4284 53.286 94.2904 51.9641 110.232C50.6423 126.174 55.3618 142.03 65.1863 154.653C75.0107 167.277 89.222 175.746 105 178.38V192.47C85.782 194.224 67.3099 200.766 51.271 211.497C70.2777 224.215 92.632 231.003 115.501 231.003C138.37 231.003 160.724 224.215 179.731 211.497C163.692 200.765 145.22 194.223 126.002 192.468V178.384C140.883 175.899 154.401 168.217 164.151 156.703C173.902 145.189 179.252 130.59 179.252 115.503C179.252 98.6128 172.549 82.4128 160.615 70.4603C148.682 58.5077 132.492 51.7795 115.602 51.753C115.569 51.753 115.536 51.753 115.502 51.753L115.5 51.75Z" fill="#EF9831"/>
<path d="M141.75 195C155.313 198.15 168.189 203.741 179.75 211.5C160.742 224.214 138.388 231 115.52 231C92.6519 231 70.2982 224.214 51.29 211.5C62.8512 203.741 75.7275 198.15 89.29 195C89.29 205.76 101.04 214.48 115.54 214.48C130.04 214.48 141.79 205.76 141.79 195H141.75Z" fill="#D85CD7"/>
<path d="M157.79 67.4986C146.345 78.6664 130.99 84.921 115 84.9286H59.2998C77.4598 47.1886 127.57 38.0786 157.79 67.4986Z" fill="#FFEB3B"/>
<path d="M122.93 7.00947C112.427 6.85218 101.84 8.65427 93.3852 12.4411C76.2442 20.341 61.2162 35.7381 49.4122 51.2201C44.2419 58.0832 40.6343 64.6801 41.2267 69.6151C42.1579 81.9271 51.5987 96.0981 52.2947 106.515C67.9577 34.4341 158.285 36.0631 177.205 99.4626L177.209 99.4782C182.825 88.5522 185.277 79.2902 185.561 71.8252C185.997 56.2182 177.752 50.6762 163.826 43.5762C165.619 39.8058 165.553 36.0739 165.888 33.4222C165.089 25.5654 162.209 19.9122 155.458 15.6642C149.515 11.9238 142.398 9.57747 136.995 8.43757C132.463 7.55862 127.705 7.08137 122.931 7.00987L122.93 7.00947Z" fill="#FFEB3B"/>
<path d="M143.61 46.3802C131.971 46.505 122.612 48.2708 122.612 48.2708L113.612 51.7767C114.242 51.7576 114.872 51.7478 115.502 51.7474H115.602C150.771 51.8024 176.561 78.9824 178.885 115.13C178.886 146.287 156.143 172.343 125.779 178.209L125.757 192.707C137.324 193.764 148.911 196.314 159.644 200.754C195.596 185.439 214.726 148.451 196.353 132.475C191.335 124.571 185.913 117.066 186.799 109.445C191.853 58.9927 187.195 45.8832 143.61 46.3802ZM73.6438 67.4702C58.3578 70.7142 56.5478 71.2002 41.9098 74.1655C44.9402 87.2465 44.9681 96.4395 43.1183 104.177C39.3179 115.538 34.1471 123.964 30.8323 132.941C23.95 155.4 27.9166 164.923 42.9253 179.106C51.5848 187.176 62.7863 195.315 73.8643 199.753C76.5333 198.722 79.2372 197.791 81.9703 196.961C89.4682 194.686 97.3583 193.308 105.176 192.594L105.22 178.201C81.2866 173.607 60.9366 156.221 54.4496 132.384C48.1177 109.119 54.9598 83.6322 73.6438 67.4702Z" fill="#FFEB3B"/>
<path d="M85.29 98.7266V109.787" stroke="black" stroke-width="8.7999" stroke-linecap="round" stroke-linejoin="round"/>
<path opacity="0.67" d="M108.28 72.1562H170.46C179.65 72.1562 183.78 73.3662 185.17 80.6762C188.78 99.6262 187.37 114.166 184.73 124.426C183.378 129.575 181.4 134.539 178.84 139.206C176.781 142.82 174.419 146.252 171.78 149.466C169.98 151.736 166.61 150.676 167.59 148.376C167.73 147.906 167.86 147.376 167.99 146.896C168.681 144.761 168.859 142.493 168.51 140.276C167.881 137.833 166.528 135.637 164.63 133.976C160.46 130.076 151.82 125.266 132.1 120.316C125.7 118.716 121.41 118.076 120.34 117.526C119.179 116.931 118.205 116.027 117.526 114.914C116.847 113.8 116.488 112.521 116.49 111.216V102.216C116.49 99.8262 116.67 97.6662 114.93 95.6462C113.19 93.6262 110.77 93.5162 108.28 93.5062C106.688 93.5062 105.162 92.8741 104.037 91.7489C102.912 90.6237 102.28 89.0975 102.28 87.5062V78.1562C102.28 76.565 102.912 75.0388 104.037 73.9136C105.162 72.7884 106.688 72.1562 108.28 72.1562Z" fill="#000088"/>
<path d="M135.9 98.7309V108.001M151.12 98.7109V108.001" stroke="#00FFFF" stroke-width="7.7998" stroke-linecap="round" stroke-linejoin="round"/>
<path d="M127.84 146.727C125.6 155.657 120.92 161.807 115.5 161.807C110.08 161.807 105.4 155.657 103.16 146.727H127.84Z" fill="black"/>
</g>
<defs>
<clipPath id="clip0_252_42">
<rect width="231" height="231" fill="white"/>
</clipPath>
</defs>
</svg>
