<svg width="151" height="200" viewBox="0 0 151 200" fill="none" xmlns="http://www.w3.org/2000/svg">
<path fill-rule="evenodd" clip-rule="evenodd" d="M144.874 173.261C143.736 167.413 142.739 161.543 141.882 155.656C141.69 154.313 141.402 152.797 142.4 151.821C143.8 150.426 145.085 149.241 145.239 147.254C145.392 145.389 144.701 143.349 144.279 141.536C143.345 137.737 142.238 133.974 140.961 130.258C139.695 126.476 138.295 122.728 136.875 118.998C135.552 115.511 134.286 111.973 132.56 108.626C129.299 102.264 123.736 97.5571 116.907 94.4021C115.181 93.6177 111.728 90.8287 109.944 90.2186C108.314 89.6259 108.314 91.3168 106.703 90.6718C105.418 90.1663 104.209 89.5039 103.499 88.3709C102.732 87.1507 100.756 85.425 100.45 84.0131C99.8165 80.98 100.507 78.4002 98.1477 76.1167C95.976 74.1173 93.2533 72.6845 90.2641 71.9681C83.7999 70.347 75.2065 71.48 71.3126 76.936C69.452 79.5332 68.819 82.6883 66.287 84.7975C64.1003 86.6626 64.5991 87.9351 61.7602 88.8764C61.5876 88.9287 57.2333 88.092 57.0799 88.1443C53.9725 87.5342 50.9993 89.225 48.1604 90.2012C43.9189 91.6729 39.8668 93.5609 36.076 95.8314C28.4584 100.443 21.8123 106.258 16.4532 113.001C9.69315 121.448 4.72349 130.965 1.79846 141.066C1.47238 142.181 1.12711 143.332 1.51074 144.447C1.83683 145.371 2.54655 146.051 3.39054 146.609C4.54143 147.358 6.84323 147.829 6.78568 149.345C6.7665 150.496 6.32532 151.699 6.11433 152.832C5.86496 154.174 5.67315 155.534 5.46215 156.876C4.54143 163.046 3.81253 169.252 3.48644 175.457C3.06373 181.61 3.03171 187.779 3.39054 193.935C3.40972 194.335 3.54399 194.719 3.77417 195.015C3.58235 195.085 3.54399 195.434 3.79335 195.486L4.31125 195.573C4.69915 195.838 5.16908 195.984 5.65397 195.991L6.70896 196.026C10.411 196.724 14.1131 197.403 17.8535 197.909C22.4187 198.519 26.9839 199.007 31.5683 199.425C41.0057 200.262 50.3663 199.983 59.7845 199.53C69.2004 199.077 78.6322 198.961 88.0582 199.181C97.4955 199.425 106.933 199.791 116.37 199.948C126.92 200.123 137.47 199.861 147.982 199.077C149.42 198.99 150.322 197.944 150.034 196.636C148.327 188.845 146.389 181.105 144.855 173.279L144.874 173.261Z" fill="#AE5D29"/>
<path fill-rule="evenodd" clip-rule="evenodd" d="M48.1412 90.2015L48.3714 90.1318C51.1528 89.1382 54.0492 87.5519 57.0799 88.1446C57.1758 88.1097 59.1515 88.4758 60.5134 88.7024L59.2282 89.9226L56.9648 90.2886C64.7717 101.985 73.9981 107.842 84.6439 107.842C95.2896 107.842 103.384 101.985 108.889 90.2886L109.657 90.1143C109.733 90.1143 109.848 90.1492 109.944 90.1841C111.728 90.8116 115.2 93.6006 116.907 94.385C123.736 97.5226 129.279 102.229 132.56 108.609C134.228 111.851 135.475 115.233 136.741 118.632L136.875 118.98C138.295 122.711 139.695 126.476 140.961 130.241C142.17 133.797 143.263 137.388 144.145 141.014L144.279 141.519C144.701 143.332 145.392 145.354 145.239 147.237C145.181 147.886 144.985 148.52 144.663 149.102L129.241 154.157L136.607 199.705C129.874 199.966 123.122 200.053 116.37 199.931C106.933 199.774 97.4955 199.408 88.0582 199.182C78.9086 198.973 69.7781 199.06 60.6285 199.478L58.3267 199.583C49.4147 200.123 40.4709 200.065 31.5683 199.408L30.9737 199.356V192.68L34.1003 155.569L18.1796 152.849L2.58491 145.964C2.09494 145.54 1.72623 145.013 1.51074 144.43C1.14629 143.384 1.41483 142.338 1.70255 141.292L1.79846 141.066C4.76603 130.98 9.73213 121.469 16.4532 113.002C21.8052 106.254 28.4447 100.433 36.0568 95.8144C39.8548 93.5483 43.9021 91.6483 48.1412 90.1841V90.2015Z" fill="#78E185"/>
<path fill-rule="evenodd" clip-rule="evenodd" d="M54.1259 87.9526C55.1041 87.9003 56.1016 88.0572 57.0798 88.1269C57.1566 88.1443 57.1949 88.2663 57.0798 88.2838C55.3535 88.615 53.6272 89.0682 51.92 89.5214L51.1911 89.7306C49.2729 90.2535 47.3931 90.7764 45.5133 91.4737C41.7921 92.8508 38.2627 94.6985 35.0018 96.8425C22.4762 105.07 13.4225 117.533 7.68718 130.433C5.75733 134.791 4.19903 139.279 3.02605 143.855C2.94932 144.134 2.64242 144.796 2.83423 145.075C2.9685 145.301 3.52477 145.441 3.79331 145.58L4.65649 145.981L9.49025 148.23L9.93143 148.422C17.2204 151.664 24.9698 154.418 33.1412 154.61L33.2179 153.965C33.5079 150.434 34.1434 146.934 35.1169 143.506C35.1744 143.332 35.4238 143.401 35.443 143.558C36.0184 147.585 35.8266 151.646 35.6348 155.708C35.2895 162.855 34.81 170.036 34.388 177.201C34.1578 180.791 33.8893 184.347 33.6399 187.956C33.3905 191.529 33.3138 195.207 32.7384 198.763C32.6233 199.565 31.5875 199.983 30.8202 199.914C29.9762 199.826 29.3049 199.129 29.2857 198.345C29.2857 196.27 29.5734 194.161 29.746 192.104L30.2256 186.213C30.8202 179.048 31.5299 171.884 32.1821 164.72C32.4122 162.18 32.6552 159.64 32.911 157.102C24.2409 156.841 16.1463 153.912 8.41608 150.513C8.30099 152.814 8.03245 155.133 7.76391 157.416C7.03501 163.831 6.40201 170.246 5.92247 176.678C5.53195 182.058 5.26335 187.446 5.11685 192.836L5.07848 194.057C5.07848 194.824 4.98257 195.538 4.25367 196.096C3.54395 196.671 2.54651 196.706 1.83679 196.096C0.877708 195.294 1.03116 194.196 1.06952 193.115C1.14207 190.371 1.25717 187.629 1.41479 184.888C1.79423 178.503 2.46617 172.135 3.42886 165.801L3.81249 163.36C4.48385 158.828 5.25112 154.174 6.78565 149.781C6.19102 149.52 5.59639 149.258 5.00176 148.962C3.94677 148.491 2.85341 148.021 1.81761 147.498C1.01198 147.062 0.302259 146.487 0.0912617 145.615C-0.177281 144.656 0.206351 143.611 0.474894 142.669V142.6C1.74238 137.829 3.44917 133.165 5.5772 128.655C8.92319 121.374 13.2947 114.518 18.5823 108.26C23.2884 102.563 29.0449 97.6506 35.5964 93.7398C38.8171 91.8609 42.284 90.3559 45.9161 89.2599C48.5632 88.4456 51.3319 88.0047 54.1259 87.9526ZM71.4085 76.4479C72.5594 75.3149 74.8804 76.4828 74.3241 77.9819C73.1352 81.5327 70.8198 84.6857 67.6681 87.0462C64.6886 89.3322 60.8577 90.4927 56.9647 90.2884L57.2908 90.7067C59.8622 94.0465 62.8274 97.121 66.1336 99.8756C73.0389 105.314 82.3996 108.243 91.4533 106.151C98.5697 104.512 104.842 99.3875 106.683 92.8682C106.434 92.9728 106.108 93.0251 105.763 92.9553C104.286 92.659 102.828 91.2471 101.869 90.2361C100.852 89.1379 100.047 87.97 99.452 86.6278C98.3779 84.1874 98.0326 81.0324 99.5096 78.6617C99.7014 78.3654 100.085 78.5397 100.143 78.836L100.2 79.2718C100.488 81.4856 100.833 83.6296 101.984 85.6517C102.848 87.1876 104.034 88.5554 105.475 89.6783C105.974 90.0269 106.588 90.3058 107.029 90.7241L107.125 90.7939C107.24 89.9223 107.911 89.5214 108.582 89.5388C109.215 89.5737 109.983 89.8177 110.27 89.9397L110.29 89.9572C114.745 91.9585 118.934 94.4148 122.777 97.2783C130.844 103.007 136.766 110.861 139.733 119.765C141.172 124.175 141.997 128.724 142.86 133.256L143.397 136.045C144.203 140.211 145.104 144.482 146.927 148.369C147.406 149.363 147.042 150.304 145.872 150.705C144.437 151.204 142.999 151.692 141.556 152.169C142.265 154.958 142.707 157.834 143.224 160.623C144.375 166.568 145.756 172.477 146.946 178.403C147.56 181.454 148.116 184.504 148.73 187.52L149.631 191.913L150.091 194.283L150.111 194.405C150.207 194.824 150.302 195.259 150.187 195.678C150.034 196.148 149.631 196.48 149.267 196.828C148.96 197.107 148.538 197.107 148.173 196.95L148.039 196.898C147.387 196.619 146.888 196.34 146.639 195.678C146.505 195.242 146.447 194.771 146.351 194.336C145.835 191.805 145.336 189.272 144.855 186.736L144.548 185.149C143.551 179.676 142.591 174.185 142.093 168.677C141.901 166.236 141.652 163.779 141.421 161.321L141.249 159.49C141.038 157.172 140.769 154.784 140.731 152.431L139.868 152.71L135.609 154.087C134.554 154.435 133.212 155.133 132.08 154.993C131.524 154.941 131.121 154.784 130.776 154.488C131.159 159.508 131.696 164.493 132.406 169.479C133.512 177.365 134.919 185.214 136.626 193.011C136.741 193.569 136.895 194.126 136.99 194.684C137.086 195.329 136.895 195.713 136.511 196.253C136.185 196.671 135.552 196.898 135.015 196.602C134.324 196.201 133.96 195.852 133.768 195.137C133.576 194.492 133.461 193.813 133.327 193.15C132.515 189.375 131.785 185.586 131.14 181.785C129.644 172.721 128.704 163.587 128.224 154.453C127.995 149.935 127.906 145.413 127.956 140.891C127.956 138.573 128.052 136.255 128.224 133.936C128.416 131.6 128.8 129.317 129.145 126.999C129.145 126.911 129.279 126.911 129.279 126.999C129.433 129.596 129.682 132.193 129.817 134.79C129.932 137.283 129.989 139.758 130.085 142.251C130.2 145.511 130.373 148.788 130.603 152.047C130.805 151.842 131.059 151.686 131.344 151.592C131.628 151.497 131.934 151.468 132.233 151.507C133.135 151.333 134.094 150.914 134.938 150.635L138.161 149.677L143.224 148.16C141.759 143.534 140.606 138.83 139.772 134.076L139.388 131.932C138.621 127.713 137.758 123.477 136.357 119.381C134.88 115.107 132.623 111.089 129.682 107.493C126.687 103.972 123.3 100.741 119.574 97.8535C116.428 95.3434 113.109 93.0774 109.906 90.637C109.925 90.7939 109.944 90.9856 109.906 91.1599C109.235 95.6746 106.645 99.8756 103.039 102.996C95.8075 109.271 85.085 110.561 75.8011 107.615C66.8433 104.774 58.9213 98.0278 56.1208 89.6957C56.0632 89.5563 56.2742 89.5214 56.3701 89.6085L56.8305 90.1838C56.8305 90.1141 56.8688 90.0269 56.9647 90.0095C60.3122 88.9164 63.3611 87.1803 65.9034 84.9195C67.6759 83.2504 69.0648 81.2772 69.9891 79.1149L70.0658 78.9406C70.3919 78.0691 70.6796 77.1626 71.4085 76.4654V76.4479Z" fill="black"/>
<path fill-rule="evenodd" clip-rule="evenodd" d="M119.634 46.2224C119.558 42.3178 119.462 38.326 118.83 34.4737C118.277 30.7338 116.426 27.2526 113.547 24.5379C107.288 18.6984 98.2345 17.269 89.7741 15.9617L75.3417 13.7305C70.9392 13.0332 66.2305 11.9699 61.7897 12.9287C59.6522 13.4681 57.6847 14.4595 56.0474 15.8222C54.3821 17.0773 52.6211 18.4369 51.5109 20.1278C50.52 21.8733 49.8906 23.7701 49.6542 25.7232C47.7725 35.3957 47.8179 45.2976 49.7882 54.9554L49.9796 55.949C49.5122 57.1044 49.2724 58.3259 49.2714 59.5573C49.3288 63.1481 52.6594 65.3967 56.0091 66.6169C57.9424 67.3142 59.9713 67.7848 61.8854 68.5692C63.7694 69.4377 65.3973 70.705 66.6324 72.2646C69.2208 75.1849 72.2272 77.7762 75.5714 79.9693C82.711 84.606 91.7648 86.7849 100.436 85.1289C102.522 84.728 104.608 84.1005 106.484 83.1766C108.397 82.1805 110.013 80.7744 111.193 79.0803C113.49 75.9426 115.155 72.4215 116.419 68.8307C117.701 65.1701 118.62 61.5096 119.098 57.6921C119.596 53.8921 119.711 50.0398 119.634 46.2224Z" fill="#AE5D29"/>
<path fill-rule="evenodd" clip-rule="evenodd" d="M73.5807 0.13396C79.5336 -0.615584 87.7834 1.80736 90.7503 6.72297C104.972 3.65507 122.869 3.56792 134.584 13.7129C146.796 25.7579 131.464 41.6378 121.28 45.2112C122.027 48.4883 120.859 69.4929 112.686 78.8535C106.216 86.8022 91.114 90.4627 84.1083 80.9976L84.0701 80.9278C83.3044 79.8297 83.9552 79.8645 84.7209 80.6838C91.5734 86.1572 100.876 86.2618 108.054 80.4746C121.491 69.8938 120.113 43.9736 113.701 28.9827C95.4973 27.1524 75.9925 32.19 63.4168 44.6708L64.2781 49.325C64.4121 50.1268 64.5844 50.9112 64.6992 51.713C64.7949 52.236 64.7949 52.7241 64.4121 53.1424C63.1297 54.502 60.9667 52.4452 59.1866 51.6433C58.6506 51.5736 58.1338 51.5562 57.617 51.591C49.0609 52.5846 50.7453 67.6801 60.1436 65.048C60.9284 64.5947 61.6175 64.7342 61.9238 65.3792C64.1633 67.2443 65.6371 70.5737 69.3505 73.781C70.6713 75.0012 71.858 75.9948 73.351 76.9709C74.2124 77.7553 76.8347 78.5746 75.9925 79.9342C74.4229 83.0544 65.1777 73.2755 63.5508 70.5737C58.4209 72.4214 52.736 71.7938 47.4339 71.3406C19.4113 69.9984 23.1438 43.102 46.1132 26.1414C50.4528 23.2564 55.1729 20.8788 60.1628 19.0643C60.8327 18.8203 60.5456 17.8093 59.8565 18.0533C56.5834 19.2735 53.3868 20.7028 50.3242 22.3588V21.3652C50.3242 19.6918 50.3434 17.9487 50.6688 16.4322C50.8219 15.3689 51.0899 14.2358 51.511 13.3817C52.0278 10.7845 60.0096 1.84222 73.5616 0.13396H73.5807ZM57.2342 55.0424C57.6744 54.6589 58.4784 55.1121 58.8612 55.0947C59.8565 55.2167 60.7753 55.6002 61.5218 56.0709C62.0003 56.3149 62.3449 56.5415 62.6128 56.7681V56.7507L62.6511 56.7681C63.0531 57.0296 64.5652 58.5287 63.6082 58.1277L63.3976 57.8837L63.3593 57.9186L63.4168 57.9883C64.2207 59.1039 62.8425 57.936 62.6128 57.6222H62.5746L62.8617 57.9534L62.9574 58.058L63.0148 58.1103C63.9527 58.947 63.9719 59.6966 62.9 58.4589C62.9382 58.5112 62.9765 58.581 62.9765 58.6333L63.0339 58.703C63.8953 59.714 63.2062 59.3479 62.7851 58.9296L62.7468 58.8947C63.1297 59.4525 62.364 59.069 62.23 58.7727C62.0577 58.6507 61.9812 58.5287 61.9429 58.4938C61.1964 57.7966 60.1436 57.2213 59.244 56.9598L58.8612 56.9076C58.2869 56.803 57.751 56.7332 57.1959 56.681C57.1385 56.681 57.0619 56.6287 57.0045 56.5589C56.1814 56.5589 56.4302 56.2277 56.7748 56.1754H56.7365C56.2006 56.1231 55.8369 55.9488 56.3728 55.8268H56.4494L56.4303 55.792C55.9517 55.7397 56.258 55.3213 56.526 55.4433C56.4111 55.0947 56.9088 55.269 56.9662 55.2167L57.1002 55.1296C57.2533 55.025 57.1768 55.0424 57.2533 55.025L57.2342 55.0424ZM60.1053 49.7956L59.9905 49.8479L59.7034 49.9525L60.0862 50.1094V49.7956H60.1053Z" fill="black"/>
<path fill-rule="evenodd" clip-rule="evenodd" d="M104.957 67.2793C103.727 66.7858 102.337 66.7298 101.063 67.1225C99.5689 67.6039 98.1983 68.3572 97.0351 69.3362C96.5556 69.6849 96.1144 70.1032 95.6924 70.5041C95.117 71.0271 94.5415 71.55 93.9277 71.9683C94.3135 70.3284 95.1744 68.8119 96.4213 67.5757C97.7257 66.1289 99.5479 64.961 101.504 64.4032C102.491 64.1157 103.535 64.0291 104.563 64.1496C105.591 64.2701 106.577 64.5947 107.451 65.1004C109.12 66.0766 110.328 67.6803 110.577 69.6326C110.635 70.0509 110.424 70.4344 110.098 70.7133C109.733 71.0619 109.215 71.2711 108.755 71.2711C108.256 71.2711 107.815 71.0968 107.489 70.8005C107.146 70.4886 106.941 70.0729 106.914 69.6326C106.894 69.1445 106.76 68.7261 106.319 68.2206C106.012 67.872 105.456 67.4885 104.957 67.2619V67.2793ZM108.026 50.4233C107.547 50.5976 106.952 50.9986 106.779 51.4343C106.741 51.5389 106.722 51.6261 106.722 51.7307C106.549 51.4343 106.492 51.0683 106.53 50.7197C106.588 49.5866 107.758 48.7848 108.774 48.2967C109.12 48.1224 109.484 48.0178 109.848 47.9481L111.153 47.7563L109.944 47.2857C108.821 46.8671 107.773 46.2971 106.837 45.5949C105.508 44.6089 104.554 43.2669 104.113 41.76L104.075 41.6205C104.017 41.3765 103.941 41.2545 103.883 41.0976C103.825 41.0279 103.787 40.9233 103.73 40.8013C103.71 40.7141 103.691 40.6444 103.73 40.5921C103.73 40.5398 103.806 40.5224 103.864 40.5049C104.247 40.3655 104.9 40.4526 105.168 40.5572C105.82 40.7838 106.396 41.3068 106.952 41.7948C107.24 42.0389 107.489 42.2655 107.758 42.4572C109.422 43.6882 111.452 44.4407 113.589 44.6187L113.704 44.6361C114.241 44.671 114.759 44.8627 115.104 45.1939C115.43 45.4903 115.622 45.8912 115.622 46.3444C115.615 46.8042 115.408 47.2428 115.047 47.5646C114.881 47.7218 114.681 47.8462 114.46 47.9302C114.239 48.0141 114.001 48.0558 113.761 48.0527C113.416 48.0527 113.071 48.0178 112.726 47.9829L111.441 47.8086L112.4 48.593C112.591 48.7325 112.783 48.9068 112.956 49.116C113.838 50.2141 114.222 51.905 114.183 53.2298C114.183 53.4912 114.107 53.7527 113.953 53.9793C113.836 54.1838 113.656 54.3532 113.435 54.4674C113.182 54.5929 112.899 54.6588 112.611 54.6591C112.307 54.6669 112.009 54.5808 111.767 54.4151C111.465 54.1956 111.233 53.9067 111.095 53.5784C110.903 53.1426 110.903 52.6894 110.865 52.2187C110.865 51.905 110.865 51.5912 110.788 51.2775C110.712 50.8765 110.501 50.371 110.251 50.1967C109.868 49.9701 108.909 50.1444 108.276 50.3536L108.045 50.4233H108.026ZM102.77 54.4325C104.228 55.2518 106.415 57.1169 104.88 59.0867C103.039 60.8298 100.392 58.8426 99.0876 57.9362C97.8791 57.2389 96.5364 59.0344 97.6489 59.8536C107.048 66.1812 110.884 54.6591 103.499 53.5087C102.694 53.3692 102.387 54.2059 102.77 54.4499V54.4325ZM92.5083 51.905C92.1442 51.4761 91.67 51.135 91.1272 50.9114C90.3926 50.6512 89.5849 50.6145 88.8254 50.8068C88.0123 51.0364 87.3133 51.5174 86.8497 52.1664C86.4277 52.7242 86.14 53.3866 85.9673 54.0665C85.6803 53.7726 85.4937 53.4092 85.4302 53.0206C85.3218 52.4056 85.3878 51.7756 85.6221 51.1903C86.14 49.8655 87.3484 48.6802 88.7679 48.1747C90.0734 47.7408 91.5037 47.7293 92.8175 48.1421C94.1313 48.5549 95.2483 49.3667 95.9801 50.4408C96.126 50.6521 96.2142 50.8921 96.2376 51.1407C96.2609 51.3893 96.2187 51.6393 96.1144 51.8701C95.9976 52.1134 95.8264 52.3319 95.6118 52.512C95.3972 52.692 95.1438 52.8296 94.8676 52.916C94.5799 53.0031 94.2922 53.0031 94.0428 52.916C93.6783 52.8463 93.3523 52.672 93.0837 52.4628C92.8727 52.2885 92.7001 52.0967 92.5083 51.905ZM94.9251 43.5554C94.7552 43.7682 94.5292 43.9389 94.2677 44.0515C94.0063 44.1642 93.7179 44.2154 93.429 44.2004L93.3139 44.3049L93.0837 44.549C92.2878 45.3145 91.3696 45.9668 90.3599 46.4839C87.9182 47.7478 85.0925 48.2614 82.3036 47.9481L81.9776 47.8958C81.1911 47.7912 80.1361 47.6518 79.4839 47.1985C79.7525 47.1288 80.0019 47.1288 80.2512 47.1114C81.1929 47.0963 82.1283 46.9674 83.0325 46.7279C84.4712 46.3618 85.7947 45.8563 87.0607 45.1242C88.3421 44.3984 89.4774 43.4787 90.4175 42.4049L90.5326 42.2655L90.6668 42.0912C91.0505 41.6554 91.3765 41.2196 91.9712 40.9407C92.4315 40.7315 92.9111 40.6618 93.3523 40.7315C93.893 40.8239 94.3965 41.0466 94.8101 41.3765C94.9663 41.4976 95.0931 41.6469 95.1822 41.815C95.2714 41.983 95.321 42.1662 95.328 42.3526C95.3663 42.771 95.2129 43.2242 94.9443 43.5728L94.9251 43.5554Z" fill="black"/>
</svg>
