<svg width="231" height="231" viewBox="0 0 231 231" fill="none" xmlns="http://www.w3.org/2000/svg">
<g clip-path="url(#clip0_252_55)">
<path d="M115.5 51.75C99.5037 51.749 84.0916 57.7618 72.3221 68.5951C60.5527 79.4284 53.286 94.2904 51.9641 110.232C50.6423 126.174 55.3618 142.03 65.1863 154.653C75.0107 167.277 89.222 175.746 105 178.38V192.47C85.782 194.224 67.3099 200.766 51.271 211.497C70.2777 224.215 92.632 231.003 115.501 231.003C138.37 231.003 160.724 224.215 179.731 211.497C163.692 200.765 145.22 194.223 126.002 192.468V178.384C140.883 175.899 154.401 168.217 164.151 156.703C173.902 145.189 179.252 130.59 179.252 115.503C179.252 98.6128 172.549 82.4128 160.615 70.4603C148.682 58.5077 132.492 51.7795 115.602 51.753C115.569 51.753 115.536 51.753 115.502 51.753L115.5 51.75Z" fill="#AB5F2C"/>
<path d="M61.1098 205.588L64.5998 209.278L58.3398 215.878C62.7428 218.385 67.306 220.6 71.9998 222.508V200.508C68.2971 202.018 64.6755 203.721 61.1498 205.608L61.1098 205.588Z" fill="#EFEDEE"/>
<path d="M93.24 228.85V199L89.24 195C83.3574 196.372 77.5928 198.208 72 200.49V222.49C78.871 225.288 85.9979 227.411 93.28 228.83L93.24 228.85Z" fill="#EC0033"/>
<path d="M159 222.51V200.51C153.404 198.221 147.636 196.379 141.75 195L137.75 199V228.86C145.023 227.438 152.14 225.311 159 222.51Z" fill="#EC0033"/>
<path d="M169.89 205.588L166.4 209.278L172.66 215.878C168.257 218.385 163.694 220.6 159 222.508V200.508C162.703 202.018 166.324 203.721 169.85 205.608L169.89 205.588Z" fill="#EFEDEE"/>
<path d="M115.5 219.623C108.611 219.627 101.953 217.135 96.7598 212.608C91.5662 208.082 88.1879 201.828 87.25 195.003C90.18 194.263 93.17 193.643 96.19 193.133C96.6773 197.915 98.922 202.347 102.489 205.569C106.057 208.791 110.693 210.575 115.5 210.575C120.307 210.575 124.943 208.791 128.511 205.569C132.078 202.347 134.323 197.915 134.81 193.133C137.81 193.643 140.81 194.263 143.75 195.003C142.816 201.831 139.44 208.088 134.245 212.617C129.051 217.146 122.391 219.638 115.5 219.633V219.623Z" fill="#F2FF05"/>
<path d="M115.5 51.75C76.7982 57.0601 61.2852 69.788 55.6372 86.851" stroke="#32393F" stroke-width="12" stroke-linecap="round" stroke-linejoin="round"/>
<path d="M115.5 51.75C107.661 55.3837 109.903 68.333 101.159 75.202" stroke="#32393F" stroke-width="12" stroke-linecap="round" stroke-linejoin="round"/>
<path d="M111.35 48.6131C88.7162 41.695 68.8932 45.4143 55.6172 51.1236" stroke="#32393F" stroke-width="12" stroke-linecap="round" stroke-linejoin="round"/>
<path d="M115.47 54.0043C115.666 47.2269 115.326 27.6953 115.52 15.8203" stroke="#32393F" stroke-width="12" stroke-linecap="round" stroke-linejoin="round"/>
<path d="M68.874 28.1739C102.989 24.7919 110.861 41.4949 114.044 47.7759" stroke="#32393F" stroke-width="12" stroke-linecap="round" stroke-linejoin="round"/>
<path d="M116.49 48.6932C119.378 42.3913 126.848 27.1752 159.959 26.3672" stroke="#32393F" stroke-width="12" stroke-linecap="round" stroke-linejoin="round"/>
<path d="M116.92 51.7656C118.429 58.1647 120.419 67.3606 127.008 74.8236" stroke="#32393F" stroke-width="12" stroke-linecap="round" stroke-linejoin="round"/>
<path d="M113.81 51.5305C135.84 43.6631 160.519 44.1691 173.254 49.484" stroke="#32393F" stroke-width="12" stroke-linecap="round" stroke-linejoin="round"/>
<path d="M114.53 52.2812C150.756 57.1396 166.944 69.3733 173.903 85.6283" stroke="#32393F" stroke-width="12" stroke-linecap="round" stroke-linejoin="round"/>
<path d="M55.6371 86.8516C51.5158 99.3036 52.6494 114.065 53.8601 129.936" stroke="#32393F" stroke-width="12" stroke-linecap="round" stroke-linejoin="round"/>
<path d="M55.6142 51.125C42.1922 56.6269 33.7062 67.534 30.9022 79.899C29.07 88.3622 28.9213 98.055 29.2926 108.385" stroke="#32393F" stroke-width="12" stroke-linecap="round" stroke-linejoin="round"/>
<path d="M173.26 49.4844C198.177 59.8834 199.967 86.0214 200.469 109.104" stroke="#32393F" stroke-width="12" stroke-linecap="round" stroke-linejoin="round"/>
<path d="M173.9 85.625C179.304 98.25 179.141 113.3 178.474 129.205" stroke="#32393F" stroke-width="12" stroke-linecap="round" stroke-linejoin="round"/>
<path d="M53.8598 129.93C55.1528 146.881 56.5336 165.099 51.6934 183.123" stroke="#32393F" stroke-width="12" stroke-linecap="round" stroke-linejoin="round"/>
<path d="M29.292 108.383C29.9093 125.56 31.9642 144.502 30.1078 162.491" stroke="#32393F" stroke-width="12" stroke-linecap="round" stroke-linejoin="round"/>
<path d="M200.47 109.109C200.829 127.638 199.195 146.049 202.393 158.094" stroke="#32393F" stroke-width="12" stroke-linecap="round" stroke-linejoin="round"/>
<path d="M178.48 129.203C177.752 146.565 176.424 164.946 181.081 182.302" stroke="#32393F" stroke-width="12" stroke-linecap="round" stroke-linejoin="round"/>
<path d="M70.9589 94.9844H105.99C108.399 94.9844 110.351 96.9367 110.351 99.345L107.765 116.856C107.413 119.236 106.043 121.217 103.919 121.217H73.019C70.8951 121.217 69.1733 119.264 69.1733 116.856L66.5869 99.345C66.5869 96.9368 68.5395 94.9844 70.9481 94.9844H70.9589Z" fill="black" stroke="black" stroke-width="3.0045" stroke-linecap="round" stroke-linejoin="round"/>
<path d="M160.05 94.9844H125.019C122.61 94.9844 120.658 96.9367 120.658 99.345L123.244 116.856C123.596 119.236 124.966 121.217 127.09 121.217H157.99C160.114 121.217 161.836 119.264 161.836 116.856L164.422 99.345C164.422 96.9368 162.469 94.9844 160.061 94.9844H160.05Z" fill="black" stroke="black" stroke-width="3.0045" stroke-linecap="round" stroke-linejoin="round"/>
<path d="M90.607 102.352C89.693 102.363 88.8027 102.644 88.048 103.16C87.2934 103.675 86.7081 104.403 86.3659 105.25C86.0236 106.098 85.9397 107.027 86.1247 107.922C86.3096 108.817 86.7552 109.638 87.4054 110.28C88.0555 110.923 88.8812 111.358 89.7784 111.533C90.6757 111.707 91.6045 111.612 92.448 111.26C93.2915 110.908 94.0119 110.314 94.5187 109.554C95.0255 108.793 95.2961 107.9 95.2962 106.986C95.2963 106.372 95.1747 105.765 94.9384 105.199C94.7021 104.634 94.3558 104.12 93.9196 103.689C93.4835 103.258 92.9661 102.918 92.3974 102.689C91.8288 102.459 91.2202 102.345 90.607 102.352ZM140.327 102.352C139.411 102.354 138.516 102.628 137.756 103.138C136.995 103.648 136.403 104.373 136.054 105.219C135.705 106.066 135.614 106.997 135.794 107.895C135.974 108.793 136.416 109.618 137.065 110.265C137.713 110.912 138.539 111.352 139.437 111.53C140.336 111.708 141.267 111.616 142.113 111.265C142.959 110.914 143.682 110.32 144.191 109.558C144.7 108.797 144.971 107.901 144.971 106.986C144.971 106.376 144.851 105.773 144.618 105.21C144.384 104.647 144.042 104.136 143.611 103.705C143.179 103.275 142.667 102.934 142.104 102.702C141.54 102.469 140.936 102.35 140.327 102.352Z" fill="black"/>
<path d="M70.6598 94.9844H58.8848" stroke="black" stroke-width="3.0045" stroke-linecap="round" stroke-linejoin="round"/>
<path d="M172.13 94.9844H152.646" stroke="black" stroke-width="3.0045" stroke-linecap="round" stroke-linejoin="round"/>
<path d="M109.32 106.198C113.524 103.771 118.623 104.285 121.673 106.173" stroke="black" stroke-width="3.0045" stroke-linecap="round" stroke-linejoin="round"/>
<path d="M148.33 109.787L142.567 101.555" stroke="white" stroke-width="4" stroke-linecap="round" stroke-linejoin="round"/>
<path d="M156.27 105.003L153.867 101.57" stroke="white" stroke-width="4" stroke-linecap="round" stroke-linejoin="round"/>
<path d="M82.7482 114.339L73.7993 101.555" stroke="white" stroke-width="4" stroke-linecap="round" stroke-linejoin="round"/>
<path d="M91.4081 109.787L85.6455 101.555" stroke="white" stroke-width="4" stroke-linecap="round" stroke-linejoin="round"/>
<path d="M94.19 136.844H136.822C137.318 136.844 137.81 136.941 138.269 137.131C138.727 137.321 139.144 137.6 139.495 137.951C139.846 138.302 140.124 138.719 140.314 139.177C140.504 139.636 140.602 140.127 140.602 140.624V143.844C140.584 147.867 138.974 151.72 136.124 154.561C133.273 157.401 129.415 158.999 125.391 159.004H105.61C101.586 158.996 97.7282 157.398 94.8771 154.558C92.0261 151.719 90.4129 147.867 90.3892 143.844V140.624C90.3944 139.623 90.7944 138.664 91.5022 137.957C92.2099 137.249 93.1684 136.849 94.1694 136.844H94.19Z" fill="white" stroke="black" stroke-width="3" stroke-linecap="round" stroke-linejoin="round"/>
<path d="M130.96 136.837V157.997M100.049 136.837V157.997M110.389 136.837V158.997M120.699 136.797V158.997" stroke="black" stroke-width="3" stroke-linecap="round" stroke-linejoin="round"/>
</g>
<defs>
<clipPath id="clip0_252_55">
<rect width="231" height="231" fill="white"/>
</clipPath>
</defs>
</svg>
