<svg width="150" height="200" viewBox="0 0 150 200" fill="none" xmlns="http://www.w3.org/2000/svg">
<path fill-rule="evenodd" clip-rule="evenodd" d="M144.643 173.652C143.507 167.889 142.511 162.105 141.655 156.304C141.464 154.981 141.176 153.487 142.172 152.525C143.57 151.151 144.853 149.983 145.007 148.024C145.16 146.186 144.47 144.177 144.049 142.39C143.116 138.647 142.011 134.939 140.736 131.277C139.472 127.55 138.074 123.857 136.657 120.181C135.335 116.746 134.071 113.259 132.348 109.961C129.092 103.691 123.538 99.0538 116.721 95.9448C114.997 95.1719 111.55 92.4236 109.769 91.8224C108.141 91.2384 108.141 92.9046 106.532 92.269C105.249 91.7709 104.043 91.1182 103.334 90.0017C102.568 88.7994 100.595 87.0989 100.289 85.7076C99.657 82.7188 100.346 80.1767 97.9909 77.9265C95.8226 75.9563 93.1043 74.5445 90.1198 73.8385C83.6659 72.2411 75.0863 73.3576 71.1987 78.7338C69.341 81.2932 68.709 84.4021 66.1811 86.4805C63.9979 88.3184 64.4958 89.5723 61.6615 90.4998C61.4891 90.5514 57.1419 89.7269 56.9886 89.7784C53.8862 89.1772 50.9178 90.8434 48.0834 91.8053C43.8487 93.2555 39.8031 95.1159 36.0183 97.3533C28.4129 101.897 21.7774 107.628 16.4269 114.272C9.67761 122.596 4.71589 131.974 1.79554 141.927C1.46997 143.026 1.12525 144.16 1.50827 145.259C1.83384 146.169 2.54242 146.839 3.38507 147.389C4.53412 148.127 6.83224 148.591 6.77479 150.086C6.75564 151.219 6.31517 152.404 6.1045 153.521C5.85554 154.844 5.66403 156.183 5.45337 157.506C4.53412 163.586 3.80639 169.701 3.48082 175.816C3.05878 181.879 3.02681 187.958 3.38507 194.023C3.40422 194.418 3.53827 194.796 3.76809 195.088C3.57658 195.157 3.53827 195.501 3.78724 195.552L4.30431 195.638C4.69159 195.899 5.16076 196.043 5.64488 196.05L6.69818 196.085C10.3943 196.772 14.0905 197.442 17.8249 197.94C22.3828 198.541 26.9408 199.022 31.5178 199.434C40.9401 200.259 50.2858 199.984 59.6889 199.537C69.0898 199.091 78.5066 198.977 87.9175 199.194C97.3397 199.434 106.762 199.795 116.184 199.949C126.717 200.121 137.25 199.863 147.745 199.091C149.181 199.005 150.082 197.974 149.794 196.686C148.09 189.008 146.156 181.381 144.624 173.669L144.643 173.652Z" fill="#FFDBB4"/>
<path fill-rule="evenodd" clip-rule="evenodd" d="M48.0643 91.8053L48.2941 91.7366C51.071 90.7575 53.9628 89.1945 56.9887 89.7785C57.0844 89.7441 59.057 90.1048 60.4167 90.3281L59.1336 91.5305L56.8738 91.8912C64.6682 103.417 73.8798 109.188 84.5086 109.188C95.1374 109.188 103.219 103.417 108.715 91.8912L109.482 91.7194C109.558 91.7194 109.673 91.7538 109.769 91.7881C111.55 92.4065 115.016 95.1547 116.721 95.9277C123.538 99.0195 129.073 103.657 132.348 109.944C134.014 113.139 135.259 116.471 136.523 119.82L136.657 120.164C138.074 123.84 139.472 127.55 140.736 131.26C141.942 134.764 143.034 138.302 143.915 141.875L144.049 142.373C144.47 144.16 145.16 146.152 145.007 148.007C144.949 148.647 144.754 149.271 144.432 149.845L129.035 154.826L136.389 199.709C129.667 199.967 122.925 200.052 116.184 199.932C106.762 199.778 97.3398 199.417 87.9175 199.194C78.7825 198.988 69.6666 199.073 60.5316 199.486L58.2335 199.589C49.3357 200.121 40.4063 200.064 31.5179 199.417L30.9242 199.365V192.787L34.0458 156.218L18.1505 153.538L2.58077 146.753C2.09158 146.335 1.72347 145.816 1.50832 145.242C1.14445 144.211 1.41256 143.181 1.69983 142.15L1.79558 141.927C4.75841 131.988 9.71657 122.616 16.4269 114.272C21.7704 107.623 28.3993 101.887 35.9992 97.3362C39.7911 95.1032 43.832 93.231 48.0643 91.7881V91.8053Z" fill="#9DDADB"/>
<path fill-rule="evenodd" clip-rule="evenodd" d="M54.0394 89.5894C55.0161 89.5379 56.012 89.6925 56.9887 89.7612C57.0653 89.7784 57.1036 89.8986 56.9887 89.9158C55.2651 90.2421 53.5415 90.6887 51.837 91.1353L51.1093 91.3414C49.1942 91.8567 47.3174 92.372 45.4406 93.0591C41.7253 94.4161 38.2016 96.2368 34.9459 98.3495C22.4403 106.457 13.401 118.738 7.6749 131.449C5.74814 135.744 4.19233 140.166 3.02121 144.675C2.94461 144.95 2.6382 145.602 2.8297 145.877C2.96376 146.101 3.51914 146.238 3.78725 146.375L4.64905 146.77L9.47509 148.986L9.91557 149.175C17.1929 152.37 24.9299 155.084 33.0882 155.273L33.1648 154.637C33.4544 151.158 34.0889 147.709 35.0608 144.331C35.1182 144.16 35.3672 144.228 35.3864 144.383C35.9609 148.351 35.7694 152.353 35.5779 156.355C35.2332 163.397 34.7544 170.474 34.3331 177.534C34.1032 181.072 33.8351 184.576 33.5862 188.132C33.3372 191.653 33.2606 195.277 32.6861 198.781C32.5712 199.571 31.537 199.984 30.771 199.915C29.9283 199.829 29.258 199.142 29.2389 198.369C29.2389 196.325 29.5262 194.247 29.6985 192.22L30.1773 186.414C30.771 179.355 31.4796 172.295 32.1307 165.235C32.3605 162.732 32.603 160.23 32.8584 157.729C24.2022 157.471 16.1205 154.586 8.40264 151.236C8.28773 153.504 8.01962 155.788 7.75151 158.038C7.02377 164.359 6.39179 170.68 5.91301 177.018C5.52311 182.321 5.25494 187.629 5.10867 192.941L5.07037 194.144C5.07037 194.899 4.97461 195.604 4.24688 196.153C3.53829 196.72 2.54244 196.754 1.83385 196.153C0.876306 195.363 1.02951 194.281 1.06782 193.216C1.14024 190.512 1.25516 187.81 1.41253 185.109C1.79136 178.817 2.46223 172.542 3.42339 166.3L3.8064 163.896C4.47669 159.43 5.24273 154.843 6.77481 150.515C6.18113 150.257 5.58745 150 4.99377 149.708C3.94046 149.244 2.84886 148.78 1.8147 148.265C1.01036 147.835 0.301777 147.269 0.0911159 146.41C-0.176998 145.465 0.206022 144.434 0.474135 143.507V143.438C1.73959 138.738 3.44366 134.141 5.56829 129.697C8.90893 122.522 13.2735 115.767 18.5527 109.6C23.2512 103.987 28.9985 99.1458 35.5396 95.2921C38.7551 93.4406 42.2164 91.9576 45.8428 90.8777C48.4856 90.0752 51.2499 89.6408 54.0394 89.5894ZM71.2944 78.2528C72.4435 77.1364 74.7608 78.2872 74.2054 79.7644C73.0183 83.2633 70.7067 86.3703 67.56 88.6962C64.5853 90.9489 60.7605 92.0924 56.8738 91.8911L57.1993 92.3033C59.7666 95.5943 62.727 98.6239 66.0279 101.338C72.9223 106.697 82.2679 109.583 91.3072 107.522C98.4122 105.907 104.675 100.857 106.513 94.4332C106.264 94.5363 105.939 94.5878 105.594 94.5191C104.119 94.2271 102.664 92.8358 101.706 91.8396C100.691 90.7574 99.8868 89.6066 99.2932 88.284C98.2207 85.8793 97.876 82.7703 99.3506 80.4343C99.5421 80.1423 99.9251 80.314 99.9826 80.606L100.04 81.0355C100.327 83.2169 100.672 85.3296 101.821 87.3221C102.684 88.8356 103.868 90.1835 105.307 91.2899C105.804 91.6334 106.417 91.9083 106.858 92.3205L106.954 92.3892C107.068 91.5304 107.739 91.1353 108.409 91.1525C109.041 91.1869 109.807 91.4273 110.094 91.5476L110.113 91.5647C114.561 93.5369 118.744 95.9572 122.581 98.7789C130.635 104.424 136.547 112.163 139.51 120.937C140.947 125.282 141.77 129.766 142.632 134.232L143.168 136.98C143.972 141.085 144.872 145.293 146.692 149.124C147.171 150.103 146.807 151.03 145.639 151.425C144.207 151.917 142.77 152.398 141.33 152.868C142.038 155.616 142.479 158.451 142.996 161.199C144.145 167.056 145.524 172.879 146.711 178.719C147.324 181.725 147.879 184.731 148.492 187.702L149.392 192.031L149.852 194.367L149.871 194.487C149.967 194.899 150.062 195.329 149.947 195.741C149.794 196.205 149.392 196.531 149.028 196.875C148.722 197.15 148.301 197.15 147.937 196.995L147.803 196.943C147.151 196.669 146.654 196.394 146.405 195.741C146.27 195.312 146.213 194.848 146.117 194.418C145.602 191.925 145.104 189.429 144.624 186.929L144.317 185.366C143.321 179.973 142.364 174.562 141.866 169.134C141.674 166.73 141.425 164.308 141.195 161.886L141.023 160.082C140.812 157.798 140.544 155.445 140.506 153.126L139.644 153.401L135.393 154.758C134.339 155.101 132.999 155.788 131.869 155.651C131.314 155.599 130.911 155.445 130.567 155.153C130.95 160.1 131.486 165.012 132.195 169.925C133.299 177.696 134.704 185.43 136.408 193.113C136.523 193.663 136.676 194.212 136.772 194.762C136.867 195.398 136.676 195.775 136.293 196.308C135.967 196.72 135.335 196.943 134.799 196.651C134.11 196.256 133.746 195.913 133.554 195.209C133.363 194.573 133.248 193.903 133.114 193.25C132.303 189.531 131.575 185.797 130.931 182.051C129.437 173.119 128.498 164.119 128.02 155.118C127.791 150.667 127.702 146.211 127.752 141.755C127.752 139.47 127.847 137.186 128.02 134.901C128.211 132.6 128.594 130.35 128.939 128.065C128.939 127.979 129.073 127.979 129.073 128.065C129.226 130.624 129.475 133.184 129.609 135.743C129.724 138.199 129.782 140.638 129.877 143.095C129.992 146.307 130.165 149.536 130.394 152.748C130.596 152.546 130.85 152.392 131.134 152.299C131.418 152.206 131.723 152.177 132.022 152.215C132.922 152.044 133.88 151.631 134.722 151.357L137.94 150.412L142.996 148.918C141.533 144.358 140.382 139.724 139.549 135.039L139.165 132.926C138.399 128.769 137.538 124.595 136.14 120.559C134.664 116.347 132.411 112.388 129.475 108.844C126.485 105.375 123.103 102.191 119.383 99.3458C116.242 96.8723 112.929 94.6394 109.73 92.2346C109.75 92.3892 109.769 92.5782 109.73 92.7499C109.06 97.1987 106.475 101.338 102.874 104.413C95.6545 110.596 84.9491 111.868 75.68 108.965C66.7365 106.165 58.8272 99.5175 56.0311 91.3071C55.9737 91.1697 56.1843 91.1353 56.2801 91.2212L56.7397 91.788C56.7397 91.7193 56.778 91.6334 56.8738 91.6163C60.2159 90.5392 63.2598 88.8284 65.7981 86.6007C67.5678 84.9559 68.9545 83.0115 69.8773 80.8809L69.9539 80.7091C70.2794 79.8503 70.5667 78.9571 71.2944 78.27V78.2528Z" fill="black"/>
<path fill-rule="evenodd" clip-rule="evenodd" d="M128.1 43.7277C126.403 35.0934 122.001 27.0732 115.411 20.608C114.646 19.8522 113.958 18.667 112.793 18.4609C111.627 16.331 109.391 14.8023 107.614 13.0846C103.715 9.59775 99.9886 5.69866 94.9625 3.48287C71.6859 -5.10545 49.2692 19.4228 44.5106 37.8877C39.7903 52.7283 44.9502 73.22 65.4367 73.8212C68.3415 77.2565 72.3165 79.6441 76.4444 81.774C82.0438 85.0032 88.1592 86.3086 94.6377 84.5222C101.097 86.0338 107.805 81.1556 111.684 76.8958C114.742 73.5807 116.844 69.5442 119.653 66.1261C121.301 66.0292 122.86 65.4242 124.068 64.4133C125.276 63.4025 126.059 62.0477 126.285 60.578C129.381 55.4594 129.228 49.3445 128.119 43.7277H128.1Z" fill="#FFDBB4"/>
<path fill-rule="evenodd" clip-rule="evenodd" d="M44.5107 37.8877C49.2692 19.4228 71.6859 -5.12262 94.9625 3.48288C99.9886 5.69866 103.715 9.59776 107.614 13.0846C109.391 14.8023 111.627 16.331 112.793 18.4609C113.958 18.667 114.646 19.8522 115.411 20.608C122.008 27.0711 126.416 35.0915 128.119 43.7277C129.228 49.3445 129.381 55.4594 126.285 60.5608C126.063 62.0337 125.282 63.3924 124.074 64.4067C122.865 65.421 121.303 66.0285 119.653 66.1261C119.042 66.8647 118.469 67.6376 117.933 68.4277L117.781 68.4621V67.6033C117.494 53.5184 116.596 45.016 115.067 42.096C113.538 39.1416 106.888 33.7481 95.1919 25.8984L94.8097 25.6579L92.0769 23.6311L89.9365 25.7953C81.91 33.9371 75.6227 40.2237 71.0743 44.6381C66.2011 49.396 62.0542 56.6274 58.6716 66.3494L58.576 66.6585L64.5576 73.7697C44.7973 72.6188 39.8286 52.5222 44.5107 37.8877Z" fill="#9DDADB"/>
<path fill-rule="evenodd" clip-rule="evenodd" d="M77.3617 0.562698C81.6043 -0.31331 86.0379 -0.124367 90.2423 0.837525C98.5554 2.77848 105.416 7.82842 111.073 13.4452C116.631 18.9434 121.173 25.2064 124.527 31.9959L124.699 32.3395C127.049 37.1489 129.094 42.1645 129.19 47.4893C129.355 52.1265 128.644 56.7553 127.087 61.179C125.635 65.0438 122.94 68.9601 118.297 69.8876C115.613 76.0821 110.454 81.1536 103.83 84.1099C99.7656 85.8846 95.2389 86.6271 90.7391 86.2569C86.1315 85.7123 81.7906 84.0027 78.2217 81.3272C78.1262 81.2585 78.2599 81.1211 78.3555 81.1727C82.7714 83.3279 87.7664 84.3388 92.784 84.0927C96.8083 83.9598 100.734 82.9374 104.214 81.1158C107.694 79.2942 110.621 76.7297 112.735 73.6493C113.814 72.0979 114.741 70.4658 115.506 68.7711C115.404 68.4519 115.417 68.1117 115.544 67.7997C115.671 67.4878 115.906 67.2204 116.214 67.0363C116.928 65.0801 117.345 63.0465 117.456 60.9901C117.551 59.8221 117.494 58.5854 117.628 57.4174C117.57 56.4555 117.513 55.5279 117.417 54.566C117.153 51.5047 116.433 48.4891 115.277 45.5998C114.073 42.6798 112.143 40.1033 109.735 37.9047C104.518 33.164 98.0585 29.6943 92.9942 24.8161L92.7266 24.5585L90.8156 26.2761L87.949 28.9213C82.1012 34.2976 76.2915 39.7426 71.189 45.7201C68.2506 49.1516 65.6301 52.7938 63.3537 56.6101C62.2763 58.4227 61.2942 60.2798 60.4107 62.1753L60.0476 62.9311C59.5915 63.8803 59.227 64.8629 58.9583 65.8683C59.6845 66.5382 60.2196 67.5 60.8311 68.2386C62.2212 69.9515 63.8748 71.4783 65.7425 72.7733L65.8572 72.842C66.9274 73.529 68.1887 74.01 68.3415 75.3326C68.418 75.8994 67.8447 76.3632 67.3096 76.535C65.8763 77.0331 64.3857 75.6246 63.411 74.8173C62.8186 74.3192 62.2644 73.7867 61.7484 73.2027C61.2515 73.2714 60.7547 73.3057 60.2578 73.2542C59.4934 73.1683 58.7289 73.0481 57.9645 72.8763C51.7727 71.3991 47.1862 66.7786 44.7018 61.6085C41.3765 54.6863 41.453 46.6991 42.8289 39.3819C45.3515 25.9841 53.5309 13.4967 65.8954 5.57828C69.3544 3.34531 73.1956 1.45588 77.3617 0.562698ZM84.0504 2.36625C76.0622 1.98836 68.8002 5.66416 62.9524 10.2847C52.3412 18.8833 45.7341 30.7663 44.4533 43.5558C43.7462 50.2547 44.2622 57.4689 48.1608 63.3948C49.6633 65.6815 51.6043 67.711 53.894 69.3895C56.0319 70.8953 58.5105 71.9623 61.156 72.5156C60.3995 71.5879 59.7767 70.5779 59.3023 69.5097C59.264 69.5441 59.2067 69.5441 59.1685 69.5097C57.5059 67.4485 58.0218 64.9923 58.8054 62.7421C59.6462 60.3889 60.6973 58.0873 61.9013 55.8543C66.2776 47.7297 72.7943 40.6358 79.5403 34.04C82.9802 30.6562 86.5539 27.3754 90.1085 24.0775C92.7698 21.6304 95.4009 19.1568 98.0011 16.6572C98.842 15.8156 99.6064 14.9395 100.677 14.3212C101.498 13.8059 102.339 14.7678 101.957 15.472C101.345 16.5541 100.314 17.413 99.3771 18.3062L99.2816 18.392C97.3576 20.2627 95.4018 22.1065 93.4146 23.9229C94.3128 23.837 95.2301 23.7855 96.1283 23.6481C97.3514 23.4763 98.5554 23.253 99.7593 22.9782C101.002 22.7034 102.244 22.3427 103.448 21.8961C104.594 21.4838 105.645 20.814 106.888 20.7452C107.939 20.6937 108.264 21.8617 107.69 22.4629C106.888 23.3217 105.435 23.6653 104.25 23.9745L104.097 24.0088C102.798 24.3523 101.479 24.6272 100.142 24.8161C98.3642 25.0394 96.3194 25.1596 94.4466 24.9192C98.2114 26.8945 101.689 29.3679 105.148 31.7726L105.76 32.1849C109.253 34.4217 112.324 37.1473 114.857 40.2579C117.039 43.2882 118.521 46.682 119.214 50.2375C119.596 51.9724 119.845 53.7416 120.017 55.4936C120.628 57.0567 120.533 58.9289 120.38 60.6466L120.322 61.2306V61.4023C120.341 62.4845 120.838 64.8892 119.692 65.6965L119.634 65.9541L120.055 65.7137L120.246 65.6106L120.38 65.4904H120.399C121.487 64.6276 122.388 63.5909 123.055 62.4329C124.202 60.5779 124.928 58.551 125.482 56.4555C126.562 52.5845 126.898 48.5763 126.476 44.6036C126.399 44.0539 126.285 43.3669 126.055 42.6626C122.521 30.7613 115.39 19.9713 105.454 11.487C99.6447 6.62605 92.1151 2.72695 84.0504 2.36625ZM72.7943 22.1366C73.081 21.982 73.3676 22.2911 73.2339 22.5316C72.5459 23.734 71.3801 24.7646 70.4246 25.778L67.4434 28.9729C65.4185 31.1548 63.4558 33.3827 61.5573 35.6546L61.0604 36.2557C59.3719 38.2458 57.7841 40.3034 56.3019 42.4222C55.5375 43.5386 54.8877 44.6895 54.2762 45.8747C53.7029 47.0083 53.4353 48.3653 52.7473 49.4302C52.69 49.4989 52.5562 49.4989 52.5371 49.4131C52.3078 48.2622 52.862 46.8881 53.2633 45.806C53.7689 44.5428 54.4022 43.3239 55.1553 42.1645C56.665 39.7254 58.4805 37.4238 60.3151 35.1736C63.0299 31.8028 65.9254 28.5526 68.9913 25.4345L69.3735 25.0566C70.4246 24.0432 71.4757 22.8751 72.8134 22.1366H72.7943ZM67.9593 18.5982C68.4371 18.2718 68.8384 18.9245 68.5327 19.2681C66.7363 21.2949 64.6723 23.1328 62.7039 25.0394C56.8455 30.5018 52.0864 36.8366 48.6386 43.7619C48.6003 43.8478 48.4474 43.7963 48.4857 43.7104C49.7279 38.712 52.6327 34.1774 55.9961 30.055L56.1108 29.9004C59.4934 25.778 63.3728 21.6384 67.9593 18.5638V18.5982Z" fill="black"/>
<path fill-rule="evenodd" clip-rule="evenodd" d="M107.356 67.1051C106.561 66.7579 105.686 66.5817 104.802 66.5907C103.918 66.5996 103.048 66.7934 102.262 67.1566C100.35 68.0504 98.6924 69.3255 97.4164 70.8839C96.8993 71.4507 96.4205 72.0519 95.9226 72.6531L95.3289 73.4089L95.1949 73.5463C94.8693 73.9242 94.4288 74.4395 94.2756 74.9204C94.199 75.0922 94.1799 75.264 94.199 75.4357L94.2948 75.659C94.0267 75.7277 93.8543 75.659 93.7394 75.556C93.5479 75.3842 93.4904 75.1094 93.4904 74.783C93.4904 73.6665 94.2948 72.0348 94.6395 71.3477L94.7161 71.1759C95.8727 68.5731 97.9346 66.3744 100.595 64.9064C103.219 63.601 106.322 63.3606 109.022 64.5973C112.029 65.9542 112.852 68.651 113.178 71.4164C113.197 71.6228 113.164 71.8305 113.081 72.0238C112.998 72.2172 112.867 72.3912 112.699 72.5329C112.316 72.8764 111.799 73.0825 111.32 73.0825C110.824 73.0781 110.349 72.8993 109.998 72.5846C109.648 72.2698 109.448 71.8443 109.443 71.3992V71.1416C109.479 70.2737 109.316 69.4086 108.964 68.5994C108.635 67.9506 108.067 67.423 107.356 67.1051ZM103.372 54.6864C104.828 55.4765 107.011 57.3144 105.479 59.2553C103.64 60.973 100.998 59.0149 99.6954 58.1217C98.4888 57.4346 97.1483 59.2038 98.259 60.0111C107.643 66.2462 111.473 54.8925 104.1 53.7588C103.296 53.6214 102.989 54.4459 103.372 54.6864ZM91.1923 54.944C90.8108 55.1255 90.3722 55.186 89.9475 55.1158C89.5645 55.0299 89.2006 54.8409 88.8751 54.4974C88.4346 54.0336 88.109 53.3809 88.3005 52.7626L88.3771 52.5908C88.4537 52.419 88.5686 52.2473 88.6835 52.0755C88.7602 51.732 88.7793 51.5087 88.7793 51.3026V51.1308C88.8097 50.777 88.9001 50.4295 89.0474 50.1002C88.552 49.9435 88.0604 49.7774 87.5728 49.6021C85.7638 48.9766 84.0098 48.2302 82.3254 47.3691C81.9508 47.1481 81.5866 46.9132 81.2338 46.6649L81.0423 46.5103L80.9274 46.7336C80.8125 46.8195 80.7359 46.8366 80.6593 46.8023C80.5827 46.8023 80.5061 46.7336 80.4678 46.6649C80.4228 46.5779 80.4115 46.4799 80.4358 46.3865C80.4601 46.2931 80.5185 46.2097 80.6018 46.1496C80.9466 45.8919 81.4253 45.995 81.8275 46.0637L81.9999 46.098L83.8575 46.4416L84.6044 46.6133L85.447 46.7851C88.6835 47.4378 91.9009 48.1077 95.214 48.3997L95.5396 48.4169C96.1333 48.4684 96.6504 48.6917 96.9951 49.0524C97.3206 49.3788 97.4738 49.8082 97.3972 50.3235C97.3625 50.5603 97.2719 50.7877 97.1316 50.9906C96.9913 51.1936 96.8045 51.3675 96.5835 51.5007C96.3625 51.6339 96.1124 51.7234 95.8499 51.7633C95.5874 51.8032 95.3184 51.7925 95.0608 51.732C94.035 51.4827 93.0135 51.2193 91.9967 50.9418L92.2456 51.4571C92.4371 51.8866 92.6286 52.3503 92.6478 52.8313C92.667 53.2607 92.5329 53.6901 92.2839 54.0336C92.0233 54.4235 91.6448 54.7392 91.1923 54.944ZM114.212 44.3804C113.944 44.6896 113.656 44.9644 113.369 45.2392C112.756 45.7889 112.124 46.3729 111.454 46.8882L110.726 47.4722L110.458 47.6783L110.305 47.7985L110.42 47.9188L110.516 48.0218C110.899 48.5715 111.09 49.1555 111.282 49.7395C111.435 50.1517 111.588 50.5468 111.78 50.9418L111.837 51.0621C112.086 51.543 112.143 52.0412 112.029 52.4877C111.937 52.7895 111.76 53.0649 111.515 53.2875C111.27 53.5102 110.966 53.6725 110.631 53.7588C110.075 53.8619 109.52 53.7932 109.06 53.5527C108.62 53.3294 108.294 52.9687 108.122 52.4877C107.852 51.6748 107.736 50.8273 107.777 49.98C107.588 50.1387 107.356 50.2507 107.104 50.3049C106.853 50.3591 106.59 50.3537 106.341 50.2891C105.919 50.1861 105.517 49.9456 105.249 49.6364C104.994 49.3623 104.858 49.0145 104.866 48.6574C104.885 48.3482 105.038 48.0218 105.345 47.7298L105.632 47.455C105.862 47.266 106.168 47.1115 106.475 47.0256C106.768 46.9447 107.082 46.9447 107.375 47.0256C107.758 46.9397 107.988 46.8366 108.218 46.7336L108.658 46.5446L110.65 45.7545L112.373 45.0846L114.212 44.3975V44.3804Z" fill="black"/>
</svg>
