<svg width="231" height="231" viewBox="0 0 231 231" fill="none" xmlns="http://www.w3.org/2000/svg">
<g clip-path="url(#clip0_252_93)">
<path d="M115.5 51.75C99.5037 51.749 84.0916 57.7618 72.3221 68.5951C60.5527 79.4284 53.286 94.2904 51.9641 110.232C50.6423 126.174 55.3618 142.03 65.1863 154.653C75.0107 167.277 89.222 175.746 105 178.38V192.47C85.782 194.224 67.3099 200.766 51.271 211.497C70.2777 224.215 92.632 231.003 115.501 231.003C138.37 231.003 160.724 224.215 179.731 211.497C163.692 200.765 145.22 194.223 126.002 192.468V178.384C140.883 175.899 154.401 168.217 164.151 156.703C173.902 145.189 179.252 130.59 179.252 115.503C179.252 98.6128 172.549 82.4128 160.615 70.4603C148.682 58.5077 132.492 51.7795 115.602 51.753C115.569 51.753 115.536 51.753 115.502 51.753L115.5 51.75Z" fill="#CC985A"/>
<path d="M91.92 194.406C100.561 198.94 108.503 204.695 115.5 211.496C122.497 204.695 130.439 198.94 139.08 194.406C139.97 194.596 140.86 194.786 141.75 194.996C155.313 198.146 168.189 203.737 179.75 211.496C160.742 224.21 138.388 230.997 115.52 230.997C92.6519 230.997 70.2982 224.21 51.29 211.496C62.8512 203.737 75.7275 198.146 89.29 194.996C90.17 194.786 91.07 194.596 91.96 194.406H91.92Z" fill="#FF0000"/>
<path d="M73.65 199.82C90.24 208.05 102.37 218.73 107.92 230.75C87.6677 229.451 68.1212 222.809 51.27 211.5C58.279 206.798 65.7842 202.881 73.65 199.82Z" fill="#FFC107"/>
<path d="M60.63 205.852C72.98 211.792 82.56 219.292 88.22 227.762C75.0389 224.569 62.5285 219.063 51.27 211.502C54.29 209.502 57.41 207.618 60.63 205.852Z" fill="#FF0000"/>
<path d="M157.35 199.82C140.75 208.05 128.63 218.73 123.08 230.75C143.332 229.451 162.879 222.809 179.73 211.5C172.721 206.798 165.216 202.881 157.35 199.82Z" fill="#FFC107"/>
<path d="M170.37 205.852C158.02 211.792 148.44 219.292 142.78 227.762C155.961 224.569 168.471 219.063 179.73 211.502C176.71 209.502 173.59 207.618 170.37 205.852Z" fill="#FF0000"/>
<path d="M137.38 11.1484C125.15 13.1077 118.869 25.7544 93.9442 20.6399C82.6592 17.4345 77.5382 17.0669 73.5552 21.2259C69.4004 25.5643 66.5222 33.6609 63.7368 42.9319C61.6014 50.3455 60.0181 57.3129 58.9907 64.5779H171.691C168.203 40.2849 160.869 21.2969 146.509 13.5169C142.977 11.8939 139.981 11.221 137.38 11.1556L137.38 11.1484Z" fill="#583D00"/>
<path d="M114.37 43.3857C94.9252 43.4737 75.8462 45.4581 61.9912 49.0849C60.7146 53.6644 59.5595 59.2539 58.7627 65.8919H171.873C171.035 59.8812 169.956 54.2179 168.554 48.9679C153.325 45.0837 133.681 43.2986 114.374 43.3859L114.37 43.3857Z" fill="#AF892E"/>
<path d="M115.5 55.7734C57.11 55.7734 9.77002 71.2494 9.77002 90.3434H9.80122C9.80122 101.638 26.2972 111.662 51.9272 117.97C51.8239 110.2 54.7152 96.0664 57.2006 86.9394C63.2941 85.2226 64.13 85.0423 70.3676 83.9475C85.2416 81.1219 100.358 79.7438 115.501 79.8322C130.644 79.7438 145.76 81.1219 160.634 83.9475C166.871 85.0422 167.84 85.2226 173.934 86.9394C176.419 96.0661 179.31 110.199 179.207 117.97C204.837 111.662 221.2 101.638 221.2 90.3434H221.231C221.231 71.2504 173.891 55.7734 115.501 55.7734H115.5Z" fill="#462D00"/>
<path d="M72.0878 83.5314C65.1113 84.6461 58.7308 86.3875 53.6488 87.8792C52.4627 95.2942 51.645 106.737 51.7562 114.172C56.084 113.544 61.9112 112.808 65.0512 112.526C64.6457 112.828 67.7851 94.6984 72.0878 83.5314ZM158.912 83.5314C163.215 94.6984 166.354 112.827 165.949 112.525C169.088 112.808 174.916 113.544 179.244 114.172C179.355 106.737 178.537 95.294 177.351 87.879C172.269 86.3874 165.888 84.6462 158.912 83.5314Z" fill="#A0A0A0"/>
<path d="M172.7 90.7488H166.16C166.02 90.6488 165.9 90.5288 165.76 90.4488C161.28 87.6888 143.01 88.3388 132.05 91.6488C131.05 91.9488 130.14 92.2588 129.3 92.5888C127.406 93.3812 125.426 93.9485 123.4 94.2788C117.895 95.0688 112.997 95.0688 107.492 94.2788C105.466 93.9484 103.486 93.3812 101.592 92.5888C100.752 92.2588 99.8319 91.9488 98.8419 91.6488C87.8419 88.3388 69.6119 87.6488 65.1319 90.4488C64.9936 90.5375 64.8631 90.6378 64.7419 90.7488H58.1919C57.0873 90.7488 56.1919 91.6442 56.1919 92.7488V97.4088C56.1906 98.3906 56.6828 99.3074 57.5019 99.8488L59.4019 101.119C59.9943 101.508 60.3366 102.181 60.3019 102.889C60.1601 108.374 61.1826 113.828 63.3019 118.889C66.8819 127.269 79.3019 129.789 88.2319 129.789C90.9295 129.866 93.624 129.553 96.2319 128.859C100.582 127.429 104.472 121.499 106.682 116.439C108.443 112.588 109.431 108.43 109.592 104.199C109.593 103.485 109.974 102.826 110.592 102.469C113.82 100.518 117.172 100.518 120.4 102.469C121.018 102.826 121.399 103.485 121.4 104.199C121.56 108.43 122.549 112.588 124.31 116.439C126.52 121.499 130.41 127.439 134.76 128.859C137.368 129.553 140.062 129.866 142.76 129.789C151.68 129.789 164.11 127.269 167.69 118.889C169.809 113.827 170.832 108.374 170.69 102.889C170.655 102.181 170.997 101.508 171.59 101.119L173.49 99.8488C174.309 99.3074 174.801 98.3906 174.8 97.4088V92.8088C174.833 91.704 173.965 90.7814 172.86 90.7488H172.7Z" fill="black" stroke="#00FFDC" stroke-width="2.5" stroke-linecap="round" stroke-linejoin="round"/>
<path d="M122.83 151.883C120.87 153.797 118.239 154.868 115.5 154.868C112.76 154.868 110.13 153.797 108.17 151.883" stroke="black" stroke-width="6.1996" stroke-linecap="round" stroke-linejoin="round"/>
</g>
<defs>
<clipPath id="clip0_252_93">
<rect width="231" height="231" fill="white"/>
</clipPath>
</defs>
</svg>
