<svg width="150" height="200" viewBox="0 0 150 200" fill="none" xmlns="http://www.w3.org/2000/svg">
<path fill-rule="evenodd" clip-rule="evenodd" d="M144.643 172.494C143.507 166.479 142.511 160.44 141.655 154.384C141.464 153.003 141.176 151.443 142.172 150.439C143.57 149.005 144.853 147.785 145.007 145.741C145.16 143.822 144.47 141.724 144.049 139.86C143.116 135.951 142.011 132.081 140.736 128.258C139.472 124.367 138.074 120.512 136.657 116.675C135.335 113.088 134.071 109.448 132.348 106.005C129.092 99.4606 123.538 94.6192 116.721 91.3736C114.997 90.5667 111.55 87.6977 109.769 87.0701C108.141 86.4605 108.141 88.1998 106.532 87.5363C105.249 87.0163 104.043 86.335 103.334 85.1694C102.568 83.9142 100.595 82.1391 100.289 80.6866C99.657 77.5666 100.346 74.9128 97.9909 72.5638C95.8226 70.507 93.1043 69.0332 90.1198 68.2962C83.6659 66.6286 75.0863 67.7941 71.1987 73.4066C69.341 76.0783 68.709 79.3239 66.1811 81.4935C63.9979 83.4122 64.4958 84.7211 61.6615 85.6894C61.4891 85.7432 57.1419 84.8825 56.9886 84.9363C53.8862 84.3087 50.9178 86.0481 48.0834 87.0522C43.8487 88.5662 39.8031 90.5083 36.0183 92.844C28.4129 97.5877 21.7774 103.57 16.4269 110.506C9.67761 119.195 4.71589 128.985 1.79554 139.375C1.46997 140.523 1.12525 141.707 1.50827 142.854C1.83384 143.804 2.54242 144.504 3.38507 145.078C4.53412 145.849 6.83224 146.333 6.77479 147.893C6.75564 149.076 6.31517 150.313 6.1045 151.479C5.85554 152.86 5.66403 154.258 5.45337 155.639C4.53412 161.987 3.80639 168.37 3.48082 174.754C3.05878 181.082 3.02681 187.429 3.38507 193.761C3.40422 194.173 3.53827 194.568 3.76809 194.873C3.57658 194.944 3.53827 195.303 3.78724 195.357L4.30431 195.446C4.69159 195.718 5.16076 195.869 5.64488 195.877L6.69818 195.913C10.3943 196.63 14.0905 197.329 17.8249 197.849C22.3828 198.477 26.9408 198.979 31.5178 199.409C40.9401 200.27 50.2858 199.983 59.6889 199.517C69.0898 199.051 78.5066 198.931 87.9175 199.158C97.3397 199.409 106.762 199.786 116.184 199.947C126.717 200.126 137.25 199.857 147.745 199.051C149.181 198.961 150.082 197.885 149.794 196.54C148.09 188.525 146.156 180.563 144.624 172.512L144.643 172.494Z" fill="#694D3D"/>
<path fill-rule="evenodd" clip-rule="evenodd" d="M48.0643 87.0518L48.2941 86.9801C51.071 85.958 53.9628 84.3262 56.9887 84.9359C57.0844 84.9 59.057 85.2766 60.4167 85.5097L59.1336 86.7649L56.8738 87.1414C64.6682 99.1733 73.8798 105.198 84.5086 105.198C95.1374 105.198 103.219 99.1733 108.715 87.1414L109.481 86.9621C109.558 86.9621 109.673 86.998 109.769 87.0339C111.55 87.6794 115.016 90.5484 116.721 91.3553C123.538 94.5829 129.073 99.4243 132.348 105.987C134.014 109.322 135.259 112.801 136.523 116.298L136.657 116.656C138.074 120.493 139.472 124.367 140.736 128.24C141.942 131.898 143.034 135.592 143.915 139.321L144.049 139.841C144.47 141.706 145.16 143.786 145.007 145.723C144.949 146.391 144.754 147.042 144.432 147.641L129.035 152.841L136.389 199.696C129.667 199.965 122.925 200.054 116.184 199.929C106.762 199.767 97.3398 199.391 87.9175 199.158C78.7825 198.943 69.6666 199.032 60.5316 199.463L58.2335 199.57C49.3357 200.126 40.4062 200.066 31.5179 199.391L30.9242 199.337V192.469L34.0458 154.294L18.1505 151.497L2.58074 144.414C2.09155 143.977 1.72344 143.436 1.50829 142.836C1.14442 141.76 1.41253 140.684 1.6998 139.608L1.79555 139.375C4.75838 128.999 9.71654 119.216 16.4269 110.506C21.7703 103.565 28.3992 97.5767 35.9992 92.8256C39.7911 90.4946 43.8319 88.5401 48.0643 87.0339V87.0518Z" fill="#FFCF77"/>
<path fill-rule="evenodd" clip-rule="evenodd" d="M54.0394 84.7389C55.0161 84.6851 56.012 84.8465 56.9887 84.9182C57.0653 84.9362 57.1036 85.0617 56.9887 85.0796C55.2651 85.4203 53.5415 85.8865 51.837 86.3527L51.1093 86.5679C49.1942 87.1058 47.3174 87.6438 45.4406 88.361C41.7253 89.7776 38.2016 91.6783 34.9459 93.8838C22.4403 102.347 13.401 115.168 7.6749 128.437C5.74814 132.921 4.19233 137.537 3.02121 142.244C2.94461 142.531 2.6382 143.213 2.8297 143.499C2.96376 143.733 3.51914 143.876 3.78725 144.02L4.64905 144.432L9.47509 146.745L9.91557 146.942C17.1929 150.277 24.9299 153.111 33.0882 153.308L33.1648 152.644C33.4544 149.013 34.0889 145.412 35.0608 141.886C35.1182 141.706 35.3672 141.778 35.3864 141.939C35.9609 146.082 35.7694 150.26 35.5779 154.438C35.2332 161.789 34.7544 169.177 34.3331 176.547C34.1032 180.241 33.8351 183.899 33.5862 187.61C33.3372 191.286 33.2606 195.07 32.6861 198.728C32.5712 199.552 31.537 199.983 30.771 199.911C29.9283 199.821 29.258 199.104 29.2389 198.297C29.2389 196.163 29.5262 193.994 29.6985 191.878L30.1773 185.817C30.771 178.447 31.4796 171.078 32.1307 163.708C32.3605 161.095 32.603 158.483 32.8584 155.872C24.2022 155.603 16.1205 152.591 8.40264 149.094C8.28773 151.461 8.01962 153.846 7.75151 156.195C7.02377 162.793 6.39179 169.392 5.91301 176.009C5.52311 181.544 5.25494 187.086 5.10867 192.631L5.07037 193.886C5.07037 194.675 4.97461 195.41 4.24688 195.984C3.53829 196.576 2.54244 196.612 1.83385 195.984C0.876306 195.159 1.02951 194.03 1.06782 192.918C1.14024 190.095 1.25516 187.274 1.41253 184.454C1.79136 177.886 2.46223 171.336 3.42339 164.82L3.8064 162.309C4.47669 157.647 5.24273 152.86 6.77481 148.341C6.18113 148.072 5.58745 147.803 4.99377 147.498C3.94046 147.014 2.84886 146.53 1.8147 145.992C1.01036 145.544 0.301777 144.952 0.0911159 144.055C-0.176998 143.069 0.206022 141.993 0.474135 141.025V140.953C1.73959 136.046 3.44366 131.248 5.56829 126.608C8.90893 119.119 13.2735 112.067 18.5527 105.629C23.2512 99.7687 28.9985 94.7151 35.5396 90.6921C38.7551 88.7593 42.2164 87.2112 45.8428 86.0838C48.4856 85.2461 51.2499 84.7925 54.0394 84.7389ZM71.2944 72.9043C72.4435 71.7388 74.7608 72.9402 74.2054 74.4823C73.0183 78.1349 70.7067 81.3783 67.56 83.8065C64.5853 86.1581 60.7605 87.3519 56.8738 87.1417L57.1993 87.5721C59.7666 91.0076 62.727 94.1703 66.0279 97.0039C72.9223 102.598 82.2679 105.611 91.3072 103.459C98.4122 101.774 104.675 96.5018 106.513 89.7955C106.264 89.9031 105.939 89.9569 105.594 89.8852C104.119 89.5803 102.664 88.1279 101.706 87.0879C100.691 85.9582 99.8868 84.7569 99.2932 83.3762C98.2207 80.8658 97.876 77.6202 99.3506 75.1816C99.5421 74.8768 99.9251 75.0561 99.9826 75.3609L100.04 75.8092C100.327 78.0864 100.672 80.292 101.821 82.372C102.684 83.952 103.868 85.3591 105.307 86.5141C105.804 86.8727 106.417 87.1596 106.858 87.59L106.954 87.6617C107.068 86.7652 107.739 86.3527 108.409 86.3707C109.041 86.4065 109.807 86.6576 110.094 86.7831L110.113 86.801C114.561 88.8598 118.744 91.3865 122.581 94.3321C130.635 100.225 136.547 108.304 139.51 117.463C140.947 122 141.77 126.68 142.632 131.342L143.168 134.211C143.972 138.497 144.872 142.89 146.692 146.888C147.171 147.911 146.807 148.879 145.639 149.291C144.207 149.804 142.77 150.306 141.33 150.797C142.038 153.666 142.479 156.625 142.996 159.494C144.145 165.609 145.524 171.687 146.711 177.784C147.324 180.922 147.879 184.06 148.492 187.162L149.392 191.681L149.852 194.119L149.871 194.245C149.967 194.675 150.062 195.123 149.947 195.554C149.794 196.038 149.392 196.379 149.028 196.737C148.722 197.024 148.301 197.024 147.937 196.863L147.803 196.809C147.151 196.522 146.654 196.235 146.405 195.554C146.27 195.106 146.213 194.621 146.117 194.173C145.602 191.57 145.104 188.964 144.624 186.355L144.317 184.723C143.321 179.093 142.364 173.445 141.866 167.778C141.674 165.268 141.425 162.74 141.195 160.211L141.023 158.329C140.812 155.944 140.544 153.487 140.506 151.066L139.644 151.353L135.393 152.77C134.339 153.129 132.999 153.846 131.869 153.702C131.314 153.649 130.911 153.487 130.567 153.182C130.95 158.347 131.486 163.475 132.195 168.603C133.299 176.716 134.704 184.789 136.408 192.81C136.523 193.384 136.676 193.958 136.772 194.532C136.867 195.195 136.676 195.59 136.293 196.146C135.967 196.576 135.335 196.809 134.799 196.504C134.11 196.092 133.746 195.733 133.554 194.998C133.363 194.334 133.248 193.635 133.114 192.954C132.303 189.071 131.575 185.173 130.931 181.263C129.437 171.938 128.498 162.542 128.02 153.146C127.791 148.5 127.702 143.848 127.752 139.196C127.752 136.811 127.847 134.426 128.02 132.041C128.211 129.639 128.594 127.29 128.939 124.905C128.939 124.815 129.073 124.815 129.073 124.905C129.226 127.577 129.475 130.248 129.609 132.92C129.724 135.484 129.782 138.03 129.877 140.595C129.992 143.948 130.165 147.319 130.394 150.672C130.596 150.461 130.85 150.3 131.134 150.203C131.418 150.106 131.723 150.076 132.022 150.116C132.922 149.937 133.88 149.506 134.722 149.22L137.94 148.233L142.996 146.673C141.533 141.914 140.382 137.076 139.549 132.185L139.165 129.979C138.399 125.64 137.538 121.283 136.14 117.069C134.664 112.672 132.411 108.539 129.475 104.84C126.485 101.217 123.103 97.8945 119.383 94.9239C116.242 92.3418 112.929 90.0107 109.73 87.5003C109.75 87.6617 109.769 87.859 109.73 88.0383C109.06 92.6824 106.475 97.0039 102.874 100.214C95.6545 106.669 84.9491 107.996 75.68 104.965C66.7365 102.043 58.8272 95.1032 56.0311 86.532C55.9737 86.3886 56.1843 86.3527 56.2801 86.4424L56.7397 87.0341C56.7397 86.9624 56.778 86.8727 56.8738 86.8548C60.2159 85.7304 63.2598 83.9445 65.7981 81.6189C67.5678 79.9019 68.9545 77.872 69.8773 75.6478L69.9539 75.4685C70.2794 74.5719 70.5667 73.6395 71.2944 72.9223V72.9043Z" fill="black"/>
<path fill-rule="evenodd" clip-rule="evenodd" d="M113.882 20.025C102.397 12.8884 79.3683 13.6594 66.7171 18.0346C54.3717 21.7105 50.0527 31.9492 48.0079 42.9949C45.5235 55.4212 45.8484 73.3345 63.7741 73.1193C66.2776 74.2669 69.0677 74.751 71.6859 75.7014C75.2405 76.8669 78.7568 78.2118 82.3687 79.2159C89.4969 81.3677 97.4278 81.1883 104.193 78.0325C107.92 76.3469 109.467 73.711 111.914 70.8958C119.023 62.7192 122.596 51.0281 122.272 40.628C121.698 33.312 120.418 24.8485 113.882 20.0071V20.025Z" fill="#694D3D"/>
<path fill-rule="evenodd" clip-rule="evenodd" d="M128.425 50.1496C127.259 43.2819 126.915 36.2887 125.367 29.4749C123.934 23.0734 121.22 17.0127 116.462 12.1175C112.144 7.78822 106.784 4.49254 100.83 2.50635C89.3632 -1.45645 76.1578 -0.559888 65.0354 4.06636C54.672 8.51739 46.343 16.2942 41.5485 25.9962C38.5316 32.2314 36.695 38.912 36.1211 45.7385C35.3567 53.3593 35.2612 61.0517 34.9363 68.6904C34.8981 69.6408 34.8407 70.5911 34.8407 71.5236C34.8216 72.5636 35.2612 73.4601 35.6243 74.4284C35.6434 74.5001 35.6816 74.5539 35.7389 74.6077L34.9172 74.7332C34.6114 74.7691 34.6114 75.2353 34.9172 75.307C37.4015 75.7733 39.9241 75.845 42.4467 75.9526C45.0649 76.0781 47.6639 76.1319 50.2821 76.2215L57.9263 76.4726L61.9395 76.5981L63.8506 76.6519L64.8061 76.6878C65.0545 76.6878 65.475 76.8491 65.5132 76.6878L65.6661 76.7415L65.8572 76.8491C66.1438 77.0284 66.6216 77.0284 66.9465 76.8491L67.0229 76.7953C67.2488 76.6741 67.424 76.4844 67.5198 76.2574C68.8193 77.7278 71.1508 76.0781 69.8131 74.5001C69.0869 73.6574 61.9395 52.9827 64.9016 37.257L76.7502 35.7867L82.9611 35.177L84.2415 31.1783L84.2989 30.9452L85.1588 32.3618L86.6112 35.1411C86.6112 35.1411 108.206 34.8005 113.519 34.8363C113.614 34.8363 114.035 40.8791 113.844 43.5509C113.462 48.8944 113.041 54.2199 112.468 59.5634C112.095 62.958 111.226 66.2884 109.888 69.4615C107.786 74.4284 101.728 79.1443 95.8225 79.1443C92.1342 79.1443 83.8211 76.3471 82.598 75.7912C81.3941 75.2174 80.6679 76.7595 81.7763 77.3871C84.0122 78.6423 90.1849 81.2781 95.8225 81.2781C104.002 81.2781 110.194 73.9801 110.939 72.9401C118.392 72.5636 126.036 72.7429 133.489 73.4243C134.101 73.496 134.636 72.7787 134.445 72.2408C131.755 65.0511 129.747 57.6527 128.444 50.1316L128.425 50.1496Z" fill="black"/>
<path fill-rule="evenodd" clip-rule="evenodd" d="M107.528 57.7344C107.815 57.3758 108.505 58.882 108.658 59.0613C109.271 59.7786 109.769 60.8365 109.845 61.7331V61.8048L112.795 61.4103C113.178 61.1414 113.714 61.231 114.231 61.4641C115.38 62.0021 114.805 63.7414 113.58 63.7055C110.228 63.6338 106.819 64.0283 103.487 64.4048C101.783 64.5841 100.078 64.7635 98.3931 65.0324C96.8035 65.2655 95.1757 65.6062 93.567 65.66C93.4904 65.66 93.4521 65.5524 93.5287 65.5166C94.9459 64.8352 96.5546 64.4228 98.0866 64.0104C101.211 63.1511 104.399 62.5098 107.624 62.0917L107.586 62.02C107.394 61.4103 107.394 60.711 107.356 60.0834L107.337 59.7248C107.298 59.151 107.26 58.0572 107.528 57.7165V57.7344ZM102.606 50.275C104.062 51.0999 106.245 53.0185 104.713 55.0447C102.874 56.8379 100.232 54.7937 98.9293 53.8613C97.7228 53.144 96.3822 54.991 97.493 55.8337C106.877 62.3427 110.707 50.4902 103.334 49.3068C102.53 49.1633 102.223 50.024 102.606 50.275ZM79.357 43.0308C81.77 42.6722 84.2213 42.6364 86.6535 42.7619C88.5741 42.8505 90.4905 43.006 92.3988 43.2281C92.8776 43.2819 93.6053 43.5329 94.0649 43.4074C95.4247 43.0667 96.7269 44.286 96.3631 45.5591C95.98 46.8143 94.3714 47.1729 93.3372 46.4019C92.8584 46.2226 92.3797 46.0791 91.8626 45.9536C91.8243 46.0971 91.7668 46.2405 91.6902 46.366L91.4413 46.8502L91.3264 47.1192L91.2114 47.3881C91.0199 47.8364 90.8284 48.2488 90.3305 48.4819C89.6411 48.8047 88.5686 48.6254 88.2813 47.8723C87.8409 47.0654 88.1281 45.9536 88.3771 45.1288L88.3963 45.075C85.4087 44.3936 82.3445 43.8915 79.357 43.2102C79.2612 43.1743 79.2421 43.0308 79.357 43.0129V43.0308ZM115.093 40.0184C115.246 39.7315 115.61 39.7315 115.82 40.0184C116.28 40.6101 115.246 41.4888 114.786 41.9012L114.748 41.937C113.521 43.0473 112.128 43.9836 110.611 44.7164L110.745 45.0033C110.937 45.4695 110.937 46.0433 110.745 46.5274C110.42 47.5316 109.52 48.3205 108.352 48.3205C107.739 48.3205 107.011 47.7826 107.088 47.155L107.183 46.4378C106.36 46.6888 105.364 46.4019 104.828 45.7564C104.119 44.8778 104.311 43.4253 105.421 42.8874C106.245 42.4929 107.145 42.3853 108.026 42.1701C108.907 41.9729 109.788 41.7219 110.631 41.4529L113.178 40.6281L114.422 40.2336C114.614 40.1798 114.882 40.0543 115.093 40.0184Z" fill="black"/>
<path fill-rule="evenodd" clip-rule="evenodd" d="M109.999 57.5195C107.317 57.1071 104.521 57.7347 101.917 58.3981C97.8185 55.8698 92.4754 58.4161 89.5262 61.572C88.5303 62.3609 86.4046 63.383 87.5153 64.8713C87.094 65.9293 86.9791 66.4134 87.86 65.1941C92.8201 65.732 98.125 64.7099 103.028 63.7596C104.713 64.2975 106.168 65.5168 108.007 65.1044C109.73 65.4451 111.646 65.7679 113.178 64.7279C114.384 64.6741 117.046 66.6824 117.008 64.3513C116.625 62.1099 111.895 58.3981 109.999 57.5374V57.5195Z" fill="#724133"/>
<path fill-rule="evenodd" clip-rule="evenodd" d="M112.009 64.6919C109.108 65.0826 106.153 64.4707 103.698 62.9705C103.43 62.7912 103.181 62.7912 102.97 62.8987C102.721 62.8808 102.472 62.9705 102.319 63.2574C101.706 64.3332 99.6762 64.1001 98.5654 64.1181C94.9268 64.1898 91.1349 63.9925 87.6111 65.0326C90.9625 58.8821 95.6353 56.2104 102.817 58.6311C102.166 59.1332 105.421 57.9856 105.69 57.9497C110.669 56.7842 114.786 60.6932 116.797 64.5843C115.265 64.2256 113.58 64.5305 112.009 64.6919ZM118.961 65.7498C116.759 61.1235 112.45 56.0311 106.398 56.8201C105.153 56.9994 103.851 57.7883 102.606 57.6449C98.9868 56.3897 95.9992 55.7621 92.3797 57.7883C90.8476 57.8959 82.2105 67.9015 86.3088 67.0946C91.3647 64.387 100.117 66.9153 103.257 64.5125C109.386 68.2781 114.403 64.1898 117.87 66.5388C118.444 67.0767 119.306 66.4133 118.961 65.7498Z" fill="black"/>
</svg>
