<svg width="231" height="231" viewBox="0 0 231 231" fill="none" xmlns="http://www.w3.org/2000/svg">
<g clip-path="url(#clip0_252_108)">
<path d="M115.5 51.75C99.5037 51.749 84.0916 57.7618 72.3221 68.5951C60.5527 79.4284 53.286 94.2904 51.9641 110.232C50.6423 126.174 55.3618 142.03 65.1863 154.653C75.0107 167.277 89.222 175.746 105 178.38V192.47C85.782 194.224 67.3099 200.766 51.271 211.497C70.2777 224.215 92.632 231.003 115.501 231.003C138.37 231.003 160.724 224.215 179.731 211.497C163.692 200.765 145.22 194.223 126.002 192.468V178.384C140.883 175.899 154.401 168.217 164.151 156.703C173.902 145.189 179.252 130.59 179.252 115.503C179.252 98.6128 172.549 82.4128 160.615 70.4603C148.682 58.5077 132.492 51.7795 115.602 51.753C115.569 51.753 115.536 51.753 115.502 51.753L115.5 51.75Z" fill="#F5D4A6"/>
<path d="M141.75 195C155.313 198.15 168.189 203.741 179.75 211.5C140.877 237.501 90.163 237.501 51.29 211.5C62.851 203.741 75.727 198.15 89.29 195C97.7769 203.801 115.5 220.619 115.5 220.619C115.5 220.619 133.103 203.647 141.75 195Z" fill="black"/>
<path d="M137.38 11.1484C125.15 13.1077 118.869 25.7544 93.9442 20.6399C82.6592 17.4345 77.5382 17.0669 73.5552 21.2259C69.4004 25.5643 66.5222 33.6609 63.7368 42.9319C61.6014 50.3455 60.0181 57.3129 58.9907 64.5779H171.691C168.203 40.2849 160.869 21.2969 146.509 13.5169C142.977 11.8939 139.981 11.221 137.38 11.1556L137.38 11.1484Z" fill="#333333"/>
<path d="M114.37 43.3857C94.9252 43.4737 75.8462 45.4581 61.9912 49.0849C60.7146 53.6644 59.5595 59.2539 58.7627 65.8919H171.873C171.035 59.8812 169.956 54.2179 168.554 48.9679C153.325 45.0837 133.681 43.2986 114.374 43.3859L114.37 43.3857Z" fill="#AFAFAF"/>
<path d="M115.5 55.7734C57.11 55.7734 9.77002 71.2494 9.77002 90.3434H9.80122C9.80122 101.638 26.2972 111.662 51.9272 117.97C51.8239 110.2 54.7152 96.0664 57.2006 86.9394C63.2941 85.2226 64.13 85.0423 70.3676 83.9475C85.2416 81.1219 100.358 79.7438 115.501 79.8322C130.644 79.7438 145.76 81.1219 160.634 83.9475C166.871 85.0422 167.84 85.2226 173.934 86.9394C176.419 96.0661 179.31 110.199 179.207 117.97C204.837 111.662 221.2 101.638 221.2 90.3434H221.231C221.231 71.2504 173.891 55.7734 115.501 55.7734H115.5Z" fill="#222222"/>
<path d="M72.0878 83.5314C65.1113 84.6461 58.7308 86.3875 53.6488 87.8792C52.4627 95.2942 51.645 106.737 51.7562 114.172C56.084 113.544 61.9112 112.808 65.0512 112.526C64.6457 112.828 67.7851 94.6984 72.0878 83.5314ZM158.912 83.5314C163.215 94.6984 166.354 112.827 165.949 112.525C169.088 112.808 174.916 113.544 179.244 114.172C179.355 106.737 178.537 95.294 177.351 87.879C172.269 86.3874 165.888 84.6462 158.912 83.5314Z" fill="#6D3A1D"/>
<path d="M161.73 86.0156H69.2198C65.8498 86.0156 63.2197 88.4154 63.2197 91.3155V119.766C63.2197 122.766 65.9597 125.066 69.2198 125.066H101.58C108.67 125.066 109.02 105.636 115.4 105.636C121.78 105.636 122.28 125.076 129.23 125.076H161.59C164.96 125.076 167.59 122.676 167.59 119.776V91.3155C167.73 88.4154 164.99 86.0156 161.69 86.0156H161.73Z" fill="#1F2644"/>
<path d="M161.73 86.0156H69.2198C65.8498 86.0156 63.2197 88.4154 63.2197 91.3155V119.766L167.77 91.3155C167.77 88.4154 165.03 86.0156 161.77 86.0156H161.73Z" fill="#9B97CE"/>
<path d="M161.73 86.0156H69.2198C65.8498 86.0156 63.2197 88.4154 63.2197 91.3155V119.766C63.2197 122.766 65.9597 125.066 69.2198 125.066H101.58C108.67 125.066 109.02 105.636 115.4 105.636C121.78 105.636 122.28 125.076 129.23 125.076H161.59C164.96 125.076 167.59 122.676 167.59 119.776V91.3155C167.73 88.4154 164.99 86.0156 161.69 86.0156H161.73Z" stroke="#301E19" stroke-width="4.0026" stroke-linecap="round" stroke-linejoin="round"/>
<path d="M115.5 131C97.7899 131.65 88.4999 140.41 85.8899 154.69C84.8899 160.31 85.4599 161.75 88.6499 161.86C111.41 162.62 110.88 180.07 115.5 180.75C120.12 180.07 119.59 162.62 142.35 161.86C145.54 161.75 146.14 160.31 145.11 154.69C142.49 140.41 133.21 131.69 115.5 131ZM115.5 160.31C105.5 160.31 97.4999 155.31 97.4999 149.14C97.4999 142.97 105.58 137.97 115.5 137.97C125.42 137.97 133.5 142.97 133.5 149.14C133.5 155.31 125.42 160.31 115.5 160.31Z" fill="#444444"/>
<path d="M123.54 148.461C121.387 150.558 118.5 151.731 115.495 151.731C112.49 151.731 109.603 150.558 107.45 148.461" stroke="black" stroke-width="6.7998" stroke-linecap="round" stroke-linejoin="round"/>
</g>
<defs>
<clipPath id="clip0_252_108">
<rect width="231" height="231" fill="white"/>
</clipPath>
</defs>
</svg>
