<svg width="150" height="200" viewBox="0 0 150 200" fill="none" xmlns="http://www.w3.org/2000/svg">
<path fill-rule="evenodd" clip-rule="evenodd" d="M144.643 172.688C143.507 166.714 142.511 160.718 141.655 154.705C141.464 153.334 141.176 151.785 142.172 150.788C143.57 149.363 144.853 148.152 145.007 146.123C145.16 144.218 144.47 142.134 144.049 140.283C143.116 136.402 142.011 132.559 140.736 128.763C139.472 124.899 138.074 121.071 136.657 117.261C135.335 113.7 134.071 110.085 132.348 106.667C129.092 100.168 123.538 95.3606 116.721 92.1379C114.997 91.3367 111.55 88.4879 109.769 87.8647C108.141 87.2593 108.141 88.9864 106.532 88.3277C105.249 87.8113 104.043 87.1347 103.334 85.9774C102.568 84.731 100.595 82.9683 100.289 81.5261C99.657 78.4281 100.346 75.7929 97.9909 73.4605C95.8226 71.4182 93.1043 69.9547 90.1198 69.2229C83.666 67.567 75.0863 68.7243 71.1987 74.2973C69.341 76.9503 68.7091 80.173 66.1811 82.3274C63.9979 84.2325 64.4958 85.5323 61.6615 86.4937C61.4891 86.5472 57.1419 85.6925 56.9887 85.7459C53.8862 85.1228 50.9178 86.8498 48.0835 87.8469C43.8487 89.3503 39.8031 91.2787 36.0183 93.5979C28.4129 98.3083 21.7775 104.248 16.4269 111.136C9.67763 119.764 4.7159 129.485 1.79555 139.802C1.46998 140.941 1.12527 142.117 1.50829 143.256C1.83385 144.2 2.54244 144.894 3.38508 145.464C4.53414 146.23 6.83226 146.71 6.7748 148.259C6.75565 149.434 6.31518 150.663 6.10452 151.82C5.85556 153.191 5.66405 154.58 5.45339 155.951C4.53414 162.254 3.8064 168.593 3.48084 174.931C3.0588 181.215 3.02683 187.517 3.38508 193.805C3.40423 194.214 3.53829 194.606 3.7681 194.908C3.57659 194.98 3.53829 195.336 3.78725 195.389L4.30433 195.478C4.69161 195.748 5.16078 195.898 5.6449 195.906L6.6982 195.941C10.3943 196.653 14.0905 197.348 17.8249 197.864C22.3828 198.487 26.9408 198.986 31.5179 199.413C40.9401 200.268 50.2858 199.983 59.6889 199.52C69.0898 199.058 78.5066 198.939 87.9175 199.164C97.3398 199.413 106.762 199.787 116.184 199.947C126.717 200.125 137.25 199.858 147.745 199.057C149.181 198.968 150.082 197.9 149.794 196.564C148.09 188.605 146.156 180.7 144.624 172.706L144.643 172.688Z" fill="#FFDBB4"/>
<path fill-rule="evenodd" clip-rule="evenodd" d="M48.0643 87.847L48.2941 87.7758C51.071 86.7609 53.9628 85.1406 56.9887 85.746C57.0844 85.7104 59.057 86.0843 60.4167 86.3158L59.1336 87.5621L56.8738 87.936C64.6682 99.8832 73.8798 105.866 84.5086 105.866C95.1374 105.866 103.219 99.8832 108.715 87.936L109.481 87.758C109.558 87.758 109.673 87.7936 109.769 87.8292C111.55 88.4702 115.016 91.319 116.721 92.1202C123.538 95.3251 129.073 100.132 132.348 106.649C134.014 109.961 135.259 113.415 136.523 116.887L136.657 117.243C138.074 121.053 139.472 124.899 140.736 128.745C141.942 132.377 143.034 136.045 143.915 139.749L144.049 140.265C144.47 142.117 145.16 144.182 145.007 146.105C144.949 146.769 144.754 147.415 144.432 148.01L129.035 153.174L136.389 199.698C129.667 199.965 122.925 200.054 116.184 199.93C106.762 199.769 97.3398 199.395 87.9175 199.164C78.7825 198.95 69.6666 199.039 60.5316 199.467L58.2335 199.573C49.3357 200.125 40.4062 200.066 31.5179 199.395L30.9242 199.342V192.523L34.0458 154.616L18.1505 151.838L2.58074 144.805C2.09155 144.372 1.72344 143.834 1.50829 143.238C1.14442 142.17 1.41253 141.102 1.6998 140.033L1.79555 139.802C4.75838 129.499 9.71654 119.785 16.4269 111.136C21.7703 104.244 28.3992 98.2978 35.9992 93.5802C39.7911 91.2656 43.8319 89.3248 48.0643 87.8292V87.847Z" fill="#E78276"/>
<path fill-rule="evenodd" clip-rule="evenodd" d="M54.0394 85.5503C55.0161 85.4969 56.012 85.6571 56.9887 85.7283C57.0653 85.7461 57.1036 85.8708 56.9887 85.8886C55.2651 86.2269 53.5415 86.6898 51.837 87.1527L51.1093 87.3664C49.1942 87.9006 47.3174 88.4347 45.4406 89.1469C41.7253 90.5535 38.2016 92.4408 34.9459 94.6308C22.4403 103.035 13.401 115.765 7.6749 128.941C5.74814 133.393 4.19233 137.977 3.02121 142.651C2.94461 142.936 2.6382 143.612 2.8297 143.897C2.96376 144.129 3.51914 144.271 3.78725 144.414L4.64905 144.823L9.47509 147.12L9.91557 147.316C17.1929 150.628 24.9299 153.441 33.0882 153.637L33.1648 152.978C33.4544 149.372 34.0889 145.796 35.0608 142.295C35.1182 142.117 35.3672 142.188 35.3864 142.348C35.9609 146.461 35.7694 150.61 35.5779 154.758C35.2332 162.058 34.7544 169.394 34.3331 176.712C34.1032 180.38 33.8351 184.012 33.5862 187.698C33.3372 191.348 33.2606 195.105 32.6861 198.737C32.5712 199.556 31.537 199.983 30.771 199.912C29.9283 199.823 29.258 199.111 29.2389 198.309C29.2389 196.191 29.5262 194.036 29.6985 191.935L30.1773 185.917C30.771 178.599 31.4796 171.281 32.1307 163.964C32.3605 161.369 32.603 158.775 32.8584 156.183C24.2022 155.916 16.1205 152.924 8.40264 149.452C8.28773 151.803 8.01962 154.171 7.75151 156.503C7.02377 163.055 6.39179 169.608 5.91301 176.178C5.52311 181.674 5.25494 187.177 5.10867 192.683L5.07037 193.929C5.07037 194.713 4.97461 195.443 4.24688 196.013C3.53829 196.6 2.54244 196.636 1.83385 196.013C0.876306 195.194 1.02951 194.072 1.06782 192.968C1.14024 190.165 1.25516 187.364 1.41253 184.564C1.79136 178.042 2.46223 171.538 3.42339 165.067L3.8064 162.575C4.47669 157.945 5.24273 153.192 6.77481 148.705C6.18113 148.438 5.58745 148.171 4.99377 147.868C3.94046 147.387 2.84886 146.906 1.8147 146.372C1.01036 145.927 0.301777 145.34 0.0911159 144.449C-0.176998 143.47 0.206022 142.402 0.474135 141.44V141.369C1.73959 136.497 3.44366 131.732 5.56829 127.125C8.90893 119.688 13.2735 112.686 18.5527 106.293C23.2512 100.474 28.9985 95.4562 35.5396 91.4616C38.7551 89.5424 42.2164 88.0051 45.8428 86.8857C48.4856 86.0539 51.2499 85.6035 54.0394 85.5503ZM71.2944 73.799C72.4435 72.6417 74.7608 73.8346 74.2054 75.3658C73.0183 78.9927 70.7067 82.2134 67.56 84.6244C64.5853 86.9595 60.7605 88.1448 56.8738 87.9362L57.1993 88.3635C59.7666 91.7749 62.727 94.9153 66.0279 97.7289C72.9223 103.284 82.2679 106.275 91.3072 104.139C98.4122 102.465 104.675 97.2304 106.513 90.5713C106.264 90.6781 105.939 90.7316 105.594 90.6603C104.119 90.3576 102.664 88.9154 101.706 87.8828C100.691 86.761 99.8868 85.5681 99.2932 84.1971C98.2207 81.7044 97.876 78.4817 99.3506 76.0602C99.5421 75.7575 99.9251 75.9356 99.9826 76.2383L100.04 76.6834C100.327 78.9446 100.672 81.1347 101.821 83.2C102.684 84.7689 103.868 86.1661 105.307 87.313C105.804 87.6691 106.417 87.954 106.858 88.3813L106.954 88.4525C107.068 87.5623 107.739 87.1527 108.409 87.1706C109.041 87.2062 109.807 87.4554 110.094 87.5801L110.113 87.5979C114.561 89.6422 118.744 92.151 122.581 95.076C130.635 100.927 136.547 108.949 139.51 118.044C140.947 122.549 141.77 127.196 142.632 131.826L143.168 134.674C143.972 138.93 144.872 143.292 146.692 147.262C147.171 148.277 146.807 149.239 145.639 149.648C144.207 150.158 142.77 150.656 141.33 151.144C142.038 153.993 142.479 156.931 142.996 159.779C144.145 165.851 145.524 171.887 146.711 177.94C147.324 181.056 147.879 184.172 148.492 187.253L149.392 191.739L149.852 194.161L149.871 194.285C149.967 194.713 150.062 195.158 149.947 195.585C149.794 196.066 149.392 196.404 149.028 196.76C148.722 197.045 148.301 197.045 147.937 196.885L147.803 196.832C147.151 196.547 146.654 196.262 146.405 195.585C146.27 195.14 146.213 194.659 146.117 194.214C145.602 191.63 145.104 189.042 144.624 186.451L144.317 184.831C143.321 179.24 142.364 173.632 141.866 168.005C141.674 165.513 141.425 163.002 141.195 160.492L141.023 158.622C140.812 156.254 140.544 153.815 140.506 151.411L139.644 151.696L135.393 153.103C134.339 153.459 132.999 154.171 131.869 154.028C131.314 153.975 130.911 153.815 130.567 153.512C130.95 158.64 131.486 163.732 132.195 168.824C133.299 176.88 134.704 184.897 136.408 192.861C136.523 193.431 136.676 194.001 136.772 194.57C136.867 195.229 136.676 195.621 136.293 196.173C135.967 196.6 135.335 196.832 134.799 196.529C134.11 196.119 133.746 195.763 133.554 195.033C133.363 194.375 133.248 193.68 133.114 193.004C132.303 189.148 131.575 185.277 130.931 181.395C129.437 172.136 128.498 162.806 128.02 153.476C127.791 148.862 127.702 144.243 127.752 139.624C127.752 137.256 127.847 134.888 128.02 132.52C128.211 130.134 128.594 127.802 128.939 125.434C128.939 125.344 129.073 125.344 129.073 125.434C129.226 128.086 129.475 130.739 129.609 133.392C129.724 135.938 129.782 138.467 129.877 141.013C129.992 144.342 130.165 147.69 130.394 151.019C130.596 150.81 130.85 150.65 131.134 150.554C131.418 150.458 131.723 150.428 132.022 150.467C132.922 150.289 133.88 149.862 134.722 149.577L137.94 148.598L142.996 147.049C141.533 142.323 140.382 137.519 139.549 132.662L139.165 130.472C138.399 126.164 137.538 121.837 136.14 117.653C134.664 113.287 132.411 109.182 129.475 105.51C126.485 101.913 123.103 98.6133 119.383 95.6635C116.242 93.0996 112.929 90.785 109.73 88.2923C109.75 88.4525 109.769 88.6484 109.73 88.8264C109.06 93.4379 106.475 97.7289 102.874 100.916C95.6545 107.326 84.9491 108.643 75.68 105.634C66.7365 102.732 58.8272 95.8416 56.0311 87.3308C55.9737 87.1884 56.1843 87.1527 56.2801 87.2418L56.7397 87.8293C56.7397 87.7581 56.778 87.6691 56.8738 87.6513C60.2159 86.5348 63.2598 84.7615 65.7981 82.4522C67.5678 80.7473 68.9545 78.7317 69.8773 76.5232L69.9539 76.3451C70.2794 75.4549 70.5667 74.529 71.2944 73.8168V73.799Z" fill="black"/>
<path fill-rule="evenodd" clip-rule="evenodd" d="M117.284 47.3047C116.959 33.3099 113.213 17.8196 100.39 9.18415C99.5682 8.63219 98.3451 8.89927 97.6763 9.54025C97.103 9.62927 96.6061 9.93196 96.2621 10.5195C88.6799 23.4173 80.6946 36.1058 72.3166 48.5688C66.9274 56.6345 60.3916 64.7002 59.5316 74.4573C59.3787 74.6354 58.0027 76.1132 58.8054 76.0063C59.1685 75.8283 59.5316 75.6859 59.9138 75.579C60.9458 76.9678 63.3155 76.7542 63.8888 75.1695C65.8381 75.2229 67.7873 75.7037 69.6602 76.2378C74.2467 77.5732 78.8906 78.9086 83.5727 79.9234C98.9758 83.7337 115.545 78.873 116.768 62.1362C118.43 59.964 117.532 50.2959 117.284 47.3047Z" fill="#FFDBB4"/>
<path fill-rule="evenodd" clip-rule="evenodd" d="M128.502 81.7042C126.426 72.15 124.813 62.5137 123.667 52.8244C123.055 48.1417 122.577 43.4412 122.004 38.7585C121.488 34.3963 120.857 30.0162 119.653 25.7608C118.507 21.8081 116.844 17.891 114.398 14.4903C112.099 11.3139 109.228 8.53107 105.913 6.26435C99.2965 1.62984 91.0728 -0.558376 82.8274 0.121624C81.5852 0.246259 80.3812 0.442114 79.1772 0.709189C79.5594 0.602359 79.9417 0.495529 80.3239 0.424309C80.4576 0.388699 80.4003 0.246259 80.2856 0.246259C47.1288 3.04165 39.3317 56.7594 38.6246 67.5848L38.4908 70.1309C38.2384 72.0111 38.0662 73.9 37.9749 75.7929C37.8602 77.9651 37.9175 80.1551 38.1277 82.3273C38.3571 84.553 38.6055 86.8498 39.5993 88.8974C40.2108 90.1438 68.7238 88.4167 69.0295 86.9388C69.6028 83.912 69.9277 80.8317 69.7366 77.7693C69.6411 76.3093 69.4882 74.8492 69.1633 73.407C69.0486 73.0153 68.9722 72.2853 68.7238 71.6978C71.3544 67.1077 74.159 62.6062 77.1324 58.2016C83.2478 48.9964 89.7645 39.9692 94.7715 30.1587C97.2941 25.2445 99.7593 20.0454 100.944 14.6683L101.135 14.6861C101.116 14.7573 101.135 14.8286 101.193 14.8642C106.639 18.3896 110.289 23.6955 112.64 29.3931C115.388 36.0449 116.706 43.1351 116.519 50.2605C116.214 61.5311 111.627 75.4724 98.6509 79.0334C95.6726 79.8831 92.5155 80.036 89.4587 79.4785C88.0254 79.2115 86.6304 78.7663 85.3308 78.1254C83.8975 77.4132 82.7127 76.4161 81.3749 75.5971C80.1519 74.8314 78.6995 76.3093 79.4066 77.431C80.9736 79.9059 84.318 81.4193 87.2037 82.1671C90.5354 82.9811 94.0275 83.0421 97.3896 82.3452C97.4388 82.9077 97.6308 83.4513 97.9497 83.9311C98.2687 84.411 98.7056 84.8133 99.2242 85.1049C99.2624 85.8171 99.7593 86.5293 100.562 86.7074C104.862 87.5264 122.711 85.3542 126.992 84.1613C128.139 83.8408 128.731 82.7903 128.482 81.722" fill="black"/>
<path fill-rule="evenodd" clip-rule="evenodd" d="M103.602 68.2795C102.376 68.2795 101.017 67.8699 100.078 67.5316L99.8486 67.4426C99.0274 67.1832 98.2716 66.7713 97.627 66.2319C97.4194 66.0585 97.2446 65.8538 97.11 65.6265C97.0525 65.4841 97.0334 65.3594 97.0908 65.217C97.3025 65.2014 97.5133 65.1776 97.7228 65.1458L97.9718 65.1102L98.7378 65.1636L98.8336 65.1814L99.4081 65.2526C99.9826 65.3238 100.557 65.395 101.132 65.4307C101.553 65.4307 101.993 65.4307 102.434 65.395C103.583 65.3416 104.732 65.2526 105.632 66.0004C105.738 66.0868 105.822 66.1938 105.878 66.3138C105.935 66.4338 105.962 66.5639 105.958 66.6948C105.958 66.9975 105.805 67.3002 105.594 67.5495C105.134 68.0836 104.406 68.2795 103.602 68.2795ZM110.305 58.736C110.018 59.1343 109.622 59.4535 109.157 59.6603C108.692 59.867 108.176 59.9537 107.662 59.9111C105.068 59.7589 102.555 59.0127 100.346 57.7389C100.088 57.588 99.869 57.3847 99.7065 57.1442C99.5441 56.9038 99.4421 56.6323 99.4081 56.3501L99.3123 55.3886L98.7187 56.1899L98.5271 56.4391C97.7118 57.5626 96.9762 58.7343 96.3248 59.9467C95.9668 60.6672 95.6659 61.4111 95.4247 62.1723C94.9842 63.4721 94.5437 64.7541 93.5862 65.6621C93.433 65.8046 93.2032 65.8402 93.0117 65.8402C92.8202 65.8046 92.6478 65.7333 92.5712 65.5731C91.4221 63.3831 92.9542 60.7657 94.2182 58.9496L94.3522 58.7716C95.5013 57.1157 97.4164 54.9435 99.5996 54.6408L99.8486 54.9969L100.193 54.7833C100.787 54.4272 101.572 54.4272 102.262 54.7298L102.951 55.0147C104.377 55.6483 105.883 56.1148 107.432 56.4035C107.28 55.7529 107.089 55.1108 106.858 54.4806C106.283 53.1096 105.402 51.8276 104.521 50.6169L104.426 50.4745L104.043 49.9403C103.353 49.0322 102.606 48.053 102.549 47.0737C103.449 47.1271 104.196 47.6435 104.847 48.0886C105.766 48.7118 106.59 49.4061 107.356 50.1718C108.83 51.6674 110.152 53.5547 110.745 55.5311C111.071 56.6528 110.937 57.8635 110.305 58.736ZM86.6727 47.5188V47.4832C86.6727 46.3437 87.3813 43.7442 89.1623 43.7442C90.2539 43.7442 90.9051 45.5247 91.02 47.3408V47.412C91.0774 48.5515 90.7518 51.0086 89.1432 51.0086C87.5345 51.0086 86.6918 48.6583 86.6727 47.5188ZM112.565 47.1627V47.1271C112.565 45.9876 111.837 43.3881 110.075 43.3881C109.022 43.3881 108.352 45.0795 108.218 46.8422V46.9847C108.141 48.0708 108.447 50.6525 110.094 50.6525C111.703 50.6525 112.546 48.32 112.565 47.1627ZM92.5903 39.8271C90.3855 40.0924 88.2162 40.5698 86.1173 41.2515C84.5032 41.7698 82.9066 42.3338 81.3296 42.9429C80.6976 43.1744 80.0848 43.4237 79.4528 43.6195C81.2264 41.5497 83.5043 39.9019 86.0982 38.8122C87.4962 38.1534 88.9708 37.637 90.4646 37.2097L91.2881 36.9783C92.5137 36.64 93.8543 36.3373 94.9842 37.0139C95.1989 37.134 95.3845 37.2941 95.5295 37.484C95.6745 37.674 95.7757 37.8897 95.8269 38.1178C95.8736 38.3447 95.867 38.5784 95.8075 38.8027C95.748 39.0271 95.637 39.2368 95.4821 39.4175C95.214 39.7558 94.8502 39.9517 94.4863 40.0229C94.0573 40.0849 93.6184 40.0096 93.2415 39.8093H92.5903V39.8271ZM110.975 40.0407C109.797 39.8116 108.584 39.7814 107.394 39.9517C106.82 40.0407 106.245 40.1297 105.632 40.0229C105.326 39.9695 105.058 39.7914 104.847 39.56C104.605 39.2964 104.446 38.9761 104.387 38.6341C104.33 38.3136 104.387 38.0109 104.502 37.7439C104.675 37.459 104.924 37.2097 105.249 36.9783C106.207 36.3017 107.873 36.4441 109.003 36.6043C110.133 36.729 111.243 37.0495 112.239 37.5658C113.216 38.0822 114.078 38.7588 114.729 39.5956C115.303 40.3078 115.552 41.109 115.84 41.9459C114.557 40.9488 112.584 40.3612 110.956 40.0407H110.975Z" fill="black"/>
<path fill-rule="evenodd" clip-rule="evenodd" d="M119.172 55.0679C118.789 50.7947 113.044 49.0142 110.171 48.48C100.595 46.379 92.4563 51.7383 81.0614 51.863C79.9124 51.863 76.6184 51.6849 75.0863 51.3288C67.311 49.6552 59.5549 47.9281 51.8945 45.7559C50.7837 46.0051 50.4582 47.3583 51.2242 48.1417C58.5207 50.5454 69.7049 52.6998 75.5843 52.9491C75.4824 56.4416 74.5646 59.8717 72.8946 63.0016C71.2246 66.1314 68.8424 68.8861 65.913 71.0746C74.7225 80.1551 95.3289 83.1286 107.471 78.3746C113.407 76.701 119.727 61.816 119.153 55.0501" fill="white"/>
<path fill-rule="evenodd" clip-rule="evenodd" d="M51.32 45.9875C50.9944 45.9875 51.1859 45.0973 51.9137 45.2219C61.47 47.2873 73.3628 51.24 83.1681 51.2222C90.388 50.9907 96.861 47.2517 104.119 47.2339C108.984 47.3229 115.227 47.9639 118.616 51.6139C123.136 64.8787 112.986 82.9507 97.0334 83.0576L94.0075 82.8439C83.7234 82.1317 72.4435 81.01 65.7981 72.8909L65.7598 72.9443C64.764 72.3211 64.8023 70.9858 65.6641 70.2914V70.327L65.7407 70.2558V70.2202C66.0471 69.9175 66.4109 69.6148 66.7557 69.3477C71.7349 65.5018 74.9906 59.6618 75.1821 53.6259C73.5351 54.0354 45.8237 48.6939 50.7455 47.3941C54.3313 48.5459 57.9741 49.5381 61.6615 50.3676C66.109 51.3279 70.619 52.0178 75.1629 52.433L75.1438 51.8276C67.0812 50.3676 59.1719 48.1776 51.32 45.9875ZM116.625 51.3825C100.098 43.6017 91.8817 55.0859 75.8715 51.9166C77.5568 58.8606 73.4202 66.3565 67.809 70.8967C75.9673 77.4668 79.4911 78.4639 90.1965 79.5322L91.5945 79.6746C93.7011 79.9061 95.8077 80.1197 97.9143 80.1554C108.869 79.4253 117.123 68.8314 118.368 59.2523V58.9852C118.425 56.5459 118.31 53.982 117.142 51.7564C116.95 51.6851 116.759 51.5605 116.644 51.3825H116.625ZM93.6245 57.4896C94.199 57.3649 94.7735 57.9347 94.4288 58.451C93.2798 60.0891 90.4837 60.7301 88.5112 60.9794C86.2856 61.2754 84.0159 61.0552 81.9041 60.3384C81.7892 60.285 81.7892 60.1069 81.9232 60.1247C83.9724 60.3384 86.079 60.1781 88.0707 59.6796C90.0815 59.3235 91.7094 58.0771 93.6245 57.4896ZM109.175 56.2966C109.175 55.994 110.822 56.8842 111.09 57.0088C113.082 58.1306 115.418 58.2196 117.64 58.6647C118.157 58.8428 118.157 59.4659 117.64 59.644C114.863 60.3206 110.669 58.5223 109.175 56.2966Z" fill="black"/>
</svg>
