<svg width="231" height="231" viewBox="0 0 231 231" fill="none" xmlns="http://www.w3.org/2000/svg">
<g clip-path="url(#clip0_252_126)">
<path d="M115.5 51.75C99.5037 51.749 84.0916 57.7618 72.3221 68.5951C60.5527 79.4284 53.286 94.2904 51.9641 110.232C50.6423 126.174 55.3618 142.03 65.1863 154.653C75.0107 167.277 89.222 175.746 105 178.38V192.47C85.782 194.224 67.3099 200.766 51.271 211.497C70.2777 224.215 92.632 231.003 115.501 231.003C138.37 231.003 160.724 224.215 179.731 211.497C163.692 200.765 145.22 194.223 126.002 192.468V178.384C140.883 175.899 154.401 168.217 164.151 156.703C173.902 145.189 179.252 130.59 179.252 115.503C179.252 98.6128 172.549 82.4128 160.615 70.4603C148.682 58.5077 132.492 51.7795 115.602 51.753C115.569 51.753 115.536 51.753 115.502 51.753L115.5 51.75Z" fill="#F5D4A6"/>
<path d="M116 203.128C115.88 203.128 115.75 203.247 115.51 203.247C115.27 203.247 115.26 203.128 115.02 203.128H116ZM88.7101 195.128C89.5801 194.878 90.4301 194.657 91.2701 194.438C90.9896 197.295 91.0905 200.177 91.5701 203.007C93.3417 205.81 95.7375 208.165 98.5701 209.887C104.98 203.887 115.37 203.247 115.37 203.247C115.37 203.247 125.87 203.827 132.37 209.938C135.151 208.266 137.519 205.99 139.3 203.277C139.821 200.361 139.939 197.386 139.65 194.438L141.78 194.997C155.343 198.147 168.219 203.738 179.78 211.497C160.772 224.211 138.418 230.998 115.55 230.998C92.682 230.998 70.3283 224.211 51.3201 211.497C62.7008 203.849 75.3613 198.305 88.7001 195.128H88.7101Z" fill="black"/>
<path d="M126.15 205.997L122.23 213.827H108.77L104.85 205.997C108.244 204.566 111.834 203.656 115.5 203.297C119.168 203.641 122.761 204.552 126.15 205.997Z" fill="#FF2500"/>
<path d="M124.54 230.646L122.36 213.906H108.89L106.7 230.666C109.6 230.886 112.54 230.996 115.5 230.996C118.46 230.996 121.56 230.876 124.5 230.646H124.54Z" fill="#FF2500"/>
<path d="M134.84 186C134.84 186 135.7 195.8 115.5 203.26C115.5 203.26 131.29 204.12 136.07 215.02C136.19 215.51 145.37 191.76 134.84 186.02V186Z" fill="white"/>
<path d="M96.16 186C85.75 191.76 94.81 215.39 95.06 215C99.71 204.22 115.62 203.24 115.62 203.24C95.3 195.79 96.16 186 96.16 186Z" fill="white"/>
<path d="M69.8339 33.8292C61.6338 33.7666 53.3899 36.5045 46.6819 41.533C38.1521 48.5229 34.5229 61.143 34.3529 74.213C34.1488 89.689 35.9621 108.965 36.0993 126.128C36.2035 139.175 36.6342 152.112 33.1796 160.123C30.6802 165.933 24.0841 169.724 16.9836 172.434C24.9435 175.264 41.9926 175.243 50.5636 173.973C61.3636 172.383 67.8016 167.444 67.7226 151.274C67.6315 135.344 66.3332 122.044 66.1636 105.444C65.8428 93.4613 64.5946 81.1533 71.141 71.4573C75.3549 65.3308 81.593 60.9363 88.257 57.8693C92.1862 56.0118 96.2955 54.561 100.52 53.5396C93.6483 39.9656 81.788 33.9216 69.833 33.8306L69.8339 33.8292Z" fill="#FFF510"/>
<path d="M90.7999 76.2444C102.718 59.1194 122.796 53.0264 140.543 58.7564C152.353 62.706 161.235 72.1454 162.856 86.9934C163.366 93.2032 163.49 99.4384 163.226 105.663C162.986 116.863 162.497 129.483 162.126 139.743C161.306 162.173 162.186 174.843 186.715 176.043C195.279 176.365 203.852 175.815 212.305 174.403H212.286C201.546 171.023 194.306 158.794 192.986 148.114C191.696 137.704 192.376 124.684 192.196 110.023C192.026 95.0628 193.236 80.2039 192.476 67.9339C191.062 45.1569 177.529 29.4289 158.35 22.7819C130.537 15.4319 107.267 22.8729 96.678 40.1249C91.2082 49.0361 88.9367 60.1948 90.7992 76.2458L90.7999 76.2444Z" fill="#FFF510"/>
<path d="M78.73 111.004C80.7643 109.027 83.4888 107.922 86.325 107.922C89.1612 107.922 91.8857 109.027 93.92 111.004M137.08 111.004C139.114 109.027 141.839 107.922 144.675 107.922C147.511 107.922 150.236 109.027 152.27 111.004" stroke="black" stroke-width="6.1999" stroke-linecap="round" stroke-linejoin="round"/>
<path d="M79.804 123.742H86.874M144.147 123.742H151.197" stroke="#FF833B" stroke-width="5.9998" stroke-linecap="round" stroke-linejoin="round"/>
<path d="M115.68 160.644C122.76 160.644 128.79 155.714 131.14 148.804C131.284 148.258 131.206 147.677 130.923 147.188C130.64 146.699 130.175 146.341 129.63 146.194C129.388 146.134 129.138 146.114 128.89 146.134H102.47C101.91 146.082 101.353 146.253 100.92 146.611C100.486 146.969 100.213 147.485 100.16 148.044C100.13 148.292 100.15 148.544 100.219 148.784C102.559 155.714 108.6 160.644 115.68 160.644Z" fill="#1A1A1A"/>
</g>
<defs>
<clipPath id="clip0_252_126">
<rect width="231" height="231" fill="white"/>
</clipPath>
</defs>
</svg>
