<svg width="231" height="231" viewBox="0 0 231 231" fill="none" xmlns="http://www.w3.org/2000/svg">
<g clip-path="url(#clip0_252_140)">
<path d="M115.5 51.75C99.5037 51.749 84.0916 57.7618 72.3221 68.5951C60.5527 79.4284 53.286 94.2904 51.9641 110.232C50.6423 126.174 55.3618 142.03 65.1863 154.653C75.0107 167.277 89.222 175.746 105 178.38V192.47C85.782 194.224 67.3099 200.766 51.271 211.497C70.2777 224.215 92.632 231.003 115.501 231.003C138.37 231.003 160.724 224.215 179.731 211.497C163.692 200.765 145.22 194.223 126.002 192.468V178.384C140.883 175.899 154.401 168.217 164.151 156.703C173.902 145.189 179.252 130.59 179.252 115.503C179.252 98.6128 172.549 82.4128 160.615 70.4603C148.682 58.5077 132.492 51.7795 115.602 51.753C115.569 51.753 115.536 51.753 115.502 51.753L115.5 51.75Z" fill="#7B401E"/>
<path d="M141.75 195C155.313 198.15 168.189 203.741 179.75 211.5C160.742 224.214 138.388 231 115.52 231C92.6519 231 70.2982 224.214 51.29 211.5C62.8512 203.741 75.7275 198.15 89.29 195L105 210.75H126L141.75 195Z" fill="#304267"/>
<path d="M115.45 211.34L104.9 221.88C104.667 222.115 104.389 222.301 104.084 222.428C103.778 222.555 103.451 222.62 103.12 222.62C102.789 222.62 102.462 222.555 102.156 222.428C101.851 222.301 101.573 222.115 101.34 221.88C101.24 221.786 101.149 221.682 101.07 221.57L82.5901 196.17L88.4802 190.28C88.9405 189.81 89.5663 189.539 90.224 189.524C90.8817 189.509 91.5191 189.752 92.0001 190.201L115.49 211.341L115.45 211.34Z" fill="#AAB0B1"/>
<path d="M115.45 211.337L126 221.877C126.233 222.111 126.511 222.298 126.816 222.425C127.121 222.552 127.449 222.617 127.78 222.617C128.111 222.617 128.438 222.552 128.744 222.425C129.049 222.298 129.327 222.111 129.56 221.877C129.66 221.783 129.751 221.679 129.83 221.567L148.31 196.167L142.42 190.277C141.963 189.82 141.348 189.556 140.703 189.54C140.057 189.523 139.429 189.755 138.95 190.188L115.46 211.328L115.45 211.337Z" fill="#AAB0B1"/>
<path d="M158.41 199.584L148.3 196.344V226.274C151.74 225.254 155.11 224.084 158.41 222.764V199.584ZM82.59 226.244V196.344L72.49 199.584V222.724C75.7801 224.044 79.16 225.224 82.59 226.244Z" fill="#AAB0B1"/>
<path d="M92.4109 15.2452C96.2306 14.3678 100.082 13.7045 103.945 13.2658C108.021 12.8057 111.873 12.5703 115.5 12.5703C117.03 12.5703 118.656 12.6131 120.368 12.7094L122.219 34.9644L127.986 13.3944C131.089 13.7689 134.053 14.2611 136.877 14.8602L126.327 64.6232C124.401 64.2059 122.625 63.917 121.01 63.7459C119.587 63.5961 117.746 63.5212 115.499 63.5212C113.263 63.5212 111.262 63.6282 109.518 63.8208C107.571 64.0454 105.645 64.3771 103.751 64.8158L92.4109 15.2452Z" fill="#D6F740"/>
<path d="M92.4109 15.2475C94.3261 14.8088 96.4339 14.4023 98.7342 14.0171C100.799 13.6747 102.886 13.3966 105.004 13.1719L110.182 63.7369C109.091 63.8439 108 63.9937 106.887 64.1756C106.02 64.3254 104.972 64.5393 103.752 64.8175L92.4109 15.2475Z" fill="#516303"/>
<path d="M56.6211 94.9062V106.594H61.9629V113.086H67.3047V119.192H72.627V125.424H99.473V119.192H104.778V113.086H109.922V107.083H121.076V113.086H126.221V119.192H131.527V125.424H158.373V119.192H163.694V113.086H169.037V106.594H174.379V94.9062H56.6211Z" fill="black"/>
<path d="M67.387 100.649V106.588H72.5862V100.649H67.387ZM72.5862 106.588V113.08H78.01V106.588H72.5862ZM78.01 106.588H83.2092V100.649H78.01V106.588ZM83.2092 106.588V113.08H88.635V106.588H83.2092ZM88.635 113.08V119.186H93.7776V113.08H88.635ZM78.01 113.08V119.186H83.1545V113.08H78.01ZM126.291 100.648V106.588H131.49V100.648H126.291ZM131.49 106.588V113.08H136.914V106.588H131.49ZM136.914 106.588H142.113V100.648H136.914V106.588ZM142.113 106.588V113.08H147.539V106.588H142.113ZM147.539 113.08V119.186H152.682V113.08H147.539ZM136.914 113.08V119.186H142.058V113.08H136.914Z" fill="white"/>
<path d="M100.35 143.852C100.342 145.875 101.134 147.821 102.554 149.263C103.974 150.705 105.906 151.528 107.93 151.552C109.953 151.528 111.884 150.705 113.302 149.262C114.721 147.82 115.511 145.875 115.5 143.852C115.489 145.875 116.279 147.82 117.697 149.262C119.116 150.705 121.047 151.528 123.07 151.552C125.094 151.528 127.026 150.705 128.446 149.263C129.866 147.821 130.658 145.875 130.65 143.852" stroke="#6E1C1C" stroke-width="6.3998" stroke-linecap="round" stroke-linejoin="round"/>
</g>
<defs>
<clipPath id="clip0_252_140">
<rect width="231" height="231" fill="white"/>
</clipPath>
</defs>
</svg>
