<svg width="150" height="200" viewBox="0 0 150 200" fill="none" xmlns="http://www.w3.org/2000/svg">
<path fill-rule="evenodd" clip-rule="evenodd" d="M144.643 172.446C143.507 166.419 142.511 160.37 141.655 154.303C141.464 152.92 141.176 151.358 142.172 150.352C143.57 148.915 144.853 147.693 145.007 145.645C145.16 143.723 144.47 141.622 144.049 139.754C143.116 135.838 142.011 131.961 140.736 128.132C139.472 124.234 138.074 120.372 136.657 116.528C135.335 112.935 134.071 109.289 132.348 105.84C129.092 99.2833 123.538 94.4334 116.721 91.1821C114.997 90.3738 111.55 87.4997 109.769 86.871C108.141 86.2603 108.141 88.0027 106.532 87.3381C105.249 86.8172 104.043 86.1346 103.334 84.967C102.568 83.7096 100.595 81.9313 100.289 80.4763C99.657 77.3508 100.346 74.6923 97.9909 72.3391C95.8226 70.2788 93.1043 68.8023 90.1198 68.064C83.6659 66.3935 75.0863 67.561 71.1987 73.1834C69.341 75.8599 68.709 79.1111 66.1811 81.2846C63.9979 83.2066 64.4958 84.5179 61.6615 85.4879C61.4891 85.5418 57.1419 84.6796 56.9886 84.7335C53.8862 84.1048 50.9178 85.8472 48.0834 86.8531C43.8487 88.3697 39.8031 90.3152 36.0183 92.6551C28.4129 97.4072 21.7774 103.4 16.4269 110.348C9.67761 119.053 4.71589 128.86 1.79554 139.269C1.46997 140.418 1.12525 141.604 1.50827 142.753C1.83384 143.705 2.54242 144.406 3.38507 144.981C4.53412 145.753 6.83224 146.238 6.77479 147.801C6.75564 148.986 6.31517 150.226 6.1045 151.393C5.85554 152.777 5.66403 154.178 5.45337 155.561C4.53412 161.92 3.80639 168.314 3.48082 174.709C3.05878 181.049 3.02681 187.406 3.38507 193.75C3.40422 194.163 3.53827 194.558 3.76809 194.863C3.57658 194.935 3.53827 195.295 3.78724 195.348L4.30431 195.438C4.69159 195.711 5.16076 195.862 5.64488 195.869L6.69818 195.905C10.3943 196.624 14.0905 197.324 17.8249 197.845C22.3828 198.474 26.9408 198.977 31.5178 199.408C40.9401 200.27 50.2858 199.983 59.6889 199.516C69.0898 199.049 78.5066 198.93 87.9175 199.157C97.3397 199.408 106.762 199.785 116.184 199.947C126.717 200.127 137.25 199.857 147.745 199.049C149.181 198.959 150.082 197.881 149.794 196.534C148.09 188.505 146.156 180.529 144.624 172.464L144.643 172.446Z" fill="#AE5D29"/>
<path fill-rule="evenodd" clip-rule="evenodd" d="M48.0643 86.8531L48.2941 86.7812C51.071 85.7574 53.9628 84.1228 56.9886 84.7335C57.0844 84.6976 59.0569 85.0748 60.4167 85.3083L59.1335 86.5657L56.8737 86.9429C64.6682 98.996 73.8798 105.031 84.5086 105.031C95.1374 105.031 103.219 98.996 108.715 86.9429L109.481 86.7633C109.558 86.7633 109.673 86.7992 109.769 86.8351C111.55 87.4818 115.016 90.3559 116.721 91.1642C123.538 94.3975 129.073 99.2474 132.348 105.822C134.014 109.163 135.259 112.648 136.523 116.15L136.657 116.51C138.074 120.354 139.472 124.234 140.736 128.114C141.942 131.778 143.034 135.478 143.915 139.215L144.049 139.736C144.47 141.604 145.16 143.687 145.007 145.627C144.949 146.297 144.754 146.949 144.432 147.549L129.035 152.759L136.389 199.695C129.667 199.965 122.925 200.055 116.184 199.929C106.762 199.767 97.3397 199.39 87.9175 199.157C78.7824 198.941 69.6666 199.031 60.5316 199.462L58.2334 199.57C49.3357 200.126 40.4062 200.066 31.5178 199.39L30.9242 199.336V192.456L34.0458 154.214L18.1505 151.411L2.58071 144.316C2.09152 143.879 1.7234 143.336 1.50826 142.735C1.14439 141.658 1.4125 140.58 1.69977 139.502L1.79552 139.269C4.75835 128.875 9.71651 119.074 16.4269 110.348C21.7703 103.395 28.3992 97.3966 35.9992 92.6371C39.7911 90.302 43.8319 88.344 48.0643 86.8351V86.8531Z" fill="#FDEA6B"/>
<path fill-rule="evenodd" clip-rule="evenodd" d="M54.0394 84.536C55.0161 84.4821 56.012 84.6438 56.9887 84.7156C57.0653 84.7336 57.1036 84.8593 56.9887 84.8773C55.2651 85.2186 53.5415 85.6856 51.837 86.1526L51.1093 86.3682C49.1942 86.9071 47.3174 87.446 45.4406 88.1645C41.7253 89.5835 38.2016 91.4876 34.9459 93.697C22.4403 102.175 13.401 115.019 7.6749 128.311C5.74814 132.803 4.19233 137.427 3.02121 142.143C2.94461 142.43 2.6382 143.113 2.8297 143.4C2.96376 143.634 3.51914 143.777 3.78725 143.921L4.64905 144.334L9.47509 146.651L9.91557 146.849C17.1929 150.19 24.9299 153.028 33.0882 153.226L33.1648 152.561C33.4544 148.923 34.0889 145.316 35.0608 141.783C35.1182 141.604 35.3672 141.676 35.3864 141.837C35.9609 145.987 35.7694 150.172 35.5779 154.357C35.2332 161.722 34.7544 169.123 34.3331 176.506C34.1032 180.206 33.8351 183.87 33.5862 187.589C33.3372 191.271 33.2606 195.061 32.6861 198.726C32.5712 199.552 31.537 199.983 30.771 199.911C29.9283 199.821 29.258 199.103 29.2389 198.294C29.2389 196.157 29.5262 193.983 29.6985 191.864L30.1773 185.792C30.771 178.41 31.4796 171.027 32.1307 163.644C32.3605 161.027 32.603 158.41 32.8584 155.794C24.2022 155.525 16.1205 152.507 8.40264 149.004C8.28773 151.376 8.01962 153.765 7.75151 156.118C7.02377 162.728 6.39179 169.338 5.91301 175.967C5.52311 181.511 5.25494 187.063 5.10867 192.618L5.07037 193.876C5.07037 194.666 4.97461 195.402 4.24688 195.977C3.53829 196.57 2.54244 196.606 1.83385 195.977C0.876306 195.151 1.02951 194.019 1.06782 192.906C1.14024 190.078 1.25516 187.252 1.41253 184.427C1.79136 177.847 2.46223 171.285 3.42339 164.758L3.8064 162.243C4.47669 157.573 5.24273 152.777 6.77481 148.25C6.18113 147.981 5.58745 147.711 4.99377 147.406C3.94046 146.921 2.84886 146.436 1.8147 145.897C1.01036 145.448 0.301777 144.855 0.0911159 143.957C-0.176998 142.969 0.206022 141.891 0.474135 140.921V140.849C1.73959 135.934 3.44366 131.127 5.56829 126.479C8.90893 118.976 13.2735 111.912 18.5527 105.463C23.2512 99.5922 28.9985 94.5297 35.5396 90.4996C38.7551 88.5635 42.2164 87.0126 45.8428 85.8832C48.4856 85.044 51.2499 84.5897 54.0394 84.536ZM71.2944 72.6805C72.4435 71.513 74.7608 72.7165 74.2054 74.2613C73.0183 77.9203 70.7067 81.1695 67.56 83.6019C64.5853 85.9577 60.7605 87.1535 56.8738 86.943L57.1993 87.3741C59.7666 90.8157 62.727 93.984 66.0279 96.8225C72.9223 102.427 82.2679 105.445 91.3072 103.289C98.4122 101.601 104.675 96.3196 106.513 89.6015C106.264 89.7093 105.939 89.7632 105.594 89.6913C104.119 89.3859 102.664 87.931 101.706 86.8891C100.691 85.7575 99.8868 84.554 99.2932 83.1708C98.2207 80.656 97.876 77.4048 99.3506 74.9618C99.5421 74.6564 99.9251 74.8361 99.9826 75.1414L100.04 75.5905C100.327 77.8718 100.672 80.0812 101.821 82.1649C102.684 83.7477 103.868 85.1572 105.307 86.3143C105.804 86.6736 106.417 86.961 106.858 87.3921L106.954 87.4639C107.068 86.5658 107.739 86.1526 108.409 86.1706C109.041 86.2065 109.807 86.458 110.094 86.5837L110.113 86.6017C114.561 88.6641 118.744 91.1952 122.581 94.1461C130.635 100.049 136.547 108.142 139.51 117.318C140.947 121.863 141.77 126.551 142.632 131.221L143.168 134.095C143.972 138.388 144.872 142.789 146.692 146.795C147.171 147.819 146.807 148.789 145.639 149.202C144.207 149.716 142.77 150.219 141.33 150.711C142.038 153.585 142.479 156.549 142.996 159.423C144.145 165.548 145.524 171.638 146.711 177.745C147.324 180.888 147.879 184.032 148.492 187.14L149.392 191.666L149.852 194.109L149.871 194.235C149.967 194.666 150.062 195.115 149.947 195.546C149.794 196.031 149.392 196.372 149.028 196.732C148.722 197.019 148.301 197.019 147.937 196.857L147.803 196.803C147.151 196.516 146.654 196.229 146.405 195.546C146.27 195.097 146.213 194.612 146.117 194.163C145.602 191.555 145.104 188.945 144.624 186.331L144.317 184.697C143.321 179.056 142.364 173.398 141.866 167.722C141.674 165.207 141.425 162.674 141.195 160.141L141.023 158.255C140.812 155.866 140.544 153.405 140.506 150.98L139.644 151.268L135.393 152.687C134.339 153.046 132.999 153.765 131.869 153.621C131.314 153.567 130.911 153.405 130.567 153.1C130.95 158.273 131.486 163.411 132.195 168.548C133.299 176.675 134.704 184.763 136.408 192.798C136.523 193.373 136.676 193.947 136.772 194.522C136.867 195.187 136.676 195.582 136.293 196.139C135.967 196.57 135.335 196.803 134.799 196.498C134.11 196.085 133.746 195.726 133.554 194.989C133.363 194.325 133.248 193.624 133.114 192.941C132.303 189.052 131.575 185.147 130.931 181.23C129.437 171.889 128.498 162.477 128.02 153.064C127.791 148.409 127.702 143.749 127.752 139.089C127.752 136.7 127.847 134.311 128.02 131.922C128.211 129.515 128.594 127.162 128.939 124.773C128.939 124.683 129.073 124.683 129.073 124.773C129.226 127.449 129.475 130.126 129.609 132.802C129.724 135.371 129.782 137.921 129.877 140.49C129.992 143.849 130.165 147.226 130.394 150.585C130.596 150.374 130.85 150.213 131.134 150.116C131.418 150.019 131.723 149.989 132.022 150.028C132.922 149.849 133.88 149.418 134.722 149.13L137.94 148.142L142.996 146.58C141.533 141.812 140.382 136.965 139.549 132.066L139.165 129.856C138.399 125.509 137.538 121.144 136.14 116.923C134.664 112.519 132.411 108.378 129.475 104.672C126.485 101.044 123.103 97.7147 119.383 94.7389C116.242 92.1522 112.929 89.8171 109.73 87.3023C109.75 87.4639 109.769 87.6615 109.73 87.8411C109.06 92.4935 106.475 96.8225 102.874 100.038C95.6545 106.504 84.9491 107.834 75.68 104.798C66.7365 101.87 58.8272 94.9185 56.0311 86.3323C55.9737 86.1886 56.1843 86.1526 56.2801 86.2425L56.7397 86.8352C56.7397 86.7634 56.778 86.6736 56.8738 86.6556C60.2159 85.5292 63.2598 83.7402 65.7981 81.4105C67.5678 79.6904 68.9545 77.657 69.8773 75.4289L69.9539 75.2492C70.2794 74.3511 70.5667 73.417 71.2944 72.6985V72.6805Z" fill="black"/>
<path fill-rule="evenodd" clip-rule="evenodd" d="M94.3701 82.1826C90.1276 82.2005 86.5348 81.0689 83.7829 79.2007C80.343 78.0511 76.196 76.2728 73.6925 74.4047C72.6987 74.6382 71.533 73.6682 70.7877 73.1473C66.1056 69.878 62.4555 65.064 61.3662 60.2679C59.6844 62.2439 57.2956 62.3516 55.0214 61.3457C50.2438 58.795 50.4158 53.4421 52.1358 49.4184C48.5047 41.7663 46.0013 21.5761 51.5242 13.4389C52.6709 12.2175 54.3144 11.4989 55.5183 10.2415C56.5885 9.16377 57.6014 8.03212 58.8245 7.18787C62.6083 4.47548 69.1059 3.03846 73.1956 2.33791C90.204 -1.09299 103.257 5.10418 118.679 10.3493C117.772 12.402 116.583 14.3344 115.143 16.0974C118.965 17.4446 117.207 20.4624 114.245 21.9892L112.487 21.1809C115.239 30.4497 121.564 53.478 118.832 60.8787C116.653 72.3928 107.079 82.2544 94.3701 82.1826Z" fill="#AE5D29"/>
<path d="M55.8814 46.3109C53.7219 46.3109 52.1166 48.5922 52.1166 48.5922H51.6771C48.2754 40.3652 46.135 21.3606 51.486 13.5288C52.0593 12.9181 52.7664 12.4151 53.4735 11.9122C54.3629 11.3325 55.1718 10.6506 55.8814 9.88236C56.7796 8.9483 57.6778 8.01423 58.748 7.27776C62.5319 4.58334 69.0295 3.14631 73.1 2.46372C87.7387 -0.536064 99.4535 3.64927 112.258 8.19386C114.36 8.9483 116.462 9.70273 118.621 10.4392C117.72 12.4909 116.538 14.4232 115.105 16.1873C118.927 17.5345 117.169 20.5523 114.207 22.0791L112.888 21.4863C112.544 19.7439 111.627 16.3669 109.697 16.1873C108.321 16.0616 106.066 17.2651 103.887 18.4327C101.919 19.5104 99.9886 20.5343 98.7846 20.5343C97.8291 20.5343 95.4594 19.8158 92.4782 18.9177C87.5094 17.4088 80.8589 15.3969 76.4635 15.3969C69.4308 15.3969 63.4683 20.8576 61.0795 24.8095C58.6907 28.7613 64.6149 33.6651 64.6149 33.6651C64.6149 33.6651 61.0795 37.9223 61.0795 39.7904C61.0795 41.6586 61.9012 47.4965 61.9012 47.4965C61.9012 47.4965 58.0791 46.3109 55.9196 46.3109H55.8814Z" fill="#F59797"/>
<path fill-rule="evenodd" clip-rule="evenodd" d="M96.8354 83.1706C91.3125 83.7095 84.7958 82.47 81.1074 78.2667C81.0328 78.1813 80.9826 78.0794 80.9618 77.9706C80.941 77.8618 80.9502 77.7498 80.9885 77.6453C81.0269 77.5409 81.0931 77.4473 81.1808 77.3737C81.2685 77.3001 81.3749 77.2489 81.4896 77.2249C81.6234 77.189 81.7763 77.2249 81.9483 77.2967L82.2923 77.4764C84.7585 78.9429 87.5092 79.936 90.3857 80.3984C93.2622 80.8609 96.2077 80.7835 99.0523 80.1708C104.327 79.0391 108.608 76.1471 111.742 72.357C115.253 67.9871 117.385 62.7771 117.895 57.3221C118.564 50.7837 117.035 44.2991 115.487 37.9762C113.844 31.3299 112.047 24.7196 109.945 18.1812C109.888 17.9836 109.888 17.8039 109.888 17.6423C109.276 17.3908 108.627 17.4627 107.977 17.6602C106.792 18.0554 105.607 18.8997 104.613 19.6002L103.62 20.2828C102.427 21.1015 101.02 21.5984 99.5491 21.7198C98.0012 21.8276 96.4723 21.3606 95.039 20.8037L92.9178 19.9056C90.9112 19.0613 88.9237 18.2171 86.7642 17.6602C83.8594 16.9417 80.8399 16.5825 77.8395 16.5825C72.4886 16.6364 67.0803 17.9477 63.7933 22.2048C62.4555 23.9293 61.5955 25.9231 62.2644 28.0607C62.6776 29.2115 63.2982 30.287 64.099 31.2401L64.3666 31.5635C64.7679 32.1023 65.131 32.6412 65.2457 33.1981C65.3412 33.6651 65.2648 34.1681 64.9017 34.7249C64.6632 35.063 64.3947 35.3815 64.099 35.6769C63.9079 35.9105 63.6786 36.126 63.5066 36.3595C63.1397 36.8434 62.8259 37.3609 62.5702 37.9043C62.0914 38.9684 61.832 40.1083 61.8058 41.2634C61.7675 42.6465 61.9969 43.9937 62.188 45.3589C62.3218 46.3289 62.4746 47.2809 62.532 48.2689C62.532 48.4485 62.4937 48.5563 62.4173 48.6461C62.3721 48.7042 62.315 48.7532 62.2494 48.7902C62.1838 48.8272 62.1109 48.8515 62.0351 48.8616H61.8822L61.9395 49.149C61.8309 49.0243 61.7161 48.9044 61.5955 48.7898C61.4809 48.7179 61.4044 48.6281 61.328 48.5203L60.8311 48.1252C59.9541 47.4838 58.884 47.1192 57.7734 47.0833C56.7224 47.0833 55.6904 47.4066 54.9069 48.1072C53.2825 49.4903 52.8238 51.7716 52.8238 53.7116C52.8238 55.6875 53.3016 58.0945 55.1553 59.316C55.8815 59.8189 56.7988 60.1243 57.697 60.1243C58.4614 60.1243 59.1685 59.8728 59.8947 59.6393L60.5445 59.4238C60.7929 59.3519 61.0222 59.3519 61.2133 59.4238C61.4427 59.4776 61.6147 59.6034 61.7675 59.783C61.927 59.983 62.0194 60.2231 62.033 60.4726C62.0466 60.7222 61.9808 60.9699 61.844 61.1841L62.2453 61.8128C63.7242 64.2431 65.473 66.5191 67.4625 68.6027C68.6473 69.7883 69.9086 70.902 71.2846 71.8899L71.4757 72.0157C71.6095 72.1055 71.7433 72.1953 71.877 72.3211C72.2784 72.6264 72.7752 73.0396 73.2148 73.0575L73.5779 73.0396C73.8263 73.0036 74.0556 72.9857 74.2659 73.0755C74.4379 73.1473 74.6098 73.2551 74.7818 73.5066C74.8981 73.6883 74.9595 73.8963 74.9595 74.1083C74.9595 74.3204 74.8981 74.5284 74.7818 74.7101C74.6005 75.0224 74.3199 75.2736 73.9792 75.4286C73.6216 75.5649 73.2285 75.5962 72.8517 75.5184C71.8961 75.3388 70.8068 74.5844 70.1189 74.0814L69.9851 74.0096C68.4562 72.9138 67.0229 71.7103 65.7617 70.3631C63.5032 68.0673 61.7727 65.3584 60.6782 62.4056C59.93 62.8356 59.0709 63.0654 58.1939 63.0702C56.9096 63.1014 55.6348 62.8556 54.4673 62.3517C53.3916 61.8489 52.4469 61.1295 51.7004 60.2447C50.954 59.3599 50.424 58.3314 50.1483 57.2323C49.4263 54.5726 49.6272 51.7657 50.7216 49.2209C47.7977 42.2693 46.8995 34.5453 47.148 27.1266C47.1831 23.5934 47.5993 20.0727 48.3901 16.6184C48.7724 15.1095 49.4603 13.6545 50.5496 12.469C51.1612 11.7864 51.9256 11.2475 52.69 10.7266C53.3398 10.2596 54.0087 9.8105 54.5629 9.23569L54.8304 8.96625L55.0024 8.78662C55.9579 7.78071 56.9135 6.81071 58.0601 6.00239C59.4169 5.05036 60.9267 4.31388 62.4555 3.68519C65.844 2.4212 69.3682 1.50575 72.9663 0.95484C80.687 -0.356444 88.5988 -0.428295 96.2048 1.43984C100.054 2.44649 103.843 3.64572 107.556 5.0324L115.564 7.78071L119.271 9.07403C119.56 9.17403 119.803 9.36432 119.959 9.61291C120.039 9.73255 120.087 9.86807 120.1 10.0085C120.113 10.1489 120.091 10.2903 120.036 10.4212C119.271 12.2175 118.316 13.924 117.131 15.5047C117.598 15.8226 117.981 16.2377 118.249 16.7175C118.518 17.1974 118.665 17.729 118.679 18.271C118.736 20.4265 116.653 21.8815 114.933 22.9413C114.761 23.0311 114.608 23.085 114.455 23.1209C116.137 29.1205 117.723 35.156 119.08 41.2454L119.176 41.6585C120.59 48.0174 121.469 54.5199 120.169 60.9506C119.079 66.5714 116.324 71.789 112.219 76.0034C108.175 80.0533 102.713 82.5977 96.8354 83.1706ZM60.5636 46.5804C59.8374 44.4248 59.4552 42.0897 59.7418 39.8982C60.0068 37.7365 60.9744 35.7042 62.5129 34.0782L62.704 33.8627C62.7995 33.7729 62.8951 33.6831 62.9142 33.5573C62.9333 33.4855 62.9142 33.4136 62.876 33.3238C62.7804 33.1083 62.5893 32.9286 62.4173 32.731L62.1115 32.3718C60.5254 30.3779 59.3596 27.9709 59.7418 25.4202C60.124 22.9413 61.844 20.6241 63.6977 18.8638C67.73 15.0197 74.0365 14.1395 79.5786 14.3731C84.4011 14.5548 89.1342 15.6548 93.4911 17.6064L93.816 17.7501C93.988 17.8399 94.16 17.9297 94.332 17.9836C95.4404 18.5225 96.5679 19.0254 97.7719 19.3128C100.161 19.8517 101.785 18.7021 103.467 17.5345C104.04 17.1393 104.652 16.7262 105.263 16.3849L105.397 16.313C106.544 15.6843 107.881 15.2712 109.181 15.2892C110.327 15.3071 111.398 15.6484 112.296 16.4567C112.487 16.6184 112.583 16.798 112.621 16.9777C112.726 17.1191 112.804 17.2773 112.85 17.4447C113.17 18.564 113.488 19.6837 113.806 20.8037L114.054 20.6421C114.818 20.175 115.659 19.6541 116.022 18.8638C116.175 18.5584 116.156 18.0734 115.965 17.6962C115.908 17.5729 115.815 17.4671 115.698 17.3908C115.621 17.3369 115.506 17.301 115.392 17.319C115.105 17.3549 114.857 17.319 114.627 17.2291C114.381 17.1298 114.173 16.9602 114.035 16.7441C113.883 16.5334 113.815 16.2788 113.844 16.0256C113.882 15.828 113.997 15.5945 114.188 15.379C115.487 13.9779 116.596 12.4151 117.437 10.7086L111.875 8.80458L105.989 6.75683L104.919 6.39757C101.366 5.10189 97.727 4.0219 94.0262 3.16426C86.6304 1.58354 78.9288 1.96076 71.5522 3.43371L71.1126 3.52352C67.9784 4.0777 64.9293 4.9948 62.0351 6.25387C60.6277 6.89314 59.3272 7.72219 58.1748 8.71477C57.6779 9.16384 57.2192 9.64884 56.7797 10.1338C56.1572 10.8223 55.4731 11.4593 54.7349 12.0379L54.0469 12.5588C52.9605 13.2801 52.0808 14.2427 51.4861 15.361C50.8554 16.6543 50.5688 18.0554 50.3394 19.4565C49.7279 22.9233 49.4794 26.462 49.4986 30.0007C49.5368 35.9284 50.4923 41.7124 51.7154 47.4965C52.6709 46.1852 54.0469 45.1613 55.7859 44.9637C56.6617 44.8558 57.5523 44.9463 58.3833 45.2275C59.2144 45.5087 59.9619 45.9725 60.5636 46.5804ZM58.729 53.6038C57.4681 53.1298 56.0924 52.9931 54.754 53.2086C54.6238 53.2328 54.4887 53.2137 54.3718 53.1547C54.2571 53.0829 54.1806 52.9751 54.1233 52.8673C54.066 52.7416 54.066 52.6159 54.1233 52.4901C54.1424 52.3823 54.238 52.2746 54.3909 52.2027C55.8502 51.5384 57.484 51.2886 59.0921 51.4842H59.2449C60.0667 51.6099 61.2324 51.8435 62.1115 52.3285C62.7804 52.6877 63.2964 53.2266 63.4111 53.8912C63.4684 54.2505 63.3919 54.6097 63.1626 54.8792C63.054 55.0144 62.912 55.1227 62.7488 55.1947C62.5857 55.2667 62.4063 55.3002 62.2262 55.2923C61.5 55.2744 61.0796 54.9869 60.5636 54.6097L60.3725 54.466C59.8692 54.1092 59.3162 53.8191 58.729 53.6038Z" fill="black"/>
<path fill-rule="evenodd" clip-rule="evenodd" d="M89.2006 65.6028C89.2006 62.2976 94.3714 61.5791 98.8527 61.5791C103.334 61.5791 108.352 62.5491 108.352 65.6028C108.352 68.6565 103.085 69.1235 99.7911 69.1235C96.5163 69.1235 89.2006 68.89 89.2006 65.6028ZM89.2389 50.4781C93.2606 50.4781 96.5163 47.9094 96.5163 44.73C96.5163 41.5506 93.2606 38.9819 89.2389 38.9819C85.2172 38.9819 81.9615 41.5506 81.9615 44.73C81.9615 47.9094 85.2172 50.4781 89.2389 50.4781ZM110.401 50.4781C112.013 50.4639 113.553 49.8509 114.683 48.7734C115.814 47.6959 116.444 46.2419 116.433 44.73C116.433 41.5506 113.733 38.9819 110.401 38.9819C108.789 38.9962 107.249 39.6092 106.118 40.6867C104.987 41.7641 104.358 43.2181 104.368 44.73C104.368 47.9094 107.068 50.4781 110.401 50.4781Z" fill="white"/>
<path fill-rule="evenodd" clip-rule="evenodd" d="M98.9867 61.0224C100.768 60.4296 102.664 60.6631 104.464 61.2738L104.617 61.3277C106.283 61.9205 108.294 62.9444 108.984 64.561C109.118 64.8844 109.175 65.2077 109.175 65.531C109.405 65.531 109.615 65.5669 109.845 65.6029C110.286 65.6747 110.267 66.3573 109.845 66.4292C109.577 66.483 109.29 66.5369 109.022 66.5549C108.753 67.313 108.246 67.9769 107.566 68.459C105.996 69.5906 103.832 69.7882 101.936 69.9678C99.8293 70.1475 97.7227 70.1115 95.6161 69.86L94.8884 69.7702C93.1648 69.5726 91.2689 69.3032 89.8134 68.441C88.4537 67.6327 87.5153 66.0699 88.0898 64.561C88.6835 62.9983 90.7135 62.3516 92.2264 61.8486C94.3924 61.1287 96.6964 60.8471 98.9867 61.0224ZM95.9609 66.2316L96.0183 67.5967C96.0183 67.7404 95.98 67.8662 95.9034 67.956C96.9376 68.0817 97.9909 68.1356 99.025 68.1356C98.8335 67.5967 98.8335 66.968 98.8335 66.3932L95.9609 66.2316ZM99.791 66.4292L99.8868 66.7345C100.021 67.1836 100.136 67.6686 100.117 68.1177L101.572 68.0278L102.185 67.974C102.319 67.974 102.472 67.974 102.606 67.938L102.759 66.5369L99.791 66.4292ZM103.698 66.5549C103.755 66.968 103.794 67.3991 103.813 67.8123C104.579 67.7045 105.364 67.5249 106.034 67.2016C106.36 67.0219 106.628 66.8423 106.839 66.6267C106.168 66.6267 105.498 66.5908 104.847 66.5729H104.464L103.698 66.5549ZM89.9666 65.6029C90.024 66.4651 91.4987 67.0758 92.2264 67.2914C92.9541 67.471 93.6819 67.6506 94.4288 67.7584C94.4117 67.7 94.4052 67.6392 94.4096 67.5788L94.5437 66.1417L94.1607 66.1058C92.7626 65.998 91.3072 65.9262 89.9666 65.6029ZM99.0825 62.2977C99.1974 63.3755 99.3697 64.4532 99.5804 65.531H99.9634L102.836 65.5669V65.4232C102.874 64.5251 102.855 63.627 102.836 62.7109C101.63 62.4594 100.346 62.3696 99.0825 62.2977ZM103.334 62.8366L103.602 65.549H104.847C105.613 65.549 106.436 65.4951 107.241 65.4771C107.183 65.0819 106.934 64.6868 106.475 64.3275C105.517 63.5551 104.445 63.106 103.334 62.8186V62.8366ZM98.3547 62.0822C97.4355 62.172 96.5162 62.3336 95.6161 62.5312C95.8459 63.1779 95.8076 63.8964 95.8651 64.579L95.9225 65.4592L98.7952 65.5131C98.7569 64.4353 98.7952 63.3575 98.8526 62.2797H98.7377C98.5845 62.2618 98.4505 62.1899 98.3547 62.0822ZM94.9842 62.6929L93.7393 63.0521L93.2989 63.2318C92.2073 63.591 90.7709 64.1299 90.1581 64.9562C90.0624 65.0999 90.0049 65.2256 89.9666 65.3693C91.4987 65.2256 93.0691 65.3693 94.6011 65.4232L94.6777 64.8484L94.6969 64.579C94.7926 63.9683 94.7926 63.2857 94.9842 62.6929ZM102.587 49.6519C104.043 50.4782 106.226 52.4002 104.694 54.43C102.855 56.2263 100.212 54.1785 98.9101 53.2445C97.7036 52.5259 96.363 54.3761 97.4738 55.2204C106.858 61.7409 110.688 49.8675 103.315 48.6819C102.51 48.5382 102.204 49.4004 102.587 49.6519ZM84.8916 39.6466C86.9407 36.3055 92.0157 36.2516 94.9267 38.8203C96.2584 40.0368 97.0814 41.6605 97.2465 43.3971C97.4116 45.1338 96.908 46.8684 95.8268 48.2867C93.4712 51.3404 88.875 52.1667 85.1597 51.0889C84.3303 50.8416 83.5622 50.4408 82.9008 49.9102C82.2394 49.3797 81.6981 48.7301 81.3089 48C80.9197 47.2699 80.6905 46.474 80.6348 45.6594C80.5791 44.8447 80.6981 44.0279 80.9848 43.2571C81.3134 42.4252 81.834 41.6717 82.5094 41.0507C83.1848 40.4296 83.9983 39.9563 84.8916 39.6646V39.6466ZM82.9765 34.0422C84.7001 32.6052 87.86 31.2041 90.1964 31.9047C91.537 32.3178 92.1307 34.3476 90.6369 34.9943C88.8941 35.7487 86.8833 35.4433 85.1214 36.2157C84.3554 36.5391 83.6659 36.9342 83.1488 37.545C82.7467 38.012 82.3254 38.6227 81.7317 38.9101C81.5785 38.982 81.3678 38.982 81.2529 38.8383C79.9506 37.4731 81.8274 34.9763 82.9765 34.0422ZM107.777 31.8328C108.873 31.5688 110.017 31.5333 111.128 31.7288C112.24 31.9243 113.293 32.3461 114.212 32.9645L114.327 33.0363C115.284 33.7189 116.452 34.7248 116.395 35.9283C116.337 36.9522 115.208 37.6348 114.212 37.1139C113.407 36.6648 113.044 35.8026 112.354 35.2278C111.175 34.2215 109.639 33.6642 108.045 33.665C107.394 33.665 106.743 33.8446 106.13 33.9165C106.168 34.0063 105.67 33.9704 105.364 33.8806C105.172 33.7907 105.172 33.5393 105.249 33.3776C105.613 32.5693 106.934 32.0663 107.777 31.8328ZM108.964 37.545C110.765 37.2037 112.756 37.5809 114.269 38.5688C115.613 39.4938 116.599 40.8037 117.08 42.3008C117.56 43.7978 117.508 45.4008 116.931 46.8677C116.294 48.2817 115.172 49.4558 113.742 50.2042C112.313 50.9525 110.659 51.2323 109.041 50.9991C107.391 50.6842 105.92 49.8151 104.904 48.555C103.889 47.2949 103.398 45.7304 103.525 44.1553C103.679 42.8081 104.292 41.6046 105.211 40.6885L105.249 40.5986C105.9 38.982 107.126 37.9042 108.964 37.545ZM92.4945 40.1137C90.4454 38.9461 87.4195 39.6107 85.6385 41.0118C85.2938 41.2812 84.8916 41.1914 84.6809 40.9579C84.0629 41.4066 83.55 41.9699 83.1744 42.6127C82.7988 43.2556 82.5684 43.9641 82.4977 44.6942C82.2488 47.4784 84.3554 49.3106 87.2089 49.5082C90.1198 49.7238 93.1265 48.9693 94.4862 46.3647C95.0618 45.2773 95.1763 44.0257 94.8067 42.8623C94.437 41.6989 93.6108 40.7102 92.4945 40.0957V40.1137ZM112.029 40.2394C111.136 39.9622 110.187 39.8877 109.258 40.022C108.329 40.1563 107.447 40.4955 106.685 41.0118C106.142 41.6401 105.754 42.3734 105.548 43.1592C105.343 43.945 105.326 44.7636 105.498 45.5564C106.111 47.658 108.256 49.2926 110.63 49.0591C111.729 48.9542 112.759 48.5085 113.556 47.7927C114.354 47.0769 114.875 46.1319 115.035 45.1073C115.246 43.1134 114.078 40.9759 112.029 40.2394ZM110.65 43.3829C111.033 43.1494 111.473 43.4188 111.607 43.7421L111.684 43.9038L111.76 44.0655V44.1014L111.837 44.2092L112.029 44.3888C112.262 44.6285 112.386 44.9446 112.373 45.269C112.367 45.4303 112.323 45.5882 112.243 45.7312C112.163 45.8742 112.05 45.9986 111.912 46.0951C111.774 46.1917 111.615 46.2579 111.446 46.2891C111.278 46.3202 111.103 46.3153 110.937 46.2749C110.171 46.0953 109.845 45.3588 109.922 44.6582C109.96 44.1194 110.19 43.7062 110.65 43.4008V43.3829ZM89.7176 43.5266C89.8787 43.3785 90.0953 43.2955 90.3209 43.2955C90.5465 43.2955 90.763 43.3785 90.9241 43.5266C91.1157 43.7062 91.1731 43.8858 91.3072 44.0834L91.3646 44.1732C91.5178 44.3888 91.6519 44.5684 91.6902 44.8199C91.7859 45.3947 91.5944 45.9156 90.9816 46.1671C90.3879 46.4006 89.8325 46.1671 89.4687 45.7001C89.0282 45.1612 89.1623 43.9936 89.7176 43.5266Z" fill="black"/>
<path fill-rule="evenodd" clip-rule="evenodd" d="M119.746 51.1072C118.54 52.2092 117.015 52.9562 115.362 53.2562C113.708 53.5562 111.997 53.3961 110.439 52.7957C102.511 49.6702 106.398 39.9702 112.527 37.3477C113.293 37.168 114.308 36.7549 115.246 36.6651C115.323 36.6292 115.514 36.7369 115.725 36.6292C122.485 37.3477 124.017 47.1733 119.746 51.1072ZM94.1224 51.682C92.792 53.2354 90.9597 54.3415 88.9013 54.8339C86.8428 55.3263 84.6695 55.1784 82.7084 54.4123C74.8948 51.5383 77.6526 42.9161 83.0148 39.5391C94.3139 35.5514 98.9868 45.7004 94.1224 51.682ZM77.1738 44.4969H77.1355L77.2696 44.425L77.2313 44.5328L77.1738 44.4969ZM125.128 40.9582C124.496 40.9582 123.577 41.066 123.04 41.4791C121.738 37.3477 116.912 33.5396 112.737 36.3238C111.151 36.8058 109.693 37.6022 108.464 38.6591C107.235 39.716 106.263 41.0086 105.613 42.4491C103.123 41.048 99.1783 41.6408 96.9951 43.4909C95.5779 39.0901 92.0733 37.5453 87.8983 37.3117C83.3596 36.6112 78.8208 40.7606 77.4036 44.0837C76.2354 43.958 74.4735 43.6167 73.3819 44.2813C66.162 42.5389 53.6181 41.5689 52.1435 42.5748C51.1093 42.9341 50.5348 45.2513 51.9903 45.377C53.2542 45.1974 51.8371 43.6885 53.1202 43.5089C59.9188 43.1137 66.5259 44.407 73.2478 44.9459C73.8607 45.7004 75.7949 45.9519 76.8291 45.6644C75.2012 51.2868 78.725 55.1308 83.9915 56.2625C92.169 58.0408 99.274 51.179 97.1483 44.0478C99.6187 42.8982 102.472 42.9521 105.153 43.5448C100.653 59.1006 127.369 58.418 123.194 42.0539C125.97 43.3472 126.564 41.2636 125.109 40.9941L125.128 40.9582Z" fill="black"/>
</svg>
