<svg width="150" height="200" viewBox="0 0 150 200" fill="none" xmlns="http://www.w3.org/2000/svg">
<path fill-rule="evenodd" clip-rule="evenodd" d="M144.643 172.195C143.507 166.114 142.511 160.01 141.655 153.887C141.464 152.492 141.176 150.915 142.172 149.899C143.57 148.449 144.853 147.217 145.007 145.15C145.16 143.211 144.47 141.09 144.049 139.205C143.116 135.254 142.011 131.341 140.736 127.477C139.472 123.544 138.074 119.646 136.657 115.767C135.335 112.142 134.071 108.462 132.348 104.982C129.092 98.3661 123.538 93.4719 116.721 90.1911C114.997 89.3754 111.55 86.4751 109.769 85.8407C108.141 85.2244 108.141 86.9827 106.532 86.312C105.249 85.7863 104.043 85.0975 103.334 83.9193C102.568 82.6505 100.595 80.856 100.289 79.3877C99.657 76.2337 100.346 73.551 97.9909 71.1765C95.8226 69.0973 93.1043 67.6074 90.1198 66.8624C83.6659 65.1766 75.0863 66.3548 71.1987 72.0284C69.341 74.7292 68.709 78.0101 66.1811 80.2034C63.9979 82.1429 64.4958 83.4662 61.6615 84.445C61.4891 84.4994 57.1419 83.6293 56.9886 83.6837C53.8862 83.0493 50.9178 84.8075 48.0834 85.8226C43.8487 87.3531 39.8031 89.3163 36.0183 91.6774C28.4129 96.4728 21.7774 102.52 16.4269 109.532C9.67761 118.316 4.71589 128.212 1.79554 138.715C1.46997 139.876 1.12525 141.072 1.50827 142.232C1.83384 143.193 2.54242 143.9 3.38507 144.48C4.53412 145.259 6.83224 145.749 6.77479 147.326C6.75564 148.522 6.31517 149.773 6.1045 150.951C5.85554 152.347 5.66403 153.76 5.45337 155.156C4.53412 161.573 3.80639 168.026 3.48082 174.479C3.05878 180.877 3.02681 187.292 3.38507 193.693C3.40422 194.11 3.53827 194.509 3.76809 194.817C3.57658 194.889 3.53827 195.252 3.78724 195.306L4.30431 195.397C4.69159 195.672 5.16076 195.824 5.64488 195.832L6.69818 195.868C10.3943 196.593 14.0905 197.3 17.8249 197.826C22.3828 198.46 26.9408 198.968 31.5178 199.403C40.9401 200.273 50.2858 199.983 59.6889 199.511C69.0898 199.041 78.5066 198.92 87.9175 199.149C97.3397 199.403 106.762 199.783 116.184 199.947C126.717 200.128 137.25 199.856 147.745 199.04C149.181 198.95 150.082 197.862 149.794 196.502C148.09 188.4 146.156 180.352 144.624 172.213L144.643 172.195Z" fill="#AE5D29"/>
<path fill-rule="evenodd" clip-rule="evenodd" d="M48.0643 85.8224L48.2941 85.7498C51.071 84.7166 53.9628 83.0671 56.9886 83.6834C57.0844 83.6472 59.0569 84.0278 60.4167 84.2635L59.1335 85.5323L56.8737 85.913C64.6682 98.0758 73.8798 104.166 84.5086 104.166C95.1374 104.166 103.219 98.0758 108.715 85.913L109.481 85.7317C109.558 85.7317 109.673 85.768 109.769 85.8042C111.55 86.4568 115.016 89.357 116.721 90.1727C123.538 93.4354 129.073 98.3296 132.348 104.964C134.014 108.335 135.259 111.852 136.523 115.387L136.657 115.749C138.074 119.628 139.472 123.543 140.736 127.459C141.942 131.157 143.034 134.891 143.915 138.661L144.049 139.187C144.47 141.072 145.16 143.174 145.007 145.132C144.949 145.808 144.754 146.466 144.432 147.072L129.035 152.328L136.389 199.692C129.667 199.964 122.925 200.055 116.184 199.928C106.762 199.765 97.3397 199.384 87.9175 199.149C78.7824 198.931 69.6666 199.022 60.5316 199.457L58.2334 199.566C49.3357 200.127 40.4062 200.067 31.5178 199.384L30.9242 199.33V192.388L34.0458 153.796L18.1505 150.969L2.58071 143.809C2.09152 143.367 1.7234 142.82 1.50826 142.214C1.14439 141.126 1.4125 140.038 1.69977 138.951L1.79552 138.715C4.75835 128.227 9.71651 118.337 16.4269 109.532C21.7703 102.515 28.3992 96.4619 35.9992 91.6591C39.7911 89.3026 43.8319 87.3268 48.0643 85.8042V85.8224Z" fill="#FDEA6B"/>
<path fill-rule="evenodd" clip-rule="evenodd" d="M54.0394 83.4842C55.0161 83.4298 56.012 83.5929 56.9887 83.6654C57.0653 83.6836 57.1036 83.8104 56.9887 83.8286C55.2651 84.173 53.5415 84.6443 51.837 85.1155L51.1093 85.3331C49.1942 85.8769 47.3174 86.4206 45.4406 87.1457C41.7253 88.5777 38.2016 90.4991 34.9459 92.7286C22.4403 101.284 13.401 114.245 7.6749 127.658C5.74814 132.191 4.19233 136.857 3.02121 141.616C2.94461 141.906 2.6382 142.594 2.8297 142.884C2.96376 143.12 3.51914 143.265 3.78725 143.41L4.64905 143.827L9.47509 146.165L9.91557 146.365C17.1929 149.736 24.9299 152.6 33.0882 152.8L33.1648 152.129C33.4544 148.458 34.0889 144.818 35.0608 141.253C35.1182 141.072 35.3672 141.144 35.3864 141.307C35.9609 145.495 35.7694 149.718 35.5779 153.942C35.2332 161.373 34.7544 168.841 34.3331 176.291C34.1032 180.025 33.8351 183.723 33.5862 187.475C33.3372 191.191 33.2606 195.016 32.6861 198.714C32.5712 199.548 31.537 199.983 30.771 199.91C29.9283 199.82 29.258 199.094 29.2389 198.279C29.2389 196.122 29.5262 193.928 29.6985 191.79L30.1773 185.663C30.771 178.213 31.4796 170.763 32.1307 163.313C32.3605 160.671 32.603 158.031 32.8584 155.392C24.2022 155.12 16.1205 152.075 8.40264 148.54C8.28773 150.933 8.01962 153.343 7.75151 155.718C7.02377 162.388 6.39179 169.059 5.91301 175.748C5.52311 181.343 5.25494 186.945 5.10867 192.551L5.07037 193.82C5.07037 194.617 4.97461 195.36 4.24688 195.94C3.53829 196.539 2.54244 196.575 1.83385 195.94C0.876306 195.107 1.02951 193.965 1.06782 192.841C1.14024 189.988 1.25516 187.135 1.41253 184.285C1.79136 177.645 2.46223 171.024 3.42339 164.437L3.8064 161.899C4.47669 157.186 5.24273 152.346 6.77481 147.779C6.18113 147.507 5.58745 147.235 4.99377 146.927C3.94046 146.437 2.84886 145.948 1.8147 145.404C1.01036 144.951 0.301777 144.353 0.0911159 143.446C-0.176998 142.449 0.206022 141.362 0.474135 140.383V140.31C1.73959 135.35 3.44366 130.499 5.56829 125.809C8.90893 118.238 13.2735 111.109 18.5527 104.601C23.2512 98.6776 28.9985 93.5689 35.5396 89.5021C38.7551 87.5483 42.2164 85.9833 45.8428 84.8436C48.4856 83.9968 51.2499 83.5384 54.0394 83.4842ZM71.2944 71.5207C72.4435 70.3425 74.7608 71.557 74.2054 73.1159C73.0183 76.8082 70.7067 80.087 67.56 82.5416C64.5853 84.9188 60.7605 86.1255 56.8738 85.9131L57.1993 86.3482C59.7666 89.8211 62.727 93.0182 66.0279 95.8826C72.9223 101.538 82.2679 104.583 91.3072 102.408C98.4122 100.704 104.675 95.3751 106.513 88.5958C106.264 88.7046 105.939 88.759 105.594 88.6865C104.119 88.3783 102.664 86.9101 101.706 85.8587C100.691 84.7168 99.8868 83.5023 99.2932 82.1066C98.2207 79.5689 97.876 76.288 99.3506 73.8228C99.5421 73.5146 99.9251 73.6959 99.9826 74.0041L100.04 74.4572C100.327 76.7593 100.672 78.9888 101.821 81.0915C102.684 82.6887 103.868 84.1111 105.307 85.2787C105.804 85.6412 106.417 85.9312 106.858 86.3663L106.954 86.4388C107.068 85.5325 107.739 85.1156 108.409 85.1337C109.041 85.1699 109.807 85.4237 110.094 85.5506L110.113 85.5687C114.561 87.6499 118.744 90.2041 122.581 93.1818C130.635 99.1389 136.547 107.306 139.51 116.565C140.947 121.151 141.77 125.882 142.632 130.595L143.168 133.495C143.972 137.827 144.872 142.268 146.692 146.31C147.171 147.344 146.807 148.322 145.639 148.739C144.207 149.258 142.77 149.765 141.33 150.262C142.038 153.162 142.479 156.153 142.996 159.053C144.145 165.234 145.524 171.379 146.711 177.542C147.324 180.714 147.879 183.886 148.492 187.022L149.392 191.59L149.852 194.055L149.871 194.182C149.967 194.617 150.062 195.07 149.947 195.505C149.794 195.995 149.392 196.339 149.028 196.702C148.722 196.992 148.301 196.992 147.937 196.829L147.803 196.774C147.151 196.484 146.654 196.194 146.405 195.505C146.27 195.052 146.213 194.563 146.117 194.11C145.602 191.478 145.104 188.844 144.624 186.207L144.317 184.557C143.321 178.865 142.364 173.156 141.866 167.428C141.674 164.89 141.425 162.334 141.195 159.778L141.023 157.875C140.812 155.464 140.544 152.981 140.506 150.534L139.644 150.824L135.393 152.256C134.339 152.618 132.999 153.343 131.869 153.198C131.314 153.144 130.911 152.981 130.567 152.673C130.95 157.893 131.486 163.077 132.195 168.261C133.299 176.462 134.704 184.624 136.408 192.732C136.523 193.312 136.676 193.892 136.772 194.472C136.867 195.143 136.676 195.542 136.293 196.104C135.967 196.539 135.335 196.774 134.799 196.466C134.11 196.049 133.746 195.687 133.554 194.944C133.363 194.273 133.248 193.566 133.114 192.877C132.303 188.952 131.575 185.012 130.931 181.059C129.437 171.633 128.498 162.135 128.02 152.636C127.791 147.939 127.702 143.236 127.752 138.534C127.752 136.123 127.847 133.712 128.02 131.302C128.211 128.873 128.594 126.498 128.939 124.087C128.939 123.997 129.073 123.997 129.073 124.087C129.226 126.788 129.475 129.489 129.609 132.19C129.724 134.782 129.782 137.356 129.877 139.948C129.992 143.338 130.165 146.745 130.394 150.135C130.596 149.922 130.85 149.759 131.134 149.661C131.418 149.563 131.723 149.533 132.022 149.573C132.922 149.392 133.88 148.957 134.722 148.667L137.94 147.67L142.996 146.093C141.533 141.282 140.382 136.391 139.549 131.447L139.165 129.217C138.399 124.831 137.538 120.426 136.14 116.166C134.664 111.722 132.411 107.543 129.475 103.804C126.485 100.142 123.103 96.7829 119.383 93.78C116.242 91.1698 112.929 88.8133 109.73 86.2756C109.75 86.4388 109.769 86.6382 109.73 86.8194C109.06 91.5142 106.475 95.8826 102.874 99.1273C95.6545 105.653 84.9491 106.994 75.68 103.931C66.7365 100.976 58.8272 93.9612 56.0311 85.2968C55.9737 85.1518 56.1843 85.1155 56.2801 85.2062L56.7397 85.8044C56.7397 85.7319 56.778 85.6412 56.8738 85.6231C60.2159 84.4864 63.2598 82.6811 65.7981 80.3302C67.5678 78.5945 68.9545 76.5425 69.8773 74.2941L69.9539 74.1128C70.2794 73.2065 70.5667 72.2639 71.2944 71.5389V71.5207Z" fill="black"/>
<path fill-rule="evenodd" clip-rule="evenodd" d="M114.322 19.1354C108.588 11.631 98.0011 9.47399 88.8281 11.3048C70.9023 14.3863 53.7793 27.3829 50.6069 45.0199C45.6573 55.6963 48.8296 72.4995 63.2008 73.7684C65.2456 73.8771 67.2713 73.424 69.3162 73.6596C81.8336 75.5629 96.6252 83.6835 107.69 74.1128C108.264 74.4753 108.971 74.6566 109.601 74.4391C114.322 72.7171 114.532 67.7142 114.952 63.5995C115.449 58.2884 115.946 52.9774 116.405 47.6663C116.557 38.4944 120.399 27.0566 114.322 19.1354Z" fill="#AE5D29"/>
<path fill-rule="evenodd" clip-rule="evenodd" d="M79.5786 0.0301301C87.1081 -0.350525 101.021 2.93036 107.614 6.77316C118.335 13.0268 119.176 25.534 118.736 27.691C118.564 28.5067 118.029 29.268 117.207 29.0143C117.914 34.706 117.857 37.9506 117.972 43.6604L118.048 47.467L118.163 55.0801C118.43 54.9894 118.698 55.1163 118.793 55.352C118.832 55.4245 118.736 55.4607 118.698 55.4245C118.22 55.0257 118.564 55.932 118.717 56.1133C118.946 56.367 119.329 56.6027 119.596 56.8202L120.322 57.4002L121.049 57.9984C121.966 58.7597 122.864 59.521 123.724 60.3548L123.972 60.5724C125.559 62.095 127.546 63.5813 128.54 65.539C129.476 67.4241 129.19 69.5631 127.623 71.0676C127.049 71.6113 126.38 72.0283 125.673 72.3364C126.338 73.3439 126.7 74.5044 126.72 75.6928C126.74 76.8811 126.418 78.0521 125.788 79.0794C125.104 80.0785 124.148 80.8838 123.021 81.4102C121.894 81.9367 120.638 82.1647 119.386 82.0703C119.309 82.3603 119.195 82.6503 119.023 82.9222C118.048 84.6442 116.08 84.8799 114.226 84.7892H114.15C109.945 84.5536 105.932 83.5567 102.263 81.6171C100.982 81.7078 99.8549 80.7108 99.5873 79.6232C98.9376 79.6051 98.2496 79.5507 97.5807 79.4782C95.5096 79.3219 93.4938 78.7668 91.6565 77.8468C91.3889 77.7018 91.5036 77.303 91.8093 77.303C94.0071 77.2487 96.2048 77.3937 98.3643 77.1762C100.371 76.9586 102.511 76.4511 104.384 75.726C107.728 74.4572 110.614 72.282 112.2 69.2549C114.264 65.3396 114.073 60.663 114.302 56.4214C114.532 51.7085 114.838 47.0319 115.162 42.3372L115.334 40.0895C115.563 36.3093 116.023 32.5447 116.71 28.8149C114.283 29.0143 104.25 25.5884 101.116 19.9873C95.1919 31.9145 65.1692 27.0385 63.8506 45.4005C63.8315 45.5637 63.5639 45.5093 63.5639 45.3643L63.5257 44.9474L63.5066 44.3311V44.1317H63.0288C63.0288 44.1861 62.9333 44.2042 62.9142 44.1498C62.4746 42.9535 60.3534 43.3341 59.436 43.6242C58.6002 43.8856 57.8133 44.2711 57.1046 44.7661C55.6616 45.6968 54.6387 47.1068 54.238 48.7177C53.55 51.8354 55.6522 55.0257 58.4423 56.5302C60.2005 57.4909 62.1306 58.1072 63.7933 59.1766C65.303 60.1373 66.679 61.243 67.8829 62.5119C72.6606 67.5329 75.4507 75.146 73.1957 81.7621C73.0237 82.2697 72.565 82.8497 71.9726 82.9404C70.9788 83.0672 69.9851 82.9404 69.4118 82.034C69.2015 81.6715 69.106 81.2909 69.1251 80.8921C68.7429 82.1609 67.4816 83.3935 66.335 83.8648C65.5711 84.1681 64.7412 84.2919 63.916 84.2256C63.0909 84.1594 62.2948 83.905 61.5955 83.4841L61.4044 83.611C59.1685 85.188 56.6268 86.62 53.7602 86.33C52.7113 86.2426 51.6938 85.9455 50.7748 85.4581C49.8558 84.9707 49.0561 84.3041 48.4284 83.5023C46.8852 84.3274 45.2425 84.9726 43.5361 85.4237L43.345 85.4781C41.0326 86.0762 38.0513 86.6381 35.8727 85.4056C33.7706 84.2273 33.0826 81.6715 33.5795 79.5145C33.6397 79.2684 33.7163 79.0263 33.8088 78.7894C32.2226 78.8619 30.6555 78.7169 29.1649 78.2637C27.6361 77.8287 26.1837 76.9586 25.4384 75.5629C25.0813 74.7756 24.8972 73.9276 24.8972 73.0705C24.8972 72.2135 25.0813 71.3654 25.4384 70.5781C26.447 68.019 27.9945 65.6815 29.9867 63.7082C31.8977 61.7868 34.1719 60.1555 36.5416 58.796L36.9429 58.5603C39.0833 57.364 41.6632 55.9501 44.2049 56.0226L44.1667 55.9501C43.7845 53.2674 43.8418 50.5485 43.7463 47.8657C43.6698 45.3824 43.5552 42.8991 43.4978 40.4339C43.4023 36.2105 43.4405 31.987 44.0138 27.7998C44.5298 24.0839 45.4662 20.4767 47.148 17.069C48.9297 13.5212 51.5841 10.4316 54.8877 8.06013C61.7866 3.02099 70.9406 0.447038 79.5404 0.0301301H79.5786ZM56.0726 49.5152C56.837 48.1558 58.557 47.7389 60.0476 47.9745C62.1497 48.3189 63.583 50.059 64.8252 51.5635C66.1247 53.1405 63.411 54.6269 62.7231 53.1043L62.5702 52.7417C61.9969 51.5273 61.3471 50.2584 60.2196 49.479C58.9965 48.6271 57.2957 48.5002 56.2255 49.624C56.149 49.6965 56.0344 49.5878 56.0726 49.4971V49.5152Z" fill="black"/>
<path fill-rule="evenodd" clip-rule="evenodd" d="M90.3881 49.2975C93.8735 49.2975 96.7079 46.9411 96.7079 44.0408C96.7079 41.1406 93.8735 38.7842 90.3881 38.7842C86.9026 38.7842 84.0682 41.1406 84.0682 44.0408C84.0682 46.9411 86.9026 49.2975 90.3881 49.2975ZM113.273 48.0287C116.395 48.0287 118.923 45.9985 118.923 43.497C118.923 40.9956 116.395 38.9654 113.273 38.9654C110.152 38.9654 107.624 40.9956 107.624 43.497C107.624 45.9985 110.152 48.0287 113.273 48.0287ZM92.8202 61.7322C93.7395 59.412 99.0443 57.4 102.683 57.4C106.322 57.4 112.201 59.3939 112.201 59.3939L110.497 63.7986C110.497 63.7986 95.1758 63.1823 94.2757 63.1823C93.3948 63.1823 91.901 64.0705 92.8011 61.7322H92.8202Z" fill="white"/>
<path fill-rule="evenodd" clip-rule="evenodd" d="M99.8677 56.6387C103.794 56.4937 111.09 57.1825 114.059 59.3577C117.123 61.551 113.293 68.5841 112.852 68.5659C108.447 68.4028 104.1 69.001 99.7528 69.5629L98.891 69.6716C95.9609 70.0523 91.8626 70.723 90.4646 67.5327C88.741 61.986 93.9884 56.6025 99.8486 56.6387H99.8677ZM106.8 58.9952C104.456 58.6555 102.075 58.5946 99.7145 58.8139C97.6079 59.0314 95.6162 59.5752 94.2948 61.0797C94.6204 61.1341 94.9076 61.3516 95.0991 61.6598C97.9335 61.7323 100.844 61.6235 103.717 61.7685C105.326 61.7867 106.973 61.9498 108.562 61.8773C109.941 61.8229 109.558 60.7353 109.75 59.8109C108.808 59.4145 107.817 59.1343 106.8 58.9771V58.9952ZM81.004 37.9685C83.8384 33.5457 92.3797 36.3009 96.6695 37.2254C99.9443 36.5366 100.27 41.7026 96.861 41.1769C97.7259 42.4035 98.0648 43.8958 97.8086 45.3505C97.5525 46.8051 96.7206 48.1127 95.4822 49.0075C88.9325 54.1917 76.9057 45.7448 85.2172 39.6905C85.313 38.9474 86.3663 38.7298 86.9983 38.4217L86.7876 38.3854C85.0006 37.8687 83.0962 37.8373 81.2913 38.2948C81.0998 38.2948 81.004 38.1136 81.0232 37.9685H81.004ZM104.138 47.1768C105.594 48.0106 107.777 49.9501 106.245 51.9984C104.407 53.811 101.764 51.7446 100.461 50.802C99.2549 50.077 97.9143 51.944 99.0251 52.7959C108.409 59.3758 112.239 47.3943 104.866 46.1979C104.062 46.0529 103.755 46.923 104.138 47.1768ZM119.019 33.165C119.114 33.165 119.153 33.2919 119.095 33.3463C117.314 35.0139 115.074 36.2465 113.082 37.6604C114.699 37.8272 116.232 38.4276 117.501 39.3909C118.77 40.3542 119.721 41.6405 120.244 43.0983C121.125 47.7024 114.116 49.8051 110.401 48.4275C107.317 47.4124 105.077 44.5847 106.762 41.5757C105 41.5757 103.219 39.4005 104.521 38.1679C105.67 37.0441 107.011 37.7148 107.509 37.4429L108.084 37.171C111.531 35.4308 115.131 33.7632 119 33.1832L119.019 33.165ZM95.1183 42.482C92.8968 39.1649 84.1448 39.0924 84.3938 44.2222C84.7385 50.9652 98.8719 49.4426 95.1183 42.482ZM113.178 39.6362C111.531 39.3099 110.094 41.0863 109.156 40.6331C103.947 46.2523 114.557 49.5151 118.042 45.201C119.957 42.8808 115.514 39.6905 113.178 39.6362ZM91.154 42.772C93.299 42.047 93.2607 45.056 91.6711 45.6723C89.8518 46.3429 89.2389 42.7358 91.1349 42.772H91.154ZM110.516 43.0983C110.401 41.2494 113.369 40.3975 114.116 42.2464C115.15 44.7297 110.669 45.9804 110.516 43.0983Z" fill="#231F20"/>
<path fill-rule="evenodd" clip-rule="evenodd" d="M122.945 43.9143C121.144 55.6058 108.39 56.8928 106.13 45.2919C106.494 45.1469 106.743 44.8387 106.705 44.2587C106.685 41.721 107.509 39.0564 109.922 37.6607C112.411 36.2106 115.322 36.0656 118.214 36.1018C123.711 35.9749 123.596 40.3253 122.964 43.8962L122.945 43.9143ZM104.138 38.8389C102.415 38.7664 100.212 38.8208 98.6802 39.8177C98.1352 38.6206 97.2033 37.6179 96.0183 36.9538C100.174 37.0625 104.445 36.6819 108.62 36.3737C107.624 37.0263 106.705 38.0051 106.092 39.1108C105.517 38.8389 104.732 38.857 104.138 38.8208V38.8389ZM96.5162 45.1288C91.7284 60.7175 79.7782 53.9382 78.476 51.9262C76.1396 48.6272 75.6991 40.579 77.7291 38.4401C80.6592 36.4825 84.8149 36.99 88.2621 36.9356C94.6394 37.0263 99.159 38.8208 96.5162 45.1288ZM128.613 37.9507C127.311 37.8057 125.932 37.7694 124.706 38.3132C124.323 36.8087 123.174 35.558 121.853 35.0142C121.7 34.833 121.719 34.7242 121.163 34.7423C117.831 33.7998 114.078 34.2892 110.86 35.2861C105.766 35.6849 100.442 36.0112 95.3097 36.555C90.5028 34.5067 76.0055 34.1985 75.1054 39.2558C73.9563 39.0745 72.0412 38.2407 71.0837 39.3827C64.1127 38.2589 56.8928 39.8177 49.8644 40.5247C48.1025 40.8328 47.1833 44.1499 49.1941 44.0956C50.3432 43.8055 49.175 42.0292 50.6879 41.9023C57.4482 41.1953 64.0744 40.1984 70.9113 40.0896C70.6815 41.2135 75.431 41.286 75.5076 40.6334H75.5267C74.3585 44.8025 75.4118 50.7661 77.5376 53.3219C80.5251 56.6934 87.994 57.6722 91.3263 55.4971C95.5969 53.5032 100.04 43.4611 98.7952 40.1259C101.038 39.5715 103.387 39.528 105.651 39.999C105.115 41.4491 104.196 44.9838 105.536 45.2919C105.287 52.325 112.048 56.7115 118.291 53.8294C123.711 51.473 125.587 43.8599 124.917 39.2377C125.607 40.4703 131.237 39.1289 128.613 37.9688V37.9507Z" fill="black"/>
</svg>
