<svg width="231" height="231" viewBox="0 0 231 231" fill="none" xmlns="http://www.w3.org/2000/svg">
<g clip-path="url(#clip0_252_156)">
<path d="M115.5 51.75C99.5037 51.749 84.0916 57.7618 72.3221 68.5951C60.5527 79.4284 53.286 94.2904 51.9641 110.232C50.6423 126.174 55.3618 142.03 65.1863 154.653C75.0107 167.277 89.222 175.746 105 178.38V192.47C85.782 194.224 67.3099 200.766 51.271 211.497C70.2777 224.215 92.632 231.003 115.501 231.003C138.37 231.003 160.724 224.215 179.731 211.497C163.692 200.765 145.22 194.223 126.002 192.468V178.384C140.883 175.899 154.401 168.217 164.151 156.703C173.902 145.189 179.252 130.59 179.252 115.503C179.252 98.6128 172.549 82.4128 160.615 70.4603C148.682 58.5077 132.492 51.7795 115.602 51.753C115.569 51.753 115.536 51.753 115.502 51.753L115.5 51.75Z" fill="#FEE3C5"/>
<path d="M141.75 194.977C155.313 198.126 168.189 203.716 179.75 211.475C160.742 224.187 138.388 230.973 115.52 230.973C92.6519 230.973 70.2982 224.187 51.29 211.475C62.8512 203.716 75.7276 198.126 89.29 194.977L105 210.725H126L141.75 194.977Z" fill="black"/>
<path d="M70.0002 200.883V221.653C67.7802 220.7 65.6003 219.683 63.4603 218.603H63.3594V203.982C65.5294 202.882 67.7502 201.843 70.0002 200.883Z" fill="#435363"/>
<path d="M161 200.883V221.653C162.9 220.843 164.77 219.973 166.62 219.063L166.719 219.014L167.539 218.604H167.64V203.983C165.47 202.883 163.25 201.843 161 200.883Z" fill="#435363"/>
<path d="M97.3198 201.906L115.5 223.693L133.68 201.906H97.3198Z" fill="black"/>
<path d="M115.49 201.791V201.86L107.94 214.538L100.94 226.347L81.75 199.86C82.36 199.431 82.97 198.961 83.5501 198.471C87.3907 195.423 90.7809 191.848 93.6201 187.852L115.41 201.73L115.49 201.791Z" fill="#E7ECF2"/>
<path d="M149.24 199.858L130.16 226.375L123.16 214.566L115.59 201.888L115.531 201.787L137.471 187.789C140.309 191.813 143.703 195.415 147.551 198.488C148.131 198.958 148.701 199.408 149.281 199.828L149.24 199.858Z" fill="#E7ECF2"/>
<path d="M108.37 22.0224C102.1 9.19344 91.2189 8.62644 89.4209 23.1993C77.9729 13.741 63.3999 18.7163 69.0599 35.6213C56.8089 27.6931 44.1409 37.3974 51.9839 56.4743C24.9039 58.8389 29.2689 81.2003 41.8729 87.9093C31.9727 91.2659 31.1719 97.3099 33.4089 102.406C36.0663 107.191 42.4215 108.88 44.9539 112.058C38.3299 112.652 36.5427 117.659 39.2135 121.577C40.9031 124.056 44.4891 125.799 47.8106 127.123C48.8591 127.53 51.5126 128.396 51.7159 129.541C51.9033 130.757 44.9275 132.547 45.9878 134.802C46.5943 136.225 47.7642 137.517 48.6344 138.518C49.9151 140.177 59.3894 146.553 58.0927 142.723C57.0656 138.999 55.8779 135.255 54.9471 131.531C53.7809 126.224 53.1603 120.81 53.8451 115.375C55.2674 109.92 58.9141 110.948 61.6288 107.016C65.1552 101.265 63.6584 95.4019 63.7528 93.4409C63.8598 91.6541 65.2935 92.2533 66.9412 92.0072C71.328 91.3653 73.9493 89.8887 75.7789 85.7374C76.5493 83.8115 76.3995 75.9796 76.3032 73.9574C76.6669 69.3246 80.4867 73.9574 82.8512 74.5994C86.1145 75.4875 89.7309 74.8134 91.9243 72.0957C93.679 69.7204 94.0107 69.2069 96.5357 71.2933C99.2213 73.5081 100.634 74.4282 104.229 74.5673C109.792 74.7705 113.002 68.2974 115.549 68.9286C119.069 69.806 119.154 74.3854 125.81 73.7969C128.196 73.5936 129.64 72.9302 131.213 71.1541C132.101 70.159 133.171 68.6504 134.647 68.5327C136.113 68.415 136.969 70.8973 137.654 71.9779C138.846 74.6534 141.683 75.6291 143.891 75.2946C145.849 75.1235 147.745 73.8832 149.318 72.824C150.315 72.1629 151.147 72.0127 151.244 73.0311C151.54 75.2582 151.33 80.7336 151.403 81.5132C151.509 89.9741 156.773 92.0822 164.626 91.8462C164.308 95.5926 164.685 103.126 170.062 106.408C174.01 109.169 176.727 107.681 176.792 114.262C176.799 120.453 176.355 127.323 175.497 132.451C174.802 136.495 174.256 138.934 172.972 142.829C172.33 144.744 172.159 144.797 174.384 143.898C181.531 140.753 184.923 132.418 182.74 125.056C182.302 123.013 183.586 123.334 185.619 122.446C195.143 118.21 193.745 111.111 184.859 108.173C196.847 105.08 198.745 99.2727 191.546 92.7979C198.854 86.8811 195.184 76.6209 188.743 75.8069C201.165 68.7132 194.478 53.7448 183.639 57.3078C187.812 45.2709 178.076 31.1049 162.518 40.4139C169.484 29.0409 164.583 17.7528 150.417 29.6288C146.961 11.2468 135.277 13.0449 126.515 24.6109C126.61 4.53585 110.514 7.19085 108.369 22.0216L108.37 22.0224Z" fill="#DE3B00"/>
<path d="M70.9589 94.9844H105.99C108.399 94.9844 110.351 96.9367 110.351 99.345L107.765 116.856C107.413 119.236 106.043 121.217 103.919 121.217H73.019C70.8951 121.217 69.1733 119.264 69.1733 116.856L66.5869 99.345C66.5869 96.9368 68.5395 94.9844 70.9481 94.9844H70.9589Z" fill="black" stroke="black" stroke-width="3.0045" stroke-linecap="round" stroke-linejoin="round"/>
<path d="M160.05 94.9844H125.019C122.61 94.9844 120.658 96.9367 120.658 99.345L123.244 116.856C123.596 119.236 124.966 121.217 127.09 121.217H157.99C160.114 121.217 161.836 119.264 161.836 116.856L164.422 99.345C164.422 96.9368 162.469 94.9844 160.061 94.9844H160.05Z" fill="black" stroke="black" stroke-width="3.0045" stroke-linecap="round" stroke-linejoin="round"/>
<path d="M90.607 102.352C89.693 102.363 88.8027 102.644 88.048 103.16C87.2934 103.675 86.7081 104.403 86.3659 105.25C86.0236 106.098 85.9397 107.027 86.1247 107.922C86.3096 108.817 86.7552 109.638 87.4054 110.28C88.0555 110.923 88.8812 111.358 89.7784 111.533C90.6757 111.707 91.6045 111.612 92.448 111.26C93.2915 110.908 94.0119 110.314 94.5187 109.554C95.0255 108.793 95.2961 107.9 95.2962 106.986C95.2963 106.372 95.1747 105.765 94.9384 105.199C94.7021 104.634 94.3558 104.12 93.9196 103.689C93.4835 103.258 92.9661 102.918 92.3974 102.689C91.8288 102.459 91.2202 102.345 90.607 102.352ZM140.327 102.352C139.411 102.354 138.516 102.628 137.756 103.138C136.995 103.648 136.403 104.373 136.054 105.219C135.705 106.066 135.614 106.997 135.794 107.895C135.974 108.793 136.416 109.618 137.065 110.265C137.713 110.912 138.539 111.352 139.437 111.53C140.336 111.708 141.267 111.616 142.113 111.265C142.959 110.914 143.682 110.32 144.191 109.558C144.7 108.797 144.971 107.901 144.971 106.986C144.971 106.376 144.851 105.773 144.618 105.21C144.384 104.647 144.042 104.136 143.611 103.705C143.179 103.275 142.667 102.934 142.104 102.702C141.54 102.469 140.936 102.35 140.327 102.352Z" fill="black"/>
<path d="M70.6598 94.9844H58.8848" stroke="black" stroke-width="3.0045" stroke-linecap="round" stroke-linejoin="round"/>
<path d="M172.13 94.9844H152.646" stroke="black" stroke-width="3.0045" stroke-linecap="round" stroke-linejoin="round"/>
<path d="M109.32 106.198C113.524 103.771 118.623 104.285 121.673 106.173" stroke="black" stroke-width="3.0045" stroke-linecap="round" stroke-linejoin="round"/>
<path d="M148.33 109.787L142.567 101.555" stroke="white" stroke-width="4" stroke-linecap="round" stroke-linejoin="round"/>
<path d="M156.27 105.003L153.867 101.57" stroke="white" stroke-width="4" stroke-linecap="round" stroke-linejoin="round"/>
<path d="M82.7482 114.339L73.7993 101.555" stroke="white" stroke-width="4" stroke-linecap="round" stroke-linejoin="round"/>
<path d="M91.4081 109.787L85.6455 101.555" stroke="white" stroke-width="4" stroke-linecap="round" stroke-linejoin="round"/>
<path d="M115.5 131C97.7902 131.65 88.5002 140.41 85.8902 154.69C84.8902 160.31 85.4602 161.75 88.6502 161.86C111.41 162.62 110.88 180.07 115.5 180.75C120.12 180.07 119.59 162.62 142.35 161.86C145.54 161.75 146.14 160.31 145.11 154.69C142.49 140.41 133.21 131.69 115.5 131ZM115.5 160.31C105.5 160.31 97.5002 155.31 97.5002 149.14C97.5002 142.97 105.58 137.97 115.5 137.97C125.42 137.97 133.5 142.97 133.5 149.14C133.5 155.31 125.42 160.31 115.5 160.31Z" fill="#6B0000"/>
<path d="M123.54 148.461C121.387 150.558 118.501 151.731 115.495 151.731C112.49 151.731 109.603 150.558 107.45 148.461" stroke="black" stroke-width="6.7998" stroke-linecap="round" stroke-linejoin="round"/>
</g>
<defs>
<clipPath id="clip0_252_156">
<rect width="231" height="231" fill="white"/>
</clipPath>
</defs>
</svg>
