<svg width="50" height="50" viewBox="0 0 50 50" fill="none" xmlns="http://www.w3.org/2000/svg">
<path d="M43.534 20.3002L42.732 22.616C42.4894 23.317 42.5466 24.0874 42.8904 24.7448L44.0246 26.9134C44.6038 28.021 44.3446 29.3818 43.3988 30.1988L41.5484 31.7972C40.9854 32.2836 40.6488 32.9814 40.6184 33.7248L40.5184 36.1678C40.4674 37.4168 39.5636 38.4662 38.336 38.702L35.9326 39.1638C35.204 39.3038 34.5654 39.7382 34.1676 40.3644L32.8538 42.4332C32.1846 43.4868 30.8794 43.9424 29.6998 43.534L27.3842 42.7322C26.683 42.4894 25.9128 42.5466 25.2554 42.8904L23.0866 44.0246C21.979 44.6038 20.6184 44.3446 19.8012 43.3988L18.2029 41.5484C17.7164 40.9854 17.0186 40.6488 16.2753 40.6184L13.8322 40.5184C12.5833 40.4674 11.5338 39.5636 11.298 38.3362L10.8363 35.9328C10.6963 35.2042 10.2619 34.5656 9.63562 34.1678L7.56688 32.854C6.51328 32.1848 6.05766 30.8794 6.46604 29.7L7.26792 27.3842C7.51068 26.6832 7.45346 25.9128 7.10966 25.2554L5.97542 23.0866C5.39622 21.979 5.65532 20.6184 6.60122 19.8013L8.45158 18.2029C9.01458 17.7165 9.35122 17.0187 9.38166 16.2753L9.4816 13.8323C9.53266 12.5834 10.4365 11.5339 11.6639 11.2981L14.0674 10.8364C14.796 10.6964 15.4346 10.262 15.8323 9.6357L17.1462 7.56696C17.8153 6.51336 19.1207 6.05774 20.3002 6.46612L22.6158 7.268C23.317 7.51076 24.0872 7.45354 24.7446 7.10974L26.9134 5.9755C28.021 5.3963 29.3816 5.6554 30.1988 6.6013L31.7972 8.45166C32.2836 9.01466 32.9814 9.3513 33.7248 9.38174L36.1678 9.48168C37.4168 9.53274 38.4662 10.4365 38.702 11.664L39.1636 14.0674C39.3036 14.796 39.738 15.4346 40.3644 15.8324L42.4332 17.1462C43.4868 17.8154 43.9424 19.1208 43.534 20.3002Z" fill="#27C46E"/>
<path d="M22.1192 31.8362H22.112C21.7478 31.834 21.4034 31.6708 21.1714 31.3904L17.434 26.8742C17.0008 26.3508 17.074 25.5754 17.5974 25.1422C18.121 24.709 18.8963 24.7822 19.3294 25.3056L22.1302 28.6898L30.6796 18.5986C31.1186 18.0801 31.8952 18.016 32.4136 18.4552C32.932 18.8943 32.9962 19.6706 32.557 20.189L23.0576 31.4012C22.8238 31.6772 22.4806 31.8362 22.1192 31.8362Z" fill="white"/>
</svg>
