<svg width="50" height="50" viewBox="0 0 50 50" fill="none" xmlns="http://www.w3.org/2000/svg">
<mask id="mask0_1_13" style="mask-type:luminance" maskUnits="userSpaceOnUse" x="0" y="5" width="50" height="40">
<path d="M50 5.71428H0V44.2857H50V5.71428Z" fill="white"/>
</mask>
<g mask="url(#mask0_1_13)">
<path fill-rule="evenodd" clip-rule="evenodd" d="M8.97357 5.71428H41.0264C44.1467 5.71428 45.2782 6.03917 46.4189 6.64925C47.5597 7.25932 48.4549 8.15459 49.065 9.29533C49.6751 10.4361 50 11.5676 50 14.6879V35.3121C50 38.4324 49.6751 39.5639 49.065 40.7046C48.4549 41.8454 47.5597 42.7406 46.4189 43.3508C45.2782 43.9609 44.1467 44.2857 41.0264 44.2857H8.97357C5.85329 44.2857 4.72178 43.9609 3.58104 43.3508C2.4403 42.7406 1.54504 41.8454 0.934964 40.7046C0.32489 39.5639 0 38.4324 0 35.3121V14.6879C0 11.5676 0.32489 10.4361 0.934964 9.29533C1.54504 8.15459 2.4403 7.25932 3.58104 6.64925C4.72178 6.03917 5.85329 5.71428 8.97357 5.71428Z" fill="#EEEEEE"/>
<path fill-rule="evenodd" clip-rule="evenodd" d="M8.97357 5.71428H41.0264C44.1467 5.71428 45.2782 6.03917 46.4189 6.64925C47.5597 7.25932 48.4549 8.15458 49.065 9.29533C49.1879 9.52514 49.2993 9.75459 49.3987 10H0.60128C0.700715 9.75459 0.812047 9.52514 0.934961 9.29533C1.54503 8.15458 2.44029 7.25932 3.58103 6.64925C4.72178 6.03917 5.85328 5.71428 8.97357 5.71428Z" fill="#FF4B4B"/>
<path fill-rule="evenodd" clip-rule="evenodd" d="M49.9981 14.2857C49.9994 14.416 50 14.55 50 14.6879V18.5714H0V14.6879C0 14.55 0.000634392 14.416 0.00189975 14.2857H49.9981Z" fill="#FF4B4B"/>
<path fill-rule="evenodd" clip-rule="evenodd" d="M50 22.8571V27.1429H0V22.8571H50Z" fill="#FF4B4B"/>
<path fill-rule="evenodd" clip-rule="evenodd" d="M50 35.3121C50 35.45 49.9994 35.584 49.9981 35.7143H0.00189975C0.000634392 35.584 0 35.45 0 35.3121V31.4286H50V35.3121Z" fill="#FF4B4B"/>
<path fill-rule="evenodd" clip-rule="evenodd" d="M49.3987 40C49.2993 40.2454 49.1879 40.4749 49.065 40.7046C48.4549 41.8454 47.5597 42.7406 46.4189 43.3508C45.2782 43.9609 44.1467 44.2857 41.0264 44.2857H8.97357C5.85328 44.2857 4.72178 43.9609 3.58103 43.3508C2.44029 42.7406 1.54503 41.8454 0.934961 40.7046C0.812047 40.4749 0.700715 40.2454 0.60128 40H49.3987Z" fill="#FF4B4B"/>
<path fill-rule="evenodd" clip-rule="evenodd" d="M8.97357 5.71428H25V22.8571H0V14.6879C0 11.5676 0.32489 10.4361 0.934964 9.29533C1.54504 8.15458 2.4403 7.25932 3.58104 6.64925C4.72178 6.03917 5.85329 5.71428 8.97357 5.71428Z" fill="#1CB0F6"/>
<path d="M19.8618 12.5728L18.9507 13.0519C18.6646 13.2023 18.3107 13.0923 18.1604 12.8062C18.1004 12.6922 18.0798 12.5617 18.1015 12.4349L18.2755 11.4203C18.2921 11.3238 18.2601 11.2253 18.1899 11.1569L17.4529 10.4384C17.2214 10.2128 17.2166 9.84227 17.4422 9.61081C17.5321 9.51865 17.6498 9.45867 17.7771 9.44016L18.7959 9.29214C18.8928 9.27806 18.9766 9.21717 19.0199 9.12933L19.4755 8.20626C19.6185 7.91642 19.9694 7.79742 20.2593 7.94046C20.3747 7.99743 20.4681 8.09085 20.5251 8.20626L20.9806 9.12933C21.024 9.21717 21.1078 9.27806 21.2048 9.29214L22.2234 9.44016C22.5433 9.48664 22.7649 9.78362 22.7184 10.1035C22.6999 10.2308 22.6399 10.3486 22.5478 10.4384L21.8106 11.1569C21.7405 11.2253 21.7085 11.3238 21.7251 11.4203L21.8991 12.4349C21.9537 12.7535 21.7398 13.056 21.4212 13.1106C21.2944 13.1324 21.1639 13.1117 21.0499 13.0519L20.1388 12.5728C20.0521 12.5273 19.9485 12.5273 19.8618 12.5728Z" fill="white"/>
<path d="M19.8618 19.7157L18.9507 20.1947C18.6646 20.3451 18.3107 20.2351 18.1604 19.949C18.1004 19.8351 18.0798 19.7046 18.1015 19.5778L18.2755 18.5632C18.2921 18.4666 18.2601 18.3681 18.1899 18.2998L17.4529 17.5813C17.2214 17.3556 17.2166 16.9851 17.4422 16.7536C17.5321 16.6615 17.6498 16.6015 17.7771 16.583L18.7959 16.435C18.8928 16.4209 18.9766 16.36 19.0199 16.2722L19.4755 15.3491C19.6185 15.0593 19.9694 14.9403 20.2593 15.0834C20.3747 15.1403 20.4681 15.2337 20.5251 15.3491L20.9806 16.2722C21.024 16.36 21.1078 16.4209 21.2048 16.435L22.2234 16.583C22.5433 16.6295 22.7649 16.9265 22.7184 17.2464C22.6999 17.3737 22.6399 17.4914 22.5478 17.5813L21.8106 18.2998C21.7405 18.3681 21.7085 18.4666 21.7251 18.5632L21.8991 19.5778C21.9537 19.8964 21.7398 20.1989 21.4212 20.2535C21.2944 20.2753 21.1639 20.2546 21.0499 20.1947L20.1388 19.7157C20.0521 19.6701 19.9485 19.6701 19.8618 19.7157Z" fill="white"/>
<path d="M12.7189 12.5728L11.8079 13.0519C11.5217 13.2023 11.1679 13.0923 11.0175 12.8062C10.9576 12.6922 10.9369 12.5617 10.9586 12.4349L11.1326 11.4203C11.1492 11.3238 11.1172 11.2253 11.0471 11.1569L10.31 10.4384C10.0785 10.2128 10.0738 9.84227 10.2994 9.61081C10.3892 9.51865 10.5069 9.45867 10.6343 9.44016L11.653 9.29214C11.7499 9.27806 11.8337 9.21717 11.8771 9.12933L12.3326 8.20626C12.4757 7.91642 12.8266 7.79742 13.1164 7.94046C13.2319 7.99743 13.3253 8.09085 13.3822 8.20626L13.8378 9.12933C13.8811 9.21717 13.9649 9.27806 14.0619 9.29214L15.0806 9.44016C15.4004 9.48664 15.6221 9.78362 15.5756 10.1035C15.5571 10.2308 15.4971 10.3486 15.4049 10.4384L14.6678 11.1569C14.5976 11.2253 14.5656 11.3238 14.5822 11.4203L14.7562 12.4349C14.8109 12.7535 14.5969 13.056 14.2784 13.1106C14.1515 13.1324 14.021 13.1117 13.9071 13.0519L12.9959 12.5728C12.9092 12.5273 12.8056 12.5273 12.7189 12.5728Z" fill="white"/>
<path d="M12.7189 19.7157L11.8079 20.1947C11.5217 20.3451 11.1679 20.2351 11.0175 19.949C10.9576 19.8351 10.9369 19.7046 10.9586 19.5778L11.1326 18.5632C11.1492 18.4666 11.1172 18.3681 11.0471 18.2998L10.31 17.5813C10.0785 17.3556 10.0738 16.9851 10.2994 16.7536C10.3892 16.6615 10.5069 16.6015 10.6343 16.583L11.653 16.435C11.7499 16.4209 11.8337 16.36 11.8771 16.2722L12.3326 15.3491C12.4757 15.0593 12.8266 14.9403 13.1164 15.0834C13.2319 15.1403 13.3253 15.2337 13.3822 15.3491L13.8378 16.2722C13.8811 16.36 13.9649 16.4209 14.0619 16.435L15.0806 16.583C15.4004 16.6295 15.6221 16.9265 15.5756 17.2464C15.5571 17.3737 15.4971 17.4914 15.4049 17.5813L14.6678 18.2998C14.5976 18.3681 14.5656 18.4666 14.5822 18.5632L14.7562 19.5778C14.8109 19.8964 14.5969 20.1989 14.2784 20.2535C14.1515 20.2753 14.021 20.2546 13.9071 20.1947L12.9959 19.7157C12.9092 19.6701 12.8056 19.6701 12.7189 19.7157Z" fill="white"/>
<path d="M5.57608 12.5728L4.66496 13.0519C4.37887 13.2023 4.02502 13.0923 3.87461 12.8062C3.81472 12.6922 3.79405 12.5617 3.8158 12.4349L3.98982 11.4203C4.00638 11.3238 3.97437 11.2253 3.90422 11.1569L3.1671 10.4384C2.93565 10.2128 2.93092 9.84227 3.15653 9.61081C3.24637 9.51865 3.36409 9.45867 3.49145 9.44016L4.51013 9.29214C4.60706 9.27806 4.69086 9.21717 4.73421 9.12933L5.18978 8.20626C5.33282 7.91642 5.68375 7.79742 5.97359 7.94046C6.089 7.99743 6.18243 8.09085 6.23939 8.20626L6.69495 9.12933C6.7383 9.21717 6.8221 9.27806 6.91904 9.29214L7.93771 9.44016C8.25757 9.48664 8.47921 9.78362 8.43271 10.1035C8.41421 10.2308 8.35421 10.3486 8.26207 10.4384L7.52493 11.1569C7.45478 11.2253 7.42278 11.3238 7.43935 11.4203L7.61335 12.4349C7.668 12.7535 7.45407 13.056 7.13547 13.1106C7.00861 13.1324 6.87812 13.1117 6.7642 13.0519L5.85308 12.5728C5.76637 12.5273 5.66279 12.5273 5.57608 12.5728Z" fill="white"/>
<path d="M5.57608 19.7157L4.66496 20.1947C4.37887 20.3451 4.02502 20.2351 3.87461 19.949C3.81472 19.8351 3.79405 19.7046 3.8158 19.5778L3.98982 18.5632C4.00638 18.4666 3.97437 18.3681 3.90422 18.2998L3.1671 17.5813C2.93565 17.3556 2.93092 16.9851 3.15653 16.7536C3.24637 16.6615 3.36409 16.6015 3.49145 16.583L4.51013 16.435C4.60706 16.4209 4.69086 16.36 4.73421 16.2722L5.18978 15.3491C5.33282 15.0593 5.68375 14.9403 5.97359 15.0834C6.089 15.1403 6.18243 15.2337 6.23939 15.3491L6.69495 16.2722C6.7383 16.36 6.8221 16.4209 6.91904 16.435L7.93771 16.583C8.25757 16.6295 8.47921 16.9265 8.43271 17.2464C8.41421 17.3737 8.35421 17.4914 8.26207 17.5813L7.52493 18.2998C7.45478 18.3681 7.42278 18.4666 7.43935 18.5632L7.61335 19.5778C7.668 19.8964 7.45407 20.1989 7.13547 20.2535C7.00861 20.2753 6.87812 20.2546 6.7642 20.1947L5.85308 19.7157C5.76637 19.6701 5.66279 19.6701 5.57608 19.7157Z" fill="white"/>
</g>
</svg>
