<svg width="50" height="50" viewBox="0 0 50 50" fill="none" xmlns="http://www.w3.org/2000/svg">
<g clip-path="url(#clip0_1_71)">
<mask id="mask0_1_71" style="mask-type:luminance" maskUnits="userSpaceOnUse" x="0" y="0" width="50" height="50">
<path d="M50 0H0V50H50V0Z" fill="white"/>
</mask>
<g mask="url(#mask0_1_71)">
<path d="M11.9186 19.0451C11.9186 19.0451 12.8999 6.40137 25.4124 6.40137C37.9249 6.40137 38.9374 19.0951 38.9374 19.0951C38.9374 19.0951 44.8311 18.5951 44.8311 23.8451C44.8311 29.1076 39.0311 28.3014 39.0311 28.3014C39.0311 28.3014 38.0624 41.9701 26.2686 41.9701C13.0749 41.9701 11.6436 28.9701 11.6436 28.9701C11.6436 28.9701 6.01862 29.4201 5.43737 25.0639C4.76237 19.9389 11.9186 19.0389 11.9186 19.0389" fill="#C26450"/>
<path d="M40.1876 24.6799L40.4751 24.4236L40.5376 24.3674C40.6126 24.3049 40.4563 24.4299 40.525 24.3799L40.6751 24.2736C40.8834 24.1278 41.1042 23.9986 41.3376 23.8861L41.5001 23.8111L41.5313 23.7986L41.5626 23.7861L41.9251 23.6549C42.1751 23.5799 42.4251 23.5216 42.6751 23.4799C43.0001 23.4299 43.2063 23.0049 43.1126 22.7111C43.0001 22.3611 42.6938 22.2111 42.3438 22.2736C41.2004 22.4651 40.1404 22.9939 39.3001 23.7924C39.0626 24.0174 39.0501 24.4549 39.3001 24.6674C39.5501 24.8924 39.9251 24.9174 40.1751 24.6674L40.1876 24.6799ZM7.81256 23.9549L7.90006 23.9611C7.73131 23.9486 7.83131 23.9549 7.87506 23.9611L8.06256 23.9924L8.38756 24.0799L8.56256 24.1361L8.63756 24.1674C8.65006 24.1674 8.77506 24.2236 8.67506 24.1799C8.58756 24.1174 8.67506 24.1549 8.69381 24.1611L8.78756 24.1986L8.95006 24.2799L9.24381 24.4674L9.41256 24.6049C9.60838 24.7632 9.78131 24.9361 9.93131 25.1236C10.1376 25.3736 10.6001 25.3549 10.8126 25.1236C11.0626 24.8549 11.0376 24.5111 10.8126 24.2486C10.0468 23.35 8.9625 22.7832 7.78756 22.6674C7.46256 22.6299 7.15006 22.9799 7.16256 23.2924C7.18131 23.6611 7.43756 23.8799 7.78756 23.9174M19.2251 22.7299V25.5674C19.2251 25.8924 19.5126 26.2049 19.8501 26.1924C20.1876 26.1799 20.4751 25.9174 20.4751 25.5674V22.7486C20.4751 22.4236 20.1876 22.1111 19.8501 22.1236C19.5126 22.1361 19.2251 22.3986 19.2251 22.7486M30.7501 22.4986L30.6563 25.5049C30.6563 25.6706 30.7221 25.8296 30.8393 25.9468C30.9566 26.0641 31.1155 26.1299 31.2813 26.1299C31.6313 26.1174 31.8938 25.8549 31.9063 25.5049L32.0001 22.5049C32.0001 22.3391 31.9342 22.1801 31.817 22.0629C31.6998 21.9458 31.5408 21.8799 31.3751 21.8799C31.2093 21.8799 31.0503 21.9458 30.9331 22.0629C30.8159 22.1801 30.7501 22.3391 30.7501 22.5049" fill="black"/>
<path d="M19.0625 20.4148C19.2125 20.2482 19.3729 20.0898 19.5437 19.9398L19.6 19.8898L19.625 19.8711C19.55 19.9273 19.625 19.8711 19.6375 19.8711L19.7125 19.8086L19.9937 19.6211L20.2687 19.4648L20.4187 19.3898L20.5062 19.3523C20.525 19.3461 20.6062 19.3086 20.5187 19.3523L20.55 19.3398L20.6125 19.3148L20.775 19.2523L21.1187 19.1586C21.4312 19.0836 21.6562 18.7023 21.5562 18.3898C21.4562 18.0773 21.1187 17.8711 20.7875 17.9523C19.7761 18.1936 18.8651 18.7441 18.1812 19.5273C17.9687 19.7773 17.9187 20.1711 18.1812 20.4023C18.4187 20.6273 18.8375 20.6711 19.0625 20.4023M30.5625 19.2336C30.9375 19.2961 31.3125 19.3857 31.6875 19.5023L31.9375 19.5961L32.0937 19.6523L32.1312 19.6648L32.0937 19.6461C32.1062 19.6711 32.2125 19.6961 32.2375 19.7086L32.3437 19.7586L32.6312 19.9023C32.9187 20.0586 33.3187 19.9836 33.4875 19.6773C33.65 19.3648 33.5687 18.9898 33.2625 18.8211C32.5221 18.4188 31.7192 18.1441 30.8875 18.0086C30.7125 17.9898 30.5625 17.9836 30.4062 18.0711C30.265 18.1536 30.1618 18.2883 30.1187 18.4461C30.0562 18.7523 30.2125 19.1648 30.5562 19.2211L30.5625 19.2336ZM22.75 29.4523C25.0376 28.6194 27.5418 28.5974 29.8437 29.3898C30.6062 29.6398 30.9312 28.4398 30.175 28.1773C27.6589 27.3211 24.9269 27.3431 22.425 28.2398C22.1125 28.3586 21.8875 28.6711 21.9875 29.0148C22.0625 29.3211 22.4312 29.5648 22.75 29.4523Z" fill="black"/>
<path d="M12.6438 20.2676C12.6438 20.2676 21.2313 34.9739 15.0563 37.9176C8.01881 41.2676 1.61878 31.8489 2.43753 24.8239C3.25628 17.7989 9.27506 14.6051 9.27506 14.6051C9.27506 14.6051 8.91256 8.66762 15.0251 5.2051C21.1376 1.7426 25.4251 5.4801 25.4251 5.4801C25.4251 5.4801 30.4626 1.7926 35.1126 4.62385C39.7751 7.45512 39.6501 13.7989 39.6501 13.7989C39.6501 13.7989 48.2375 13.4489 48.1812 24.0926C48.1312 33.5739 41.9126 38.4301 37.6813 37.5926C31.1313 36.2989 38.4563 19.3301 38.4563 19.3301C38.4563 19.3301 29.4563 19.9801 25.8688 13.2364C25.8688 13.2364 23.3688 16.9551 19.8063 18.6239C17.5412 19.6116 15.1127 20.1711 12.6438 20.2739V20.2676Z" fill="#FFF500"/>
</g>
</g>
<defs>
<clipPath id="clip0_1_71">
<rect width="50" height="50" fill="white"/>
</clipPath>
</defs>
</svg>
