<svg width="50" height="50" viewBox="0 0 50 50" fill="none" xmlns="http://www.w3.org/2000/svg">
<path d="M45.2674 25.4781C45.2674 24.0791 45.1434 22.751 44.9309 21.4582H24.9204V29.4447H36.3778C35.8641 32.0656 34.359 34.2792 32.1278 35.7844V41.097H38.9631C42.9653 37.3959 45.2674 31.9417 45.2674 25.4781Z" fill="#4285F4"/>
<path d="M24.9204 46.2501C30.6579 46.2501 35.4569 44.3376 38.9631 41.097L32.1278 35.7845C30.2151 37.0595 27.7891 37.8386 24.9204 37.8386C19.3776 37.8386 14.6849 34.1021 13.0025 29.0553H5.95459V34.5271C9.44316 41.4689 16.6151 46.2501 24.9204 46.2501Z" fill="#34A853"/>
<path d="M13.0025 29.0552C12.5599 27.7802 12.3296 26.4166 12.3296 25C12.3296 23.5833 12.5775 22.2198 13.0025 20.9448V15.4729H5.95458C4.50248 18.3416 3.6702 21.5645 3.6702 25C3.6702 28.4354 4.50248 31.6584 5.95458 34.5271L13.0025 29.0552Z" fill="#FBBC05"/>
<path d="M24.9204 12.1614C28.0548 12.1614 30.8526 13.2416 33.0663 15.3489L39.1225 9.2926C35.4569 5.85715 30.6579 3.74985 24.9204 3.74985C16.6151 3.74985 9.44316 8.53114 5.95459 15.4729L13.0025 20.9447C14.6849 15.8979 19.3776 12.1614 24.9204 12.1614Z" fill="#EA4335"/>
</svg>
