<svg width="50" height="50" viewBox="0 0 50 50" fill="none" xmlns="http://www.w3.org/2000/svg">
<rect x="10" y="6" width="30" height="40" rx="5" fill="#F98FC9"/>
<path d="M26.4238 12.8541C27.012 12.1083 28.2093 12.6328 28.0596 13.5713L26.6435 22.4428H32.7166C33.871 22.4428 34.5163 23.7723 33.8028 24.6797L23.9977 37.1463C23.4094 37.8916 22.2152 37.3675 22.365 36.4291L23.781 27.5575H17.7049C16.5507 27.5574 15.9053 26.2279 16.6185 25.3206L26.4238 12.8541Z" fill="white"/>
<path d="M16.6672 3.93624C16.6672 2.6943 17.674 1.6875 18.916 1.6875H31.0851C32.3272 1.6875 33.3338 2.69429 33.3338 3.93624V7.3125H16.6672V3.93624Z" fill="#F98FC9"/>
<path d="M20.2768 10H15C14.4477 10 14 10.4477 14 11V20.2344C14 21.2599 15.3595 21.6209 15.8682 20.7306L21.1451 11.4961C21.526 10.8295 21.0446 10 20.2768 10Z" fill="white" fill-opacity="0.2"/>
<path d="M36.2768 34H31C30.4477 34 30 34.4477 30 35V44.2344C30 45.2599 31.3595 45.6209 31.8682 44.7306L37.1451 35.4961C37.526 34.8295 37.0446 34 36.2768 34Z" fill="white" fill-opacity="0.2"/>
</svg>
