<svg width="50" height="50" viewBox="0 0 50 50" fill="none" xmlns="http://www.w3.org/2000/svg">
<path d="M3.90625 19.8113C3.90625 23.8628 5.95974 27.4451 9.1045 29.6178L22.5165 41.3196C24.1097 42.7097 26.4901 42.6912 28.0616 41.2763L41.55 29.1329C44.3222 26.9329 46.0938 23.5746 46.0938 19.8113C46.0938 13.1846 40.5999 7.8125 33.8225 7.8125C30.3593 7.8125 27.2312 9.21522 25 11.4713C22.7688 9.21522 19.6407 7.8125 16.1776 7.8125C9.40034 7.8125 3.90625 13.1846 3.90625 19.8113Z" fill="#FF4B4B" stroke="white" stroke-width="2"/>
<path opacity="0.3" fill-rule="evenodd" clip-rule="evenodd" d="M15.6793 24.9835C18.3885 24.9835 20.5848 22.7225 20.5848 19.9332C20.5848 17.144 18.3885 14.8829 15.6793 14.8829C12.9701 14.8829 10.7738 17.144 10.7738 19.9332C10.7738 22.7225 12.9701 24.9835 15.6793 24.9835Z" fill="white"/>
</svg>
