<svg width="50" height="50" viewBox="0 0 50 50" fill="none" xmlns="http://www.w3.org/2000/svg">
<path fill-rule="evenodd" clip-rule="evenodd" d="M31.6461 4.45453C31.211 1.19667 25.7184 0.0758959 23.2027 2.73163L2.49671 24.5897C0.581713 26.6112 1.91676 29.4668 5.07845 30.112L16.8574 32.5155L18.5974 45.5455C19.0324 48.8033 24.525 49.9242 27.0408 47.2683L47.7469 25.4103C49.6619 23.3888 48.3269 20.5332 45.165 19.888L33.386 17.4845L31.6461 4.45453Z" fill="#FFD900"/>
<path d="M6.5592 27.4832C5.48806 27.2631 5.38462 26.1367 6.4051 25.8051L14.5915 23.1451C15.3307 22.9049 16.1602 23.2912 16.2163 23.9017L16.6227 28.3282C16.6788 28.9387 15.9279 29.4092 15.1521 29.2497L6.5592 27.4832Z" fill="#F7C100"/>
<path d="M44.0774 22.0843C45.1485 22.3045 45.252 23.4308 44.2315 23.7623L36.0452 26.4223C35.3059 26.6625 34.4765 26.2762 34.4204 25.6657L34.014 21.2393C33.9578 20.6288 34.7087 20.1583 35.4845 20.3178L44.0774 22.0843Z" fill="#FFEF8F"/>
</svg>
