<svg width="50" height="50" viewBox="0 0 50 50" fill="none" xmlns="http://www.w3.org/2000/svg">
<mask id="mask0_1_3" style="mask-type:luminance" maskUnits="userSpaceOnUse" x="0" y="5" width="50" height="40">
<path d="M50 5.71428H0V44.2857H50V5.71428Z" fill="white"/>
</mask>
<g mask="url(#mask0_1_3)">
<path d="M8.97357 5.71428H41.0264C44.1467 5.71428 45.2782 6.03917 46.4189 6.64925C47.5597 7.25932 48.4549 8.15459 49.065 9.29533C49.6751 10.4361 50 11.5676 50 14.6879V35.3121C50 38.4324 49.6751 39.5639 49.065 40.7046C48.4549 41.8454 47.5597 42.7406 46.4189 43.3508C45.2782 43.9609 44.1467 44.2857 41.0264 44.2857H8.97357C5.85329 44.2857 4.72178 43.9609 3.58104 43.3508C2.4403 42.7406 1.54504 41.8454 0.934964 40.7046C0.32489 39.5639 0 38.4324 0 35.3121V14.6879C0 11.5676 0.32489 10.4361 0.934964 9.29533C1.54504 8.15459 2.4403 7.25932 3.58104 6.64925C4.72178 6.03917 5.85329 5.71428 8.97357 5.71428Z" fill="#EEEEEE"/>
<path d="M8.97357 5.71428H41.0264C44.1467 5.71428 45.2782 6.03917 46.4189 6.64925C47.5597 7.25932 48.4549 8.15459 49.065 9.29533C49.6751 10.4361 50 11.5676 50 14.6879V17.1429H0V14.6879C0 11.5676 0.32489 10.4361 0.934964 9.29533C1.54504 8.15459 2.4403 7.25932 3.58104 6.64925C4.72178 6.03917 5.85329 5.71428 8.97357 5.71428Z" fill="#FF9600"/>
<path d="M50 32.8571V35.3121C50 38.4324 49.6751 39.5639 49.065 40.7046C48.4549 41.8454 47.5597 42.7406 46.4189 43.3508C45.2782 43.9609 44.1467 44.2857 41.0264 44.2857H8.97357C5.85329 44.2857 4.72178 43.9609 3.58104 43.3508C2.4403 42.7406 1.54504 41.8454 0.934964 40.7046C0.32489 39.5639 0 38.4324 0 35.3121V32.8571H50Z" fill="#7AC70C"/>
<path d="M25 30.7143C21.8441 30.7143 19.2857 28.1559 19.2857 25C19.2857 21.8441 21.8441 19.2857 25 19.2857C28.1559 19.2857 30.7143 21.8441 30.7143 25C30.7143 28.1559 28.1559 30.7143 25 30.7143ZM25 27.8571C26.5779 27.8571 27.8571 26.5779 27.8571 25C27.8571 23.4221 26.5779 22.1429 25 22.1429C23.4221 22.1429 22.1429 23.4221 22.1429 25C22.1429 26.5779 23.4221 27.8571 25 27.8571Z" fill="#1CB0F6"/>
</g>
</svg>
