<svg width="50" height="50" viewBox="0 0 50 50" fill="none" xmlns="http://www.w3.org/2000/svg">
<path d="M33.1327 17.9374C26.791 17.9374 24.9364 17.9439 24.5759 17.9738C23.2745 18.082 22.4646 18.2869 21.5824 18.7261C20.9025 19.0638 20.3662 19.4551 19.837 20.0038C18.8732 21.0043 18.2891 22.235 18.0776 23.6981C17.9749 24.4084 17.945 24.5532 17.9389 28.1814C17.9365 29.3907 17.9389 30.9823 17.9389 33.1171C17.9389 39.4536 17.9459 41.3065 17.9762 41.6663C18.0814 42.9326 18.28 43.7294 18.7006 44.6009C19.5044 46.2691 21.0394 47.5215 22.8477 47.9888C23.474 48.15 24.1656 48.2388 25.0534 48.2808C25.4296 48.2971 29.2637 48.3089 33.1002 48.3089C36.9367 48.3089 40.7731 48.3041 41.14 48.2855C42.168 48.2371 42.765 48.157 43.4251 47.9864C45.2451 47.5168 46.7522 46.2831 47.5722 44.5915C47.9846 43.741 48.1937 42.9139 48.2884 41.7138C48.309 41.452 48.3176 37.2798 48.3176 33.1131C48.3176 28.9459 48.3082 24.7814 48.2877 24.5196C48.1919 23.3 47.9827 22.4799 47.5571 21.6131C47.2077 20.9035 46.82 20.3736 46.2569 19.8318C45.252 18.8719 44.023 18.2879 42.5585 18.0766C41.8489 17.974 41.7075 17.9436 38.0766 17.9374H33.1327Z" fill="url(#paint0_radial_1_58)"/>
<path d="M33.1327 17.9374C26.791 17.9374 24.9364 17.9439 24.5759 17.9738C23.2745 18.082 22.4646 18.2869 21.5824 18.7261C20.9025 19.0638 20.3662 19.4551 19.837 20.0038C18.8732 21.0043 18.2891 22.235 18.0776 23.6981C17.9749 24.4084 17.945 24.5532 17.9389 28.1814C17.9365 29.3907 17.9389 30.9823 17.9389 33.1171C17.9389 39.4536 17.9459 41.3065 17.9762 41.6663C18.0814 42.9326 18.28 43.7294 18.7006 44.6009C19.5044 46.2691 21.0394 47.5215 22.8477 47.9888C23.474 48.15 24.1656 48.2388 25.0534 48.2808C25.4296 48.2971 29.2637 48.3089 33.1002 48.3089C36.9367 48.3089 40.7731 48.3041 41.14 48.2855C42.168 48.2371 42.765 48.157 43.4251 47.9864C45.2451 47.5168 46.7522 46.2831 47.5722 44.5915C47.9846 43.741 48.1937 42.9139 48.2884 41.7138C48.309 41.452 48.3176 37.2798 48.3176 33.1131C48.3176 28.9459 48.3082 24.7814 48.2877 24.5196C48.1919 23.3 47.9827 22.4799 47.5571 21.6131C47.2077 20.9035 46.82 20.3736 46.2569 19.8318C45.252 18.8719 44.023 18.2879 42.5585 18.0766C41.8489 17.974 41.7075 17.9436 38.0766 17.9374H33.1327Z" fill="url(#paint1_radial_1_58)"/>
<path d="M33.1256 21.9094C30.0799 21.9094 29.6976 21.9226 28.5014 21.9771C27.3074 22.0317 26.4925 22.2208 25.7794 22.4981C25.0418 22.7846 24.416 23.1677 23.7926 23.7914C23.1689 24.4147 22.7856 25.0405 22.4983 25.7779C22.2203 26.4911 22.031 27.3064 21.9773 28.4998C21.9238 29.6961 21.9098 30.0785 21.9098 33.1244C21.9098 36.1702 21.9233 36.5512 21.9775 37.7475C22.0324 38.9415 22.2214 39.7565 22.4985 40.4695C22.7853 41.2071 23.1684 41.8329 23.792 42.4562C24.4151 43.0801 25.0408 43.4641 25.778 43.7506C26.4915 44.028 27.3068 44.217 28.5004 44.2716C29.6968 44.3261 30.0788 44.3394 33.1243 44.3394C36.1704 44.3394 36.5514 44.3261 37.7476 44.2716C38.9416 44.217 39.7575 44.028 40.4711 43.7506C41.2085 43.4641 41.8333 43.0801 42.4564 42.4562C43.0803 41.8329 43.4634 41.2071 43.7508 40.4697C44.0265 39.7565 44.2158 38.9412 44.2718 37.7477C44.3255 36.5515 44.3395 36.1702 44.3395 33.1244C44.3395 30.0785 44.3255 29.6964 44.2718 28.5C44.2158 27.3061 44.0265 26.4911 43.7508 25.778C43.4634 25.0405 43.0803 24.4147 42.4564 23.7914C41.8325 23.1675 41.2088 22.7844 40.4704 22.4981C39.7554 22.2208 38.94 22.0317 37.746 21.9771C36.5498 21.9226 36.1689 21.9094 33.1221 21.9094H33.1256ZM32.1196 23.9304C32.4183 23.9299 32.7514 23.9304 33.1256 23.9304C36.1201 23.9304 36.475 23.9411 37.6575 23.9949C38.751 24.0449 39.3444 24.2276 39.7398 24.3811C40.2631 24.5844 40.6363 24.8274 41.0285 25.2199C41.4211 25.6124 41.6641 25.9862 41.8678 26.5096C42.0214 26.9045 42.2043 27.4979 42.254 28.5914C42.3078 29.7736 42.3195 30.1287 42.3195 33.1217C42.3195 36.1149 42.3078 36.47 42.254 37.6522C42.204 38.7456 42.0214 39.3391 41.8678 39.734C41.6645 40.2574 41.4211 40.63 41.0285 41.0224C40.636 41.4149 40.2634 41.6579 39.7398 41.8611C39.3449 42.0154 38.751 42.1976 37.6575 42.2476C36.4753 42.3014 36.1201 42.313 33.1256 42.313C30.131 42.313 29.7761 42.3014 28.5939 42.2476C27.5004 42.1971 26.907 42.0144 26.5114 41.8609C25.988 41.6576 25.6141 41.4146 25.2216 41.0221C24.8291 40.6296 24.5861 40.2566 24.3824 39.7331C24.2289 39.3383 24.046 38.7447 23.9961 37.6512C23.9425 36.469 23.9318 36.1139 23.9318 33.119C23.9318 30.1241 23.9425 29.7709 23.9961 28.5886C24.0461 27.4951 24.2289 26.9016 24.3824 26.5064C24.5856 25.983 24.8291 25.6091 25.2216 25.2166C25.6141 24.8241 25.988 24.5811 26.5114 24.3774C26.9068 24.2231 27.5004 24.0409 28.5939 23.9906C29.6285 23.9439 30.0294 23.9299 32.1196 23.9276V23.9304ZM39.1121 25.7925C38.3691 25.7925 37.7664 26.3946 37.7664 27.1379C37.7664 27.8809 38.3691 28.4837 39.1121 28.4837C39.8551 28.4837 40.458 27.8809 40.458 27.1379C40.458 26.3949 39.8551 25.7925 39.1121 25.7925ZM33.1256 27.365C29.945 27.365 27.3663 29.9437 27.3663 33.1244C27.3663 36.305 29.945 38.8826 33.1256 38.8826C36.3064 38.8826 38.8841 36.305 38.8841 33.1244C38.8841 29.9437 36.3063 27.365 33.1256 27.365ZM33.1256 29.386C35.1901 29.386 36.864 31.0596 36.864 33.1244C36.864 35.1889 35.1901 36.8627 33.1256 36.8627C31.061 36.8627 29.3874 35.1889 29.3874 33.1244C29.3874 31.0596 31.061 29.386 33.1256 29.386Z" fill="white"/>
<path d="M17.4982 33.7535C26.4739 33.7535 33.75 26.4772 33.75 17.5017C33.75 8.52616 26.4739 1.25002 17.4982 1.25002C8.52265 1.25002 1.24649 8.52616 1.24649 17.5017C1.24649 26.4772 8.52265 33.7535 17.4982 33.7535Z" fill="#1977F3"/>
<path d="M23.8244 22.2006L24.5443 17.5017H20.0374V14.453C20.0374 13.1686 20.6659 11.9139 22.6861 11.9139H24.7363V7.91436C24.7363 7.91436 22.8759 7.59669 21.0978 7.59669C17.3863 7.59669 14.9591 9.84555 14.9591 13.9205V17.5017H10.8316V22.2006H14.9591V33.557C15.7864 33.6873 16.6344 33.7535 17.4983 33.7535C18.3621 33.7535 19.21 33.6849 20.0374 33.557V22.2006H23.8244Z" fill="white"/>
<defs>
<radialGradient id="paint0_radial_1_58" cx="0" cy="0" r="1" gradientUnits="userSpaceOnUse" gradientTransform="translate(26.0075 50.6481) rotate(-90) scale(30.1004 28.0034)">
<stop stop-color="#FFDD55"/>
<stop offset="0.1" stop-color="#FFDD55"/>
<stop offset="0.5" stop-color="#FF543E"/>
<stop offset="1" stop-color="#C837AB"/>
</radialGradient>
<radialGradient id="paint1_radial_1_58" cx="0" cy="0" r="1" gradientUnits="userSpaceOnUse" gradientTransform="translate(12.8491 20.1253) rotate(78.6776) scale(13.4551 55.4766)">
<stop stop-color="#3771C8"/>
<stop offset="0.128" stop-color="#3771C8"/>
<stop offset="1" stop-color="#6600FF" stop-opacity="0"/>
</radialGradient>
</defs>
</svg>
