<svg width="300" height="300" viewBox="0 0 300 300" fill="none" xmlns="http://www.w3.org/2000/svg">
<g clip-path="url(#clip0_1_140)">
<path d="M290.48 240.695H257.547C253.995 240.695 251.115 243.575 251.115 247.127C251.115 250.679 253.995 253.559 257.547 253.559H290.48C294.033 253.559 296.913 250.679 296.913 247.127C296.913 243.575 294.033 240.695 290.48 240.695Z" fill="#FCF3F3"/>
<path d="M167.496 242.238H101.372C98.104 242.238 95.4545 244.888 95.4545 248.156C95.4545 251.424 98.104 254.074 101.372 254.074H167.496C170.764 254.074 173.413 251.424 173.413 248.156C173.413 244.888 170.764 242.238 167.496 242.238Z" fill="#FCF3F3"/>
<path d="M78.988 246.098C78.988 231.888 67.4687 220.369 53.259 220.369C39.0493 220.369 27.53 231.888 27.53 246.098C27.53 260.307 39.0493 271.827 53.259 271.827C67.4687 271.827 78.988 260.307 78.988 246.098Z" fill="#F0EFEF"/>
<mask id="mask0_1_140" style="mask-type:luminance" maskUnits="userSpaceOnUse" x="29" y="225" width="48" height="47">
<path d="M76.1578 225.515H29.8456V271.827H76.1578V225.515Z" fill="white"/>
</mask>
<g mask="url(#mask0_1_140)">
<path d="M53.0017 235.891C49.7949 235.89 46.7048 237.096 44.3452 239.268C41.9856 241.44 40.5288 244.419 40.2638 247.616C39.9988 250.812 40.9449 253.99 42.9147 256.521C44.8842 259.052 47.7335 260.75 50.8966 261.278V264.103C47.0437 264.455 43.3405 265.766 40.1249 267.918C43.9353 270.467 48.4171 271.828 53.002 271.828C57.5869 271.828 62.0686 270.467 65.8791 267.918C62.6637 265.766 58.9603 264.454 55.1074 264.103V261.279C58.0909 260.781 60.801 259.24 62.7556 256.932C64.7105 254.624 65.7831 251.697 65.7831 248.672C65.7831 245.286 64.4393 242.038 62.0467 239.642C59.6542 237.245 56.4085 235.897 53.0223 235.891C53.0156 235.891 53.0089 235.891 53.0022 235.891L53.0017 235.891Z" fill="#D5D5D5"/>
<path d="M58.2646 264.61C60.9836 265.241 63.565 266.362 65.8829 267.918C62.072 270.467 57.5905 271.828 53.0058 271.828C48.4209 271.828 43.9395 270.467 40.1285 267.918C42.4464 266.362 45.0278 265.241 47.7471 264.61C48.784 264.369 49.8363 264.199 50.8966 264.103V261.278C52.2903 261.511 53.7131 261.511 55.1069 261.278V264.103C56.1697 264.199 57.2249 264.369 58.2646 264.61Z" fill="#D5D5D5"/>
<path d="M42.0721 266.747L43.3287 267.189L44.0118 265.822L44.5734 265.594L43.7733 267.196L49.2309 266.578L49.8834 264.224L50.3133 264.17L49.6552 266.539L53.7435 266.219L50.8986 263.022V262.533L54.4281 261.385L55.1071 261.29V261.585L51.2642 262.833L54.2177 266.15L58.1951 264.598L58.8695 264.762L54.5848 266.435L58.7012 269.21L59.2382 264.862L59.6287 264.974L59.0727 269.461L59.0846 269.468L60.7901 270.469L60.2928 270.639L58.9953 269.879L58.7349 271.095L58.3034 271.201L58.5726 269.942L55.1568 271.713L54.149 271.785L58.4774 269.541L54.2748 266.707L52.7712 271.811L52.3557 271.804L53.8873 266.608L49.667 266.939L51.4737 271.761L51.1899 271.742L51.0903 271.734L51.0757 271.732L51.0347 271.73L49.357 267.25L47.3267 271.108L46.9287 271.003L49.0366 267.001L43.816 267.593L46.5075 270.885L45.8172 270.672L43.3945 267.708L41.7576 268.905L41.3758 268.689L43.0055 267.498L41.604 267.005L42.0721 266.747ZM60.6188 265.292L63.4714 269.321L63.1086 269.5L59.9781 265.081L60.6188 265.292Z" fill="#AFAFAF"/>
<path d="M41.3805 253.989C39.9893 247.623 41.2654 243.448 44.2222 241.49C48.7454 239.027 56.6686 239.039 60.9594 241.112C65.2395 243.353 65.3951 248.609 64.668 253.889C66.2977 251.051 67.3073 247.555 67.4918 244.085C67.7089 241.721 67.2561 240.303 65.9915 238.477C60.6857 230.922 45.2514 232.15 39.9967 237.909C38.4226 239.805 38.072 241.413 38.1371 243.255C38.338 246.997 39.5341 250.975 41.381 253.989H41.3805Z" fill="#AFAFAF"/>
<path d="M62.4144 229.863C61.9497 229.863 61.4866 229.978 61.0325 230.197C59.3331 231.403 58.8046 232.873 59.0012 234.164C61.0706 234.707 62.9632 235.581 64.4835 236.826C66.458 235.837 66.7531 233.391 65.4088 231.643C64.4645 230.416 63.4366 229.862 62.4144 229.863ZM42.9036 230.692C42.4112 230.703 41.8683 230.802 41.2762 230.997C38.5724 231.887 37.455 235.25 40.5448 237.38C41.9979 236.163 43.9451 235.196 46.1367 234.527C46.1807 233.861 46.0726 233.107 45.7621 232.275C45.1997 231.303 44.3138 230.727 43.1115 230.693C43.0431 230.691 42.9741 230.691 42.9036 230.692Z" fill="#AFAFAF"/>
<path d="M46.634 242.339H59.3717C60.3821 242.342 61.3505 242.744 62.0658 243.457C62.7813 244.17 63.1858 245.138 63.1909 246.148C63.1852 247.158 62.7805 248.126 62.0653 248.839C61.35 249.552 60.3818 249.954 59.3717 249.957H46.634C45.6252 249.953 44.6591 249.55 43.9456 248.836C43.2324 248.123 42.8295 247.157 42.8246 246.148C42.8295 245.139 43.2324 244.173 43.9456 243.46C44.6591 242.747 45.6252 242.344 46.634 242.339Z" fill="#C3C3C3"/>
<path d="M59.3115 245.288H46.704C46.2286 245.288 45.8434 245.673 45.8434 246.148C45.8434 246.624 46.2286 247.009 46.704 247.009H59.3115C59.787 247.009 60.1721 246.624 60.1721 246.148C60.1721 245.673 59.787 245.288 59.3115 245.288Z" fill="#BAB5B5"/>
<path d="M53.0017 251.778C49.4511 251.909 47.5886 253.665 47.0653 256.528C46.8648 257.655 46.9791 257.943 47.6187 257.965C52.1817 258.118 52.0755 261.616 53.0017 261.752C53.928 261.616 53.8217 258.118 58.3847 257.965C59.0244 257.943 59.1445 257.655 58.9382 256.528C58.4128 253.665 56.5523 251.917 53.0017 251.778ZM53.0017 257.655C50.9969 257.655 49.393 256.652 49.393 255.415C49.393 254.178 51.0129 253.176 53.0017 253.176C54.9906 253.176 56.6105 254.178 56.6105 255.415C56.6105 256.652 54.9906 257.655 53.0017 257.655Z" fill="#C3C3C3"/>
<path d="M54.6136 255.278C54.1819 255.698 53.6033 255.933 53.0007 255.933C52.3981 255.933 51.8195 255.698 51.3877 255.278" stroke="#AFAFAF" stroke-width="1.74952" stroke-linecap="round" stroke-linejoin="round"/>
</g>
<path d="M15.1801 245.84C15.1801 242.288 12.3003 239.408 8.74785 239.408C5.19542 239.408 2.31561 242.288 2.31561 245.84C2.31561 249.393 5.19542 252.273 8.74785 252.273C12.3003 252.273 15.1801 249.393 15.1801 245.84Z" fill="#FCF3F3"/>
<path d="M293.568 171.484H260.635C257.082 171.484 254.202 174.364 254.202 177.916C254.202 181.468 257.082 184.348 260.635 184.348H293.568C297.12 184.348 300 181.468 300 177.916C300 174.364 297.12 171.484 293.568 171.484Z" fill="#F3F2F2"/>
<path d="M134.048 172.513H101.115C97.5625 172.513 94.6827 175.393 94.6827 178.945C94.6827 182.498 97.5625 185.377 101.115 185.377H134.048C137.6 185.377 140.48 182.498 140.48 178.945C140.48 175.393 137.6 172.513 134.048 172.513Z" fill="#F3F2F2"/>
<path d="M78.2161 182.033C78.2161 167.823 66.6969 156.304 52.4871 156.304C38.2774 156.304 26.7581 167.823 26.7581 182.033C26.7581 196.242 38.2774 207.762 52.4871 207.762C66.6969 207.762 78.2161 196.242 78.2161 182.033Z" fill="#F0EFEF"/>
<mask id="mask1_1_140" style="mask-type:luminance" maskUnits="userSpaceOnUse" x="30" y="161" width="47" height="47">
<path d="M76.6724 161.192H30.3602V207.504H76.6724V161.192Z" fill="white"/>
</mask>
<g mask="url(#mask1_1_140)">
<path d="M53.5163 171.568C50.3094 171.568 47.2194 172.774 44.8598 174.945C42.5002 177.117 41.0434 180.097 40.7784 183.293C40.5134 186.489 41.4594 189.668 43.4292 192.199C45.3988 194.73 48.248 196.428 51.4111 196.956V199.78C47.5582 200.132 43.8551 201.444 40.6394 203.595C44.4499 206.145 48.9316 207.506 53.5165 207.506C58.1015 207.506 62.5832 206.145 66.3936 203.595C63.1783 201.444 59.4749 200.132 55.6219 199.78V196.956C58.6055 196.458 61.3155 194.918 63.2701 192.61C65.225 190.301 66.2977 187.374 66.2977 184.35C66.2977 180.964 64.9539 177.716 62.5613 175.319C60.1688 172.923 56.9231 171.574 53.5369 171.569C53.5302 171.569 53.5235 171.569 53.5168 171.569L53.5163 171.568Z" fill="#D5D5D5"/>
<path d="M58.7792 200.282C61.4982 200.914 64.0796 202.034 66.3975 203.59C62.5865 206.138 58.1051 207.499 53.5204 207.499C48.9355 207.499 44.454 206.138 40.6431 203.59C42.961 202.034 45.5426 200.914 48.2617 200.282L51.4111 203.439H55.6214L58.7792 200.282Z" fill="#D5D5D5"/>
<path d="M44.3941 201.466V205.63C43.949 205.439 43.5121 205.235 43.0829 205.019H43.0629V202.088C43.4979 201.867 43.943 201.658 44.3941 201.466Z" fill="#C3C3C3"/>
<path d="M62.6382 201.466V205.63C63.0193 205.468 63.3942 205.293 63.7652 205.111L63.785 205.101L63.9494 205.019H63.9695V202.088C63.5344 201.867 63.0895 201.658 62.6382 201.466Z" fill="#C3C3C3"/>
<path d="M49.8715 201.671L53.5163 206.039L57.1611 201.671H49.8715Z" fill="#AFAFAF"/>
<path d="M53.5142 201.648V201.662L52.0006 204.203L50.5971 206.571L46.7498 201.261C46.872 201.174 46.9945 201.08 47.1108 200.982C47.8806 200.371 48.5604 199.654 49.1298 198.853L53.4983 201.635L53.5142 201.648Z" fill="#C3C3C3"/>
<path d="M60.2807 201.26L56.4553 206.577L55.052 204.209L53.5343 201.667L53.5225 201.647L57.9211 198.841C58.4902 199.648 59.1705 200.37 59.9421 200.986C60.0584 201.08 60.1726 201.17 60.2889 201.254L60.2807 201.26Z" fill="#C3C3C3"/>
<path d="M52.0868 165.607C50.8299 163.035 48.6484 162.922 48.2879 165.843C45.9926 163.947 43.0711 164.944 44.2057 168.334C41.7497 166.744 39.2099 168.69 40.7822 172.514C35.3532 172.989 36.2282 177.472 38.7551 178.817C36.7703 179.49 36.6098 180.701 37.0582 181.723C37.5911 182.682 38.8652 183.021 39.3728 183.658C38.0449 183.777 37.6865 184.781 38.2219 185.567C38.5608 186.064 39.2797 186.413 39.9455 186.678C40.1557 186.76 40.6878 186.934 40.7285 187.163C40.766 187.407 39.3677 187.766 39.5802 188.218C39.7016 188.503 39.9363 188.762 40.1107 188.963C40.3675 189.296 42.2671 190.574 42.0069 189.806C41.8011 189.059 41.5629 188.309 41.3763 187.562C41.1424 186.498 41.0182 185.413 41.1553 184.323C41.4406 183.23 42.1716 183.436 42.716 182.647C43.4228 181.494 43.1228 180.319 43.1418 179.926C43.1632 179.568 43.4506 179.688 43.781 179.638C44.6604 179.51 45.186 179.213 45.5529 178.381C45.7073 177.995 45.6772 176.425 45.6579 176.019C45.731 175.091 46.4966 176.019 46.9708 176.148C47.6249 176.326 48.3499 176.191 48.7899 175.646C49.1416 175.17 49.208 175.067 49.7143 175.485C50.2526 175.929 50.5358 176.114 51.2565 176.142C52.3721 176.183 53.0156 174.885 53.5261 175.011C54.2318 175.187 54.2491 176.105 55.5834 175.987C56.0617 175.947 56.3511 175.814 56.6665 175.458C56.8446 175.258 57.0592 174.956 57.3551 174.932C57.6489 174.908 57.8205 175.406 57.9579 175.623C58.1969 176.159 58.7658 176.355 59.2083 176.288C59.6009 176.253 59.9812 176.005 60.2964 175.792C60.4963 175.66 60.663 175.63 60.6826 175.834C60.7418 176.28 60.6998 177.378 60.7145 177.534C60.7356 179.231 61.791 179.653 63.3656 179.606C63.3015 180.357 63.3772 181.867 64.4552 182.525C65.2467 183.079 65.7916 182.781 65.8045 184.1C65.8057 185.341 65.7167 186.718 65.5449 187.747C65.4054 188.557 65.296 189.047 65.0388 189.827C64.9099 190.211 64.8756 190.222 65.3218 190.042C66.7546 189.411 67.4346 187.74 66.997 186.264C66.9093 185.854 67.1665 185.919 67.5741 185.741C69.4837 184.891 69.2033 183.468 67.4218 182.879C69.8251 182.259 70.2057 181.095 68.7625 179.797C70.2275 178.611 69.4917 176.554 68.2006 176.39C70.6909 174.968 69.3502 171.967 67.1774 172.681C68.0138 170.268 66.0617 167.428 62.9429 169.294C64.3392 167.014 63.3569 164.751 60.5166 167.132C59.824 163.447 57.4814 163.807 55.7246 166.126C55.7436 162.101 52.5167 162.634 52.0868 165.607Z" fill="#AFAFAF"/>
<path d="M44.5863 180.236H51.6095C52.0925 180.236 52.484 180.627 52.484 181.11L51.9653 184.62C51.8949 185.098 51.6203 185.495 51.1945 185.495H44.9995C44.5737 185.495 44.2284 185.103 44.2284 184.62L43.7099 181.11C43.7099 180.627 44.1013 180.236 44.5842 180.236H44.5863Z" fill="#C3C3C3" stroke="#AFAFAF" stroke-width="0.773027" stroke-linecap="round" stroke-linejoin="round"/>
<path d="M62.4479 180.236H55.4246C54.9419 180.236 54.5503 180.627 54.5503 181.11L55.0688 184.62C55.1393 185.098 55.4141 185.495 55.8399 185.495H62.0349C62.4607 185.495 62.806 185.103 62.806 184.62L63.3244 181.11C63.3244 180.627 62.9331 180.236 62.4502 180.236H62.4479Z" fill="#C3C3C3" stroke="#AFAFAF" stroke-width="0.773027" stroke-linecap="round" stroke-linejoin="round"/>
<path d="M48.5256 181.711C48.3424 181.713 48.1639 181.77 48.0126 181.873C47.8613 181.976 47.744 182.122 47.6753 182.292C47.6069 182.462 47.5899 182.648 47.6269 182.828C47.664 183.007 47.7535 183.172 47.8837 183.301C48.0141 183.429 48.1796 183.517 48.3594 183.552C48.5395 183.587 48.7256 183.568 48.8948 183.497C49.0639 183.426 49.2082 183.307 49.3099 183.155C49.4115 183.002 49.4658 182.823 49.4658 182.64C49.4658 182.517 49.4413 182.395 49.394 182.282C49.3466 182.168 49.2772 182.066 49.1897 181.979C49.1022 181.893 48.9985 181.824 48.8846 181.779C48.7706 181.733 48.6486 181.71 48.5256 181.711ZM58.4938 181.711C58.3101 181.712 58.1308 181.766 57.9782 181.869C57.8259 181.971 57.707 182.116 57.637 182.286C57.5671 182.456 57.549 182.642 57.5851 182.822C57.6211 183.003 57.7099 183.168 57.8398 183.297C57.9697 183.427 58.1354 183.515 58.3155 183.551C58.4956 183.587 58.6822 183.568 58.852 183.498C59.0215 183.428 59.1664 183.309 59.2685 183.156C59.3704 183.003 59.425 182.824 59.425 182.64C59.425 182.518 59.4008 182.397 59.3539 182.284C59.3071 182.171 59.2387 182.069 59.1522 181.982C59.0655 181.896 58.9629 181.828 58.8499 181.781C58.737 181.735 58.616 181.711 58.4938 181.711Z" fill="#BAB5B5"/>
<path d="M44.5266 180.236H42.1657" stroke="#AFAFAF" stroke-width="0.773027" stroke-linecap="round" stroke-linejoin="round"/>
<path d="M64.8697 180.236H60.9635" stroke="#AFAFAF" stroke-width="0.773027" stroke-linecap="round" stroke-linejoin="round"/>
<path d="M52.2774 182.483C53.1203 181.997 54.1425 182.1 54.7539 182.478" stroke="#AFAFAF" stroke-width="0.773027" stroke-linecap="round" stroke-linejoin="round"/>
<path d="M53.5163 187.456C49.9657 187.586 48.1032 189.342 47.5798 192.205C47.3794 193.332 47.4936 193.621 48.1333 193.643C52.6963 193.795 52.59 197.294 53.5163 197.43C54.4425 197.294 54.3363 193.795 58.8993 193.643C59.5389 193.621 59.6591 193.332 59.4527 192.205C58.9273 189.342 57.0669 187.594 53.5163 187.456ZM53.5163 193.332C51.5115 193.332 49.9075 192.33 49.9075 191.093C49.9075 189.856 51.5274 188.853 53.5163 188.853C55.5051 188.853 57.125 189.856 57.125 191.093C57.125 192.33 55.5051 193.332 53.5163 193.332Z" fill="#C3C3C3"/>
<path d="M55.1282 190.955C54.6965 191.376 54.1178 191.611 53.5153 191.611C52.9127 191.611 52.334 191.376 51.9023 190.955" stroke="#C3C3C3" stroke-width="1.74952" stroke-linecap="round" stroke-linejoin="round"/>
</g>
<path d="M12.8645 181.775C12.8645 178.223 9.98468 175.343 6.43224 175.343C2.87981 175.343 -3.8147e-06 178.223 -3.8147e-06 181.775C-3.8147e-06 185.328 2.87981 188.208 6.43224 188.208C9.98468 188.208 12.8645 185.328 12.8645 181.775Z" fill="#F3F2F2"/>
<path d="M293.053 109.734H260.12C256.568 109.734 253.688 112.614 253.688 116.166C253.688 119.719 256.568 122.599 260.12 122.599H293.053C296.606 122.599 299.485 119.719 299.485 116.166C299.485 112.614 296.606 109.734 293.053 109.734Z" fill="#EBEAEA"/>
<path d="M146.398 109.734H101.115C97.5625 109.734 94.6827 112.614 94.6827 116.166C94.6827 119.719 97.5625 122.599 101.115 122.599H146.398C149.95 122.599 152.83 119.719 152.83 116.166C152.83 112.614 149.95 109.734 146.398 109.734Z" fill="#EBEAEA"/>
<path d="M78.988 117.967C78.988 103.758 67.4687 92.2384 53.259 92.2384C39.0493 92.2384 27.53 103.758 27.53 117.967C27.53 132.177 39.0493 143.696 53.259 143.696C67.4687 143.696 78.988 132.177 78.988 117.967Z" fill="#F0EFEF"/>
<mask id="mask2_1_140" style="mask-type:luminance" maskUnits="userSpaceOnUse" x="29" y="96" width="48" height="47">
<path d="M76.1578 96.6124H29.8456V142.925H76.1578V96.6124Z" fill="white"/>
</mask>
<g mask="url(#mask2_1_140)">
<path d="M53.0017 106.988C49.7948 106.988 46.7048 108.194 44.3452 110.366C41.9856 112.538 40.5288 115.517 40.2638 118.713C39.9988 121.909 40.9448 125.088 42.9147 127.619C44.8842 130.15 47.7334 131.848 50.8966 132.376V135.201C47.0436 135.552 43.3405 136.864 40.1249 139.015C43.9353 141.565 48.4171 142.926 53.002 142.926C57.5869 142.926 62.0686 141.565 65.8791 139.015C62.6637 136.864 58.9603 135.552 55.1074 135.2V132.377C58.0909 131.879 60.8009 130.338 62.7556 128.03C64.7105 125.722 65.7831 122.795 65.7831 119.77C65.7831 116.384 64.4393 113.136 62.0467 110.74C59.6542 108.343 56.4085 106.994 53.0223 106.989C53.0156 106.989 53.0089 106.989 53.0022 106.989L53.0017 106.988Z" fill="#D5D5D5"/>
<path d="M53.1021 137.336C53.0779 137.336 53.0519 137.36 53.0038 137.36C52.9557 137.36 52.9536 137.336 52.9055 137.336H53.1021ZM47.6308 135.732C47.8052 135.682 47.9756 135.638 48.1441 135.594C48.0877 136.167 48.1081 136.744 48.204 137.312C48.5593 137.874 49.0397 138.346 49.6075 138.691C50.8927 137.488 52.9757 137.36 52.9757 137.36C52.9757 137.36 55.0809 137.476 56.384 138.701C56.9413 138.366 57.4163 137.91 57.7734 137.366C57.8779 136.781 57.9013 136.185 57.8434 135.594L58.2705 135.706C60.9895 136.338 63.5712 137.458 65.8888 139.014C62.0781 141.563 57.5964 142.924 53.0117 142.924C48.4271 142.924 43.9454 141.563 40.1346 139.014C42.4163 137.481 44.9545 136.369 47.6287 135.732H47.6308Z" fill="#D5D5D5"/>
<path d="M55.137 137.912L54.3509 139.482H51.6525L50.8665 137.912C51.547 137.625 52.2669 137.443 53.0017 137.371C53.7371 137.44 54.4575 137.622 55.137 137.912Z" fill="#AFAFAF"/>
<path d="M54.8141 142.854L54.3772 139.497H51.6767L51.2375 142.857C51.8189 142.902 52.4084 142.924 53.0017 142.924C53.5953 142.924 54.2166 142.9 54.8061 142.854H54.8141Z" fill="#AFAFAF"/>
<path d="M56.8791 133.903C56.8791 133.903 57.0515 135.868 53.0017 137.364C53.0017 137.364 56.1674 137.536 57.1258 139.721C57.1497 139.82 58.9901 135.058 56.8791 133.907V133.903Z" fill="#C3C3C3"/>
<path d="M49.1244 133.903C47.0372 135.058 48.8537 139.796 48.9039 139.717C49.836 137.556 53.0256 137.36 53.0256 137.36C48.952 135.866 49.1244 133.903 49.1244 133.903Z" fill="#C3C3C3"/>
<path d="M43.8463 103.394C42.2022 103.382 40.5494 103.931 39.2045 104.939C37.4946 106.34 36.767 108.871 36.7328 111.491C36.6919 114.594 37.0554 118.458 37.0829 121.899C37.1038 124.515 37.1902 127.109 36.4976 128.715C35.9967 129.879 34.6742 130.639 33.2506 131.183C34.8463 131.75 38.2644 131.746 39.9828 131.491C42.1482 131.173 43.4388 130.182 43.4231 126.941C43.4048 123.747 43.1444 121.08 43.1105 117.752C43.0461 115.35 42.7958 112.882 44.1082 110.938C44.9532 109.71 46.2039 108.829 47.54 108.214C48.3275 107.842 49.1514 107.551 49.9984 107.346C48.6208 104.625 46.243 103.413 43.8461 103.395L43.8463 103.394Z" fill="#AFAFAF"/>
<path d="M48.0497 111.898C50.4391 108.465 54.4644 107.244 58.0225 108.392C60.3901 109.184 62.1708 111.077 62.496 114.054C62.5981 115.299 62.6231 116.548 62.5701 117.797C62.522 120.042 62.4239 122.572 62.3496 124.629C62.1852 129.126 62.3614 131.666 67.2792 131.907C68.9961 131.971 70.7151 131.861 72.4099 131.578H72.4057C70.2525 130.9 68.8011 128.448 68.5364 126.307C68.2778 124.22 68.4142 121.61 68.3781 118.671C68.3439 115.671 68.5865 112.692 68.4342 110.232C68.1507 105.666 65.4376 102.513 61.5924 101.18C56.0164 99.7065 51.3512 101.198 49.228 104.657C48.1315 106.444 47.6761 108.681 48.0494 111.899L48.0497 111.898Z" fill="#AFAFAF"/>
<path d="M45.6298 118.867C46.0376 118.47 46.5839 118.249 47.1525 118.249C47.7211 118.249 48.2673 118.47 48.6754 118.867M57.3283 118.867C57.7361 118.47 58.2823 118.249 58.8509 118.249C59.4195 118.249 59.9658 118.47 60.3736 118.867" stroke="#C3C3C3" stroke-width="1.59517" stroke-linecap="round" stroke-linejoin="round"/>
<path d="M45.8452 121.421H47.2626M58.7449 121.421H60.1585" stroke="#C3C3C3" stroke-width="1.54369" stroke-linecap="round" stroke-linejoin="round"/>
<path d="M53.0377 128.818C54.4572 128.818 55.6662 127.83 56.1373 126.444C56.1661 126.335 56.1504 126.218 56.0938 126.12C56.037 126.022 55.9438 125.951 55.8345 125.921C55.7861 125.909 55.7359 125.905 55.6863 125.909H50.3895C50.2773 125.898 50.1654 125.933 50.0786 126.005C49.9917 126.076 49.9369 126.18 49.9263 126.292C49.9202 126.342 49.9243 126.392 49.9382 126.44C50.4075 127.83 51.6185 128.818 53.0377 128.818Z" fill="#C3C3C3"/>
</g>
<path d="M12.8645 118.225C12.8645 114.672 9.98468 111.792 6.43224 111.792C2.87981 111.792 -3.8147e-06 114.672 -3.8147e-06 118.225C-3.8147e-06 121.777 2.87981 124.657 6.43224 124.657C9.98468 124.657 12.8645 121.777 12.8645 118.225Z" fill="#EBEAEA" fill-opacity="0.8"/>
<path d="M292.539 43.6106H259.605C256.053 43.6106 253.173 46.4904 253.173 50.0429C253.173 53.5953 256.053 56.4751 259.605 56.4751H292.539C296.091 56.4751 298.971 53.5953 298.971 50.0429C298.971 46.4904 296.091 43.6106 292.539 43.6106Z" fill="#E5E5E5"/>
<path d="M119.64 45.9262H101.115C97.5625 45.9262 94.6827 48.8061 94.6827 52.3585C94.6827 55.9109 97.5625 58.7907 101.115 58.7907H119.64C123.192 58.7907 126.072 55.9109 126.072 52.3585C126.072 48.8061 123.192 45.9262 119.64 45.9262Z" fill="#E5E5E5"/>
<path d="M77.7015 53.9022C77.7015 39.6925 66.1823 28.1732 51.9725 28.1732C37.7628 28.1732 26.2436 39.6925 26.2436 53.9022C26.2436 68.112 37.7628 79.6312 51.9725 79.6312C66.1823 79.6312 77.7015 68.112 77.7015 53.9022Z" fill="#F0EFEF"/>
<mask id="mask3_1_140" style="mask-type:luminance" maskUnits="userSpaceOnUse" x="29" y="33" width="47" height="47">
<path d="M75.6432 33.0617H29.331V79.3739H75.6432V33.0617Z" fill="white"/>
</mask>
<g mask="url(#mask3_1_140)">
<path d="M52.4871 43.4377C49.2803 43.4376 46.1902 44.643 43.8306 46.815C41.471 48.9869 40.0142 51.9665 39.7492 55.1627C39.4842 58.3587 40.4303 61.5375 42.4001 64.0685C44.3696 66.5992 47.2189 68.2973 50.382 68.8253V71.6501C46.5291 72.0018 42.8259 73.3132 39.6103 75.4646C43.4207 78.0144 47.9025 79.3755 52.4874 79.3755C57.0723 79.3755 61.554 78.0144 65.3645 75.4646C62.1491 73.3132 58.4457 72.0015 54.5928 71.6498V68.8261C57.5763 68.3279 60.2864 66.7875 62.241 64.4794C64.1959 62.171 65.2685 59.2441 65.2685 56.2194C65.2685 52.8331 63.9247 49.5852 61.5322 47.1889C59.1396 44.7926 55.8939 43.4437 52.5077 43.4384C52.501 43.4383 52.4943 43.4383 52.4876 43.4384L52.4871 43.4377Z" fill="#CC985A"/>
<path d="M52.4871 43.4377C49.2803 43.4376 46.1902 44.643 43.8306 46.815C41.471 48.9869 40.0142 51.9665 39.7492 55.1627C39.4842 58.3587 40.4303 61.5375 42.4001 64.0685C44.3696 66.5992 47.2189 68.2973 50.382 68.8253V71.6501C46.5291 72.0018 42.8259 73.3132 39.6103 75.4646C43.4207 78.0144 47.9025 79.3755 52.4874 79.3755C57.0723 79.3755 61.554 78.0144 65.3645 75.4646C62.1491 73.3132 58.4457 72.0015 54.5928 71.6498V68.8261C57.5763 68.3279 60.2864 66.7875 62.241 64.4794C64.1959 62.171 65.2685 59.2441 65.2685 56.2194C65.2685 52.8331 63.9247 49.5852 61.5322 47.1889C59.1396 44.7926 55.8939 43.4437 52.5077 43.4384C52.501 43.4383 52.4943 43.4383 52.4876 43.4384L52.4871 43.4377Z" fill="#D5D5D5"/>
<path d="M47.7597 72.0391C49.492 72.9481 51.0844 74.102 52.4871 75.4654C53.8901 74.102 55.4822 72.9481 57.2146 72.0391C57.3931 72.0772 57.5714 72.1152 57.75 72.1574C60.469 72.7888 63.0504 73.9098 65.3684 75.4654C61.5574 78.0144 57.0759 79.3749 52.4913 79.3749C47.9063 79.3749 43.4249 78.0144 39.6139 75.4654C41.9318 73.9098 44.5132 72.7888 47.2325 72.1574C47.4087 72.1152 47.5894 72.0772 47.7677 72.0391H47.7597Z" fill="#C3C3C3"/>
<path d="M44.0969 73.1225C47.4229 74.7725 49.8548 76.9137 50.9676 79.3235C46.9073 79.0631 42.9882 77.7314 39.61 75.4641C41.0151 74.5214 42.5197 73.7362 44.0969 73.1225Z" fill="#D5D5D5"/>
<path d="M41.4864 74.3326C43.9626 75.5236 45.8833 77.0272 47.0179 78.7253C44.3753 78.0852 41.8672 76.9814 39.61 75.4654C40.2154 75.0643 40.8409 74.6869 41.4864 74.3326Z" fill="#C3C3C3"/>
<path d="M60.8774 73.1225C57.5493 74.7725 55.1195 76.9137 54.0067 79.3235C58.067 79.0631 61.9858 77.7314 65.3642 75.4641C63.9592 74.5214 62.4543 73.7362 60.8774 73.1225Z" fill="#D5D5D5"/>
<path d="M63.4878 74.3326C61.0119 75.5236 59.0913 77.0272 57.9563 78.7253C60.599 78.0852 63.1073 76.9814 65.3645 75.4654C64.7588 75.0643 64.1334 74.6869 63.4878 74.3326Z" fill="#C3C3C3"/>
<path d="M56.8739 35.2969C54.422 35.6897 53.1625 38.2252 48.1654 37.1999C45.9031 36.5572 44.8762 36.4835 44.0779 37.3173C43.2448 38.1871 42.6677 39.8104 42.1093 41.6691C41.6812 43.1554 41.3637 44.5522 41.1579 46.0088H63.7526C63.0533 41.1384 61.5828 37.3316 58.704 35.7718C57.996 35.4464 57.3952 35.3115 56.8737 35.2984L56.8739 35.2969Z" fill="#AFAFAF"/>
<path d="M52.2607 41.7599C48.3623 41.7776 44.5371 42.1754 41.7594 42.9025C41.5034 43.8206 41.2719 44.9412 41.1121 46.2721H63.7891C63.6211 45.067 63.4047 43.9316 63.1238 42.8791C60.0705 42.1003 56.1322 41.7424 52.2615 41.76L52.2607 41.7599Z" fill="#D5D5D5"/>
<path d="M52.4871 44.2438C40.7807 44.2438 31.2898 47.3465 31.2898 51.1746H31.296C31.296 53.4391 34.6032 55.4488 39.7418 56.7134C39.7209 55.1555 40.3006 52.322 40.799 50.4921C42.0206 50.1479 42.1881 50.1118 43.4388 49.8923C46.4207 49.3258 49.4514 49.0495 52.4871 49.0672C55.5231 49.0495 58.5538 49.3258 61.5358 49.8923C62.7862 50.1118 62.9804 50.1479 64.2021 50.4921C64.7004 52.3219 65.2801 55.1555 65.2595 56.7134C70.3978 55.4488 73.6783 53.4391 73.6783 51.1746H73.6847C73.6847 47.3467 64.1936 44.2438 52.4874 44.2438H52.4871Z" fill="#AFAFAF"/>
<path d="M43.7835 49.8097C42.3849 50.0332 41.1057 50.3823 40.0868 50.6814C39.849 52.168 39.6852 54.4621 39.7075 55.9528C40.5751 55.8267 41.7435 55.6793 42.3728 55.6227C42.2915 55.6832 42.9211 52.0486 43.7835 49.8097ZM61.1907 49.8097C62.0532 52.0486 62.6828 55.6832 62.6015 55.6227C63.2308 55.679 64.3991 55.8267 65.267 55.9528C65.2891 54.4621 65.1252 52.1679 64.8875 50.6813C63.8686 50.3823 62.5891 50.0332 61.1907 49.8097Z" fill="#D5D5D5"/>
<path d="M63.9551 51.255H62.6436C62.6156 51.235 62.5917 51.2109 62.5636 51.1949C61.6654 50.6415 58.0027 50.7718 55.8051 51.4354C55.6047 51.4956 55.4223 51.5577 55.2538 51.6239C54.8743 51.7828 54.4773 51.8965 54.071 51.9627C52.9672 52.1211 51.9854 52.1211 50.8816 51.9627C50.4754 51.8965 50.0784 51.7828 49.6989 51.6239C49.5304 51.5577 49.3459 51.4956 49.1475 51.4354C46.942 50.7718 43.2872 50.6335 42.389 51.1949C42.3615 51.2127 42.3352 51.2328 42.3108 51.255H40.9979C40.7763 51.255 40.5967 51.4345 40.5967 51.656V52.5902C40.5965 52.7871 40.6953 52.9709 40.8594 53.0794L41.2402 53.334C41.3591 53.412 41.4278 53.547 41.4208 53.6889C41.3923 54.7886 41.5973 55.8821 42.0221 56.8966C42.74 58.5767 45.23 59.082 47.0202 59.082C47.5611 59.0974 48.1014 59.0346 48.6242 58.8954C49.4964 58.6088 50.2762 57.4199 50.7193 56.4054C51.0723 55.6335 51.2704 54.7999 51.3028 53.9516C51.3028 53.8084 51.3792 53.6763 51.5033 53.6047C52.1503 53.2135 52.8224 53.2135 53.4695 53.6047C53.5935 53.6763 53.6699 53.8084 53.6699 53.9516C53.7023 54.7999 53.9004 55.6335 54.2534 56.4054C54.6965 57.4199 55.4763 58.6109 56.3485 58.8954C56.8713 59.0346 57.4117 59.0974 57.9525 59.082C59.7406 59.082 62.2328 58.5767 62.9506 56.8966C63.3754 55.8821 63.5804 54.7886 63.5519 53.6889C63.5449 53.547 63.6136 53.412 63.7325 53.334L64.1133 53.0794C64.2774 52.9709 64.3762 52.7871 64.376 52.5902V51.668C64.3827 51.4465 64.2085 51.2615 63.987 51.255H63.9551Z" fill="black" stroke="#00FFDC" stroke-width="0.643225" stroke-linecap="round" stroke-linejoin="round"/>
<path d="M63.9551 51.255H62.6436C62.6156 51.235 62.5917 51.2109 62.5636 51.1949C61.6654 50.6415 58.0027 50.7718 55.8051 51.4354C55.6047 51.4956 55.4223 51.5577 55.2538 51.6239C54.8743 51.7828 54.4773 51.8965 54.071 51.9627C52.9672 52.1211 51.9854 52.1211 50.8816 51.9627C50.4754 51.8965 50.0784 51.7828 49.6989 51.6239C49.5304 51.5577 49.3459 51.4956 49.1475 51.4354C46.942 50.7718 43.2872 50.6335 42.389 51.1949C42.3615 51.2127 42.3352 51.2328 42.3108 51.255H40.9979C40.7763 51.255 40.5967 51.4345 40.5967 51.656V52.5902C40.5965 52.7871 40.6953 52.9709 40.8594 53.0794L41.2402 53.334C41.3591 53.412 41.4278 53.547 41.4208 53.6889C41.3923 54.7886 41.5973 55.8821 42.0221 56.8966C42.74 58.5767 45.23 59.082 47.0202 59.082C47.5611 59.0974 48.1014 59.0346 48.6242 58.8954C49.4964 58.6088 50.2762 57.4199 50.7193 56.4054C51.0723 55.6335 51.2704 54.7999 51.3028 53.9516C51.3028 53.8084 51.3792 53.6763 51.5033 53.6047C52.1503 53.2135 52.8224 53.2135 53.4695 53.6047C53.5935 53.6763 53.6699 53.8084 53.6699 53.9516C53.7023 54.7999 53.9004 55.6335 54.2534 56.4054C54.6965 57.4199 55.4763 58.6109 56.3485 58.8954C56.8713 59.0346 57.4117 59.0974 57.9525 59.082C59.7406 59.082 62.2328 58.5767 62.9506 56.8966C63.3754 55.8821 63.5804 54.7886 63.5519 53.6889C63.5449 53.547 63.6136 53.412 63.7325 53.334L64.1133 53.0794C64.2774 52.9709 64.3762 52.7871 64.376 52.5902V51.668C64.3827 51.4465 64.2085 51.2615 63.987 51.255H63.9551Z" fill="#C3C3C3" stroke="#AFAFAF" stroke-width="0.643225" stroke-linecap="round" stroke-linejoin="round"/>
<path d="M53.9565 63.5125C53.5636 63.8961 53.0362 64.111 52.4871 64.111C51.9378 64.111 51.4104 63.8961 51.0175 63.5125" stroke="#C3C3C3" stroke-width="1.59509" stroke-linecap="round" stroke-linejoin="round"/>
</g>
<path d="M12.8645 54.6741C12.8645 51.1217 9.98468 48.2419 6.43224 48.2419C2.87981 48.2419 -3.8147e-06 51.1217 -3.8147e-06 54.6741C-3.8147e-06 58.2265 2.87981 61.1063 6.43224 61.1063C9.98468 61.1063 12.8645 58.2265 12.8645 54.6741Z" fill="#E5E5E5"/>
</g>
<defs>
<clipPath id="clip0_1_140">
<rect width="300" height="300" fill="white"/>
</clipPath>
</defs>
</svg>
