<svg width="50" height="50" viewBox="0 0 50 50" fill="none" xmlns="http://www.w3.org/2000/svg">
<path d="M13.5204 18.8818L24.6532 32.0618L35.9563 18.8818L31.5267 14.5195H17.95L13.5204 18.8818Z" fill="#B3B3B3"/>
<path d="M17.8953 14.5351L14.1055 18.3328H21.3367L17.8953 14.5351ZM31.6625 14.5351L35.4515 18.3328H28.2203L31.6625 14.5351Z" fill="white"/>
<path d="M24.779 14.5351L28.568 18.3328H21.3368L24.779 14.5351Z" fill="white"/>
<path d="M24.689 32.1233L21.3375 18.3333H28.2203L24.689 32.1233Z" fill="white"/>
<path d="M14.6484 25.3025L18.5788 26.7702V23.694L14.6484 25.3025ZM22.5093 25.3025L18.5788 26.7702V23.694L22.5093 25.3025Z" fill="black"/>
<path d="M18.5078 19.892L17.0172 25.232H20.1407L18.5078 19.892ZM18.5078 30.572L17.0172 25.232H20.1407L18.5078 30.572Z" fill="black"/>
<path d="M30.8437 28.054L32.9062 28.824V27.211L30.8437 28.054Z" fill="#B3B3B3"/>
<path d="M34.968 28.054L32.9055 28.824V27.211L34.968 28.054Z" fill="#B3B3B3"/>
<path d="M32.8688 25.2148L32.0868 28.0163H33.7258L32.8688 25.2148Z" fill="#B3B3B3"/>
<path d="M32.8688 30.8185L32.0868 28.017H33.7258L32.8688 30.8185Z" fill="#B3B3B3"/>
<path d="M45.5703 16.7345L37.0157 8.58073H12.4609L3.90625 16.7338V33.583L16.6281 45.8392H32.8485L45.5703 33.5845V16.7345Z" fill="#BDB9B9"/>
<path d="M45.564 10.8036L39.0922 4.70052H10.3719L3.89998 10.8036V29.7037L16.6218 41.9605H32.8422L45.564 29.7037V10.8036Z" fill="#EBE9E9"/>
<path opacity="0.3" d="M41.7672 12.7987L36.9782 8.29948H13.089L8.29997 12.7987V28.3833L18.5187 38.2295H31.5483L41.7672 28.3833V12.7987Z" fill="#C4B3B3"/>
<path d="M24.601 33.8475C24.2957 33.8877 23.9842 33.8015 23.7662 33.6085C23.1372 33.0515 21.6018 31.9157 19.3843 31.74C19.3843 31.74 18.323 31.7122 17.906 31.224C17.906 31.224 15.4775 28.2452 16.4153 25.046C16.4657 24.8743 16.7087 24.8137 16.8513 24.9383C17.004 25.0713 17.201 25.2217 17.4095 25.3245C17.6383 25.4373 17.9178 25.4272 18.1373 25.3007C18.4107 25.143 18.8462 24.8707 19.2248 24.5392C19.7972 24.0378 20.053 23.299 19.8075 22.621C19.6552 22.1998 19.3133 21.778 18.583 21.5918C18.4198 21.5503 18.3263 21.4048 18.3787 21.2623C18.5682 20.7452 19.0385 19.6048 19.7228 18.902C19.8297 18.7922 19.981 18.7248 20.145 18.7195C20.8627 18.6965 23.0905 18.4973 24.3755 16.947C24.5583 16.7265 24.7045 16.4812 24.7832 16.217C24.945 15.6733 24.9328 14.8073 23.4027 14.5048C23.4027 14.5048 21.5767 14.1391 22.4928 12.3629C22.4928 12.3629 22.954 11.3448 24.0777 10.7292C24.254 10.6327 24.4735 10.7853 24.406 10.9583C24.26 11.332 24.1007 11.8626 24.1547 12.2975C24.1982 12.6484 24.4965 12.9325 24.8868 13.0089C25.671 13.1624 27.8823 13.8001 27.8272 16.1079C27.8223 16.3119 27.67 16.488 27.4547 16.562C26.8517 16.7692 25.7383 17.4755 26.4775 19.8097C26.4775 19.8097 26.9417 21.17 28.2597 21.2192C29.101 21.2505 29.2115 20.6448 29.2152 20.347C29.2162 20.2647 29.3008 20.2042 29.391 20.2248C30.1528 20.3988 33.0187 21.2237 33.198 23.8087C33.2148 24.0502 33.1178 24.2895 32.9342 24.469C32.2675 25.1205 30.7847 26.8938 32.3723 28.5385C32.6018 28.7762 32.6483 29.1113 32.51 29.3987C31.9932 30.472 30.4183 32.846 26.3752 33.6142L24.601 33.8475Z" fill="#A1A1A1"/>
<path d="M29.8175 18.6597C29.8175 19.0218 29.5723 19.3155 29.1622 19.3155C28.7518 19.3155 28.4193 19.0218 28.4193 18.6597C28.4193 18.2975 28.7518 18.0038 29.1622 18.0038C29.5723 18.0038 29.8175 18.2975 29.8175 18.6597Z" fill="#BAB5B5"/>
<path d="M24.1385 21.4607C23.8733 21.7823 23.5663 22.2062 23.4073 22.6062C23.3832 22.6668 23.3763 22.7318 23.3875 22.7953C23.3985 22.859 23.4272 22.9192 23.4708 22.9707C23.7373 23.2852 24.1545 24.1117 22.4075 25.1045C22.4075 25.1045 20.7618 25.8537 20.7362 27.3747C20.7362 27.3747 20.7643 30.1488 23.76 30.8037C24.2195 30.9042 24.6958 30.9275 25.1687 30.9058C25.6113 30.8853 26.2078 30.8315 26.7238 30.6935C26.9463 30.634 27.1373 30.5093 27.2808 30.3478C27.532 30.066 27.9988 29.5828 28.5117 29.2588C28.7545 29.1052 28.934 28.8882 29.0038 28.6317C29.1657 28.0368 29.2842 26.9392 28.4278 25.9193C28.3515 25.8282 28.1937 25.8287 28.1275 25.9258C27.9652 26.1637 27.6242 26.5122 27.0447 26.4472C26.5033 26.3865 26.0518 25.8993 26.0487 25.4173C26.0467 25.0955 26.1763 24.774 26.6797 24.7203C26.8383 24.7035 26.928 24.549 26.8558 24.4232C26.6737 24.1067 26.2533 23.609 25.3278 23.3077C24.8707 23.1587 24.5082 22.8295 24.4142 22.4073C24.3645 22.1837 24.354 21.9058 24.4218 21.566C24.4508 21.4203 24.237 21.3413 24.1385 21.4607ZM23.8683 19.9323C23.8683 20.1723 23.541 20.4518 23.2692 20.4518C22.9973 20.4518 22.777 20.2572 22.777 20.0173C22.777 19.7773 23.1685 19.4128 23.4403 19.4128C23.7122 19.4128 23.8683 19.6923 23.8683 19.9323Z" fill="#C3C3C3"/>
<path d="M25.9437 29.5977C25.5863 29.8992 25.1485 29.9448 24.5847 29.9148C23.9967 29.8833 23.2043 29.5265 22.993 28.7565C22.993 28.7565 22.8668 28.2712 23.0488 27.7877C23.1817 27.4347 23.5088 27.1713 23.8962 27.0248C24.106 26.9455 24.3978 26.7747 24.4678 26.427C24.4917 26.3092 24.6488 26.2513 24.7655 26.3123C24.9805 26.4245 25.2598 26.613 25.3935 26.881C25.3935 26.881 25.5533 27.303 25.9095 27.5615C26.2392 27.8008 26.4635 28.1417 26.449 28.5182C26.4353 28.8712 26.3197 29.2803 25.9437 29.5977Z" fill="#BAB5B5"/>
<path d="M23.4895 26.293C23.633 26.293 23.7492 26.1903 23.7492 26.0638C23.7492 25.9372 23.633 25.8347 23.4895 25.8347C23.3462 25.8347 23.23 25.9372 23.23 26.0638C23.23 26.1903 23.3462 26.293 23.4895 26.293Z" fill="#BAB5B5"/>
<path d="M28.038 24.4167C28.1997 24.4167 28.3307 24.301 28.3307 24.1582C28.3307 24.0155 28.1997 23.8997 28.038 23.8997C27.8763 23.8997 27.7452 24.0155 27.7452 24.1582C27.7452 24.301 27.8763 24.4167 28.038 24.4167Z" fill="#BAB5B5"/>
</svg>
