<svg width="94" height="84" viewBox="0 0 94 84" fill="none" xmlns="http://www.w3.org/2000/svg">
<g clip-path="url(#clip0_82_49)">
<path d="M43.9712 9.5C46.3627 8.11929 50.24 8.11929 52.6315 9.5L91.6026 32C93.9941 33.3807 93.9941 35.6193 91.6026 37L52.6315 59.5C50.24 60.8807 46.3627 60.8807 43.9712 59.5L5.00006 37C2.6086 35.6193 2.6086 33.3807 5.00006 32L43.9712 9.5Z" fill="white" stroke="black"/>
<rect width="45" height="14" transform="matrix(0.866025 0.5 0 1 5.00006 37)" fill="black"/>
<rect width="45" height="14" transform="matrix(0.866025 -0.5 0 1 52.6315 59.5)" fill="black"/>
<path d="M3.20642 34.5C3.20642 35.4763 3.89184 36.3602 5.00002 37V51C3.89184 50.3602 3.20642 49.4763 3.20642 48.5V34.5Z" fill="black"/>
<path d="M43.9712 59.5C46.3627 60.8807 50.24 60.8807 52.6314 59.5V73.5C50.24 74.8807 46.3627 74.8807 43.9712 73.5V59.5Z" fill="black"/>
<path d="M93.3962 34.5C93.3962 35.4763 92.7108 36.3602 91.6026 37V51C92.7108 50.3602 93.3962 49.4763 93.3962 48.5V34.5Z" fill="#051950"/>
<path d="M44.3298 11.5501C46.7047 10.1412 50.5553 10.1412 52.9302 11.5501L76.9598 25.8059C79.3347 27.2148 79.3347 29.4992 76.9598 30.9081L52.9302 45.1638C50.5553 46.5728 46.7047 46.5728 44.3298 45.1638L20.3002 30.9081C17.9253 29.4992 17.9253 27.2148 20.3002 25.8059L44.3298 11.5501Z" fill="white" stroke="black"/>
<rect width="31.0419" height="9.85496" transform="matrix(0.860041 0.510225 0 1 18.9664 30.1172)" fill="black"/>
<rect width="31.0419" height="9.85496" transform="matrix(0.860041 -0.510225 0 1 51.5964 45.9551)" fill="black"/>
<path d="M17.7377 28.3574C17.7377 29.0447 18.2072 29.6669 18.9664 30.1172V39.9722C18.2072 39.5218 17.7377 38.8996 17.7377 38.2124V28.3574Z" fill="black"/>
<path d="M45.6636 45.9551C47.3019 46.927 49.9581 46.927 51.5964 45.9551V55.81C49.9581 56.782 47.3019 56.782 45.6636 55.81V45.9551Z" fill="black"/>
<path d="M79.5223 28.3574C79.5223 29.0447 79.0528 29.6669 78.2936 30.1172V39.9722C79.0528 39.5218 79.5223 38.8996 79.5223 38.2124V28.3574Z" fill="#051950"/>
</g>
<defs>
<clipPath id="clip0_82_49">
<rect width="94" height="84" fill="white"/>
</clipPath>
</defs>
</svg>
