<svg width="50" height="50" viewBox="0 0 50 50" fill="none" xmlns="http://www.w3.org/2000/svg">
<g clip-path="url(#clip0_2_313)">
<path d="M22.5674 18.3682C23.9031 17.693 26.0688 17.693 27.4046 18.3682L48.9588 29.2625C50.2947 29.9376 50.2947 31.0322 48.9588 31.7073L27.4046 42.6015C26.0688 43.2768 23.9031 43.2768 22.5674 42.6015L1.01305 31.7073C-0.322712 31.0322 -0.322712 29.9376 1.01306 29.2625L22.5674 18.3682Z" fill="#F3BF2F"/>
<path d="M22.5868 42.6114L0.993713 31.6975V38.4882L22.5868 49.4022V42.6114Z" fill="#F9A723" fill-opacity="0.64"/>
<path d="M48.9784 31.6975L27.3852 42.6114V49.4022L48.9784 38.4882V31.6975Z" fill="#F9A723" fill-opacity="0.65"/>
<path d="M0 30.4848C0 30.9583 0.379777 31.3871 0.993794 31.6975V38.4882C0.379777 38.1779 0 37.7493 0 37.2757V30.4848Z" fill="#F9A723" fill-opacity="0.64"/>
<path d="M22.5868 42.6114C23.9119 43.2812 26.0602 43.2812 27.3853 42.6114V49.4022C26.0602 50.072 23.9119 50.072 22.5868 49.4022V42.6114Z" fill="#F9A723" fill-opacity="0.65"/>
<path d="M49.972 30.4848C49.972 30.9583 49.5922 31.3871 48.9784 31.6975V38.4882C49.5922 38.1779 49.972 37.7493 49.972 37.2757V30.4848Z" fill="#F9A723" fill-opacity="0.64"/>
<path d="M13.9893 35.6952C20.3496 39.0177 30.6616 39.0177 37.022 35.6952C43.3823 32.3727 43.3823 26.9857 37.022 23.6632C30.6616 20.3406 20.3496 20.3406 13.9893 23.6632C7.62905 26.9857 7.62905 32.3727 13.9893 35.6952Z" fill="#E3B316"/>
<path d="M35.8847 34.1912C37.145 33.5329 38.1447 32.7513 38.8266 31.8911C39.5088 31.0309 39.8599 30.1089 39.8599 29.1779C39.8599 28.2468 39.5088 27.3248 38.8266 26.4646C38.1447 25.6044 37.145 24.8228 35.8847 24.1645C34.6243 23.5061 33.1281 22.9839 31.4815 22.6276C29.8349 22.2713 28.07 22.0879 26.2877 22.0879C24.5054 22.0879 22.7405 22.2713 21.0939 22.6276C19.4472 22.9839 17.951 23.5061 16.6908 24.1645L20.133 25.9626C20.9412 25.5404 21.9007 25.2055 22.9568 24.977C24.0128 24.7485 25.1447 24.6309 26.2877 24.6309C27.4307 24.6309 28.5626 24.7485 29.6186 24.977C30.6747 25.2055 31.6342 25.5404 32.4425 25.9626C33.2507 26.3848 33.8918 26.8861 34.3293 27.4378C34.7667 27.9895 34.9918 28.5807 34.9918 29.1779C34.9918 29.775 34.7667 30.3662 34.3293 30.9179C33.8918 31.4696 33.2507 31.9708 32.4425 32.3931L35.8847 34.1912Z" fill="#F8D678"/>
<path d="M34.9434 34.6925C33.6831 35.3509 32.1869 35.8732 30.5403 36.2294C28.8936 36.5857 27.1288 36.7691 25.3464 36.7691C23.5641 36.7691 21.7993 36.5857 20.1527 36.2294C18.506 35.8732 17.0098 35.3509 15.7495 34.6925C14.4893 34.0342 13.4896 33.2526 12.8075 32.3924C12.1254 31.5322 11.7744 30.6102 11.7744 29.6792C11.7744 28.7481 12.1254 27.8261 12.8075 26.9659C13.4896 26.1057 14.4893 25.3241 15.7495 24.6658L19.1917 26.464C18.3835 26.8862 17.7423 27.3875 17.3049 27.9391C16.8674 28.4908 16.6423 29.082 16.6423 29.6792C16.6423 30.2763 16.8674 30.8675 17.3049 31.4192C17.7423 31.9709 18.3835 32.4722 19.1917 32.8944C20 33.3166 20.9595 33.6515 22.0156 33.88C23.0716 34.1085 24.2034 34.2261 25.3464 34.2261C26.4895 34.2261 27.6214 34.1085 28.6774 33.88C29.7334 33.6515 30.693 33.3166 31.5012 32.8944L34.9434 34.6925Z" fill="#F8D678"/>
<path d="M36.0638 3.89985C29.6289 13.2894 22.8849 11.7706 16.1856 1.64985C16.6434 1.15225 17.0975 0.654651 17.5515 0.161378C17.7153 -0.0160269 17.9572 -0.0506426 18.1508 0.0748394C19.5018 0.961864 20.8156 1.92245 22.0922 2.95659C23.3874 4.00805 24.6044 5.21092 25.5944 6.63882C25.6987 6.78596 25.8773 6.82055 26.0113 6.70805C28.5087 4.66573 31.3596 3.10803 34.285 2.08687C34.5045 2.00899 34.739 2.11716 34.8581 2.34216C35.1745 2.9263 35.6248 3.56236 36.0638 3.89985Z" fill="#00C99A"/>
<path d="M27.7317 7.37128C30.3692 6.19117 33.0858 5.03305 35.7301 3.85661C35.8915 3.7833 36.0667 3.91889 36.0564 4.10948L35.0639 18.3587C35.0399 18.6996 34.8373 18.9964 34.5385 19.1247C31.791 20.3012 29.0065 20.908 26.2831 22.0588C24.9781 22.0405 23.6662 21.9598 22.4298 21.575C20.0602 19.9075 17.6314 18.8205 15.2686 17.142C15.0111 16.9587 14.8668 16.6399 14.8978 16.3137L16.1615 1.80058C16.1787 1.61 16.3814 1.50739 16.529 1.61733C18.8128 3.28854 21.1653 4.9561 23.4423 6.62731C24.6683 7.38595 26.0901 7.65349 27.7317 7.37128Z" fill="#0CF1BB"/>
<path d="M27.8451 7.25036C30.4826 6.07025 33.1991 4.91213 35.8436 3.73569C36.005 3.66238 36.1802 3.79797 36.1699 3.98856L35.1773 18.2378C35.1533 18.5786 34.9506 18.8755 34.6518 19.0038C31.9044 20.1802 29.1199 20.7871 26.3965 21.9379C25.0914 21.9196 23.7795 21.8389 22.5432 21.4541C20.1735 19.7866 17.7448 18.6996 15.382 17.0211C15.1244 16.8378 14.9802 16.519 15.0111 16.1928L16.2749 1.67965C16.2921 1.48908 16.4947 1.38646 16.6424 1.49641C18.9262 3.16762 21.2787 4.83514 23.5556 6.50636C24.7817 7.265 26.2035 7.53253 27.8451 7.25036Z" fill="#0CF1BB"/>
<path d="M21.6708 14.2716C21.6708 12.0004 23.4468 10.1592 25.6374 10.1592C27.8281 10.1592 29.6041 12.0004 29.6041 14.2716V17.1941H21.6708V14.2716Z" fill="white"/>
<path d="M23.9375 14.4082H27.3374V17.2222H23.9375V14.4082Z" fill="black"/>
<path d="M21.9858 29.4118L24.5275 31.0221C24.8786 31.2446 25.3381 31.1115 25.5272 30.7325L27.8369 26.1029" stroke="white" stroke-width="4"/>
</g>
<defs>
<clipPath id="clip0_2_313">
<rect width="50" height="50" fill="white"/>
</clipPath>
</defs>
</svg>
