<svg width="50" height="50" viewBox="0 0 50 50" fill="none" xmlns="http://www.w3.org/2000/svg">
<path d="M22.5674 19.1528C23.9032 18.5226 26.0688 18.5226 27.4046 19.1528L48.9589 29.3218C50.2947 29.9519 50.2947 30.9737 48.9589 31.6039L27.4046 41.7728C26.0688 42.4029 23.9032 42.4029 22.5674 41.7728L1.01312 31.6039C-0.322651 30.9737 -0.322651 29.9519 1.01312 29.3218L22.5674 19.1528Z" fill="#DAD3D3"/>
<path d="M22.5868 41.7817L0.993713 31.5947V37.9334L22.5868 48.1208V41.7817Z" fill="#ACA3A3"/>
<path d="M48.9784 31.595L27.3852 41.7821V48.1208L48.9784 37.9338V31.595Z" fill="#ACA3A3"/>
<path d="M0 30.4629C0 30.9049 0.379777 31.3052 0.993794 31.5949V37.9334C0.379777 37.6438 0 37.2437 0 36.8016V30.4629Z" fill="#ACA3A3"/>
<path d="M22.5868 41.7821C23.9119 42.4073 26.0602 42.4073 27.3853 41.7821V48.1208C26.0602 48.7461 23.9119 48.7461 22.5868 48.1208V41.7821Z" fill="#ACA3A3"/>
<path d="M49.972 30.4629C49.972 30.9049 49.5922 31.3052 48.9784 31.5949V37.9334C49.5922 37.6438 49.972 37.2437 49.972 36.8016V30.4629Z" fill="#ACA3A3"/>
<path d="M13.9893 35.3263C20.3496 38.4276 30.6616 38.4276 37.022 35.3263C43.3823 32.2249 43.3823 27.1966 37.022 24.0953C30.6616 20.9939 20.3496 20.9939 13.9893 24.0953C7.62905 27.1966 7.62905 32.2249 13.9893 35.3263Z" fill="#EFEDED"/>
<path d="M35.8848 33.9225C37.145 33.308 38.1447 32.5784 38.8266 31.7755C39.5089 30.9726 39.8599 30.112 39.8599 29.2429C39.8599 28.3738 39.5089 27.5132 38.8266 26.7103C38.1447 25.9074 37.145 25.1778 35.8848 24.5633C34.6244 23.9488 33.1282 23.4613 31.4816 23.1287C29.8349 22.7962 28.07 22.6249 26.2877 22.6249C24.5054 22.6249 22.7405 22.7962 21.0939 23.1287C19.4473 23.4613 17.9511 23.9488 16.6909 24.5633L20.133 26.2417C20.9412 25.8476 21.9008 25.535 22.9568 25.3217C24.0128 25.1084 25.1447 24.9987 26.2877 24.9987C27.4308 24.9987 28.5626 25.1084 29.6187 25.3217C30.6747 25.535 31.6342 25.8476 32.4425 26.2417C33.2507 26.6359 33.8918 27.1038 34.3293 27.6187C34.7667 28.1337 34.9919 28.6855 34.9919 29.2429C34.9919 29.8003 34.7667 30.3522 34.3293 30.8671C33.8918 31.3821 33.2507 31.85 32.4425 32.2441L35.8848 33.9225Z" fill="#E7E1E1"/>
<path d="M34.9434 34.3904C33.6831 35.0049 32.1869 35.4924 30.5403 35.825C28.8937 36.1575 27.1288 36.3288 25.3465 36.3288C23.5642 36.3288 21.7993 36.1575 20.1526 35.825C18.5061 35.4924 17.0098 35.0049 15.7496 34.3904C14.4893 33.7758 13.4896 33.0463 12.8075 32.2434C12.1254 31.4405 11.7744 30.5799 11.7744 29.7108C11.7744 28.8417 12.1254 27.9811 12.8075 27.1782C13.4896 26.3753 14.4893 25.6457 15.7496 25.0312L19.1917 26.7096C18.3835 27.1037 17.7424 27.5716 17.3049 28.0866C16.8675 28.6015 16.6423 29.1534 16.6423 29.7108C16.6423 30.2682 16.8675 30.82 17.3049 31.335C17.7424 31.8499 18.3835 32.3178 19.1917 32.7119C20 33.106 20.9595 33.4187 22.0156 33.6319C23.0716 33.8452 24.2035 33.955 25.3465 33.955C26.4895 33.955 27.6214 33.8452 28.6774 33.6319C29.7334 33.4187 30.693 33.106 31.5012 32.7119L34.9434 34.3904Z" fill="#E7E1E1"/>
<g filter="url(#filter0_g_1_249)">
<path d="M21.4376 31.4656C23.9552 32.6932 27.9297 32.7456 30.3148 31.5826C32.6999 30.4196 32.5925 28.4816 30.0749 27.254C27.5572 26.0264 23.5828 25.974 21.1977 27.137C18.8126 28.3 18.92 30.238 21.4376 31.4656Z" fill="#D8C8C8"/>
</g>
<path d="M34.766 7.04314C28.7255 15.0358 22.395 13.743 16.1064 5.12783C16.5361 4.70425 16.9624 4.28067 17.3886 3.86078C17.5423 3.70976 17.7694 3.6803 17.9511 3.78711C19.2193 4.54218 20.4525 5.35988 21.6508 6.24019C22.8666 7.13521 24.009 8.15916 24.9384 9.37464C25.0362 9.49986 25.2039 9.52934 25.3296 9.43356C27.6739 7.69506 30.35 6.36908 33.096 5.49983C33.3022 5.43353 33.5223 5.5256 33.634 5.71716C33.931 6.21438 34.3538 6.75583 34.766 7.04314Z" fill="#00C99A"/>
<path d="M26.9446 9.99828C29.4204 8.99372 31.9704 8.00789 34.4527 7.00645C34.6042 6.94406 34.7686 7.05947 34.7589 7.22172L33.8273 19.3512C33.8047 19.6414 33.6145 19.8941 33.3341 20.0033C30.755 21.0047 28.1413 21.5213 25.5848 22.5009C24.3598 22.4853 23.1284 22.4166 21.9678 22.0891C19.7434 20.6696 17.4636 19.7443 15.2457 18.3155C15.0039 18.1595 14.8685 17.8881 14.8976 17.6104L16.0839 5.25628C16.1 5.09406 16.2902 5.00669 16.4288 5.10031C18.5726 6.52289 20.7809 7.94238 22.9182 9.36496C24.0691 10.0107 25.4037 10.2385 26.9446 9.99828Z" fill="#0CF1BB"/>
<path d="M26.9446 9.99828C29.4204 8.99372 31.9704 8.00789 34.4527 7.00645C34.6042 6.94406 34.7686 7.05947 34.7589 7.22172L33.8273 19.3512C33.8047 19.6414 33.6145 19.8941 33.3341 20.0033C30.755 21.0047 28.1413 21.5213 25.5848 22.5009C24.3598 22.4853 23.1284 22.4166 21.9678 22.0891C19.7434 20.6696 17.4636 19.7443 15.2457 18.3155C15.0039 18.1595 14.8685 17.8881 14.8976 17.6104L16.0839 5.25628C16.1 5.09406 16.2902 5.00669 16.4288 5.10031C18.5726 6.52289 20.7809 7.94238 22.9182 9.36496C24.0691 10.0107 25.4037 10.2385 26.9446 9.99828Z" fill="#0CF1BB"/>
<path d="M21.2554 15.9747C21.2554 13.9846 22.9224 12.3714 24.9788 12.3714C27.0352 12.3714 28.7022 13.9846 28.7022 15.9747V18.3598H21.2554V15.9747Z" fill="white"/>
<path d="M25.4681 15.9884H28.6596V18.3838H25.4681V15.9884Z" fill="black"/>
<defs>
<filter id="filter0_g_1_249" x="11.179" y="18" width="29.1545" height="22.7196" filterUnits="userSpaceOnUse" color-interpolation-filters="sRGB">
<feFlood flood-opacity="0" result="BackgroundImageFix"/>
<feBlend mode="normal" in="SourceGraphic" in2="BackgroundImageFix" result="shape"/>
<feTurbulence type="fractalNoise" baseFrequency="3.1333334445953369 3.1333334445953369" numOctaves="3" seed="7574" />
<feDisplacementMap in="shape" scale="16.595745086669922" xChannelSelector="R" yChannelSelector="G" result="displacedImage" width="100%" height="100%" />
<feMerge result="effect1_texture_1_249">
<feMergeNode in="displacedImage"/>
</feMerge>
</filter>
</defs>
</svg>
