<svg width="50" height="50" viewBox="0 0 50 50" fill="none" xmlns="http://www.w3.org/2000/svg">
<path d="M22.5674 10.0926C23.9032 9.44145 26.0688 9.44145 27.4046 10.0926L48.9589 20.6006C50.2947 21.2517 50.2947 22.3076 48.9589 22.9588L27.4046 33.4667C26.0688 34.1179 23.9032 34.1179 22.5674 33.4667L1.01311 22.9588C-0.322651 22.3076 -0.322651 21.2517 1.01312 20.6006L22.5674 10.0926Z" fill="#F3BF2F"/>
<path d="M22.5868 33.476L0.993713 22.9492V29.4993L22.5868 40.0261V33.476Z" fill="#F9A723" fill-opacity="0.64"/>
<path d="M48.9784 22.9495L27.3852 33.4763V40.0264L48.9784 29.4996V22.9495Z" fill="#F9A723" fill-opacity="0.65"/>
<path d="M0 21.7798C0 22.2365 0.379777 22.6501 0.993794 22.9494V29.4995C0.379777 29.2001 0 28.7866 0 28.3298V21.7798Z" fill="#F9A723" fill-opacity="0.64"/>
<path d="M22.5868 33.4763C23.9118 34.1223 26.0602 34.1223 27.3852 33.4763V40.0264C26.0602 40.6723 23.9118 40.6723 22.5868 40.0264V33.4763Z" fill="#F9A723" fill-opacity="0.65"/>
<path d="M49.972 21.7798C49.972 22.2365 49.5922 22.6501 48.9784 22.9494V29.4995C49.5922 29.2001 49.972 28.7866 49.972 28.3298V21.7798Z" fill="#F9A723" fill-opacity="0.64"/>
<path d="M13.9893 26.8053C20.3496 30.01 30.6616 30.01 37.022 26.8053C43.3823 23.6005 43.3823 18.4046 37.022 15.1999C30.6616 11.9951 20.3496 11.9951 13.9893 15.1999C7.62905 18.4046 7.62905 23.6005 13.9893 26.8053Z" fill="#E3B316"/>
<path d="M35.8848 25.3547C37.145 24.7197 38.1447 23.9658 38.8266 23.1361C39.5089 22.3064 39.8599 21.4172 39.8599 20.5191C39.8599 19.621 39.5089 18.7318 38.8266 17.9021C38.1447 17.0724 37.145 16.3185 35.8848 15.6835C34.6244 15.0485 33.1282 14.5448 31.4816 14.2011C29.8349 13.8574 28.0701 13.6805 26.2878 13.6805C24.5055 13.6805 22.7405 13.8574 21.0939 14.2011C19.4473 14.5448 17.9511 15.0485 16.6909 15.6835L20.133 17.4179C20.9412 17.0106 21.9008 16.6876 22.9568 16.4672C24.0128 16.2468 25.1447 16.1334 26.2878 16.1334C27.4307 16.1334 28.5626 16.2468 29.6187 16.4672C30.6747 16.6876 31.6342 17.0106 32.4425 17.4179C33.2507 17.8251 33.8919 18.3087 34.3293 18.8407C34.7667 19.3729 34.9919 19.9431 34.9919 20.5191C34.9919 21.0951 34.7667 21.6653 34.3293 22.1974C33.8919 22.7295 33.2507 23.2131 32.4425 23.6203L35.8848 25.3547Z" fill="#F8D678"/>
<path d="M34.9434 25.8382C33.6831 26.4732 32.1869 26.9769 30.5403 27.3205C28.8937 27.6642 27.1288 27.8411 25.3465 27.8411C23.5642 27.8411 21.7993 27.6642 20.1526 27.3205C18.5061 26.9769 17.0099 26.4732 15.7496 25.8382C14.4893 25.2031 13.4896 24.4493 12.8075 23.6196C12.1254 22.7899 11.7744 21.9006 11.7744 21.0025C11.7744 20.1045 12.1254 19.2152 12.8075 18.3855C13.4896 17.5558 14.4893 16.8019 15.7496 16.1669L19.1917 17.9013C18.3835 18.3086 17.7424 18.7921 17.3049 19.3242C16.8675 19.8563 16.6424 20.4266 16.6424 21.0025C16.6424 21.5785 16.8675 22.1488 17.3049 22.6809C17.7424 23.213 18.3835 23.6965 19.1917 24.1038C20 24.511 20.9595 24.834 22.0156 25.0544C23.0716 25.2748 24.2035 25.3883 25.3465 25.3883C26.4895 25.3883 27.6214 25.2748 28.6774 25.0544C29.7334 24.834 30.693 24.511 31.5012 24.1038L34.9434 25.8382Z" fill="#F8D678"/>
<path d="M21.9858 20.7447L24.5274 22.2979C24.8786 22.5125 25.3381 22.3841 25.5272 22.0185L27.8369 17.5532" stroke="white" stroke-width="2.7234"/>
</svg>
