<svg width="50" height="50" viewBox="0 0 50 50" fill="none" xmlns="http://www.w3.org/2000/svg">
<g clip-path="url(#clip0_2_366)">
<path d="M10.9375 19.5312C10.9375 30.318 19.682 39.0625 30.4688 39.0625C41.2555 39.0625 50 30.318 50 19.5312C50 8.74444 41.2555 -9.09263e-07 30.4688 0C19.682 9.0926e-07 10.9375 8.74444 10.9375 19.5312Z" fill="#CCCCCC"/>
<path fill-rule="evenodd" clip-rule="evenodd" d="M30.4688 34.375C22.2707 34.375 15.625 27.7293 15.625 19.5312C15.625 11.3332 22.2707 4.6875 30.4688 4.6875C38.6668 4.6875 45.3125 11.3332 45.3125 19.5312C45.3125 27.7293 38.6668 34.375 30.4688 34.375ZM30.4688 39.0625C19.682 39.0625 10.9375 30.318 10.9375 19.5312C10.9375 8.74444 19.682 9.0926e-07 30.4688 0C41.2555 -9.09263e-07 50 8.74444 50 19.5312C50 30.318 41.2555 39.0625 30.4688 39.0625Z" fill="#999999"/>
<path fill-rule="evenodd" clip-rule="evenodd" d="M15.2787 38.1232L20.7493 32.6526L17.4347 29.3381L11.9642 34.8086L15.2787 38.1232Z" fill="#999999"/>
<path fill-rule="evenodd" clip-rule="evenodd" d="M7.95828 49.7567L15.801 41.9138C17.0215 40.6935 17.0215 38.7149 15.801 37.4945L12.4865 34.1799C11.2661 32.9596 9.28747 32.9596 8.06708 34.1799L0.224304 42.0227L7.95828 49.7567Z" fill="#141414"/>
<path fill-rule="evenodd" clip-rule="evenodd" d="M6.98279 44.4232L12.6743 38.7318L9.35974 35.4172L3.66821 41.1088L6.98279 44.4232Z" fill="#333333"/>
<path fill-rule="evenodd" clip-rule="evenodd" d="M16.9128 25.5877L36.5252 5.97534C39.9319 7.49963 42.659 10.2703 44.1266 13.7075L24.645 33.1891C21.2078 31.7215 18.4371 28.9944 16.9128 25.5877Z" fill="#E5E5E5"/>
</g>
<defs>
<clipPath id="clip0_2_366">
<rect width="50" height="50" fill="white"/>
</clipPath>
</defs>
</svg>
