<svg width="50" height="50" viewBox="0 0 50 50" fill="none" xmlns="http://www.w3.org/2000/svg">
<path d="M16.6672 3.93624C16.6672 2.6943 17.674 1.6875 18.916 1.6875H31.0851C32.3272 1.6875 33.3338 2.69429 33.3338 3.93624V7.3125H16.6672V3.93624Z" fill="url(#paint0_linear_130_11)"/>
<rect x="10" y="6" width="30" height="40" rx="5" fill="url(#paint1_linear_130_11)"/>
<path d="M23.1036 22.6639C21.8616 21.4506 21.7949 19.4331 22.9546 18.16C24.1142 16.887 26.063 16.8386 27.305 18.0519C28.547 19.2654 28.6138 21.2829 27.4542 22.5559L25.3534 24.8619L23.1036 22.6639ZM20.8175 16.0722C18.5555 18.5551 18.6857 22.4879 21.1081 24.8544L25.495 29.1401L29.5913 24.6437C31.8531 22.1608 31.7229 18.2281 29.3005 15.8616C26.8781 13.495 23.0793 13.5893 20.8175 16.0722Z" fill="white"/>
<path d="M27.3904 30.6245C28.6324 31.8378 28.6992 33.8554 27.5396 35.1285C26.3799 36.4014 24.431 36.4498 23.189 35.2365C21.947 34.0231 21.8803 32.0055 23.0399 30.7325L25.1406 28.4265L27.3904 30.6245ZM29.6767 37.2162C31.9385 34.7333 31.8083 30.8007 29.3859 28.4341L24.999 24.1483L20.9028 28.6447C18.641 31.1276 18.7711 35.0603 21.1936 37.4269C23.616 39.7934 27.4148 39.6992 29.6767 37.2162Z" fill="white"/>
<defs>
<linearGradient id="paint0_linear_130_11" x1="30.5" y1="4" x2="17" y2="4.5" gradientUnits="userSpaceOnUse">
<stop stop-color="#26FF55"/>
<stop offset="0.17" stop-color="#26DE85"/>
<stop offset="0.62" stop-color="#268AFF"/>
<stop offset="1" stop-color="#FC55FF"/>
</linearGradient>
<linearGradient id="paint1_linear_130_11" x1="25" y1="6" x2="25" y2="46" gradientUnits="userSpaceOnUse">
<stop stop-color="#26FF55"/>
<stop offset="0.17" stop-color="#26EF6D"/>
<stop offset="0.62" stop-color="#268AFF"/>
<stop offset="1" stop-color="#FC55FF"/>
</linearGradient>
</defs>
</svg>
