<svg width="60" height="60" viewBox="0 0 60 60" fill="none" xmlns="http://www.w3.org/2000/svg">
<path d="M59.9999 10.6077C41.7619 36.1473 22.6484 32.0163 3.6615 4.48763C4.95894 3.13414 6.24583 1.78066 7.53272 0.438952C7.99684 -0.0435936 8.68248 -0.137749 9.23099 0.203564C13.06 2.61629 16.7836 5.2291 20.4016 8.04199C24.0724 10.9019 27.5217 14.1738 30.3276 18.0577C30.6229 18.4579 31.1292 18.5521 31.509 18.2461C38.5869 12.6909 46.6668 8.45391 54.9578 5.67634C55.5801 5.46449 56.2447 5.75872 56.5822 6.37073C57.4788 7.9596 58.7552 9.6897 59.9999 10.6077Z" fill="url(#paint0_linear_132_70)"/>
<path d="M36.3851 20.0496C43.8603 16.8397 51.5594 13.6896 59.054 10.4897C59.5115 10.2903 60.0079 10.6591 59.9787 11.1775L57.1657 49.9357C57.0976 50.8628 56.5233 51.6703 55.6765 52.0192C47.8899 55.2191 39.9981 56.8698 32.2796 60C28.5809 59.9501 24.8628 59.7308 21.3588 58.6841C14.6428 54.1484 7.75944 51.1918 1.06292 46.6261C0.332917 46.1277 -0.0758825 45.2604 0.0117174 44.3732L3.59358 4.89723C3.64224 4.37885 4.21651 4.09973 4.63504 4.39879C11.1077 8.94451 17.775 13.4803 24.2282 18.026C27.703 20.0895 31.7326 20.8172 36.3851 20.0496Z" fill="url(#paint1_linear_132_70)"/>
<path d="M36.3851 19.7735C43.8603 16.5636 51.5594 13.4135 59.054 10.2135C59.5115 10.0142 60.0079 10.383 59.9787 10.9014L57.1657 49.6596C57.0976 50.5867 56.5233 51.3942 55.6765 51.7431C47.8899 54.943 39.9981 56.5937 32.2796 59.7239C28.5809 59.674 24.8628 59.4547 21.3588 58.408C14.6428 53.8722 7.75944 50.9157 1.06292 46.35C0.332917 45.8516 -0.0758825 44.9843 0.0117174 44.0971L3.59358 4.6211C3.64224 4.10273 4.21651 3.82361 4.63504 4.12267C11.1077 8.66839 17.775 13.2041 24.2282 17.7499C27.703 19.8134 31.7326 20.5411 36.3851 19.7735Z" fill="url(#paint2_linear_132_70)"/>
<path d="M19.208 38.8753C19.208 32.6665 24.2412 27.6333 30.45 27.6333V27.6333C36.6588 27.6333 41.692 32.6665 41.692 38.8753V46.7684H19.208V38.8753Z" fill="white"/>
<path d="M31.9272 39.1904H41.5632V46.8445H31.9272V39.1904Z" fill="black"/>
<defs>
<linearGradient id="paint0_linear_132_70" x1="31.8307" y1="0" x2="31.8307" y2="27.6332" gradientUnits="userSpaceOnUse">
<stop stop-color="#26FF55"/>
<stop offset="0.17" stop-color="#26DE85"/>
<stop offset="0.62" stop-color="#268AFF"/>
<stop offset="1" stop-color="#FC55FF"/>
</linearGradient>
<linearGradient id="paint1_linear_132_70" x1="29.99" y1="4.27612" x2="29.99" y2="60" gradientUnits="userSpaceOnUse">
<stop stop-color="#26FF55"/>
<stop offset="0.17" stop-color="#26DE85"/>
<stop offset="0.62" stop-color="#268AFF"/>
<stop offset="1" stop-color="#FC55FF"/>
</linearGradient>
<linearGradient id="paint2_linear_132_70" x1="29.99" y1="4" x2="29.99" y2="59.7239" gradientUnits="userSpaceOnUse">
<stop stop-color="#26FF55"/>
<stop offset="0.17" stop-color="#26DE85"/>
<stop offset="0.62" stop-color="#268AFF"/>
<stop offset="1" stop-color="#FC55FF"/>
</linearGradient>
</defs>
</svg>
