<svg width="50" height="50" viewBox="0 0 50 50" fill="none" xmlns="http://www.w3.org/2000/svg">
<path d="M11.6988 3.10257C10.6924 9.29808 6.89936 10.2514 1.05535 6.99836C1.16802 6.64068 1.27879 6.28396 1.3906 5.92936C1.43105 5.80172 1.54563 5.72404 1.67422 5.73664C2.57457 5.82988 3.47374 5.96832 4.37172 6.152C5.28336 6.33948 6.19176 6.6204 7.03904 7.06808C7.12748 7.11364 7.2266 7.08568 7.26756 6.99716C8.0442 5.37384 9.11736 3.89807 10.3577 2.66526C10.4505 2.57212 10.5957 2.56598 10.7105 2.6458C11.012 2.85121 11.3942 3.04829 11.6988 3.10257Z" fill="#00C99A"/>
<path d="M8.3016 6.89092C9.35736 5.65288 10.4585 4.40576 11.5186 3.16779C11.583 3.0915 11.7047 3.11364 11.7454 3.20917L14.6762 10.4076C14.7461 10.5799 14.7147 10.7756 14.5938 10.9132C13.4813 12.177 12.2127 13.1724 11.1062 14.4177C10.4387 14.7365 9.75264 15.0267 9.03164 15.1496C7.42552 14.9316 5.92936 15.0116 4.32408 14.7864C4.149 14.7618 3.99885 14.6425 3.93593 14.4757L1.07942 7.08036C1.0422 6.98312 1.12042 6.88216 1.22197 6.89872C2.78534 7.14008 4.38272 7.3624 5.9426 7.60552C6.74852 7.66752 7.53548 7.44088 8.3016 6.89092Z" fill="#0CF1BB"/>
<path d="M8.3016 6.89092C9.35736 5.65288 10.4585 4.40576 11.5186 3.16779C11.583 3.0915 11.7047 3.11364 11.7454 3.20917L14.6762 10.4076C14.7461 10.5799 14.7147 10.7756 14.5938 10.9132C13.4813 12.177 12.2127 13.1724 11.1062 14.4177C10.4387 14.7365 9.75264 15.0267 9.03164 15.1496C7.42552 14.9316 5.92936 15.0116 4.32408 14.7864C4.149 14.7618 3.99885 14.6425 3.93593 14.4757L1.07942 7.08036C1.0422 6.98312 1.12042 6.88216 1.22197 6.89872C2.78534 7.14008 4.38272 7.3624 5.9426 7.60552C6.74852 7.66752 7.53548 7.44088 8.3016 6.89092Z" fill="#0CF1BB"/>
<path d="M6.89028 11.7875C6.34004 10.6743 6.79636 9.3258 7.90952 8.77552C9.02272 8.22528 10.3712 8.6816 10.9215 9.7948L11.621 11.21L7.58988 13.2027L6.89028 11.7875Z" fill="white"/>
<path d="M9.19864 10.7156L10.9263 9.8616L11.6046 11.234L9.877 12.088L9.19864 10.7156Z" fill="black"/>
<path d="M4.4 22.3511C4.4 26.3864 6.44436 29.9545 9.57512 32.1185L22.9275 43.7736C24.5136 45.1584 26.8835 45.14 28.448 43.7308L41.8764 31.6356C44.6364 29.4444 46.4 26.0993 46.4 22.3511C46.4 15.7507 40.9304 10.4 34.1832 10.4C30.7354 10.4 27.6212 11.7971 25.4 14.0442C23.1787 11.7971 20.0645 10.4 16.6168 10.4C9.86968 10.4 4.4 15.7507 4.4 22.3511Z" fill="url(#paint0_linear_1_111)"/>
<defs>
<linearGradient id="paint0_linear_1_111" x1="25.4" y1="10.4" x2="25.4" y2="44.8" gradientUnits="userSpaceOnUse">
<stop stop-color="#ABBDFF"/>
<stop offset="0.33" stop-color="#E350E3"/>
<stop offset="0.9" stop-color="#F7C325"/>
</linearGradient>
</defs>
</svg>
