<svg width="50" height="50" viewBox="0 0 50 50" fill="none" xmlns="http://www.w3.org/2000/svg">
<g clip-path="url(#clip0_2_387)">
<mask id="mask0_2_387" style="mask-type:luminance" maskUnits="userSpaceOnUse" x="0" y="0" width="50" height="50">
<path d="M50 0H0V50H50V0Z" fill="white"/>
</mask>
<g mask="url(#mask0_2_387)">
<path d="M0.300598 49.9905L4.86258 10.1929L40.0983 45.4286L0.300598 49.9905Z" fill="#F7C325"/>
<mask id="mask1_2_387" style="mask-type:alpha" maskUnits="userSpaceOnUse" x="0" y="10" width="41" height="40">
<path d="M0.300598 49.9906L4.86258 10.1929L40.0983 45.4286L0.300598 49.9906Z" fill="#F7C325"/>
</mask>
<g mask="url(#mask1_2_387)">
<path d="M15.9781 27.3559L22.4409 33.8187L0.201077 56.0586L-6.26184 49.5958L15.9781 27.3559Z" fill="#FCE49D"/>
<path fill-rule="evenodd" clip-rule="evenodd" d="M-1.81074 16.3452L-0.0549116 19.0764C7.93377 31.5033 18.4992 42.0688 30.9261 50.0573L33.6573 51.8133L31.9675 54.442L29.2361 52.6861C16.4328 44.4553 5.54719 33.5697 -2.68356 20.7664L-4.43938 18.035L-1.81074 16.3452ZM25.7723 60.7256C10.6861 51.882 -1.87938 39.3166 -10.7229 24.2303L-8.0271 22.65C0.546199 37.275 12.7276 49.4564 27.3526 58.0297L25.7723 60.7256Z" fill="#FF5D5D"/>
</g>
<path d="M28.125 17.0692L35.2333 9.96094L38.548 13.2755L31.4395 20.3839L28.125 17.0692Z" fill="#456DFF"/>
<path d="M26.5892 23.672C36.3522 33.435 42.5653 43.0508 40.4664 45.1495C38.3677 47.2483 28.7519 41.0353 18.9889 31.2723C9.22593 21.5094 3.0128 11.8936 5.11177 9.79481C7.21041 7.69606 16.8264 13.9091 26.5892 23.672Z" fill="#251B00"/>
<path d="M16.7206 9.98073L23.0131 1.5625L26.7676 4.36875L20.475 12.7871L16.7206 9.98073Z" fill="#FF5D5D"/>
<path d="M14.0625 19.1117L20.3552 10.6934L24.1097 13.4998L17.817 21.9183L14.0625 19.1117Z" fill="#FF5D5D"/>
<path d="M21.875 34.1794L40.9633 20.2148L43.7309 23.9981L25.7812 37.5037L21.875 34.1794Z" fill="#FF6BD5"/>
<path d="M39.1067 25.7044L47.4308 20.8984L49.7745 24.958L41.4505 29.7639L39.1067 25.7044Z" fill="#FF6BD5"/>
<path d="M43.75 0L45.438 4.56198L50 6.25L45.438 7.93802L43.75 12.5L42.062 7.93802L37.5 6.25L42.062 4.56198L43.75 0ZM42.6427 38.0539L46.3216 34.3752L50.0003 38.0539L46.3216 41.7327L42.6427 38.0539ZM4.6875 3.67886L8.36636 0.000104167L12.0451 3.67886L8.36636 7.3577L4.6875 3.67886Z" fill="#F7C325"/>
</g>
</g>
<defs>
<clipPath id="clip0_2_387">
<rect width="50" height="50" fill="white"/>
</clipPath>
</defs>
</svg>
