<svg width="50" height="50" viewBox="0 0 50 50" fill="none" xmlns="http://www.w3.org/2000/svg">
<path d="M19.5911 27.1151L29.4324 21.4333" stroke="black" stroke-width="1.36364"/>
<path d="M32.7595 9.01506C31.3475 6.56924 28.22 5.73124 25.7742 7.14333C23.3284 8.55542 22.4903 11.6829 23.9025 14.1287L33.5616 30.8588C34.9736 33.3046 38.1011 34.1425 40.5469 32.7305C42.9927 31.3184 43.8307 28.1909 42.4186 25.7451L32.7595 9.01506Z" fill="black"/>
<path d="M16.0303 18.6741C14.6183 16.2283 11.4908 15.3903 9.045 16.8024C6.59919 18.2146 5.76119 21.3419 7.17329 23.7877L16.8324 40.5178C18.2444 42.9636 21.3719 43.8016 23.8177 42.3896C26.2635 40.9775 27.1016 37.85 25.6894 35.4042L16.0303 18.6741Z" fill="black"/>
<path d="M41.9215 8.97399C40.5094 6.52818 37.3819 5.69018 34.9361 7.10227C32.4903 8.51436 31.6523 11.6418 33.0644 14.0876L38.1781 22.9447C39.5901 25.3906 42.7176 26.2285 45.1634 24.8165C47.6092 23.4043 48.4473 20.2769 47.0351 17.831L41.9215 8.97399Z" fill="black"/>
<path d="M11.4139 26.5876C10.0018 24.1418 6.87436 23.3039 4.42855 24.7159C1.98274 26.128 1.14474 29.2555 2.55683 31.7013L7.67047 40.5583C9.08256 43.0042 12.21 43.8422 14.6558 42.4301C17.1016 41.018 17.9397 37.8906 16.5275 35.4447L11.4139 26.5876Z" fill="black"/>
<path opacity="0.3" d="M8.35008 28.1807C7.87937 27.3655 6.8369 27.0861 6.02162 27.5568C5.20635 28.0275 4.92702 29.07 5.39772 29.8852L6.53408 31.8535C7.00477 32.6687 8.04726 32.9481 8.86253 32.4774C9.67781 32.0067 9.95714 30.9642 9.48644 30.149L8.35008 28.1807Z" fill="white"/>
<path opacity="0.3" d="M40.1683 11.1353C39.6976 10.32 38.6551 10.0407 37.8398 10.5114C37.0246 10.9821 36.7452 12.0245 37.2159 12.8398L38.3523 14.8081C38.823 15.6233 39.8655 15.9027 40.6807 15.432C41.496 14.9613 41.7753 13.9188 41.3047 13.1035L40.1683 11.1353Z" fill="white"/>
<path opacity="0.3" d="M12.8956 20.2261C12.4249 19.4109 11.3824 19.1316 10.5671 19.6023C9.75182 20.073 9.47249 21.1155 9.94319 21.9307L11.6477 24.8831C12.1184 25.6984 13.1609 25.9777 13.9761 25.507C14.7915 25.0362 15.0708 23.9939 14.6001 23.1785L12.8956 20.2261Z" fill="white"/>
<path opacity="0.3" d="M29.941 11.1353C29.4703 10.32 28.4278 10.0407 27.6125 10.5114C26.7973 10.9821 26.5179 12.0245 26.9886 12.8398L28.6932 15.7922C29.1639 16.6075 30.2064 16.8868 31.0216 16.4161C31.8369 15.9453 32.1162 14.9029 31.6456 14.0876L29.941 11.1353Z" fill="white"/>
</svg>
