<svg width="50" height="50" viewBox="0 0 50 50" fill="none" xmlns="http://www.w3.org/2000/svg">
<path d="M25.5 50C37.9264 50 48 39.9264 48 27.5C48 15.0736 37.9264 5 25.5 5C13.0736 5 3 15.0736 3 27.5C3 39.9264 13.0736 50 25.5 50Z" fill="#08714B"/>
<path d="M25.5 46C37.9264 46 48 35.9264 48 23.5C48 11.0736 37.9264 1 25.5 1C13.0736 1 3 11.0736 3 23.5C3 35.9264 13.0736 46 25.5 46Z" fill="#0C9361"/>
<path d="M22.5768 28.7387L22.5418 22.7537H24.7818C26.1352 22.7537 27.1968 22.4282 27.9668 21.7772C28.7602 21.1261 29.1568 20.2547 29.1568 19.1627C29.1568 18.0706 28.7602 17.1992 27.9668 16.5482C27.1735 15.8971 26.1002 15.5717 24.7468 15.5717H19.9868V12.3902H24.6418C26.3452 12.3902 27.8035 12.6737 29.0168 13.2407C30.2535 13.7866 31.2102 14.5637 31.8868 15.5717C32.5635 16.5797 32.9018 17.7767 32.9018 19.1627C32.9018 20.4016 32.6102 21.5041 32.0268 22.4702C31.4668 23.4362 30.6735 24.2027 29.6468 24.7697C28.6435 25.3156 27.4535 25.6097 26.0768 25.6517V28.7387H22.5768ZM23.8018 35.5427C23.1252 35.5427 22.5768 35.3641 22.1568 35.0072C21.7368 34.6292 21.5268 34.1462 21.5268 33.5582C21.5268 32.9701 21.7368 32.4976 22.1568 32.1407C22.5768 31.7627 23.1252 31.5737 23.8018 31.5737H24.8518C25.5518 31.5737 26.1002 31.7627 26.4968 32.1407C26.8935 32.4976 27.0918 32.9597 27.0918 33.5267C27.0918 34.1147 26.8818 34.5977 26.4618 34.9757C26.0418 35.3537 25.4935 35.5427 24.8168 35.5427H23.8018Z" fill="white"/>
</svg>
