<svg width="50" height="50" viewBox="0 0 50 50" fill="none" xmlns="http://www.w3.org/2000/svg">
<mask id="mask0_1_32" style="mask-type:luminance" maskUnits="userSpaceOnUse" x="2" y="0" width="46" height="50">
<path d="M2.83333 0H47.1517V50H2.83333V0Z" fill="white"/>
</mask>
<g mask="url(#mask0_1_32)">
<path d="M10.465 37.178L15.5467 40.298L24.8183 42.438C24.8183 42.438 29.3633 42.3497 32.04 41.0113C34.7167 39.673 39.7067 36.733 39.7067 36.733L42.1133 39.318L43.5383 42.528C43.5383 42.528 37.12 49.6663 24.55 49.5713C24.55 49.5713 13.05 49.5713 6.54999 42.528L10.465 37.178Z" fill="#EDEDED"/>
<path d="M24.9683 41.9995C20.8512 41.9981 16.8268 40.7763 13.4039 38.4884C9.98095 36.2005 7.31304 32.9493 5.73734 29.1456C4.16164 25.3419 3.74886 21.1565 4.55119 17.1183C5.35351 13.08 7.33492 9.37028 10.245 6.45783C12.6613 4.01446 15.6447 2.2071 18.9293 1.19697C22.2138 0.186846 25.6973 0.00535005 29.069 0.668676C32.4407 1.332 35.5958 2.81953 38.2529 4.99857C40.91 7.17761 42.9865 9.98042 44.2972 13.157C45.8735 16.9774 46.2773 21.1804 45.4571 25.231C44.637 29.2817 42.63 32.9966 39.6917 35.9028C37.7625 37.8421 35.4679 39.3794 32.9407 40.4259C30.4134 41.4724 27.7037 42.0072 24.9683 41.9995Z" fill="#EDEDED"/>
<path d="M20.3567 36.763H20.8333L21.5133 37.323V38.2013H22.6883V37.1563H22.105L21.8117 36.918V36.763H23.4517V37.1563H23.1667V39.8747H22.9867L22.6967 39.638V38.513H21.5167V38.9163H21.1333L20.65 38.513V38.2013H21.0383V37.3963L20.745 37.1563H20.3567V36.763ZM23.455 36.763H24.7433V37.1563H24.3867V39.8747H24.205L23.9167 39.638V37.1563H23.455V36.763ZM24.76 36.763H26.8883V37.1563H26.305V37.9797L26.2917 38.098L26.2567 38.2047L26.1783 38.2897L26.085 38.3613L25.9583 38.403L25.8183 38.428H25.7233L25.6333 38.4397L25.5467 38.518L25.5333 38.6047L25.5417 38.7047L25.6367 38.8847L25.7733 39.0513L25.93 39.218L26.1267 39.3997L26.33 39.558L26.4817 39.693L26.71 39.8597L26.5283 39.8497L26.175 39.638L25.93 39.463L25.675 39.273L25.4667 39.0963L25.245 38.8897L25.105 38.7097L25.015 38.5113L24.9783 38.3447L24.9917 38.198L25.0283 38.0747L25.1183 38.0063L25.2617 37.9363L25.4283 37.9097H25.5833L25.6917 37.9497L25.755 38.0063L25.8217 37.9747V37.1497H24.7517L24.76 36.763ZM26.9283 36.7635L29.8917 36.7552V37.1568H29.5433V39.8752H29.3617L29.07 39.6385V38.2768H27.7633L27.6383 38.3102L27.56 38.3852L27.5217 38.4885L27.5433 38.6185L27.5833 38.7435L27.6467 38.8752L27.7367 39.0202L27.8417 39.1452L27.9483 39.2752L28.09 39.4135L28.2283 39.5435L28.3867 39.6585L28.5683 39.7952H28.4283L28.2917 39.7352L28.1767 39.6552L28.075 39.5902L27.9483 39.4868L27.8317 39.3985L27.715 39.2935L27.6017 39.1918L27.4967 39.0802L27.39 38.9468L27.3017 38.8302L27.225 38.7018L27.165 38.5752L27.1317 38.4435V38.3068L27.1467 38.1885L27.2083 38.0852L27.29 37.9985L27.4233 37.9285L27.5433 37.8935L27.7367 37.8785H29.07V37.1535H26.9283V36.7635Z" fill="black"/>
<path d="M11.1167 38.1412C11.085 38.1128 11.0517 38.0862 11.02 38.0612" stroke="black" stroke-width="0.166667" stroke-miterlimit="10"/>
<path d="M44.1283 40.31C45.2375 39.202 46.2491 38.0003 47.1517 36.7183L41.9767 33.8483C43.738 31.4882 44.9879 28.7867 45.6465 25.9163C46.3051 23.0459 46.3579 20.0698 45.8016 17.1778C45.2453 14.2859 44.0921 11.5418 42.4156 9.12058C40.7391 6.6994 38.5761 4.65441 36.0648 3.11617C31.8521 0.535706 26.87 -0.491086 21.9802 0.21343C17.0905 0.917946 12.6009 3.30945 9.28799 6.97421C5.9751 10.639 4.0474 15.3464 3.83838 20.2822C3.62935 25.218 5.15215 30.0716 8.14333 34.0033L2.83333 36.705C3.73987 37.9914 4.75527 39.1975 5.86833 40.31C6.21515 40.6557 6.57025 40.993 6.93333 41.3217L5.72333 42.6067C11.0226 47.3732 17.9001 50.0071 25.0277 49.9998C32.1552 49.9924 39.0273 47.3442 44.3167 42.5667L43.2617 41.14C43.555 40.8717 43.8433 40.5933 44.1283 40.31ZM4.49999 21.1817C4.50224 17.129 5.70565 13.1679 7.95816 9.79892C10.2107 6.4299 13.4112 3.80412 17.1554 2.25332C20.8996 0.702523 25.0195 0.2963 28.9945 1.08597C32.9695 1.87565 36.6212 3.82579 39.4883 6.69C43.1751 10.5656 45.201 15.7287 45.1337 21.0773C45.0665 26.426 42.9114 31.5365 39.1283 35.3182C35.3452 39.0998 30.2338 41.2529 24.8851 41.3181C19.5364 41.3832 14.3741 39.3551 10.5 35.6667C8.5924 33.7685 7.07996 31.511 6.0501 29.0247C5.02024 26.5385 4.49339 23.8728 4.49999 21.1817ZM25 49.0817C18.5564 49.0991 12.3085 46.8682 7.33333 42.7733L11.1167 38.1417C15.0634 41.3712 20.0125 43.1239 25.1122 43.098C30.2118 43.0721 35.1429 41.2694 39.0567 38L43 42.5C37.975 46.767 31.5922 49.1008 25 49.0817Z" fill="black"/>
<path d="M25 34.833C21.8433 34.8335 18.7841 33.7394 16.3435 31.7372C13.903 29.735 12.2322 26.9486 11.6158 23.8526C10.9993 20.7567 11.4754 17.5428 12.9628 14.7585C14.4502 11.9742 16.857 9.79173 19.7732 8.58298C22.6893 7.37422 25.9343 7.21394 28.9554 8.12945C31.9764 9.04495 34.5866 10.9796 36.3411 13.6038C38.0957 16.228 38.8862 19.3793 38.5778 22.5209C38.2694 25.6625 36.8813 28.6001 34.65 30.833C33.3858 32.1046 31.8819 33.1128 30.2255 33.7993C28.5691 34.486 26.793 34.8373 25 34.833Z" fill="black"/>
<path d="M28.2017 22.9332C29.4231 22.9335 30.6316 23.183 31.7533 23.6665L35.8367 22.2782L32.38 21.6665C32.3283 21.6579 32.2806 21.6333 32.2437 21.5962C32.216 21.5683 32.1951 21.5345 32.1827 21.4972C32.1703 21.46 32.1667 21.4204 32.1722 21.3815C32.1776 21.3426 32.192 21.3056 32.2142 21.2732C32.2364 21.2408 32.2657 21.214 32.3 21.1948L34.7217 19.8332H32.2667C32.2113 19.8333 32.1575 19.8152 32.1133 19.7818C32.0692 19.7484 32.0373 19.7015 32.0223 19.6482C32.0074 19.5949 32.0103 19.5382 32.0307 19.4867C32.051 19.4352 32.0877 19.3918 32.135 19.3632L34.6433 17.8515L30.9167 18.1398C30.8658 18.1438 30.8149 18.1326 30.7704 18.1077C30.7259 18.0828 30.6898 18.0453 30.6667 17.9998C30.6431 17.9577 30.6322 17.9097 30.6352 17.8616C30.6381 17.8134 30.6548 17.7671 30.6833 17.7282L32.26 15.5398L29.8617 17.0115C29.8273 17.033 29.7882 17.0459 29.7478 17.0491C29.7074 17.0523 29.6668 17.0458 29.6295 17.03C29.5921 17.0143 29.5591 16.9898 29.5332 16.9586C29.5073 16.9274 29.4893 16.8904 29.4807 16.8508C29.469 16.7979 29.4746 16.7427 29.4967 16.6932L30.9633 13.3415L28.0567 16.0082C28.02 16.0414 27.9746 16.0633 27.9258 16.0713C27.877 16.0793 27.827 16.073 27.7817 16.0532C27.7367 16.0328 27.6986 16 27.6717 15.9587C27.6448 15.9173 27.6304 15.8691 27.63 15.8198V13.0282L26.21 15.3332C26.1821 15.3775 26.1413 15.4122 26.093 15.4325C26.0447 15.4528 25.9913 15.4577 25.9402 15.4466C25.889 15.4355 25.8425 15.4089 25.8069 15.3704C25.7714 15.3319 25.7486 15.2834 25.7417 15.2315L25.2417 11.3848L24.3967 15.1482C24.3831 15.1968 24.3554 15.2403 24.3171 15.2732C24.2789 15.3061 24.2317 15.327 24.1817 15.3332C24.1302 15.34 24.0778 15.3306 24.0319 15.3065C23.9859 15.2823 23.9486 15.2444 23.925 15.1982L22.7167 12.9032V15.6665C22.7167 15.7208 22.6995 15.7736 22.6674 15.8174C22.6353 15.8612 22.5901 15.8936 22.5383 15.9098C22.4861 15.9256 22.4302 15.9244 22.3787 15.9065C22.3272 15.8885 22.2827 15.8547 22.2517 15.8098L20.085 12.6298L21.0267 16.5565C21.0389 16.6084 21.0346 16.6629 21.0143 16.7122C20.994 16.7615 20.9586 16.8032 20.9133 16.8314C20.868 16.8596 20.815 16.8728 20.7618 16.8692C20.7086 16.8657 20.6578 16.8455 20.6167 16.8115L18.585 15.1348L19.585 17.9532C19.6017 18.0004 19.604 18.0515 19.5919 18.1C19.5797 18.1486 19.5535 18.1925 19.5165 18.2263C19.4795 18.26 19.4334 18.2822 19.384 18.2899C19.3345 18.2977 19.2839 18.2907 19.2383 18.2698L16.7383 17.1032L18.475 18.8065C18.5107 18.8419 18.5351 18.887 18.5452 18.9363C18.5553 18.9855 18.5506 19.0366 18.5317 19.0832C18.5142 19.1316 18.4823 19.1736 18.4403 19.2034C18.3983 19.2332 18.3482 19.2494 18.2967 19.2498H15.6917L17.5467 20.5265C17.5903 20.5559 17.6235 20.5983 17.6414 20.6477C17.6594 20.6971 17.6612 20.751 17.6467 20.8015C17.6332 20.8524 17.6041 20.8979 17.5634 20.9314C17.5227 20.9649 17.4726 20.9847 17.42 20.9882L14.445 21.1932L18.5317 23.4115C19.125 23.2115 21.9183 22.3882 24.5 23.4548H25.3533C26.2637 23.112 27.2289 22.938 28.2017 22.9415V22.9332ZM31.74 24.1965C31.7001 24.197 31.6606 24.1878 31.625 24.1698C31.5967 24.1548 28.6433 22.7198 25.4917 23.9382C25.4625 23.9497 25.4313 23.9553 25.4 23.9548H24.45C24.4162 23.9552 24.3827 23.9483 24.3517 23.9348C21.685 22.8048 18.6283 23.9048 18.5983 23.9165C18.5643 23.9291 18.5279 23.9343 18.4917 23.9317C18.4555 23.9291 18.4202 23.9188 18.3883 23.9015L13.4333 21.2148C13.3972 21.1951 13.3664 21.1669 13.3436 21.1327C13.3207 21.0985 13.3064 21.0593 13.302 21.0184C13.2975 20.9775 13.303 20.9361 13.318 20.8978C13.333 20.8595 13.357 20.8254 13.388 20.7983C13.4297 20.7622 13.4818 20.7405 13.5367 20.7365L16.6567 20.5232L14.7283 19.1898C14.6839 19.1592 14.6504 19.1152 14.6327 19.0642C14.615 19.0132 14.6141 18.9578 14.6301 18.9063C14.6462 18.8547 14.6782 18.8096 14.7217 18.7776C14.7651 18.7455 14.8177 18.7282 14.8717 18.7282H17.6767L15.3333 16.4282C15.2913 16.3858 15.2655 16.3301 15.2603 16.2706C15.2552 16.2112 15.271 16.1518 15.3051 16.1029C15.3392 16.0539 15.3894 16.0185 15.4469 16.0027C15.5045 15.9869 15.5657 15.9918 15.62 16.0165L18.915 17.5515L17.8033 14.4348C17.7839 14.3825 17.7826 14.3253 17.7995 14.2721C17.8164 14.2189 17.8506 14.173 17.8967 14.1415C17.942 14.1096 17.9966 14.0935 18.052 14.0956C18.1074 14.0977 18.1605 14.1179 18.2033 14.1532L20.3583 15.9348L19.2633 11.4048C19.2531 11.3616 19.2543 11.3165 19.2668 11.274C19.2794 11.2314 19.3028 11.1928 19.3349 11.1621C19.3669 11.1313 19.4064 11.1095 19.4494 11.0987C19.4925 11.0879 19.5376 11.0885 19.5803 11.1005C19.6373 11.1167 19.6868 11.1525 19.72 11.2015L22.2083 14.8448V11.8715C22.2082 11.8147 22.2271 11.7596 22.2621 11.7148C22.297 11.6701 22.346 11.6383 22.4011 11.6247C22.4562 11.6111 22.5143 11.6163 22.5661 11.6396C22.6178 11.6629 22.6603 11.7029 22.6867 11.7532L24.0517 14.3565L25.0617 9.8665C25.074 9.80754 25.1069 9.7549 25.1546 9.71801C25.2022 9.68113 25.2614 9.66242 25.3216 9.66523C25.3818 9.66803 25.439 9.69218 25.483 9.73334C25.527 9.7745 25.5549 9.82998 25.5617 9.88983L26.155 14.4532L27.675 11.9998C27.6965 11.9645 27.7264 11.9349 27.762 11.9137C27.7976 11.8926 27.8379 11.8804 27.8793 11.8784C27.9206 11.8763 27.9619 11.8845 27.9994 11.902C28.0369 11.9196 28.0696 11.9461 28.0945 11.9792C28.1277 12.0235 28.1455 12.0777 28.145 12.1332V15.2482L31.515 12.1665C31.5578 12.1272 31.6128 12.1038 31.6709 12.1003C31.7289 12.0967 31.7864 12.1132 31.8336 12.147C31.8809 12.1808 31.9151 12.2299 31.9306 12.2859C31.946 12.342 31.9417 12.4016 31.9183 12.4548L30.295 16.1667L33.0817 14.455C33.1318 14.4246 33.1908 14.4124 33.2489 14.4206C33.3069 14.4288 33.3603 14.4569 33.4 14.5C33.4403 14.5425 33.4644 14.5979 33.468 14.6564C33.4717 14.7149 33.4547 14.7728 33.42 14.82L31.42 17.5933L35.67 17.26C35.7125 17.257 35.7551 17.2647 35.7939 17.2824C35.8327 17.3001 35.8664 17.3273 35.892 17.3614C35.9176 17.3955 35.9343 17.4354 35.9405 17.4776C35.9467 17.5198 35.9422 17.5628 35.9275 17.6028C35.9077 17.6564 35.8704 17.7018 35.8217 17.7317L33.1783 19.3233H35.69C35.7463 19.323 35.8012 19.3413 35.8459 19.3755C35.8907 19.4097 35.9229 19.4577 35.9373 19.5122C35.9516 19.5667 35.9474 19.6244 35.9252 19.6762C35.9031 19.728 35.8643 19.771 35.815 19.7983L33.1667 21.2867L36.8967 21.9533C36.9523 21.9629 37.0032 21.9908 37.0411 22.0326C37.079 22.0744 37.1019 22.1277 37.106 22.184C37.1102 22.2403 37.0955 22.2964 37.0642 22.3433C37.033 22.3903 36.9869 22.4255 36.9333 22.4433L31.82 24.1833C31.7942 24.192 31.7672 24.1963 31.74 24.1965Z" fill="white"/>
<path d="M24.71 32.49L24.3467 32.3233C22.05 31.225 18.5417 31.8233 18.5133 31.8233L18.215 31.8733V23.6783H18.715V31.275C19.323 31.1955 19.9352 31.152 20.5483 31.145C21.9917 31.1283 23.215 31.3117 24.1917 31.7V23.7H24.6917V32.49H24.71ZM25.1467 32.5005V23.7005H25.655V31.7005C26.3933 31.4288 28.2367 30.9372 31.3667 31.2555V23.9388H31.875V31.8338L31.5917 31.8022C29.425 31.5538 27.8967 31.7088 26.9867 31.8822C26.4804 31.9613 25.9871 32.1082 25.52 32.3188L25.1467 32.5005Z" fill="white"/>
<path d="M27.5833 21.0487C27.5383 21.2837 27.0833 21.3953 26.5733 21.3003C26.0633 21.2053 25.68 20.9353 25.725 20.7003C25.77 20.4653 26.225 20.3537 26.7333 20.4487C27.2417 20.5437 27.6267 20.8137 27.5833 21.0487ZM24.9167 20.9103C24.5833 20.9103 24.3233 20.1903 24.3233 19.3037C24.3233 18.417 24.5883 17.6953 24.9167 17.6953C25.245 17.6953 25.5083 18.4153 25.5083 19.3037C25.5083 20.192 25.2433 20.9103 24.9167 20.9103ZM23.1283 21.302C22.6133 21.3787 22.1667 21.2487 22.1283 21.012C22.09 20.7753 22.4833 20.522 23 20.447C23.5167 20.372 23.9633 20.5003 24 20.737C24.0367 20.9737 23.645 21.2253 23.1267 21.302H23.1283ZM27.6283 20.5937C27.3672 20.3888 27.058 20.254 26.7302 20.202C26.4023 20.1501 26.0667 20.1828 25.755 20.297C25.8237 19.9678 25.8615 19.633 25.8683 19.297C25.8683 18.177 25.4433 17.267 24.9167 17.267C24.39 17.267 23.9633 18.177 23.9633 19.297C23.96 19.6691 24.0111 20.0397 24.115 20.397C23.6317 20.032 22.5767 20.0487 22.055 20.607C21.9083 20.7697 21.8306 20.9831 21.8383 21.202C21.85 21.912 22.15 23.7253 24.9083 23.6937C27.4483 23.667 27.9083 22.157 27.9717 21.3753C27.9847 21.2257 27.9601 21.0752 27.9001 20.9376C27.8402 20.7999 27.7467 20.6794 27.6283 20.587V20.5937ZM20.0167 24.6163H19.5933V24.108H20.0167V24.6163ZM21.235 24.6172H20.4233V24.1172H21.235V24.6172ZM22.4517 24.6172H21.64V24.1172H22.4517V24.6172ZM23.2817 24.6163H22.8567V24.108H23.2817V24.6163ZM20.0167 25.4637H19.5933V24.957H20.0167V25.4637ZM21.235 25.4635H20.4233V24.9635H21.235V25.4635ZM22.4517 25.4635H21.64V24.9635H22.4517V25.4635ZM23.2817 25.4637H22.8567V24.957H23.2817V25.4637ZM20.0167 26.312H19.5933V25.802H20.0167V26.312ZM21.235 26.312H20.4233V25.802H21.235V26.312ZM22.4517 26.312H21.64V25.802H22.4517V26.312ZM23.2817 26.312H22.8567V25.802H23.2817V26.312ZM20.0167 27.158H19.5933V26.6497H20.0167V27.158ZM21.235 27.1667H20.4233V26.6667H21.235V27.1667ZM22.4517 27.1667H21.64V26.6667H22.4517V27.1667ZM23.2817 27.158H22.8567V26.6497H23.2817V27.158ZM20.0167 28.0045H19.5933V27.4962H20.0167V28.0045ZM21.235 28H20.4233V27.5H21.235V28ZM22.4517 28H21.64V27.5H22.4517V28ZM23.2817 28.0045H22.8567V27.4962H23.2817V28.0045ZM20.0167 28.8505H19.5933V28.3437H20.0167V28.8505ZM21.235 28.8522H20.4233V28.3437H21.235V28.8522ZM22.4517 28.8522H21.64V28.3437H22.4517V28.8522ZM23.2817 28.8505H22.8567V28.3437H23.2817V28.8505ZM20.0167 29.6985H19.5933V29.1902H20.0167V29.6985ZM21.235 29.6985H20.4233V29.1902H21.235V29.6985ZM22.4517 29.6985H21.64V29.1902H22.4517V29.6985ZM23.2817 29.6985H22.8567V29.1902H23.2817V29.6985ZM20.0167 30.5448H19.5933V30.0365H20.0167V30.5448ZM21.235 30.5448H20.4233V30.0365H21.235V30.5448ZM22.4517 30.5448H21.64V30.0365H22.4517V30.5448ZM23.2817 30.5448H22.8567V30.0365H23.2817V30.5448ZM27.09 24.6163H26.6667V24.108H27.09V24.6163ZM28.3067 24.6172H27.5V24.1172H28.31V24.6172H28.3067ZM29.525 24.6172H28.7117V24.1172H29.525V24.6172ZM30.3533 24.6163H29.9317V24.108H30.3533V24.6163ZM27.09 25.4637H26.6667V24.957H27.09V25.4637ZM28.3067 25.4635H27.5V24.9635H28.31V25.4635H28.3067ZM29.525 25.4635H28.7117V24.9635H29.525V25.4635ZM30.3533 25.4637H29.9317V24.957H30.3533V25.4637ZM27.09 26.312H26.6667V25.802H27.09V26.312ZM28.3067 26.312H27.5V25.802H28.31V26.312H28.3067ZM29.525 26.312H28.7117V25.802H29.525V26.312ZM30.3533 26.312H29.9317V25.802H30.3533V26.312ZM27.09 27.158H26.6667V26.6497H27.09V27.158ZM28.3067 27.1667H27.5V26.6667H28.31V27.1667H28.3067ZM29.525 27.1667H28.7117V26.6667H29.525V27.1667ZM30.3533 27.158H29.9317V26.6497H30.3533V27.158ZM27.09 28.0045H26.6667V27.4962H27.09V28.0045ZM28.3067 28H27.5V27.5H28.31V28H28.3067ZM29.525 28H28.7117V27.5H29.525V28ZM30.3533 28.0045H29.9317V27.4962H30.3533V28.0045ZM27.09 28.8505H26.6667V28.3437H27.09V28.8505ZM28.3067 28.8522H27.5V28.3437H28.31V28.8522H28.3067ZM29.525 28.8522H28.7117V28.3437H29.525V28.8522ZM30.3533 28.8505H29.9317V28.3437H30.3533V28.8505ZM27.09 29.6985H26.6667V29.1902H27.09V29.6985ZM28.3067 29.6985H27.5V29.1902H28.31V29.6985H28.3067ZM29.525 29.6985H28.7117V29.1902H29.525V29.6985ZM30.3533 29.6985H29.9317V29.1902H30.3533V29.6985ZM27.09 30.5448H26.6667V30.0365H27.09V30.5448ZM28.3067 30.5448H27.5V30.0365H28.31V30.5448H28.3067ZM29.525 30.5448H28.7117V30.0365H29.525V30.5448ZM30.3533 30.5448H29.9317V30.0365H30.3533V30.5448Z" fill="white"/>
<path d="M10.615 15.9037L10.9 16.3037L11.1217 16.577L11.2183 16.537L11.295 16.4453L11.3333 16.3337L11.5 16.6253L11.4633 16.717L11.3717 16.822L11.2733 16.8653H11.2083L11.0683 16.8337L10.955 16.7503L10.7233 16.4003L10.4633 16.0003L10.615 15.9037ZM8.38 18.6387L8.56833 17.3203L8.99833 17.3803L8.86333 18.3187V18.407L8.91 18.4587L8.98833 18.437L9.06167 18.3937H9.19833L9.345 18.432L9.41333 18.5087L9.40167 18.6653L9.31167 18.832L9.16333 18.947L9.02 19.0503L8.90833 19.0953H8.75333L8.605 19.0753L8.49 19.022L8.40333 18.9103L8.375 18.772L8.38 18.6387Z" fill="black"/>
<path d="M11.0217 9.785L10.995 9.76833C11.14 9.58667 11.2883 9.40667 11.4433 9.22833L11.1667 8.935C10.1663 10.0869 9.31773 11.3623 8.64166 12.73L8.33333 12.6133C8.25837 12.5786 8.18023 12.5513 8.1 12.5317C8.01111 12.5074 7.92098 12.4879 7.83 12.4733C7.65312 12.443 7.47204 12.4469 7.29666 12.485C7.11704 12.5224 6.95444 12.6172 6.83333 12.755C6.81599 12.7747 6.80037 12.7959 6.78666 12.8183C6.77666 12.8333 6.76 12.865 6.73666 12.9117C6.69841 12.9919 6.67471 13.0782 6.66666 13.1667C6.65764 13.2621 6.6644 13.3584 6.68666 13.4517C6.70783 13.543 6.74383 13.6303 6.79333 13.71C6.8405 13.7877 6.9015 13.856 6.97333 13.9117C7.06116 13.9678 7.153 14.0175 7.24833 14.06L7.37166 14.115L7.48666 14.1533C7.56333 14.1783 7.60333 14.185 7.60833 14.1767L7.81333 13.7783L7.60166 13.6883L7.5 13.6533L7.39666 13.6117C7.36047 13.5951 7.32539 13.5761 7.29166 13.555C7.26129 13.5376 7.23181 13.5187 7.20333 13.4983C7.11788 13.432 7.05548 13.3405 7.025 13.2367C6.99327 13.1464 6.99745 13.0473 7.03666 12.96C7.05315 12.9265 7.0745 12.8956 7.1 12.8683C7.17662 12.8021 7.26651 12.7529 7.36366 12.7242C7.46081 12.6954 7.56298 12.6877 7.66333 12.7017C7.95883 12.7678 8.24566 12.8678 8.51833 13C7.40685 15.3438 6.83125 17.9057 6.83333 20.4997C6.83333 20.7713 6.83333 21.0397 6.85166 21.3063L6.62166 21.3363L6.455 21.3947L6.30166 21.443L6.135 21.4913L6.01 21.5547L5.895 21.618L5.755 21.688L5.65166 21.7563L5.57 21.843L5.50333 21.9263L5.41833 22.0363L5.37 22.158L5.34 22.273L5.28166 23.1663L5.68 22.8497L5.715 22.2963L5.76833 22.1097L5.83333 21.9997L5.93166 21.8913L6.06333 21.798L6.20666 21.723L6.35166 21.6713L6.46833 21.6347L6.61666 21.593L6.86 21.5747C6.90083 22.2635 6.9825 22.9492 7.105 23.628H7.51166C7.40636 23.0557 7.33125 22.4782 7.28666 21.898L8.59166 21.8213L8.25833 22.143L8.11 22.3197L8.03166 22.4997L8.02166 22.6663L8.03166 22.8463L8.13333 23.0647L8.21833 23.1997L8.34166 23.298L8.47166 23.373L8.615 23.428H8.81333L8.98 23.4097L9.105 23.3613L9.23833 23.2813L9.39 23.1413L9.48 23.0047L9.555 22.8647L9.60833 22.7313L9.62833 22.583L9.615 22.358L9.55 22.0963L9.39666 21.908L9.25666 21.7647L10.2917 21.703L10.55 21.4163L10.54 21.2497L8.95833 21.3447L8.83333 21.2097L8.70666 21.053L8.635 20.943L8.56666 20.8497L8.51333 20.7347L8.50333 20.568L8.52833 20.448L8.59833 20.348L8.69166 20.2697L8.83 20.248L8.97666 20.2613L9.08833 20.3263L9.24166 20.418L9.30833 20.4863L9.38833 20.578L9.44333 20.6713L9.49 20.753V20.8463L9.92333 20.513L9.78333 20.368L9.61666 20.2013L9.46833 20.088L9.30166 20.0313L9.135 19.998L9.02333 19.9847L8.85666 20.0063L8.69 20.063L8.545 20.143L8.435 20.2113L8.345 20.2913L8.23833 20.393L8.16666 20.4997L8.11666 20.588L8.09666 20.7163V20.8313L8.115 20.9213L8.16333 21.053L8.24 21.168L8.335 21.2913L8.405 21.398L7.255 21.503C7.23716 21.1697 7.22783 20.8363 7.22666 20.503C7.22407 18.5478 7.55551 16.6066 8.20666 14.763L8.72166 14.9397L8.64666 15.053L8.59 15.1763L8.53333 15.2813L8.46166 15.463L8.395 15.6063L8.36166 15.8113V16.0313L8.42166 16.2397L8.47833 16.3813L8.59166 16.528L8.745 16.6813L8.91166 16.7847L9.07833 16.848L9.245 16.888H9.57833L9.76166 16.843L9.97 16.763L10.1683 16.643L10.335 16.518L10.46 16.4097L10.5833 16.243L10.695 16.0763L10.755 15.8913L10.7767 15.753V15.598L10.7367 15.443L10.695 15.3447L11.1667 15.13L11.5 14.995L11.565 15.0783L11.5867 15.195L11.565 15.3067L11.855 15.14L11.8683 15.0433L11.8333 14.8983L11.77 14.815L11.7133 14.7817L11.575 14.7417L11.435 14.76L11.06 14.955L10.63 15.1933L10.5283 15.0433L10.4133 14.91L10.215 14.7967L10.02 14.7867L9.90333 14.8233L9.8 14.9033L9.70166 15.07L9.69 15.2067V15.305L9.725 15.4083L9.825 15.49L9.99166 15.5433H10.1167L10.2683 15.525L10.36 15.6333L10.3833 15.7733L10.3533 15.98L10.2883 16.1667L10.1683 16.3333L10.0233 16.4283L9.84333 16.4983L9.60333 16.52L9.365 16.475L9.12666 16.37L8.98666 16.2433L8.87666 16.0883L8.83333 15.9317V15.7983L8.815 15.6817L8.84666 15.5L8.90666 15.3167L9.01 15.1283L9.12833 14.975L9.22333 14.7867L9.24666 14.655L9.08833 14.55L8.38 14.3117C8.53333 13.9173 8.7 13.5283 8.88 13.145L8.99166 13.1967L11.5967 14.43L11.9633 14.305L12.0383 14.1517L9.185 12.8L9.07166 12.7567C9.31616 12.2733 9.58383 11.8012 9.875 11.34C9.93091 11.3033 9.99144 11.2742 10.055 11.2533L10.1017 11.215L10.1967 11.185L10.325 11.1567H10.46L10.5917 11.2017L10.7133 11.32L10.775 11.4367L10.785 11.5533L10.795 11.6667L10.775 11.785L10.7433 11.875L10.6767 11.9767L10.6067 12.06L10.4817 12.1133L10.415 12.2067L10.5817 12.3L10.7617 12.325L10.9583 12.3417H11.4L11.64 12.295L11.8333 12.255L12 12.1817L12.1333 12.1133L12.2317 11.9883L12.3333 11.7817L12.35 11.615L12.3333 11.395L12.295 11.14L13.1817 11.715L13.5633 11.64L13.6667 11.5L11.0217 9.785ZM8.73666 21.8332L8.84 21.8965L8.97166 22.0198L9.07333 22.1198L9.17166 22.2415L9.26166 22.3548L9.33333 22.4715L9.35833 22.6498L9.30833 22.8315L9.215 22.9448L9.095 23.0132L8.99 23.0432L8.87666 23.0648L8.75 23.0432L8.65333 23.0082L8.53666 22.9365L8.465 22.8482L8.39666 22.7265L8.32166 22.5598L8.34333 22.4098L8.40333 22.2532L8.47166 22.1365L8.59 21.9898L8.73666 21.8332ZM11.9317 11.4998L11.8767 11.6665L11.7483 11.8582L11.6183 11.9765L11.4717 12.0415L11.2583 12.0798L11.075 12.1165H10.8333L11 11.9765L11.0917 11.8398L11.1367 11.6415L11.1583 11.4748L11.125 11.3332L11.0683 11.1665L10.97 11.0582L10.8917 10.9832L10.7567 10.9198L10.625 10.9015L10.4983 10.9115L10.3883 10.9415L10.3083 10.9665L10.0467 11.0665C10.2578 10.7455 10.48 10.4293 10.7133 10.1182L10.845 10.2082L11.8183 10.8398L11.865 10.9232L11.905 11.0798L11.9317 11.2815V11.4998ZM41.6467 13.7183C41.195 12.6403 40.6367 11.6102 39.98 10.6433L39.6667 10.8767C39.7917 11.06 39.9117 11.2483 40.03 11.4367L39.215 11.99L38.5783 11.0717L38.5633 11.0083L38.7683 11.045L38.9517 11.07H39.2233L39.33 11.0283L39.4017 10.9817L39.4833 10.9017L39.5433 10.8167L39.61 10.7133L39.655 10.5817V10.34L39.6017 10.1517L39.5333 10.0233L39.3583 9.86667L39.245 9.795L39.11 9.76833L38.9433 9.785L38.7767 9.85L38.6267 9.95L38.505 10.0767L38.435 10.2217L38.3983 10.3633L38.385 10.4733L38.375 10.63L38.25 10.6017L38.095 10.5667L37.92 10.5L37.7767 10.4833L37.6 10.4683H37.4583L37.255 10.545L37.1017 10.6467L37.0217 10.7417L36.94 10.8433L36.8833 10.9517L36.8483 11.0517L36.8183 11.1683L36.8067 11.2933V11.4017L36.8367 11.54L36.8683 11.6617L36.9633 11.8017L37.0583 11.9117L37.1483 11.9833L37.2467 12.035L37.355 12.0483L37.1367 12.8817L37.2617 13.06L37.5 12.1217L37.6083 12.1333H37.7517L37.87 12.0983L37.97 12.0467L38.0667 11.9517L38.1017 11.8417L38.1117 11.7317L38.0533 11.5783L37.9633 11.495L37.8617 11.4517L37.7283 11.4333L37.6333 11.4683L37.55 11.5233L37.4933 11.5917L37.4583 11.6767L37.435 11.7733L37.34 11.7417L37.2667 11.6567L37.21 11.5783L37.1433 11.4517V11.3783L37.16 11.27L37.195 11.17L37.2583 11.0717L37.3333 10.9883L37.4467 10.9133L37.585 10.8767L37.74 10.86L37.8617 10.87L38.0017 10.8883L38.1217 10.91L38.2883 10.9417L38.3983 10.97L38.4133 11.105L38.435 11.2517L38.465 11.4183L38.49 11.575L38.9117 12.19L37.6083 13.0667L37.565 13.4667L37.64 13.575L40.2783 11.8367C40.4733 12.17 40.6567 12.5033 40.8283 12.855L38.1617 14.1167L38.03 14.4783L38.105 14.63L41.0183 13.2617C41.115 13.4683 41.2083 13.6783 41.295 13.8883L41.6467 13.7183ZM38.675 10.43L38.7283 10.3133L38.815 10.2067L38.9417 10.1217L39.085 10.0833H39.2033L39.3183 10.14L39.3967 10.2083L39.4683 10.3067L39.505 10.3817L39.5283 10.4833V10.5833L39.48 10.665L39.405 10.7567L39.295 10.79L39.1817 10.8033H39.035L38.8933 10.765L38.76 10.7217L38.655 10.685V10.5617L38.675 10.43ZM38.9433 9.25883C37.7035 7.7655 36.232 6.48084 34.585 5.45383L34.99 4.96217L35.185 4.7605L35.4367 4.64883L35.67 4.6205L35.9267 4.70217L36.1667 4.89383L36.3333 5.1305L36.4517 5.40383L36.53 5.73717L36.59 6.0305L36.63 6.37883L36.6467 6.59883L36.77 6.6805V6.27217L36.7667 6.0005L36.7383 5.7105L36.695 5.43217L36.63 5.16717L36.54 4.89883L36.385 4.67383L36.1433 4.45383L35.905 4.33383L35.7017 4.27383L35.465 4.24217L35.2867 4.2705L35.0483 4.34383L34.8217 4.48717L34.655 4.69717L34.225 5.23717C33.91 5.0505 33.59 4.87217 33.2633 4.7055L33.0733 5.04883C33.4067 5.2155 33.7233 5.3955 34.0383 5.58217L32.4683 7.8005L32.535 8.17717L32.6767 8.27383L34.4133 5.8105C34.9725 6.16383 35.5122 6.54717 36.03 6.95883L35.8633 7.13883L35.6667 7.0705L35.5533 7.0305L35.3867 6.96383L35.2017 6.89217L35.1833 7.37217L35.3417 7.3605H35.47L35.6 7.38217L35.74 7.4355L35.84 7.4655L35.9517 7.53383L36.0533 7.6305L36.1367 7.75717L36.1617 7.90383V8.0355L36.1267 8.1255L36.0433 8.24883L35.93 8.36717L35.7783 8.45883L35.495 8.5405L35.2333 8.5205L35.0583 8.47383L34.8183 8.3855L34.725 8.3305L34.8083 8.2255L34.87 8.1255V8.0055L34.8317 7.90383L34.7583 7.81883L34.62 7.74383L34.4817 7.7605L34.3667 7.81217L34.265 7.91717L34.2 8.0205L34.1817 8.13883V8.2555L34.2283 8.39883L34.2633 8.51383L34.34 8.63717L34.3717 8.77717L34.4033 8.95883L34.5 10.0005L34.785 10.2772L34.6667 9.88883L34.61 9.3505L34.5883 8.96717V8.77383L34.715 8.8355L34.9967 8.91217L35.2967 8.95717L35.5567 8.9355L35.7433 8.86883L35.91 8.7655L36.0133 8.6605L36.1333 8.5155L36.2367 8.34883L36.29 8.21717L36.3383 8.08217L36.3567 7.95883V7.84383L36.3483 7.7355L36.3183 7.6255L36.2233 7.4905L36.1517 7.4255L36.3183 7.20383C36.6967 7.51883 37.0617 7.84717 37.415 8.20383L37.485 8.2755L35.485 10.4105L35.4983 10.7955L35.6217 10.9122L37.8333 8.60717C38.1167 8.9055 38.39 9.2105 38.65 9.52383L38.9433 9.25883ZM44.575 17.613L44.1217 17.9047L44.1317 18.338L44.085 18.613L44.0083 18.808L43.8417 19.013L43.6567 19.1797L43.435 19.268L43.25 19.3163L42.9683 19.3447C42.8788 17.9734 42.6282 16.6174 42.2217 15.3047L41.8283 15.378C42.0733 16.168 42.2615 16.9745 42.3917 17.7913L41.3333 17.9597L41.48 17.783L41.585 17.6163L41.67 17.4597L41.725 17.2663L41.7433 17.163L41.7533 17.0197L41.705 16.843L41.665 16.6763L41.6067 16.5313L41.5 16.383L41.375 16.228L41.235 16.1147L41.0783 16.0197L40.8717 15.983H40.705L40.525 16.0263L40.3333 16.138L40.1533 16.3047L40 16.5197L39.9283 16.698L39.8733 16.9013V17.068L39.8867 17.298L39.9817 17.5713L40.0967 17.7497L40.1833 17.843L40.3233 17.983L40.5 18.093L39.5233 18.2447L39.295 18.558L39.32 18.7247L42.45 18.2247C42.4983 18.5813 42.5333 18.9413 42.5583 19.3047L39.725 19.3513L39.405 19.6147V19.793L42.5867 19.743C42.5983 19.9963 42.6033 20.243 42.6033 20.498C42.603 21.2476 42.5545 21.9963 42.4583 22.7397H42.3667L42.0583 22.713L42.1833 21.493V21.3013L42.115 21.1547L41.9633 21.0547L41.745 21.0247L41.5233 21.0447L41.3567 21.1147L41.19 21.2097L41.0233 21.358L40.8917 21.478L40.8133 21.6063L40.745 21.773L40.7267 22.0347L40.81 22.2113L40.895 22.368L40.9583 22.478L41.0117 22.633L40.9683 22.778L40.8717 22.873L40.705 22.9047L40.4917 22.873L40.315 22.8113L40.165 22.703L40.0117 22.5597L39.9083 22.3797L39.85 22.1647L39.8967 21.8547L39.9983 21.6513L40.2767 21.3413L40.5633 21.1113L41.0283 20.778L40.89 20.7647L40.7 20.853L40.4233 21.0197L40.21 21.1647L39.9683 21.3313L39.77 21.498L39.5867 21.6663L39.42 21.9463L39.3917 22.243L39.4333 22.4513L39.4833 22.5913L39.6 22.7913L39.735 22.948L39.9017 23.078L40.0683 23.153L40.2917 23.198L40.52 23.2063L40.76 23.1447L40.9617 23.0613L41.1033 22.9613L41.24 22.7763L41.3183 22.6097L41.3333 22.333V22.1513L41.2733 21.903L41.2033 21.768L41.1383 21.6163L41.215 21.4763L41.3667 21.4397L41.805 21.4847L41.6533 23.1047L42.29 23.163L42.3917 23.1763C42.365 23.3563 42.335 23.5363 42.3017 23.7163L42.7067 23.728C42.725 23.6263 42.7433 23.5247 42.76 23.4213L42.8183 23.3797L42.9733 23.3063L43.0983 23.2363L43.265 23.193L43.3983 23.163H43.575L43.7417 23.2063L43.8717 23.2697L43.9783 23.3497L44.0433 23.4263L44.0833 23.5413L44.07 23.6647L44.0067 23.7963L43.93 23.868L43.7633 23.963L43.6217 24.0347L43.6067 24.113L43.86 24.088L44.0267 24.0347L44.1933 23.9297L44.3233 23.7813L44.36 23.5963L44.3317 23.4197L44.275 23.2713L44.1833 23.148L44.085 23.068L43.9483 22.9813L43.745 22.918L43.54 22.9047L43.2917 22.9313L43.0183 23.0463L42.7917 23.1847C42.93 22.2963 42.9997 21.3987 43 20.4997C43 20.2113 43 19.923 42.9783 19.6363L43.2233 19.5947L43.4217 19.5547L43.5883 19.503L43.7733 19.4363L43.94 19.353L44.07 19.2497L44.22 19.128L44.35 18.9613L44.4267 18.8563L44.48 18.758L44.555 18.5913L44.5833 18.3347L44.575 17.613ZM40.3517 17.4597L40.2883 17.3713L40.2317 17.2247L40.2017 16.9713L40.2233 16.7897L40.2983 16.608L40.4 16.4847L40.5267 16.388L40.74 16.343L40.9183 16.3597L41.0483 16.4163L41.1367 16.5497L40.3517 17.4597ZM41.12 17.9363L40.935 17.9663L40.7283 17.8397L40.5617 17.7013L41.3017 16.8413L41.3717 17.0613L41.4017 17.3263V17.5713L41.2567 17.818L41.12 17.9363ZM31.8967 4.5L32.05 4.13833C29.7933 3.1878 27.3687 2.69984 24.92 2.70333C24.5622 2.70333 24.2072 2.71333 23.855 2.73333L23.8333 2.33333L23.8567 2.055L23.9817 1.81333L24.1483 1.64667L24.3983 1.55167H24.7117L24.9933 1.635L25.2583 1.77333L25.5333 1.98667L25.7667 2.18L26.02 2.42667L26.1717 2.59333L26.3217 2.58333L26.19 2.41667L26.0617 2.25L25.8767 2.03833L25.6667 1.83333L25.4567 1.64333L25.2467 1.48667L25 1.33333L24.7367 1.25333L24.4033 1.23167L24.1367 1.27667L23.94 1.355L23.735 1.47667L23.615 1.60833L23.4733 1.81333L23.39 2.06333V2.33333L23.4283 2.76C19.466 3.07573 15.7166 4.68228 12.755 7.33333L13.0233 7.63833C13.16 7.51667 13.2983 7.39833 13.4383 7.28L14.235 8.305L13.94 8.52833L14.1067 8.74833L14.89 8.85167L15.1033 8.685L14.82 8.31667L15.705 7.65L16.5 8.66667L16.8867 8.71833L17.0217 8.615L15.0417 6.06333C15.3425 5.86198 15.6493 5.66967 15.9617 5.48667L17.515 8.04167L17.89 8.145L18.04 8.06167L16.3483 5.26833C16.7484 5.0461 17.1582 4.842 17.5767 4.65667L17.4733 4.83333L17.395 4.98833L17.3633 5.105L17.385 5.27167L17.4733 5.37833L17.625 5.45667L17.7817 5.48667L17.915 5.49667L18.1017 5.47167L18.2467 5.42667L18.1667 5.6L18.1133 5.72667L18.08 5.87L18.1 6.03667L18.1867 6.18667L18.28 6.31167L18.4083 6.40167L18.51 6.465L18.6583 6.53667L18.825 6.59667L18.9717 6.63L19.1683 6.64667L19.36 6.63L19.5583 6.58333L19.725 6.515L19.8583 6.42833L19.99 6.31833L20.115 6.17167L20.2117 5.98833L19.9367 5.32167V5.47833L19.9033 5.63333L19.8483 5.76833L19.7667 5.935L19.7 6.04167L19.61 6.13833L19.505 6.23167L19.3933 6.305L19.2717 6.35333L19.1233 6.4L18.9717 6.38167L18.865 6.35L18.7433 6.30167L18.63 6.215L18.56 6.12333L18.5 5.96667L18.4883 5.8L18.54 5.65167L18.6317 5.505L18.74 5.395L18.8533 5.285L19.02 5.17833L19.155 5.12333L18.64 4.88333L18.5783 4.97167L18.53 5.04167L18.4583 5.12667L18.355 5.19L18.21 5.26333L18.0433 5.28167L17.9117 5.25L17.805 5.18833L17.7667 5.09V4.945L17.8133 4.82167L17.8533 4.70833L17.9333 4.59833L18.03 4.45667C18.8254 4.12487 19.6443 3.85245 20.48 3.64167C20.5963 3.65833 20.7115 3.68233 20.825 3.71333H20.8467L20.9333 3.75667L21.0433 3.82667L21.1417 3.91833L21.2017 4.04333V4.21L21.1667 4.33333L21.09 4.42333L21.0167 4.51L20.9183 4.58L20.83 4.62167L20.7083 4.64667L20.6 4.65667L20.4733 4.60667L20.3583 4.625L20.4167 4.81333L20.525 4.95667L20.65 5.105L20.795 5.25833L20.9617 5.41667L21.165 5.55L21.3317 5.65333L21.4983 5.715L21.6417 5.76L21.7983 5.74167L22.02 5.665L22.15 5.56L22.3033 5.39333L22.46 5.19L22.6667 6.22167L22.99 6.435L23.1567 6.40167L22.5483 3.465L22.5 3.255C22.8167 3.21333 23.1333 3.18167 23.4533 3.155L23.6667 6.10333L23.9583 6.355L24.125 6.34333L23.9017 3.125C24.235 3.10733 24.571 3.09783 24.91 3.09667H25.145L25.0567 4.38333L24.6867 4.36L24.6683 4.63667L25.1883 5.22L25.4567 5.23667L25.4867 4.77667L26.5983 4.84667L26.5167 6.13167L26.7717 6.42L26.9383 6.43167L27.1667 3.235C28.0873 3.3495 28.9978 3.535 29.89 3.79L29.5 5.02167L29.3067 4.61L29.1867 4.41L29.0383 4.265L28.8817 4.19833L28.705 4.14667L28.4667 4.16667L28.3 4.20167L28.1667 4.28167L28.0483 4.37667L27.9467 4.48833L27.8783 4.66667L27.8333 4.83333V4.965L27.8633 5.11333L27.9483 5.30333L28.045 5.43333L28.155 5.55L28.2633 5.64333L28.4 5.71333L28.6183 5.77833L28.89 5.80667L29.1217 5.73L29.3083 5.64833L29.0133 6.62833L29.1983 6.96167L29.365 7.01L29.815 5.51L29.9817 5.44L30.175 5.37833L30.3033 5.34833L30.415 5.31833L30.545 5.30833L30.7117 5.355L30.815 5.42L30.89 5.51833L30.9317 5.63167L30.905 5.76667L30.8433 5.89833L30.7417 5.98L30.6017 6.09L30.5133 6.12667L30.4 6.17L30.29 6.19L30.1967 6.20333L30.1067 6.17833L30.285 6.695L30.47 6.615L30.6917 6.52L30.8583 6.42L30.9683 6.28833L31.0567 6.14833L31.1083 6.05L31.145 5.88333V5.71667L31.12 5.55L31.09 5.42333L31.0467 5.315L30.9833 5.18L30.9167 5.06667L30.8483 4.99167L30.735 4.93L30.6217 4.89833L30.5283 4.88333H30.3867L30.25 4.915L30.1 4.96167L29.975 4.98833L30.3083 3.90667C30.8483 4.08 31.3777 4.27783 31.8967 4.5ZM29.3533 5.225L29.1867 5.305L29.0583 5.365L28.9083 5.415L28.77 5.46L28.6333 5.48667L28.4533 5.44667L28.2983 5.33833L28.2217 5.215L28.1967 5.08L28.2067 4.97333L28.2217 4.86L28.2867 4.75167L28.355 4.67167L28.46 4.59L28.57 4.55333L28.7083 4.53167L28.8883 4.51667L29.0233 4.58833L29.1517 4.69667L29.2417 4.80167L29.34 4.96L29.4467 5.15167L29.3533 5.225ZM15.465 7.36833L14.585 8.035L13.7517 7.005C14.0384 6.77354 14.3325 6.5512 14.6333 6.33833L15.465 7.36833ZM22.075 3.445L22.325 4.65333L22.2983 4.74667L22.2133 4.885L22.0883 5.05167L21.9417 5.19L21.775 5.27833L21.5483 5.325H21.3717L21.22 5.26833L21.0417 5.14667L20.885 5.04333L20.7183 4.87667L20.9383 4.89333L21.105 4.86167L21.2717 4.75167L21.405 4.65333L21.4917 4.525L21.5617 4.37833L21.57 4.23167V4.12333L21.52 3.985L21.44 3.88L21.3333 3.78333L21.235 3.73L21.16 3.68833L21.1183 3.66L20.8333 3.55667C21.23 3.465 21.6333 3.39 22.04 3.32333L22.075 3.445ZM26.6183 4.48333L25.5083 4.415L25.6133 3.11167C25.985 3.125 26.355 3.14833 26.7233 3.185L26.6183 4.48333ZM9.66666 25.4035C9.66666 25.5453 9.61031 25.6814 9.51001 25.7817C9.40971 25.882 9.27368 25.9383 9.13183 25.9383C8.98998 25.9383 8.85395 25.882 8.75364 25.7817C8.65334 25.6814 8.597 25.5453 8.597 25.4035C8.597 25.2617 8.65334 25.1256 8.75364 25.0253C8.85395 24.925 8.98998 24.8687 9.13183 24.8687C9.27368 24.8687 9.40971 24.925 9.51001 25.0253C9.61031 25.1256 9.66666 25.2617 9.66666 25.4035ZM41.9367 25.4035C41.937 25.5098 41.9058 25.6138 41.8469 25.7023C41.7881 25.7908 41.7043 25.8598 41.6061 25.9007C41.508 25.9415 41.4 25.9523 41.2957 25.9316C41.1915 25.9109 41.0957 25.8598 41.0205 25.7846C40.9454 25.7095 40.8942 25.6137 40.8736 25.5095C40.8529 25.4052 40.8637 25.2972 40.9045 25.199C40.9453 25.1009 41.0144 25.0171 41.1029 24.9583C41.1914 24.8994 41.2954 24.8682 41.4017 24.8685C41.5436 24.8685 41.6796 24.9249 41.78 25.0252C41.8803 25.1255 41.9367 25.2616 41.9367 25.4035ZM31.5817 47.0482L32.2883 47.6198C32.295 47.6297 32.2995 47.641 32.3015 47.6527C32.3035 47.6645 32.303 47.6766 32.3 47.6882C32.2974 47.7 32.2924 47.7112 32.2852 47.721C32.2781 47.7307 32.2689 47.7389 32.2583 47.7448H32.25C32.2451 47.7462 32.2399 47.7462 32.235 47.7448C32.2253 47.749 32.2148 47.7512 32.2042 47.7512C32.1936 47.7512 32.1831 47.749 32.1733 47.7448L31.4317 47.4115L31.045 47.2182L31.5817 47.0482ZM12.1567 42.8822C12.2137 42.8118 12.2531 42.7287 12.2714 42.64C12.2896 42.5512 12.2863 42.4594 12.2617 42.3722C12.2437 42.3148 12.2208 42.259 12.1933 42.2055L12.1433 42.1155L12.2083 42.1305C12.2537 42.1412 12.3003 42.144 12.3467 42.1388C12.4152 42.1325 12.4819 42.1133 12.5433 42.0822C12.6093 42.0451 12.6662 41.9939 12.71 41.9322C12.7507 41.88 12.7806 41.8203 12.7981 41.7565C12.8155 41.6927 12.8201 41.6261 12.8117 41.5605C12.7605 41.3422 12.6259 41.1525 12.4367 41.0322C12.3507 40.9668 12.2559 40.9141 12.155 40.8755C12.0804 40.8444 12 40.8297 11.9192 40.8323C11.8384 40.8349 11.7591 40.8547 11.6867 40.8905C11.6145 40.9347 11.548 40.9872 11.4883 41.0472L11.7383 41.2422L11.8283 41.1772L11.89 41.1538C11.9528 41.1368 12.0189 41.1368 12.0817 41.1538C12.1537 41.1787 12.2208 41.2158 12.28 41.2638C12.326 41.3003 12.3673 41.3423 12.4033 41.3888C12.45 41.4298 12.4796 41.4867 12.4864 41.5484C12.4932 41.6101 12.4766 41.6721 12.44 41.7222C12.4132 41.759 12.3777 41.7886 12.3367 41.8084C12.2957 41.8281 12.2505 41.8375 12.205 41.8355C12.0464 41.8329 11.8939 41.7738 11.775 41.6688L11.7 41.6122V41.5905L11.655 41.5805L11.4733 41.8238L11.4967 41.8638H11.5117L11.5367 41.8772L11.5817 41.9022L11.6467 41.9488C11.7085 41.9913 11.7647 42.0417 11.8133 42.0988L11.93 42.2655C11.9622 42.3323 11.9754 42.4067 11.968 42.4805C11.9607 42.5543 11.9331 42.6247 11.8883 42.6838C11.855 42.7273 11.8137 42.7642 11.7667 42.7922C11.7215 42.8137 11.6703 42.819 11.6217 42.8072C11.5724 42.7975 11.5243 42.7824 11.4783 42.7622L11.345 42.6955L11.2467 42.6238C11.2062 42.5949 11.1683 42.5625 11.1333 42.5272C11.0468 42.4533 10.988 42.3522 10.9667 42.2405C10.9602 42.1942 10.9637 42.1471 10.9767 42.1022C11.0026 42.0425 11.0362 41.9865 11.0767 41.9355L10.8217 41.7455L10.7917 41.7705L10.7633 41.8088C10.7122 41.867 10.6683 41.9313 10.6333 42.0005C10.6177 42.0691 10.6071 42.1387 10.6017 42.2088C10.6017 42.4405 10.7517 42.6588 11.03 42.8638C11.0835 42.9035 11.1392 42.9402 11.1967 42.9738C11.3345 43.0595 11.4902 43.1125 11.6517 43.1288C11.7503 43.1377 11.8495 43.1194 11.9386 43.0759C12.0276 43.0324 12.103 42.9654 12.1567 42.8822Z" fill="black"/>
<path d="M20.595 44.7313C20.3817 44.687 20.1683 44.6387 19.955 44.5863V44.543L19.9233 44.428L19.8983 44.3213L19.85 44.1547L19.8067 44.033L19.7533 43.9247L19.7217 43.868L19.6517 43.7713L19.515 43.6047L19.4417 43.5247L19.355 43.4447L19.2633 43.378L19.165 43.303L19.0633 43.2347C19.049 43.22 19.0312 43.2091 19.0117 43.203L18.95 43.173H18.875C18.8549 43.1707 18.8346 43.1748 18.817 43.1847C18.7994 43.1946 18.7852 43.2097 18.7767 43.228L18.7617 43.258L18.7517 43.2947V43.413L18.775 43.473L18.8283 43.5213L19.0167 43.618L19.12 43.678L19.2133 43.7447L19.29 43.8147L19.3617 43.8747C19.3925 43.898 19.418 43.9275 19.4367 43.9613L19.5067 44.058L19.5633 44.1647L19.645 44.3313L19.7367 44.5297C17.3523 43.9417 15.09 42.9386 13.0533 41.5663L12.8733 41.8447C12.9933 41.9247 13.1167 42.0013 13.2383 42.0813L12.8333 42.6263L12.5 42.3763L12.3217 42.6147L12.665 42.868L12.0383 43.713L12.3133 43.928L13.5533 42.2763C13.9673 42.5392 14.3945 42.7807 14.8333 42.9997V43.018L14.8717 43.068L14.92 43.1497L14.9417 43.1863C14.9771 43.2523 14.9968 43.3256 14.9994 43.4004C15.002 43.4753 14.9874 43.5497 14.9567 43.618C14.9226 43.6826 14.8755 43.7393 14.8183 43.7847C14.7646 43.8193 14.7023 43.8383 14.6383 43.8397C14.5211 43.8374 14.4064 43.8053 14.305 43.7463L14.1983 43.6813L14.0833 43.578L13.9633 43.4597L13.8267 43.7347L14.04 43.9013L14.0017 43.9813C13.9588 44.062 13.928 44.1485 13.91 44.238C13.8967 44.319 13.8917 44.4012 13.895 44.483C13.9117 44.743 14.075 44.9363 14.3833 45.0663L14.5933 45.1563L14.76 45.2063L14.8933 44.908H14.675L14.61 44.8797C14.5092 44.8358 14.4189 44.771 14.345 44.6897C14.2799 44.6291 14.2351 44.55 14.2167 44.463C14.1979 44.3445 14.219 44.2232 14.2767 44.118L14.295 44.0797L14.3083 44.0647C14.3877 44.1053 14.4733 44.1323 14.5617 44.1447H14.7133C14.8295 44.142 14.9425 44.1058 15.0386 44.0405C15.1347 43.9751 15.2098 43.8834 15.255 43.7763C15.3162 43.6577 15.3322 43.5209 15.3 43.3913L15.2667 43.2563L15.2567 43.2197C15.5267 43.3513 15.8017 43.4797 16.0767 43.6013L15.73 44.268L15.2167 44.0113L15.0783 44.2863L15.5933 44.5447L15.1433 45.443L15.45 45.6097L16.385 43.7313C17.0583 44.0147 17.7488 44.2658 18.4567 44.4847L18.3483 44.943L18.3217 44.9297C18.3084 44.9145 18.2919 44.9026 18.2733 44.8947L18.225 44.8647L18.1667 44.833C18.1151 44.7974 18.0591 44.7689 18 44.748L17.8567 44.7047L17.6533 44.6663L17.4667 44.653L17.285 44.6847L17.1183 44.7413C17.0216 44.7848 16.9355 44.8488 16.8658 44.9288C16.7962 45.0088 16.7448 45.1029 16.715 45.2047C16.6641 45.3408 16.6518 45.4883 16.6795 45.6309C16.7071 45.7735 16.7736 45.9058 16.8717 46.013L17.005 46.1363L17.22 46.2763L17.3867 46.0663L17.2317 45.9363L17.1467 45.8413C17.0876 45.7621 17.0461 45.6712 17.025 45.5747C17.0074 45.4825 17.0131 45.3874 17.0417 45.298C17.0605 45.2297 17.0954 45.167 17.1436 45.115C17.1917 45.0631 17.2517 45.0235 17.3183 44.9997C17.3545 44.9848 17.3917 44.9732 17.43 44.9647C17.4677 44.9623 17.5056 44.9623 17.5433 44.9647C17.6242 44.9622 17.705 44.9742 17.7817 44.9997L17.9083 45.048L17.9717 45.0797L18.0433 45.1197L18.1083 45.163L18.1733 45.198L18.2183 45.2413L18.2517 45.2663L17.8833 46.458L18.205 46.568L18.8133 44.5847C19.0988 44.668 19.3872 44.7453 19.6783 44.8163L19.2983 46.7913L19.6317 46.8647L20.0083 44.8963C20.19 44.938 20.3717 44.9763 20.555 45.013L20.595 44.7313ZM25.4867 45.4602L25.4717 45.1818H25.0867C23.7763 45.1825 22.4685 45.0676 21.1783 44.8385L21.0883 45.1152C21.4867 45.1852 21.89 45.2435 22.2967 45.2935L22.2817 45.8802H22.0383L21.8717 45.9035L21.7533 45.9335C21.659 45.9715 21.5789 46.0381 21.5242 46.1238C21.4696 46.2096 21.443 46.3103 21.4483 46.4118C21.4433 46.4953 21.4555 46.5789 21.4842 46.6575C21.5129 46.736 21.5574 46.8079 21.615 46.8685C21.6735 46.9128 21.7353 46.9523 21.8 46.9868C21.876 47.0108 21.9552 47.0237 22.035 47.0252C22.38 47.0335 22.575 46.9135 22.6183 46.6652L22.63 46.1985L23.3267 46.2268L23.2983 47.3418L23.6533 47.3602L23.7117 45.4268C24 45.4435 24.2933 45.4552 24.5867 45.4618V47.3952H24.92V45.4568H25.0417L25.4867 45.4602ZM22.2683 46.5885C22.2605 46.6095 22.2504 46.6296 22.2383 46.6485C22.2123 46.6741 22.1807 46.6933 22.146 46.7045C22.1113 46.7158 22.0744 46.7189 22.0383 46.7135C21.9959 46.7164 21.9534 46.7084 21.9149 46.6903C21.8764 46.6723 21.8432 46.6447 21.8183 46.6102C21.7849 46.5492 21.772 46.479 21.7817 46.4102C21.7832 46.3692 21.7945 46.3292 21.815 46.2935C21.824 46.2751 21.8366 46.2587 21.8521 46.2453C21.8675 46.2318 21.8855 46.2216 21.905 46.2152L21.9517 46.1968L22.0333 46.1802H22.2733V46.4602L22.2867 46.5018L22.2683 46.5885ZM23.3317 45.9218L22.6367 45.8935L22.65 45.3385C22.8817 45.3635 23.1133 45.3835 23.3467 45.4018L23.3317 45.9218ZM38.0533 41.265C38.2017 41.1533 38.35 41.0433 38.4967 40.9317L38.32 40.6967C34.8068 43.4374 30.5194 45.0014 26.0667 45.1667L26.0967 45.4433C26.4617 45.4267 26.8233 45.4 27.1833 45.3667L27.2117 45.3817L27.25 45.4017C27.3142 45.4395 27.3689 45.4917 27.4096 45.5542C27.4504 45.6166 27.4762 45.6876 27.485 45.7617C27.4907 45.8355 27.481 45.9098 27.4567 45.98C27.428 46.0373 27.385 46.0862 27.3317 46.1217C27.23 46.1797 27.1154 46.2112 26.9983 46.2133H26.8733L26.72 46.1833L26.5533 46.1467L26.5783 46.4533L26.8483 46.4833V46.5717C26.8545 46.6632 26.873 46.7533 26.9033 46.84C26.9347 46.9152 26.9732 46.9872 27.0183 47.055C27.1672 47.2683 27.4067 47.3505 27.7367 47.3017L27.9633 47.27L28.13 47.2217L28.0917 46.8983L27.9717 46.9683L27.8967 47.0033L27.83 47.0133C27.7183 47.0285 27.6046 47.0194 27.4967 46.9867C27.4103 46.969 27.3316 46.9247 27.2717 46.86C27.1908 46.7675 27.1448 46.6495 27.1417 46.5267V46.465C27.2311 46.4587 27.3189 46.4379 27.4017 46.4033L27.5317 46.3267C27.6291 46.2639 27.7065 46.1744 27.7547 46.069C27.8028 45.9635 27.8197 45.8464 27.8033 45.7317C27.793 45.5974 27.7337 45.4717 27.6367 45.3783L27.575 45.3167C27.8533 45.285 28.1283 45.25 28.4083 45.2067L28.465 45.9033L27.8917 45.95L27.9167 46.2583L28.49 46.2117L28.5717 47.2117L28.92 47.1983L28.7533 45.1517C29.4033 45.0433 30.045 44.9067 30.67 44.745L30.7117 45.1467L30.2717 45.2167L30.09 45.285C30.0429 45.2997 29.9996 45.3248 29.9633 45.3583C29.8703 45.4355 29.8004 45.5368 29.7612 45.6512C29.7221 45.7656 29.7154 45.8886 29.7417 46.0067C29.7608 46.112 29.7987 46.213 29.8533 46.305C29.9162 46.392 29.9983 46.4633 30.0933 46.5133C30.29 46.6143 30.5159 46.6432 30.7317 46.595L30.8833 46.565L30.945 46.5367L30.97 46.5183L31.1783 46.8967L31.5117 46.73L31.2233 46.3967L31.4617 46.2533L31.3533 46.02L30.98 45.8683L30.7433 46.005L30.8433 46.2633L30.8267 46.2767L30.685 46.3133C30.6151 46.3251 30.5441 46.329 30.4733 46.325C30.4147 46.3188 30.358 46.3006 30.3067 46.2717C30.2494 46.243 30.1999 46.2009 30.1625 46.1489C30.125 46.097 30.1007 46.0367 30.0917 45.9733C30.0787 45.8952 30.085 45.815 30.11 45.74C30.1405 45.67 30.1923 45.6117 30.2583 45.5733L30.3417 45.5317C30.4017 45.5083 30.4467 45.4933 30.4767 45.485L31.0833 45.3867L31 44.6667C31.4067 44.5567 31.8083 44.4333 32.205 44.3C32.2792 44.33 32.3517 44.3645 32.4217 44.4033C32.5033 44.4717 32.5617 44.5233 32.5983 44.5583C32.7053 44.6753 32.789 44.8117 32.845 44.96C32.9198 45.1098 32.9483 45.2788 32.9267 45.445C32.915 45.4887 32.8928 45.5289 32.862 45.562C32.8312 45.5951 32.7927 45.6202 32.75 45.635C32.7086 45.6527 32.6641 45.6618 32.6192 45.6618C32.5742 45.6618 32.5297 45.6527 32.4883 45.635L32.3817 45.5683C32.3527 45.5377 32.3315 45.5006 32.32 45.46C32.29 45.3583 32.3083 45.2933 32.3733 45.2433C32.3895 45.2285 32.4089 45.2176 32.43 45.2117C32.458 45.1905 32.4897 45.1747 32.5233 45.165L32.42 44.8833L32.33 44.9333L32.205 45.0233L32.115 45.1L32.0483 45.1767C32.007 45.2368 31.982 45.3068 31.9758 45.3795C31.9697 45.4523 31.9826 45.5254 32.0133 45.5917C32.0448 45.6695 32.0898 45.7413 32.1467 45.8033C32.2062 45.8642 32.2762 45.9138 32.3533 45.95C32.4322 45.9797 32.5157 45.995 32.6 45.995C32.6807 45.9929 32.7604 45.9759 32.835 45.945C32.9446 45.9108 33.0428 45.8475 33.1192 45.7618C33.1955 45.676 33.2471 45.5711 33.2683 45.4583C33.288 45.2459 33.2512 45.032 33.1617 44.8383C33.1355 44.7709 33.102 44.7067 33.0617 44.6467L32.9217 44.4517C32.9016 44.4253 32.8799 44.4003 32.8567 44.3767L32.7533 44.2833L32.5717 44.175C32.805 44.09 33.0367 44.0083 33.2683 43.9133L34.0433 45.8183L34.3767 45.6967L33.6267 43.77C34.0533 43.591 34.4717 43.4005 34.8817 43.1983L35.1817 43.6983L34.975 43.8233L34.84 43.9367L34.7583 44.025C34.6992 44.108 34.6674 44.2073 34.6674 44.3092C34.6674 44.411 34.6992 44.5104 34.7583 44.5933C34.801 44.6655 34.8576 44.7285 34.9248 44.7785C34.9921 44.8286 35.0686 44.8648 35.15 44.885C35.2232 44.8918 35.2968 44.8918 35.37 44.885C35.4469 44.8655 35.5205 44.8346 35.5883 44.7933C35.8833 44.615 35.9833 44.4083 35.8883 44.1767L35.6467 43.775L36.25 43.4117L36.8267 44.3683L37.1367 44.1933L36.1367 42.5267C36.415 42.36 36.6867 42.1933 36.9567 42.0267L37.0117 42.0433C37.0543 42.0508 37.095 42.0667 37.1317 42.09C37.166 42.1033 37.198 42.1218 37.2267 42.145C37.2498 42.1618 37.2692 42.1833 37.2833 42.2083C37.3113 42.2438 37.325 42.2885 37.3216 42.3336C37.3182 42.3786 37.298 42.4208 37.265 42.4517C37.2455 42.4837 37.2187 42.5105 37.1867 42.53L36.9833 42.6533L36.8483 42.71L36.6917 42.7483L36.725 42.8333L36.775 42.9167C36.8298 43.0104 36.8959 43.0972 36.9717 43.175C37.0783 43.2533 37.1583 43.31 37.215 43.3417C37.4795 43.4672 37.7745 43.4327 38.1 43.2383C38.1712 43.1953 38.2377 43.145 38.2983 43.0883C38.3577 43.0318 38.4133 42.9717 38.465 42.9083L38.54 42.7883L38.575 42.7183L38.875 43.2183L39.1733 43.0517L38.0533 41.265ZM35.4133 44.5317C35.379 44.5569 35.3387 44.573 35.2964 44.5782C35.2541 44.5835 35.2111 44.5778 35.1717 44.5617C35.1115 44.528 35.0636 44.4761 35.035 44.4133C35.0131 44.3775 35.0005 44.3369 34.9983 44.295C34.9946 44.2541 35.0072 44.2134 35.0333 44.1817L35.0617 44.1417L35.1233 44.0833L35.3283 43.96L35.4733 44.2L35.5067 44.2283L35.54 44.3017C35.543 44.3237 35.543 44.3462 35.54 44.3683C35.5433 44.425 35.5 44.48 35.4133 44.5317ZM36.08 43.1533L35.475 43.5167L35.1883 43.04C35.4017 42.93 35.6133 42.8167 35.8217 42.7067L36.08 43.1533ZM38.3333 42.5133L38.2867 42.6167C38.2617 42.6667 38.2433 42.7017 38.2333 42.7183C38.0849 42.9009 37.8861 43.0359 37.6617 43.1067C37.5892 43.1247 37.5141 43.1292 37.44 43.12L37.3317 43.0917L37.2333 43.0467L37.1517 42.975C37.1314 42.9531 37.1135 42.929 37.0983 42.9033L37.255 42.8267L37.445 42.6917C37.4968 42.6418 37.5422 42.586 37.58 42.525C37.6236 42.4559 37.6468 42.3759 37.6468 42.2942C37.6468 42.2125 37.6236 42.1324 37.58 42.0633C37.5252 41.981 37.45 41.9144 37.3617 41.87L37.2567 41.8233H37.2467C37.4333 41.7 37.6167 41.5733 37.7983 41.4433V41.4517L38.3633 42.4L38.3333 42.5133Z" fill="black"/>
</g>
</svg>
