<svg width="50" height="50" viewBox="0 0 50 50" fill="none" xmlns="http://www.w3.org/2000/svg">
<g clip-path="url(#clip0_1_81)">
<path d="M25 46.8694C12.9218 46.8694 3.13055 37.0782 3.13055 25C3.13055 12.9218 12.9218 3.13058 25 3.13058C37.0782 3.13058 46.8694 12.9218 46.8694 25C46.8694 37.0782 37.0782 46.8694 25 46.8694Z" fill="#FFF5D3" stroke="#FF9600" stroke-width="6.26117"/>
<path fill-rule="evenodd" clip-rule="evenodd" d="M24.8119 29.4492C27.3879 29.4492 29.4763 27.389 29.4763 24.8478C29.4763 22.3064 27.3879 20.2463 24.8119 20.2463C22.2358 20.2463 20.1476 22.3064 20.1476 24.8478C20.1476 27.389 22.2358 29.4492 24.8119 29.4492Z" fill="#FF9600"/>
<path fill-rule="evenodd" clip-rule="evenodd" d="M15.3766 15.1758C14.679 14.5857 13.6263 14.6593 13.0175 15.3408C12.4008 16.0311 12.4743 17.0817 13.181 17.6796L21.4664 24.6879C22.164 25.2781 23.2168 25.2044 23.8255 24.5229C24.4422 23.8326 24.3687 22.7819 23.6621 22.1842L15.3766 15.1758Z" fill="#FF9600"/>
<path fill-rule="evenodd" clip-rule="evenodd" d="M24.8119 29.4492C27.3879 29.4492 29.4763 27.389 29.4763 24.8478C29.4763 22.3064 27.3879 20.2463 24.8119 20.2463C22.2358 20.2463 20.1476 22.3064 20.1476 24.8478C20.1476 27.389 22.2358 29.4492 24.8119 29.4492Z" stroke="#FF9600" stroke-width="1.268"/>
<path fill-rule="evenodd" clip-rule="evenodd" d="M15.3766 15.1758C14.679 14.5857 13.6263 14.6593 13.0175 15.3408C12.4008 16.0311 12.4743 17.0817 13.181 17.6796L21.4664 24.6879C22.164 25.2781 23.2168 25.2044 23.8255 24.5229C24.4422 23.8326 24.3687 22.7819 23.6621 22.1842L15.3766 15.1758Z" stroke="#FF9600" stroke-width="1.268"/>
</g>
<defs>
<clipPath id="clip0_1_81">
<rect width="50" height="50" fill="white"/>
</clipPath>
</defs>
</svg>
