<svg width="50" height="50" viewBox="0 0 50 50" fill="none" xmlns="http://www.w3.org/2000/svg">
<path d="M4 21.8121C4 25.8005 6.04436 29.3272 9.17514 31.466L22.5275 42.9857C24.1136 44.3541 26.4835 44.3359 28.048 42.9431L41.4764 30.9887C44.2363 28.8229 46 25.5168 46 21.8121C46 15.2885 40.5305 10 33.7832 10C30.3354 10 27.2212 11.3809 25 13.6019C22.7787 11.3809 19.6645 10 16.2169 10C9.46966 10 4 15.2885 4 21.8121Z" fill="url(#paint0_linear_2_361)" stroke="white" stroke-width="0.756304"/>
<path d="M29.1003 22.379C30.3188 21.417 32.2966 21.4172 33.5154 22.3793C34.7341 23.3415 34.7343 24.9029 33.5158 25.8649C32.2972 26.8269 30.3194 26.8267 29.1007 25.8646L26.8929 24.1216L29.1003 22.379ZM35.612 20.724C33.2349 18.8474 29.3799 18.8471 27.0032 20.7234L22.6992 24.1213L27.004 27.5199C29.3811 29.3965 33.2362 29.3968 35.6129 27.5205C37.9895 25.6442 37.9892 22.6007 35.612 20.724Z" fill="#FEFEFE"/>
<path d="M20.4278 25.8675C19.2093 26.8295 17.2316 26.8293 16.0128 25.8671C14.794 24.905 14.7938 23.3436 16.0123 22.3816C17.2309 21.4196 19.2086 21.4198 20.4274 22.3819L22.6351 24.1249L20.4278 25.8675ZM13.9161 27.5224C16.2932 29.3991 20.1483 29.3994 22.5249 27.5231L26.8289 24.1252L22.5241 20.7266C20.147 18.85 16.2919 18.8497 13.9153 20.726C11.5386 22.6023 11.539 25.6458 13.9161 27.5224Z" fill="#FEFEFE"/>
<defs>
<linearGradient id="paint0_linear_2_361" x1="25" y1="10" x2="25" y2="44" gradientUnits="userSpaceOnUse">
<stop stop-color="#ABBDFF"/>
<stop offset="0.33" stop-color="#E350E3"/>
<stop offset="0.99" stop-color="#F7C325"/>
</linearGradient>
</defs>
</svg>
