<svg width="50" height="50" viewBox="0 0 50 50" fill="none" xmlns="http://www.w3.org/2000/svg">
<path d="M37.7546 7.0063C35.4751 7.56013 17.9004 11.9942 13.5548 13.0645C13.4739 13.0844 13.4027 13.1269 13.3519 13.1855C13.3009 13.244 13.2731 13.3156 13.2727 13.3893V34.3381C13.2728 34.3733 13.2605 34.4075 13.2375 34.4363C13.2145 34.465 13.1819 34.4867 13.1442 34.4984L10.4542 35.3084C8.61897 35.9394 4 36.7231 4 40.3285C4 43.3427 6.37901 44.6997 8.42964 44.9321C8.67881 44.9714 8.93103 44.9941 9.18407 45C9.89589 45 12.698 44.3995 14.3323 43.4665C16.3636 42.3038 16.3636 42.2826 16.3636 39.2293V21.4186C16.3636 21.3422 16.4236 21.3473 16.5066 21.3278L34.6657 16.9243C34.695 16.9172 34.7257 16.9164 34.7554 16.9217C34.7851 16.9269 34.813 16.9383 34.8368 16.9548C34.8606 16.9713 34.8797 16.9925 34.8924 17.0167C34.9051 17.0409 34.9112 17.0673 34.9101 17.094V30.2858C34.91 30.3212 34.8972 30.3557 34.8736 30.3845C34.8502 30.4132 34.8169 30.4348 34.7787 30.4461C33.919 30.7005 32.9213 30.9973 32.221 31.2196C29.2479 32.1627 25.6364 32.7538 25.6364 36.176C25.6364 39.4422 28.366 40.8051 30.1085 40.9112C30.7966 40.957 31.4886 40.9285 32.1688 40.8263C33.0381 40.7093 34.4957 40.326 35.8528 39.566C38 38.3634 38 38.3397 38 34.819V7.16999C38.0001 7.14377 37.9932 7.11791 37.98 7.09441C37.9667 7.07091 37.9475 7.05042 37.9237 7.03457C37.8999 7.01871 37.8723 7.0079 37.843 7.003C37.8136 6.99809 37.7834 6.99922 37.7546 7.0063Z" fill="url(#paint0_linear_2_377)"/>
<defs>
<linearGradient id="paint0_linear_2_377" x1="21" y1="7" x2="21" y2="45" gradientUnits="userSpaceOnUse">
<stop stop-color="#ABBDFF"/>
<stop offset="0.33" stop-color="#E350E3"/>
<stop offset="0.99" stop-color="#F7C325"/>
</linearGradient>
</defs>
</svg>
