<svg width="50" height="50" viewBox="0 0 50 50" fill="none" xmlns="http://www.w3.org/2000/svg">
<path d="M35.3109 20.9732C35.2881 19.5796 35.2217 18.375 35.0303 17.3499C35.0205 17.2975 35.0105 17.2452 35 17.1933C35.9784 16.6391 36.8635 16.1721 37.6622 15.8246C39.1576 15.1738 41.0527 14.6289 42.9974 15.3233C44.912 16.0069 45.5052 17.408 45.7521 18.6651C46.0002 19.9289 46.0002 21.6296 46 23.6724V26.3277C46.0002 28.3705 46.0002 30.0711 45.7521 31.3348C45.5052 32.592 44.912 33.9931 42.9974 34.6768C41.0527 35.3711 39.1576 34.8261 37.6622 34.1755C36.8635 33.8279 35.9784 33.3609 35 32.8068C35.0105 32.755 35.0207 32.7029 35.0303 32.6506C35.2217 31.6254 35.2881 30.4207 35.3109 29.0268C37.356 30.2407 38.7683 31.0627 39.8704 31.5423C40.4499 31.7944 40.7997 31.8855 40.9906 31.9127C41.0327 31.9187 41.0615 31.9207 41.0784 31.9215L41.0895 31.9216H41.0965L41.1008 31.9204C41.11 31.9172 41.1138 31.9144 41.1138 31.9144C41.1198 31.9098 41.1518 31.8849 41.1973 31.8209C41.2994 31.6769 41.4254 31.403 41.5234 30.904C41.7241 29.8822 41.7292 28.4027 41.7292 26.2026V23.7973C41.7292 21.5973 41.7241 20.1178 41.5234 19.096C41.4254 18.597 41.2994 18.3231 41.1973 18.1792C41.1518 18.1151 41.1206 18.0909 41.1147 18.0863C41.1147 18.0863 41.11 18.0829 41.1008 18.0795L41.0976 18.0784C41.0976 18.0784 41.0869 18.0783 41.0784 18.0786C41.0615 18.0792 41.0327 18.0812 40.9906 18.0873C40.7997 18.1145 40.4499 18.2055 39.8704 18.4577C38.7683 18.9373 37.356 19.7593 35.3109 20.9732Z" fill="url(#paint0_linear_131_65)"/>
<path fill-rule="evenodd" clip-rule="evenodd" d="M20.9905 10H23.0094C25.8128 9.99995 28.0951 9.99992 29.8948 10.2284C31.7724 10.4669 33.3871 10.9812 34.6741 12.1967C35.9611 13.4123 36.5057 14.9372 36.7581 16.7105C37.0002 18.4103 37 20.5656 37 23.2133V26.7867C37 29.4345 37.0002 31.5897 36.7581 33.2895C36.5057 35.0628 35.9611 36.5878 34.6741 37.8033C33.3871 39.0188 31.7724 39.5332 29.8948 39.7715C28.0949 40.0002 25.813 40 23.0094 40H20.9906C18.1871 40 15.905 40.0002 14.1052 39.7715C12.2276 39.5332 10.613 39.0188 9.32592 37.8033C8.03887 36.5878 7.49431 35.0628 7.24187 33.2895C6.99991 31.5898 6.99995 29.4345 7 26.7868V23.2132C6.99995 20.5655 6.99991 18.4102 7.24187 16.7105C7.49431 14.9372 8.03887 13.4123 9.32592 12.1967C10.613 10.9812 12.2276 10.4669 14.1052 10.2284C15.905 9.99992 18.1871 9.99995 20.9905 10ZM25.5294 23.3333C26.9913 23.3333 28.1765 22.214 28.1765 20.8333C28.1765 19.4526 26.9913 18.3333 25.5294 18.3333C24.0675 18.3333 22.8824 19.4526 22.8824 20.8333C22.8824 22.214 24.0675 23.3333 25.5294 23.3333Z" fill="url(#paint1_linear_131_65)"/>
<defs>
<linearGradient id="paint0_linear_131_65" x1="40.5" y1="15" x2="40.5" y2="35" gradientUnits="userSpaceOnUse">
<stop stop-color="#26FF55"/>
<stop offset="0.17" stop-color="#26DE85"/>
<stop offset="0.62" stop-color="#268AFF"/>
<stop offset="1" stop-color="#FC55FF"/>
</linearGradient>
<linearGradient id="paint1_linear_131_65" x1="22" y1="10" x2="22" y2="40" gradientUnits="userSpaceOnUse">
<stop stop-color="#26FF55"/>
<stop offset="0.17" stop-color="#26DE85"/>
<stop offset="0.62" stop-color="#268AFF"/>
<stop offset="1" stop-color="#FC55FF"/>
</linearGradient>
</defs>
</svg>
