<svg width="50" height="50" viewBox="0 0 50 50" fill="none" xmlns="http://www.w3.org/2000/svg">
<path d="M25 0C11.1938 0 0 11.1938 0 25C0 38.8063 11.1938 50 25 50C38.8063 50 50 38.8063 50 25C50 11.1938 38.8063 0 25 0ZM27.9457 25C27.9457 25 34.4855 31.5395 34.8062 31.8605C35.6208 32.675 35.6208 33.9937 34.8062 34.8062C33.9917 35.6208 32.673 35.6208 31.8605 34.8062C31.5395 34.4875 25 27.9457 25 27.9457C25 27.9457 18.4604 34.4855 18.1396 34.8062C17.325 35.6208 16.0063 35.6208 15.1937 34.8062C14.3792 33.9917 14.3792 32.673 15.1937 31.8605C15.5125 31.5395 22.0542 25 22.0542 25C22.0542 25 15.5146 18.4604 15.1937 18.1396C14.3792 17.325 14.3792 16.0063 15.1937 15.1937C16.0083 14.3792 17.3271 14.3792 18.1396 15.1937C18.4604 15.5125 25 22.0542 25 22.0542C25 22.0542 31.5395 15.5146 31.8605 15.1937C32.675 14.3792 33.9937 14.3792 34.8062 15.1937C35.6208 16.0083 35.6208 17.3271 34.8062 18.1396C34.4875 18.4604 27.9457 25 27.9457 25Z" fill="#F67810"/>
</svg>
