<svg width="50" height="50" viewBox="0 0 50 50" fill="none" xmlns="http://www.w3.org/2000/svg">
<g clip-path="url(#clip0_1_50)">
<mask id="mask0_1_50" style="mask-type:luminance" maskUnits="userSpaceOnUse" x="0" y="0" width="50" height="50">
<path d="M50 0H0V50H50V0Z" fill="white"/>
</mask>
<g mask="url(#mask0_1_50)">
<path d="M26.07 42.1963L15.7955 42.0086C12.4689 41.9432 9.13396 42.0737 5.87254 41.3965C0.911157 40.3846 0.559675 35.4229 0.191886 31.2609C-0.31489 25.4097 -0.118702 19.4524 0.837649 13.65C1.37754 10.3943 3.50224 8.45156 6.788 8.24016C17.8799 7.47294 29.0455 7.56386 40.1127 7.9218C41.2816 7.95461 42.4585 8.13395 43.611 8.3381C49.3003 9.33375 49.439 14.9565 49.8077 19.6897C50.1755 24.4719 50.0202 29.2786 49.3172 34.0281C48.7533 37.9608 47.6742 41.2585 43.1205 41.5769C37.4151 41.9931 31.8405 42.3283 26.119 42.2216C26.1193 42.1963 26.0864 42.1963 26.07 42.1963ZM20.0296 32.2402C24.3293 29.7755 28.5468 27.3519 32.8218 24.9037C28.5141 22.439 24.3046 20.0154 20.0296 17.5672V32.2402Z" fill="#FF0000"/>
<path d="M20.0296 32.2402C24.3293 29.7755 28.5468 27.3519 32.8218 24.9037C28.5141 22.439 24.3046 20.0154 20.0296 17.5672V32.2402Z" fill="white"/>
</g>
</g>
<defs>
<clipPath id="clip0_1_50">
<rect width="50" height="50" fill="white"/>
</clipPath>
</defs>
</svg>
