<svg width="231" height="231" viewBox="0 0 231 231" fill="none" xmlns="http://www.w3.org/2000/svg">
<g clip-path="url(#clip0_253_215)">
<path d="M115.5 51.75C99.5037 51.749 84.0916 57.7618 72.3221 68.5951C60.5527 79.4284 53.286 94.2904 51.9641 110.232C50.6423 126.174 55.3618 142.03 65.1863 154.653C75.0107 167.277 89.222 175.746 105 178.38V192.47C85.782 194.224 67.3099 200.766 51.271 211.497C70.2777 224.215 92.632 231.003 115.501 231.003C138.37 231.003 160.724 224.215 179.731 211.497C163.692 200.765 145.22 194.223 126.002 192.468V178.384C140.883 175.899 154.401 168.217 164.151 156.703C173.902 145.189 179.252 130.59 179.252 115.503C179.252 98.6128 172.549 82.4128 160.615 70.4603C148.682 58.5077 132.492 51.7795 115.602 51.753C115.569 51.753 115.536 51.753 115.502 51.753L115.5 51.75Z" fill="#CA8628"/>
<path d="M141.74 195.003C155.268 198.151 168.113 203.724 179.652 211.453L179.722 211.503C178.552 212.293 177.362 213.053 176.162 213.793C157.989 224.999 137.067 230.95 115.717 230.987C94.3668 231.024 73.424 225.146 55.2121 214.003C53.8787 213.183 52.5453 212.337 51.2119 211.463C62.7737 203.704 75.6507 198.113 89.2139 194.963C94.4142 193.772 99.6903 192.94 105.005 192.473V177.903C106.325 178.123 107.655 178.293 109.005 178.413C111.005 178.603 113.005 178.693 115.125 178.703C118.096 178.702 121.063 178.495 124.006 178.083C124.676 177.993 125.346 177.883 126.006 177.773V192.463C131.304 192.954 136.563 193.803 141.747 195.003H141.74Z" fill="#0E00B1"/>
<path d="M79.2921 212.004C78.9509 212.596 78.7928 213.276 78.8378 213.959C78.8829 214.641 79.1291 215.294 79.5453 215.837C79.9615 216.379 80.5291 216.786 81.1764 217.006C81.8237 217.226 82.5217 217.25 83.1823 217.074C83.6227 216.96 84.0356 216.759 84.3965 216.483C84.7573 216.206 85.0587 215.859 85.2824 215.464C85.7354 214.667 85.855 213.724 85.6152 212.84C85.3754 211.956 84.7956 211.202 84.0023 210.744C83.61 210.516 83.1762 210.369 82.7264 210.31C82.2766 210.252 81.8197 210.284 81.3822 210.404C80.5043 210.646 79.7549 211.219 79.2921 212.004ZM139.414 212.464C138.967 213.251 138.843 214.181 139.068 215.058C139.294 215.935 139.852 216.69 140.624 217.164H140.684C141.479 217.62 142.422 217.743 143.307 217.505C144.192 217.267 144.946 216.687 145.404 215.894L145.474 215.764C145.888 214.972 145.979 214.051 145.729 213.194C145.48 212.337 144.908 211.609 144.134 211.164C143.349 210.726 142.423 210.611 141.554 210.844C140.672 211.088 139.919 211.665 139.454 212.454L139.414 212.464ZM149.215 218.164L155.075 224.034C153.685 224.534 152.285 225.034 150.865 225.474L146.384 221.004C145.779 221.363 145.126 221.636 144.444 221.814C143.442 222.087 142.395 222.157 141.365 222.022C140.335 221.886 139.342 221.547 138.444 221.024C136.646 219.987 135.33 218.282 134.783 216.28C134.237 214.278 134.503 212.14 135.524 210.334V210.264C136.572 208.455 138.294 207.136 140.313 206.596C142.332 206.056 144.483 206.339 146.294 207.384L146.414 207.454C148.173 208.509 149.45 210.211 149.971 212.196C150.492 214.18 150.217 216.289 149.204 218.074V218.144L149.215 218.164ZM111.514 215.804L102.013 225.314V230.214C100.663 230.054 99.333 229.884 98.0129 229.674V223.674L98.5929 223.094L108.693 213.004C107.738 211.348 107.419 209.401 107.794 207.527C108.17 205.653 109.215 203.98 110.733 202.819C112.252 201.659 114.141 201.091 116.048 201.221C117.955 201.352 119.749 202.172 121.096 203.528C122.443 204.884 123.25 206.684 123.367 208.592C123.484 210.499 122.903 212.384 121.732 213.895C120.561 215.405 118.88 216.438 117.003 216.8C115.127 217.163 113.182 216.83 111.533 215.864L111.514 215.804ZM118.834 209.894C119.041 209.12 118.974 208.299 118.643 207.57C118.312 206.841 117.739 206.249 117.021 205.895C116.303 205.541 115.484 205.447 114.705 205.629C113.925 205.811 113.233 206.258 112.746 206.893C112.258 207.529 112.007 208.313 112.033 209.113C112.06 209.913 112.363 210.68 112.891 211.281C113.42 211.883 114.14 212.283 114.93 212.413C115.72 212.542 116.531 212.394 117.224 211.994C117.62 211.77 117.966 211.469 118.243 211.108C118.519 210.747 118.72 210.334 118.834 209.894ZM89.0928 217.714L92.1829 220.814L92.7729 221.404V228.764C91.4328 228.504 90.0928 228.214 88.7727 227.894V223.054L86.2626 220.544C85.6571 220.903 85.004 221.176 84.3225 221.354C83.0703 221.689 81.7546 221.711 80.4921 221.416C79.2296 221.122 78.0593 220.52 77.0849 219.665C76.1104 218.81 75.362 217.728 74.906 216.514C74.45 215.301 74.3004 213.993 74.4705 212.708C74.6406 211.423 75.1252 210.2 75.8812 209.147C76.6373 208.094 77.6415 207.243 78.8049 206.671C79.9682 206.099 81.2547 205.823 82.5504 205.867C83.846 205.911 85.1108 206.274 86.2326 206.924C87.1284 207.44 87.9138 208.127 88.5438 208.946C89.1739 209.766 89.6363 210.702 89.9047 211.7C90.1731 212.698 90.2422 213.74 90.108 214.765C89.9738 215.79 89.639 216.778 89.1227 217.674L89.0928 217.714Z" fill="#D1FFFE"/>
<path d="M185.48 89.5168C183.038 89.4049 180.018 90.3287 175.965 92.7289C174.651 93.5462 175.264 94.7239 175.642 95.9942C178.836 106.976 179.463 118.456 176.896 129.622C176.58 131.31 176.419 133.191 179.591 130.974C187.293 125.603 198.761 112.24 196.509 104.869C195.084 100.951 185.109 104.513 185.109 104.513C185.109 104.513 190.096 100.238 190.453 94.8943C190.653 91.8886 188.929 89.6749 185.48 89.5168Z" fill="#792B74"/>
<path d="M91.6892 36.1042C87.9594 28.7178 82.1033 25.6002 74.1112 29.3151C64.5918 33.9058 58.4822 47.7591 60.6952 58.5471C60.6952 58.5471 52.1441 53.5593 42.5252 54.9846C22.9022 63.0786 41.115 84.8536 53.3422 92.3266C55.4172 93.6236 55.9214 94.0698 56.7713 91.9498C59.4459 85.4124 62.9599 79.2278 68.0683 74.2408C72.1722 82.9835 82.6973 78.4217 88.0743 74.1001C92.5616 83.7839 98.4513 80.4536 103.451 77.5786C107.528 85.4615 114.207 84.8286 121.082 77.6411C125.957 82.2036 135.795 81.8278 136.637 74.2151C145.113 76.8395 150.649 84.6521 159.599 72.7387C168.455 79.5608 174.006 89.5917 176.721 100.249C177.061 101.803 177.896 101.104 178.943 100.692C189.198 96.4059 201.785 84.9429 194.648 76.7169C191.085 73.1546 181.109 74.5782 181.109 74.5782C181.109 74.5782 187.879 67.4549 190.372 56.4102C192.866 45.3672 166.858 51.4219 166.858 51.4219C166.858 51.4219 174.34 45.7226 178.971 37.8849C183.603 30.0471 176.477 26.1289 167.926 26.8419C159.377 27.5539 150.826 34.3224 150.826 34.3224C150.826 34.3224 154.221 26.5169 147.264 21.4964C137.67 14.573 123.395 27.9085 123.395 27.9085C119.139 1.07349 98.5227 21.5225 91.6877 36.1038L91.6892 36.1042Z" fill="#792B74"/>
<path d="M129.31 114.143L149.31 108.773M101.65 114.143L81.6499 108.773" stroke="black" stroke-width="4.9998" stroke-linecap="round" stroke-linejoin="round"/>
<path d="M115.5 153.933C113.517 153.939 111.556 153.524 109.746 152.715C107.936 151.907 106.318 150.723 105 149.243C104.386 148.579 104.06 147.699 104.094 146.795C104.127 145.892 104.516 145.038 105.177 144.421C105.838 143.804 106.716 143.473 107.62 143.502C108.523 143.53 109.379 143.915 110 144.573L110.08 144.653L110.16 144.743C110.818 145.449 111.608 146.019 112.486 146.421C113.365 146.822 114.313 147.046 115.278 147.08C116.243 147.114 117.205 146.958 118.11 146.621C119.014 146.283 119.843 145.771 120.55 145.113L120.92 144.743C121.209 144.397 121.563 144.111 121.962 143.903C122.362 143.695 122.798 143.567 123.247 143.528C123.696 143.489 124.148 143.538 124.578 143.674C125.007 143.81 125.406 144.03 125.75 144.32C126.095 144.611 126.378 144.966 126.585 145.367C126.791 145.767 126.917 146.204 126.954 146.653C126.991 147.102 126.939 147.554 126.801 147.983C126.663 148.412 126.442 148.81 126.15 149.153L126.07 149.243C124.748 150.727 123.125 151.913 121.31 152.722C119.494 153.53 117.527 153.943 115.54 153.933H115.5Z" fill="black"/>
<path d="M115.27 127.321C107.607 127.291 100.019 128.763 94.6238 132.467C87.0038 137.797 84.7185 143.979 80.4968 150.576C77.0589 155.821 71.1708 160.6 67.0298 156.91C92.4548 186.665 138.439 186.696 163.905 156.977C157.094 160.907 152.36 154.507 150.397 150.576C139.7 132.971 136.282 127.921 115.27 127.321ZM115.002 135.719C122.459 135.799 129.988 137.016 132.148 141.671C134.725 152.99 124.56 159.125 115.467 159.186C109.377 159.136 103.267 156.806 100.207 151.446C93.8472 140.286 103.842 135.839 115.002 135.719Z" fill="#3A484A"/>
</g>
<defs>
<clipPath id="clip0_253_215">
<rect width="231" height="231" fill="white"/>
</clipPath>
</defs>
</svg>
