<svg width="263" height="264" viewBox="0 0 263 264" fill="none" xmlns="http://www.w3.org/2000/svg">
<path d="M152.677 76.1729C96.171 103.497 66.5911 77.9125 59.6783 11.3881C63.2535 10.2575 66.8103 9.11673 70.3558 7.99662C71.6332 7.59502 72.9267 8.08751 73.5619 9.21266C77.9671 17.1199 81.9952 25.2771 85.6463 33.6843C89.3448 42.2246 92.2593 51.2754 93.4576 60.783C93.5921 61.7685 94.3903 62.4195 95.3503 62.2467C113.1 59.2876 131.345 59.603 148.559 62.682C149.855 62.9072 150.738 64.061 150.744 65.4589C150.793 69.1073 151.373 73.3679 152.677 76.1729Z" fill="#00C99A"/>
<path d="M102.177 70.0898C118.374 71.6275 134.907 73.4849 151.13 75.0588C152.124 75.1477 152.641 76.2712 152.093 77.1529L109.976 142.472C108.967 144.034 107.185 144.9 105.364 144.7C88.6293 142.846 73.1964 138.172 56.6482 136.261C50.2052 132.626 43.8905 128.674 38.7454 123.476C31.3104 109.073 22.0667 97.2817 14.6946 82.8455C13.8916 81.2705 14.0062 79.3563 15.011 77.8834L59.1655 12.0421C59.7482 11.1791 61.0237 11.2402 61.4713 12.1665C68.4697 26.353 75.8193 40.7087 82.7835 54.8766C86.9021 61.8312 93.2756 66.9738 102.177 70.0898Z" fill="#0CF1BB"/>
<path d="M102.177 70.0898C118.374 71.6275 134.907 73.4849 151.13 75.0588C152.124 75.1477 152.641 76.2712 152.093 77.1529L109.976 142.472C108.967 144.034 107.185 144.9 105.364 144.7C88.6293 142.846 73.1964 138.172 56.6482 136.261C50.2052 132.626 43.8905 128.674 38.7454 123.476C31.3104 109.073 22.0667 97.2817 14.6946 82.8455C13.8916 81.2705 14.0062 79.3563 15.011 77.8834L59.1655 12.0421C59.7482 11.1791 61.0237 11.2402 61.4713 12.1665C68.4697 26.353 75.8193 40.7087 82.7835 54.8766C86.9021 61.8312 93.2756 66.9738 102.177 70.0898Z" fill="#0CF1BB"/>
<path d="M53.9728 86.6488C59.9288 75.7528 73.59 71.7482 84.4859 77.7042V77.7042C95.3819 83.6602 99.3865 97.3213 93.4305 108.217L85.8588 122.069L46.4011 100.501L53.9728 86.6488Z" fill="white"/>
<path d="M75.9918 99.4048L92.9022 108.648L85.5598 122.081L68.6494 112.837L75.9918 99.4048Z" fill="black"/>
<path d="M241.26 84.1894C247.654 84.0558 253.989 84.0129 260.323 84.0355C262.059 84.0417 262.972 85.1792 262.974 87.1195C262.986 101.672 262.996 116.224 262.997 130.777C263.001 167.879 263 204.981 263 242.084C263 244.411 262.993 246.738 262.972 249.188C262.566 249.945 262.692 250.607 262.901 251.338C262.988 254.852 263.1 258.299 262.81 261.823C262.27 262.187 262.014 261.88 261.962 261.528C261.837 260.684 261.173 260.199 260.765 259.544C259.616 257.7 259.425 255.612 259.503 253.505C259.527 252.853 260.09 252.68 260.659 252.642C261.338 252.597 261.449 252.331 261.442 251.635C261.424 249.55 260.361 247.783 259.812 245.864C259.617 245.182 258.969 245.019 258.316 244.965C257.695 244.914 257.064 244.995 256.45 244.858C255.892 244.733 255.4 244.451 255.391 243.842C255.382 243.17 255.955 243.021 256.509 242.956C257.266 242.867 258.022 242.952 258.779 242.991C259.634 243.034 260.169 242.695 260.491 241.854C260.979 240.579 261.546 239.355 261.043 237.949C260.909 237.576 260.834 237.182 260.541 236.895C259.632 236.002 259.522 235.099 260.45 234.147C260.566 234.028 260.635 233.855 260.541 233.675C258.466 234.99 255.749 234.172 254.331 232.418C253.898 231.884 253.919 231.128 254.319 230.557C254.73 229.971 255.281 230.408 255.763 230.577C257.756 231.273 258.866 230.889 259.787 229.102C260.224 228.256 260.912 228.237 261.789 228.447C261.701 227.3 261.345 226.255 261.494 225.164C261.561 224.68 261.134 224.432 260.743 224.178C259.702 223.504 259.662 223.208 260.387 222.192C260.586 221.913 260.945 221.664 260.688 221.282C260.463 220.948 260.063 221.005 259.707 221.024C259.395 221.04 259.083 221.066 258.771 221.042C258.318 221.006 257.863 220.94 257.618 220.504C257.339 220.006 257.67 219.661 258.015 219.38C258.653 218.86 258.546 218.136 258.659 217.456C258.79 216.663 258.914 215.834 260.154 216.219C260.925 216.458 261.091 215.776 261.068 215.295C261.038 214.651 261.107 214.008 260.5 213.398C259.619 212.512 259.934 211.254 260.02 210.135C260.081 209.354 260.21 208.579 260.227 207.79C260.248 206.837 259.934 206.149 259.296 205.35C258.413 204.243 257.678 202.937 257.776 201.33C257.89 199.457 257.407 199.115 255.482 199.358C254.377 199.497 253.282 199.726 252.17 199.792C250.683 199.88 250.331 199.527 250.315 198.096C250.31 197.613 250.383 197.139 250.437 196.661C250.494 196.163 250.414 195.689 250.019 195.336C249.495 194.869 248.599 194.665 248.977 193.62C249.071 193.361 248.583 193.366 248.344 193.326C246.281 192.984 244.563 191.899 242.813 190.882C242.7 190.817 242.627 190.695 242.486 190.493C242.231 189.94 242.205 189.458 242.205 188.977C242.206 173.506 242.163 158.035 242.23 142.434C242.173 141.52 242.201 140.733 242.201 139.947C242.2 123.072 242.194 106.197 242.208 89.3224C242.21 87.5742 242.311 85.8289 241.26 84.1894Z" fill="#7F8287"/>
<path d="M241.193 84.0553C242.651 85.2272 242.657 86.7331 242.654 88.3283C242.62 106.227 242.631 124.126 242.623 142.147C241.684 142.916 240.428 143.062 239.796 144.214C239.589 144.591 238.863 144.461 238.479 144.114C238.036 143.712 237.488 143.578 236.897 143.282C236.516 142.407 236.585 141.601 236.767 140.695C237.874 140.051 238.136 139.3 237.668 138.163C237.161 136.935 237.634 135.671 237.855 134.439C237.993 133.666 238.794 133.637 239.595 133.358C238.527 133.109 237.505 134.05 236.765 132.858C236.521 132.026 236.58 131.28 236.58 130.539C236.576 118.658 236.578 106.777 236.577 94.8952C236.577 94.5457 236.579 94.1962 236.576 93.8468C236.557 91.334 236.251 91.0178 233.739 91.0174C213.268 91.0137 192.798 91.0146 172.328 91.0159C172.149 91.0159 171.971 91.0155 171.792 91.0202C169.858 91.0716 169.463 91.3694 169.257 93.2933C169.028 95.4243 169.03 97.5765 169.235 99.7042C169.442 101.845 169.427 103.976 169.338 106.236C169.073 107.359 169.039 108.366 169.266 109.497C168.942 112.966 168.988 116.349 169.241 119.673C169.498 123.039 168.866 126.38 169.34 129.732C169.546 131.19 169.465 132.694 169.231 134.173C169.052 135.299 169.045 136.446 169.211 137.57C169.437 139.095 169.414 140.618 169.341 142.268C169.301 142.722 169.153 143.028 169.13 143.485C169.165 157.891 169.159 172.171 169.124 186.577C169.027 188.017 169.355 189.306 169.358 190.738C168.936 193.719 169.238 196.598 169.106 199.588C169.152 200.798 169.154 201.883 169.109 203.095C169.168 203.701 169.153 204.181 169.153 204.661C169.153 219.375 169.154 234.089 169.151 248.803C169.151 249.545 169.187 250.288 169.053 251.136C168.655 252.067 168.21 251.907 167.766 251.317C167.58 251.07 167.563 250.743 167.451 250.459C167.295 250.065 167.052 249.767 166.575 249.789C166.155 249.808 165.949 250.089 165.844 250.447C165.709 250.907 165.444 251.373 165.512 251.84C165.758 253.551 166.123 255.237 166.887 256.839C167.761 256.548 167.522 255.166 168.767 255.417C169.712 256.402 170.79 256.687 172.045 256.556C172.562 256.502 173.098 256.516 173.7 256.751C174.448 258.253 174.203 259.45 173.058 260.419C172.923 260.533 172.755 260.747 172.633 260.706C170.556 260.013 169.606 262.36 167.8 262.412C167.319 262.425 166.87 262.694 166.488 263.003C165.613 263.713 164.797 263.61 163.928 262.795C163.839 262.735 163.856 262.693 163.85 262.714C163.152 261.906 163.665 260.82 163.158 259.871C163.084 249.703 163.062 239.603 163.06 229.504C163.05 182.195 163.063 134.886 163 87.5778C162.996 84.6408 164.313 83.9946 166.741 84C191.516 84.055 216.292 84.0353 241.193 84.0553Z" fill="#A4A8AD"/>
<path d="M163.849 262.829C164.879 263.211 165.827 263.367 166.746 262.39C167.055 262.061 167.72 261.954 168.231 261.93C169.092 261.89 169.669 261.67 169.814 260.731C169.922 260.039 170.44 259.973 171.029 260.181C172.616 260.742 173.764 259.936 173.8 258.231C173.807 257.884 173.8 257.536 173.8 257.076C174.494 256.277 175.389 256.494 176.209 256.493C191.955 256.479 207.702 256.483 223.449 256.483C226.884 256.483 230.319 256.492 233.754 256.479C236.117 256.47 236.53 256.051 236.567 253.698C236.576 253.13 236.57 252.562 236.57 251.994C236.571 216.69 236.569 181.387 236.577 146.084C236.577 145.219 236.429 144.33 236.944 143.412C237.58 143.239 238.152 142.767 238.501 143.721C238.701 144.268 239.705 144.297 239.784 143.893C240.094 142.324 241.398 142.584 242.512 142.273C242.625 157.742 242.632 173.214 242.644 188.687C242.645 189.251 242.696 189.816 242.793 190.467C243.216 191.09 243.26 191.676 243.164 192.291C242.957 193.625 243.1 194.971 243.035 196.433C243.058 197.216 243.077 197.876 243.026 198.663C243.125 218.847 243.053 238.906 243.074 258.965C243.075 259.664 243.09 260.363 243.041 261.062C242.948 262.397 242.395 263.412 240.898 263.908C231.065 263.978 221.348 263.993 211.632 263.996C196.743 264.001 181.855 264.003 166.967 263.99C165.826 263.989 164.622 264.038 163.849 262.829Z" fill="#A2A8AC"/>
<path d="M242.732 196.64C242.578 194.639 242.641 192.707 242.867 190.667C245.126 191.749 247.312 193.129 250.24 193.223C248.809 194.104 248.831 194.108 250.024 194.788C250.732 195.192 251.005 195.881 250.867 196.685C250.364 199.629 250.467 199.686 253.393 199.271C254.481 199.117 255.569 198.867 256.699 198.92C257.693 198.966 258.198 199.343 258.175 200.341C258.159 200.996 258.17 201.652 258.173 202.308C258.176 202.78 258.517 203.125 258.671 203.484C259.137 204.57 260.174 205.323 260.495 206.336C260.816 207.351 260.743 208.584 260.442 209.701C260.209 210.566 260.319 211.441 260.338 212.308C260.349 212.835 260.536 213.401 261.125 213.565C261.877 213.775 262.327 213.946 261.352 214.513C261.294 214.546 261.243 214.717 261.26 214.729C262.689 215.762 260.645 216.064 260.752 216.913C260.815 217.412 260.275 217.13 260.1 216.807C259.977 216.58 259.949 216.264 259.593 216.316C259.224 216.37 259.108 216.706 259.051 216.993C258.976 217.374 258.966 217.774 258.983 218.164C259.012 218.807 258.989 219.388 258.227 219.65C257.928 219.752 257.629 219.956 257.769 220.329C257.892 220.657 258.228 220.718 258.555 220.707C258.999 220.692 259.465 220.739 259.88 220.621C260.5 220.446 260.979 220.623 261.259 221.105C261.591 221.675 261.213 222.024 260.724 222.38C259.818 223.04 259.916 223.489 260.981 223.87C261.359 224.005 261.945 224.111 261.859 224.525C261.529 226.105 262.418 227.632 262.107 229.299C260.909 228.213 260.413 228.342 260.037 229.725C259.859 230.381 259.399 230.819 258.801 230.997C257.734 231.315 256.635 231.421 255.572 230.901C255.245 230.742 254.813 230.242 254.559 230.684C254.275 231.18 254.134 232.068 254.674 232.366C255.806 232.989 256.617 234.259 258.316 233.908C259.058 233.755 259.835 234.128 260.193 233.119C260.297 232.824 260.721 232.648 260.955 232.959C261.26 233.364 261.303 234.03 260.928 234.29C259.511 235.27 260.083 235.972 261.055 236.844C261.79 237.503 261.834 240.086 261.24 240.909C261.026 241.205 260.903 241.49 260.837 241.849C260.59 243.185 260.028 243.527 258.591 243.371C257.886 243.294 257.171 243.296 256.46 243.281C256.096 243.272 255.675 243.305 255.619 243.74C255.559 244.208 255.957 244.483 256.349 244.533C257.008 244.617 257.684 244.56 258.352 244.59C259.501 244.642 260.378 245.01 260.318 246.357C260.285 247.117 260.836 247.662 261.161 248.239C261.877 249.507 261.312 250.99 262.079 252.244C262.369 252.72 261.748 253.03 261.278 252.961C259.818 252.745 259.594 253.544 259.789 254.65C260.037 256.054 260.114 257.555 260.711 258.811C261.203 259.847 262.317 260.604 262.632 261.882C262.158 263.508 260.875 263.995 259.286 263.995C253.201 263.994 247.115 263.992 240.906 263.98C242.799 262.834 242.645 260.942 242.644 259.047C242.629 239.006 242.641 218.965 242.65 198.801C243.555 198.427 243.466 199.15 243.496 199.589C243.587 200.974 243.992 202.352 243.658 203.767C243.725 203.166 243.71 202.566 244.04 202.027C244.342 201.534 244.746 201.261 245.343 201.268C245.97 201.275 246.321 201.608 246.506 202.164C246.617 202.496 246.758 202.818 246.859 203.153C247.366 204.824 247.411 204.86 249.13 204.878C249.665 204.884 250.2 204.878 250.735 204.88C253.261 204.886 253.523 205.117 253.688 207.798C254.466 206.411 255.436 205.305 255.035 203.952C254.347 201.629 253.379 200.91 251.361 200.884C250.029 200.867 248.822 200.798 248.568 199.155C248.536 198.943 248.36 198.73 248.144 198.676C246.313 198.223 246.413 196.832 246.56 195.209C245.397 196.255 244.523 197.666 242.732 196.64Z" fill="#7C8285"/>
<path d="M163.084 259.918C163.904 260.159 163.844 260.893 163.764 261.533C163.718 261.902 163.821 262.204 163.851 262.635C162.617 262.1 163.212 260.966 163.084 259.918Z" fill="#A2A8AC"/>
<path d="M262.973 251.29C262.069 250.799 262.365 250.083 262.856 249.334C262.967 249.932 262.979 250.553 262.973 251.29Z" fill="#7C8285"/>
<path d="M237.028 143.199C237.03 158.446 237.016 173.573 237.014 188.7C237.011 210.429 237.018 232.158 237.018 253.887C237.018 256.461 236.535 256.921 233.908 256.922C213.955 256.925 194.002 256.929 173.925 256.947C172.926 256.947 172.045 256.854 171.181 256.939C170.085 257.046 169.328 256.713 168.838 255.642C167.971 254.385 168.213 253.132 168.636 251.771C168.723 236.098 168.729 220.527 168.738 204.956C168.738 204.433 168.752 203.909 168.779 203.265C169.792 202.759 170.667 202.826 171.34 203.896C171.4 204.181 171.38 203.962 171.402 204.136C171.786 207.174 171.786 207.175 174.876 207.175C193.643 207.176 212.411 207.176 231.179 207.175C234.269 207.174 234.454 207.006 234.438 203.997C234.42 200.81 234.521 197.622 234.369 194.328C234.312 193.878 234.604 193.632 234.652 193.311C234.327 193.253 234.065 193.42 233.672 193.485C230.583 193.446 227.6 193.711 224.618 193.389C223.199 193.235 221.77 193.315 220.341 193.42C216.69 193.689 213.036 193.671 209.38 193.42C206.842 193.245 204.298 193.215 201.761 193.451C200.157 193.6 198.559 193.669 196.842 193.413C195.824 192.375 197.031 191.839 197.329 191.005C199.711 190.572 202.014 190.366 204.446 190.499C205.152 190.771 205.617 191.223 206.261 191.438C207.929 191.995 208.128 191.984 209.356 190.587C212.181 190.258 214.911 190.399 217.75 190.477C218.664 191.097 219.47 191.66 220.437 190.539C224.799 190.264 229.059 190.421 233.426 190.427C233.978 190.467 234.327 190.729 234.727 190.911C234.9 190.544 234.545 190.288 234.518 189.863C234.365 186.525 234.473 183.292 234.438 180.06C234.432 179.536 234.443 179.012 234.395 178.489C234.296 177.416 233.773 176.794 232.603 176.813C232.202 176.819 231.801 176.799 231.399 176.799C212.354 176.798 193.309 176.796 174.265 176.807C173.393 176.808 172.462 176.621 171.635 177.366C171.444 177.574 171.319 177.692 171.181 177.797C169.989 178.704 169.97 178.987 171.08 180.19C171.759 182.167 171.559 184.09 171.358 186.118C170.649 186.816 169.853 187.029 168.883 186.93C168.772 180.496 168.739 174.132 168.738 167.767C168.737 159.702 168.761 151.637 168.798 143.451C168.927 143.19 169.072 143.099 169.223 143.008C169.348 142.931 169.618 142.962 169.572 142.771C169.548 142.672 169.253 142.74 169.031 142.595C168.953 140.532 168.675 138.507 168.806 136.538C169.072 132.536 168.673 128.546 168.905 124.548C169.065 121.787 168.775 119.004 168.746 116.231C168.723 114.055 168.628 111.873 168.956 109.593C169.294 109.261 169.585 109.383 169.714 109.688C170.063 110.511 170.799 111.017 171.373 111.8C171.721 114.787 171.509 117.672 171.548 120.553C171.588 123.477 171.558 123.48 174.488 123.481C187.475 123.482 200.462 123.448 213.449 123.496C219.559 123.519 225.669 123.428 231.779 123.475C234.227 123.494 234.428 123.271 234.433 120.833C234.439 117.992 234.452 115.151 234.428 112.309C234.411 110.329 234.009 109.933 231.981 109.912C229.125 109.883 226.269 109.903 223.412 109.903C207.123 109.903 190.833 109.903 174.544 109.902C173.786 109.901 173.026 109.935 172.155 109.809C171.4 109.588 170.974 109.099 170.798 108.544C170.511 107.634 169.873 107.147 169.016 106.675C168.886 102.663 168.737 98.7365 168.761 94.8112C168.789 90.2803 169.236 90.5796 172.971 90.5827C193.315 90.5993 213.658 90.5911 234.002 90.5916C236.678 90.5916 237.022 90.9385 237.021 93.5166C237.017 106.626 237.022 119.734 237.033 132.966C237.17 133.266 237.327 133.444 237.336 133.662C237.425 135.852 237.637 138.046 237.118 140.331C237.033 141.317 237.025 142.199 237.028 143.199Z" fill="#6C7376"/>
<path d="M168.881 199.779C168.771 196.815 168.54 193.913 168.952 190.91C169.394 190.476 169.687 190.833 169.996 191.025C170.937 191.613 171.792 191.498 172.668 190.714C172.927 190.591 173.112 190.574 173.391 190.633C174.023 191.447 174.525 191.123 175.114 190.566C176.509 190.348 177.808 190.328 179.213 190.587C179.724 191.574 179.454 192.178 178.485 192.584C178.004 192.786 177.437 192.645 176.9 193.029C176.197 193.387 175.555 193.522 174.877 193.407C174.208 193.292 173.558 193.443 172.899 193.504C171.983 193.588 171.585 194.096 171.519 194.95C171.464 195.682 171.586 196.427 171.31 197.24C170.651 197.777 170.113 198.24 169.985 199.064C169.912 199.537 169.609 199.97 168.881 199.779Z" fill="#6C7376"/>
<path d="M168.615 251.657C168.727 252.893 168.738 254.117 168.76 255.46C168.172 255.556 167.891 255.797 167.885 256.424C167.88 256.953 167.534 257.362 166.983 257.385C166.395 257.409 166.436 256.881 166.272 256.474C165.883 255.506 165.871 254.431 165.435 253.508C164.852 252.273 165.29 251.137 165.542 249.975C165.665 249.408 166.208 249.347 166.709 249.314C167.389 249.268 167.627 249.738 167.826 250.243C168.017 250.729 167.712 251.447 168.615 251.657Z" fill="#A2A8AC"/>
<path d="M172.681 190.781C172.178 191.892 171.291 191.938 170.339 191.582C169.907 191.421 169.543 191.086 169.054 190.815C169.013 189.559 168.584 188.345 168.77 186.979C169.544 186.929 170.064 186.106 170.965 186.342C171.744 186.97 171.485 187.792 171.491 188.533C171.497 189.471 171.753 190.218 172.681 190.781Z" fill="#72787B"/>
<path d="M168.776 199.836C169.595 199.749 169.771 199.187 169.759 198.617C169.742 197.806 170.096 197.424 170.991 197.364C171.617 197.825 171.529 198.453 171.535 199.04C171.548 200.281 171.577 201.522 171.489 202.887C171.434 203.181 171.373 203.339 171.192 203.575C170.391 203.49 169.684 203.317 168.887 203.144C168.782 202.082 168.766 201.019 168.776 199.836Z" fill="#72787B"/>
<path d="M237.133 140.447C237.033 138.07 237.027 135.702 237.032 133.212C237.5 133.169 237.933 133.408 238.399 132.993C238.743 132.688 239.246 132.801 239.678 132.881C239.949 132.931 240.152 133.122 240.164 133.421C240.177 133.763 239.927 133.896 239.648 133.859C238.271 133.675 238.143 134.427 238.011 135.544C237.876 136.687 237.79 137.71 238.261 138.818C238.709 139.874 238.191 140.54 237.133 140.447Z" fill="#A2A8AC"/>
<path d="M171.173 111.514C169.898 111.38 169.738 110.252 169.054 109.494C168.532 108.588 168.759 107.666 168.891 106.67C170.953 106.451 170.825 108.326 171.653 109.402C171.989 110.241 171.459 110.812 171.173 111.514Z" fill="#72787B"/>
<path d="M241.179 137.924C241.812 138.775 241.024 138.981 240.583 139.272C240.345 139.429 240.056 139.152 240.025 138.895C239.933 138.135 240.537 138.021 241.179 137.924Z" fill="#A2A8AC"/>
<path d="M168.932 142.613C169.442 142.663 169.725 142.228 170.208 142.101C170.292 143.032 169.776 143.294 168.913 143.328C168.847 143.118 168.874 142.904 168.932 142.613Z" fill="#72787B"/>
<path d="M242.651 196.692C244 196.721 245.31 196.866 245.741 195.098C245.844 194.676 246.381 194.662 246.778 194.847C247.158 195.024 247.197 195.327 247.071 195.726C246.575 197.293 246.747 197.611 248.275 198.201C248.716 198.371 249.075 198.687 249.044 199.172C248.966 200.37 249.712 200.554 250.662 200.508C251.74 200.456 252.701 200.691 253.721 201.119C254.483 201.439 254.691 201.851 254.875 202.468C254.986 202.836 254.931 203.259 255.263 203.557C255.925 204.15 255.873 204.715 255.271 205.355C254.754 205.903 254.889 206.729 254.493 207.387C254.163 207.935 253.839 208.256 253.266 208.079C252.473 207.834 253.141 207.383 253.232 207.052C253.529 205.968 253.035 205.263 251.872 205.239C250.669 205.215 249.466 205.255 248.263 205.226C247.329 205.203 246.652 204.927 246.621 203.789C246.604 203.164 246.378 202.484 246.047 201.945C245.655 201.305 244.971 201.385 244.52 201.911C244.167 202.322 243.836 202.833 244.127 203.471C244.29 203.829 244.366 204.244 244.041 204.572C243.875 204.739 243.596 204.74 243.424 204.6C243.013 204.266 243.132 203.786 243.235 203.385C243.65 201.783 243.231 200.259 242.758 198.702C242.652 198.055 242.648 197.431 242.651 196.692Z" fill="#7F8287"/>
<path d="M171.113 211.624C171.247 210.101 171.701 209.709 173.298 209.707C179.768 209.699 186.238 209.703 192.708 209.703C205.871 209.703 219.034 209.703 232.197 209.706C234.28 209.706 234.857 210.277 234.86 212.366C234.865 215.513 234.86 218.66 234.851 221.806C234.846 223.884 234.355 224.368 232.258 224.368C212.669 224.37 193.081 224.371 173.492 224.37C171.546 224.37 171.107 223.945 171.108 222.101C171.111 218.649 171.113 215.196 171.113 211.624Z" fill="#A0A7AA"/>
<path d="M194.157 159.598C207.055 159.596 219.819 159.594 232.584 159.591C234.33 159.591 234.827 160.015 234.844 161.725C234.879 165.222 234.874 168.719 234.856 172.216C234.848 173.675 234.234 174.266 232.706 174.247C229.411 174.205 226.118 174.369 222.818 174.071C219.442 173.765 216.054 174.204 212.67 174.28C208.298 174.378 203.939 174.006 199.571 174.043C197.213 174.064 194.856 174.246 192.498 174.242C189.738 174.238 186.979 174.089 184.219 174.043C180.743 173.984 177.277 174.382 173.797 174.268C171.442 174.19 171.111 173.917 171.106 171.604C171.098 168.281 171.097 164.959 171.1 161.637C171.102 159.753 171.273 159.588 173.136 159.589C180.098 159.593 187.061 159.595 194.157 159.598Z" fill="#A0A7AA"/>
<path d="M172.567 241.016C171.445 241.021 171.132 240.457 171.132 239.581C171.132 235.737 171.107 231.892 171.132 228.048C171.14 226.817 171.655 226.466 173.175 226.466C188.786 226.469 204.396 226.471 220.007 226.474C224.245 226.475 228.482 226.477 232.719 226.483C234.315 226.485 234.842 226.948 234.852 228.467C234.873 231.874 234.878 235.282 234.85 238.689C234.835 240.449 234.385 240.876 232.576 240.95C231.933 241.379 231.295 241.342 230.674 241.342C211.863 241.349 193.052 241.35 174.241 241.342C173.708 241.342 173.167 241.359 172.567 241.016Z" fill="#A0A7AA"/>
<path d="M189.068 107.379C183.67 107.38 178.406 107.383 173.142 107.382C171.517 107.381 171.132 107.038 171.126 105.503C171.113 101.876 171.141 98.2496 171.107 94.6233C171.098 93.5795 171.437 92.9876 172.573 92.8503C173.103 92.7863 173.628 92.7143 174.161 92.714C178.443 92.7121 182.726 92.7136 187.009 92.7135C197.7 92.7132 208.393 92.5973 219.082 92.7666C223.579 92.8379 228.064 92.5302 232.556 92.7006C234.118 92.7599 234.839 93.3883 234.848 94.9324C234.869 98.5152 234.84 102.098 234.859 105.681C234.866 106.878 234.138 107.301 233.099 107.372C232.256 107.43 231.405 107.38 230.557 107.38C216.772 107.379 202.987 107.379 189.068 107.379Z" fill="#A2A8AC"/>
<path d="M234.858 149.879C234.857 151.802 234.856 153.593 234.856 155.384C234.855 157.084 234.458 157.494 232.76 157.493C218.887 157.49 205.014 157.482 191.142 157.475C185.387 157.473 179.633 157.474 173.879 157.47C171.441 157.468 171.125 157.156 171.122 154.765C171.118 151.663 171.12 148.561 171.119 145.459C171.119 143.081 171.388 142.816 173.77 142.816C179.747 142.818 185.724 142.819 191.702 142.819C205.218 142.819 218.734 142.818 232.25 142.818C234.473 142.818 234.861 143.208 234.862 145.423C234.862 146.864 234.859 148.306 234.858 149.879Z" fill="#A0A7AA"/>
<path d="M171.1 111.703C171.051 110.89 171.181 110.246 171.646 109.593C192.013 109.497 212.363 109.493 232.712 109.496C234.341 109.496 234.843 110.006 234.848 111.632C234.858 115.085 234.861 118.538 234.854 121.991C234.851 123.472 234.377 123.931 232.841 123.932C228.378 123.937 223.916 123.925 219.453 123.926C204.028 123.928 188.602 123.934 173.176 123.935C171.256 123.935 171.1 123.776 171.101 121.922C171.104 118.556 171.107 115.19 171.1 111.703Z" fill="#A2A8AC"/>
<path d="M172.833 190.859C171.56 190.881 171.097 190.244 171.105 189.163C171.112 188.303 171.102 187.443 171.085 186.462C171.124 184.312 171.25 182.283 170.892 180.154C170.277 179.309 170.5 178.588 170.992 177.776C171.176 176.407 172.089 176.358 173.095 176.36C182.954 176.375 192.813 176.377 202.672 176.378C212.576 176.378 222.48 176.369 232.383 176.369C234.41 176.369 234.859 176.807 234.863 178.843C234.869 182.557 234.851 186.271 234.833 190.104C234.717 190.503 234.508 190.665 234.14 190.766C229.509 190.819 224.95 190.832 220.267 190.86C219.61 191.209 219.054 191.248 218.367 190.942C215.309 190.866 212.36 190.849 209.287 190.844C207.822 191.405 206.46 191.321 204.978 190.925C202.448 190.646 200.046 191.197 197.503 191.013C196.519 191.311 195.629 191.156 194.627 191.185C191.53 191.256 188.555 191.232 185.453 191.198C183.427 191.148 181.516 191.461 179.527 190.917C177.989 190.84 176.558 190.837 175.003 190.847C174.522 191.116 174.14 191.161 173.629 190.931C173.328 190.86 173.13 190.851 172.833 190.859Z" fill="#A2A8AC"/>
<path d="M198.443 140.702C189.923 140.701 181.536 140.701 173.15 140.699C171.359 140.698 171.122 140.474 171.119 138.746C171.114 135.207 171.114 131.668 171.117 128.129C171.119 126.453 171.305 126.265 173.062 126.265C192.912 126.262 212.762 126.264 232.612 126.268C234.272 126.269 234.821 126.742 234.838 128.344C234.875 131.838 234.869 135.334 234.842 138.829C234.831 140.241 234.242 140.696 232.567 140.697C221.728 140.701 210.888 140.701 200.049 140.702C199.558 140.702 199.067 140.702 198.443 140.702Z" fill="#A2A8AC"/>
<path d="M229.945 242.656C230.944 242.743 231.836 242.741 232.727 242.763C234.01 242.794 234.834 243.517 234.852 244.769C234.89 247.521 234.889 250.274 234.843 253.025C234.818 254.513 233.738 255.294 232.043 255.007C231.107 254.849 230.183 254.844 229.251 254.844C210.563 254.839 191.874 254.839 173.186 254.837C171.257 254.837 171.126 254.704 171.124 252.829C171.122 250.426 171.115 248.023 171.102 245.498C170.565 243.972 170.888 243.258 172.441 242.587C172.648 242.55 172.751 242.553 172.931 242.552C173.539 242.227 174.132 242.317 174.706 242.317C192.294 242.319 209.881 242.313 227.468 242.322C228.263 242.322 229.081 242.201 229.945 242.656Z" fill="#A0A7AA"/>
<path d="M171.101 203.758C171.108 203.545 171.119 203.428 171.136 203.222C172.133 202.58 173.114 203.073 174.198 203.205C174.635 203.525 174.676 203.935 174.805 204.301C174.987 204.819 175.358 205.085 175.904 205.103C177.062 205.142 178.222 205.167 179.379 205.087C180.032 205.042 180.478 204.715 180.527 204.034C180.581 203.28 180.055 203.083 179.426 202.998C178.194 202.832 176.94 202.821 175.64 202.428C175.172 201.801 174.994 201.214 175.367 200.471C175.936 200.092 176.474 200.124 177.01 200.118C180.089 200.082 183.169 200.053 186.246 200.116C188.617 200.164 190.966 199.879 193.328 199.839C196.095 199.791 198.843 200.219 201.616 200.111C203.873 200.024 205.105 198.006 204.003 196.056C203.642 195.417 202.964 195.439 202.346 195.43C199.937 195.395 197.527 195.422 195.117 195.414C194.449 195.411 193.777 195.446 192.998 195.262C191.553 194.606 190.128 194.635 188.707 194.586C187.871 194.558 187.006 194.469 187.393 193.153C188.155 192.639 188.922 192.756 189.663 192.753C191.559 192.744 193.456 192.728 195.48 192.778C195.865 192.814 196.123 192.834 196.467 193.023C198.799 193.249 201.011 193.021 203.229 192.949C208.072 192.792 212.91 193.372 217.753 193.13C220.992 192.968 224.218 193.013 227.458 193.101C229.572 193.159 231.7 193.188 233.946 193.151C234.305 193.195 234.452 193.345 234.584 193.613C234.806 194.319 234.876 194.958 234.872 195.622C234.854 198.9 234.874 202.178 234.862 205.456C234.857 207.055 234.321 207.592 232.707 207.592C212.85 207.598 192.992 207.598 173.135 207.594C171.577 207.594 171.139 207.155 171.122 205.659C171.115 205.057 171.11 204.456 171.101 203.758Z" fill="#A2A8AC"/>
<path d="M230.072 242.639C211.41 242.742 192.769 242.751 174.128 242.753C173.822 242.753 173.516 242.672 173.109 242.588C173.183 241.946 172.47 241.669 172.462 241.036C190.327 240.935 208.196 240.93 226.065 240.926C228.115 240.925 230.164 240.93 232.34 240.947C232.393 241.924 231.577 242.009 230.889 242.212C230.606 242.296 230.249 242.173 230.072 242.639Z" fill="#72787B"/>
<path d="M204.883 190.948C206.216 190.846 207.564 190.836 209.038 190.841C208.988 191.876 207.905 192.594 207.076 192.105C206.371 191.689 205.369 191.877 204.883 190.948Z" fill="#72787B"/>
<path d="M196.577 192.998C196.371 193.101 196.166 193.113 195.858 193.108C195.287 192.441 194.511 191.961 194.625 190.949C195.526 190.88 196.366 190.884 197.292 190.949C197.662 191.865 196.788 192.251 196.577 192.998Z" fill="#72787B"/>
<path d="M172.448 242.5C171.753 243.252 170.799 243.871 171.103 245.266C169.88 245.195 169.708 244.294 170.019 243.452C170.379 242.478 171.191 241.928 172.448 242.5Z" fill="#72787B"/>
<path d="M170.966 177.685C171.005 178.395 170.948 179.109 170.889 179.932C170.071 180.18 169.921 179.545 169.867 179.042C169.797 178.382 170.04 177.786 170.966 177.685Z" fill="#72787B"/>
<path d="M218.274 190.967C218.809 190.866 219.359 190.851 220.027 190.855C219.44 192.125 219.18 192.15 218.274 190.967Z" fill="#72787B"/>
<path d="M234.139 190.857C234.186 190.54 234.404 190.382 234.746 190.248C235.037 190.576 235.754 190.838 235.171 191.353C234.624 191.836 234.476 191.182 234.139 190.857Z" fill="#72787B"/>
<path d="M234.687 193.655C234.445 193.56 234.289 193.429 234.102 193.227C234.526 192.755 235.013 192.865 235.529 193.043C235.504 193.564 234.979 193.387 234.687 193.655Z" fill="#72787B"/>
<path d="M235.64 194.288C235.614 194.411 235.576 194.476 235.539 194.541C235.502 194.476 235.432 194.41 235.435 194.347C235.44 194.251 235.443 194.072 235.64 194.288Z" fill="#72787B"/>
<path d="M174.423 203.368C173.334 203.477 172.349 203.324 171.255 203.135C171.134 201.292 171.124 199.449 171.104 197.483C171.105 196.537 171.122 195.713 171.127 194.889C171.133 193.831 171.543 193.283 172.734 193.105C174.01 192.914 175.286 193.293 176.638 192.923C178.461 192.563 180.219 192.972 182.056 192.625C183.894 192.587 185.645 192.147 187.381 193.067C187.334 194.04 187.779 194.26 188.603 194.229C190.017 194.176 191.435 194.212 192.793 194.886C192.236 195.55 191.488 195.403 190.795 195.406C186.08 195.423 181.364 195.385 176.649 195.417C174.824 195.429 174.769 195.514 174.76 197.267C174.754 198.306 174.631 199.375 175.41 200.374C175.301 201.08 175.624 201.602 175.676 202.27C175.459 202.899 174.894 203.015 174.423 203.368Z" fill="#A4A8AD"/>
<path d="M182.186 192.86C180.39 193.344 178.651 193.113 176.831 192.986C176.821 192.266 177.336 192.385 177.76 192.383C178.699 192.38 179.234 191.918 179.42 190.939C181.305 190.84 183.189 190.836 185.199 190.846C185.738 192.022 184.778 192.142 184.067 192.388C183.488 192.589 182.813 192.428 182.186 192.86Z" fill="#72787B"/>
<path d="M173.532 190.965C173.902 190.856 174.278 190.843 174.767 190.846C174.862 191.206 174.843 191.551 174.368 191.578C173.966 191.602 173.575 191.601 173.532 190.965Z" fill="#72787B"/>
<path d="M178.289 211.898C186.509 211.814 194.676 211.819 202.842 211.782C203.987 211.777 204.452 212.315 204.582 213.316C204.588 213.359 204.586 213.403 204.59 213.447C204.89 216.588 204.462 217.049 201.265 217.047C192.92 217.041 184.575 217.038 176.23 217.032C174.525 217.03 174.337 216.836 174.331 215.124C174.33 214.905 174.329 214.686 174.333 214.468C174.379 211.626 173.892 211.767 177.17 211.809C177.61 212.426 177.073 212.55 176.723 212.767C175.759 213.364 175.469 214.532 176.075 215.413C176.641 216.236 178.059 216.399 178.933 215.741C179.789 215.096 179.792 213.872 178.913 213.01C178.604 212.707 178.189 212.491 178.289 211.898Z" fill="#7C8285"/>
<path d="M198.78 219.15C200.239 219.145 201.572 219.151 202.904 219.134C203.914 219.12 204.347 219.596 204.343 220.573C204.34 221.533 203.945 222.041 202.921 222.03C201.499 222.015 200.077 222.002 198.656 222.038C197.593 222.065 196.821 221.887 196.818 220.588C196.815 219.282 197.597 219.082 198.78 219.15Z" fill="#7C8285"/>
<path d="M209.361 222.462C208.435 221.549 208.648 220.474 208.652 219.446C208.654 218.888 209.094 218.878 209.507 218.877C211.288 218.877 213.068 218.883 214.848 218.88C215.496 218.879 215.857 219.151 215.845 219.816C215.843 219.903 215.847 219.99 215.851 220.077C215.963 222.543 215.963 222.547 213.473 222.54C212.138 222.536 210.804 222.517 209.361 222.462Z" fill="#C1C5C8"/>
<path d="M185.757 221.937C184.722 219.915 185.194 219.129 187.311 219.131C188.336 219.131 189.369 219.066 190.384 219.167C191.298 219.258 191.802 219.86 191.719 220.797C191.644 221.636 191.283 222.117 190.273 222.051C188.809 221.955 187.335 222.002 185.757 221.937Z" fill="#7C8285"/>
<path d="M178.857 222.031C177.747 222.031 176.766 222.017 175.785 222.035C175.047 222.049 174.578 221.827 174.59 221.004C174.601 220.208 174.488 219.269 175.599 219.185C177.016 219.078 178.453 219.101 179.874 219.192C180.714 219.245 181.084 219.895 181.008 220.694C180.934 221.469 180.734 222.192 179.654 222.034C179.436 222.003 179.209 222.031 178.857 222.031Z" fill="#7F8287"/>
<path d="M230.64 216.685C227.641 216.734 224.751 216.754 221.861 216.747C221.262 216.746 220.446 216.819 220.478 215.946C220.505 215.201 221.249 215.231 221.824 215.228C224.537 215.216 227.249 215.195 229.961 215.222C231.155 215.234 231.312 215.568 230.64 216.685Z" fill="#72787B"/>
<path d="M224.426 219.396C223.266 219.4 222.24 219.408 221.214 219.403C220.754 219.4 220.241 219.361 220.222 218.776C220.2 218.099 220.754 218.071 221.264 218.072C224.253 218.076 227.243 218.082 230.232 218.094C230.631 218.096 231.097 218.062 231.087 218.651C231.078 219.218 230.679 219.377 230.181 219.379C228.307 219.387 226.433 219.39 224.426 219.396Z" fill="#6C7376"/>
<path d="M224.484 214.138C223.617 214.065 222.432 214.406 222.454 213.339C222.476 212.301 223.656 212.611 224.406 212.588C225.556 212.552 226.708 212.559 227.858 212.576C228.405 212.584 229.18 212.428 229.163 213.261C229.148 214.02 228.472 214.161 227.796 214.153C226.734 214.14 225.671 214.143 224.484 214.138Z" fill="#72787B"/>
<path d="M214.702 215.307C213.877 216.311 212.905 216.186 212.012 215.727C211.243 215.331 211.184 214.614 211.442 213.79C211.724 212.888 212.228 212.52 213.187 212.553C214.213 212.589 214.577 213.229 214.759 214.036C214.844 214.407 214.756 214.815 214.702 215.307Z" fill="#74A4D2"/>
<path d="M227.074 220.699C227.81 220.901 228.983 220.17 228.917 221.438C228.861 222.53 227.795 221.962 227.193 222.005C225.954 222.094 224.704 222.022 223.458 222.045C222.903 222.056 222.413 221.92 222.396 221.33C222.376 220.635 222.994 220.697 223.475 220.694C224.631 220.685 225.788 220.696 227.074 220.699Z" fill="#72787B"/>
<path d="M178.238 211.815C178.362 212.356 178.846 212.48 179.17 212.761C179.943 213.432 180.225 214.263 179.765 215.221C179.352 216.083 177.9 216.731 176.969 216.45C175.907 216.13 175.467 215.386 175.389 214.29C175.29 212.901 176.447 212.618 177.27 211.91C177.572 211.815 177.853 211.811 178.238 211.815Z" fill="#6C7376"/>
<path d="M184.457 161.992C184.881 161.564 185.349 161.696 185.78 161.695C191.351 161.684 196.921 161.68 202.491 161.681C204.393 161.681 204.613 161.901 204.602 163.811C204.587 166.511 205.25 166.966 201.36 166.948C192.938 166.908 184.515 166.933 176.093 166.931C174.333 166.93 174.334 166.927 174.339 165.159C174.342 164.33 174.389 163.498 174.33 162.672C174.267 161.807 174.696 161.598 175.569 161.707C175.864 161.88 175.981 162.082 176.095 162.389C176.173 162.651 176.183 162.831 176.143 163.102C176.1 163.247 176.076 163.304 176.008 163.439C175.433 165.567 176.276 166.392 178.335 165.871C178.809 165.751 179.22 165.505 179.775 165.341C180.563 165.221 181.257 165.238 182.05 165.317C182.493 165.401 182.828 165.513 183.185 165.515C184.598 165.525 185.266 164.531 184.681 163.275C184.555 163.002 184.351 162.763 184.352 162.354C184.382 162.198 184.396 162.137 184.457 161.992Z" fill="#7C8285"/>
<path d="M196.861 169.938C197.129 169.21 197.616 169.023 198.262 169.032C199.778 169.052 201.297 169.093 202.81 169.021C203.783 168.974 204.127 169.59 204.224 170.262C204.319 170.916 204.231 171.697 203.334 171.934C201.492 172.42 199.603 172.25 197.76 172.078C196.731 171.982 196.78 170.898 196.861 169.938Z" fill="#7F8287"/>
<path d="M190.052 169.026C191.425 168.94 191.779 169.597 191.773 170.715C191.766 171.842 191.103 172.169 190.159 172.154C188.879 172.132 187.604 172.236 186.314 171.991C185.195 171.779 185.313 171.088 185.311 170.35C185.308 169.504 185.716 169.043 186.596 169.035C187.707 169.025 188.818 169.028 190.052 169.026Z" fill="#7C8285"/>
<path d="M177.809 171.927C177.056 171.927 176.429 171.892 175.808 171.937C174.9 172.002 174.426 171.525 174.387 170.739C174.345 169.896 174.699 169.119 175.687 169.06C177.019 168.98 178.362 169.001 179.696 169.061C180.683 169.105 180.899 169.916 180.914 170.659C180.928 171.373 180.499 171.894 179.676 171.919C179.097 171.936 178.518 171.925 177.809 171.927Z" fill="#7F8287"/>
<path d="M215.462 172.128C213.517 172.171 211.689 172.148 209.863 172.203C208.974 172.23 208.493 172.005 208.623 171.041C208.669 170.698 208.656 170.342 208.628 169.995C208.558 169.104 208.931 168.729 209.871 168.759C211.429 168.809 212.992 168.814 214.55 168.763C215.554 168.729 215.96 169.136 215.843 170.08C215.759 170.752 216.076 171.475 215.462 172.128Z" fill="#C1C5C8"/>
<path d="M223.11 165.093C225.46 165.094 227.68 165.096 229.9 165.095C230.509 165.094 231.098 165.115 231.116 165.93C231.137 166.87 230.414 166.647 229.884 166.65C227.265 166.665 224.645 166.658 222.025 166.658C221.848 166.658 221.665 166.68 221.494 166.648C220.931 166.542 220.187 166.475 220.235 165.764C220.277 165.144 221.021 165.181 221.517 165.111C221.996 165.044 222.492 165.094 223.11 165.093Z" fill="#7C8285"/>
<path d="M228.431 169.301C226.073 169.297 223.847 169.304 221.622 169.277C221.146 169.271 220.448 169.523 220.415 168.671C220.383 167.827 221.058 167.989 221.557 167.987C224.361 167.973 227.165 167.972 229.97 167.982C230.471 167.983 231.142 167.823 231.105 168.669C231.068 169.509 230.381 169.254 229.898 169.291C229.455 169.324 229.008 169.3 228.431 169.301Z" fill="#72787B"/>
<path d="M184.414 162.185C184.528 162.385 184.514 162.551 184.593 162.628C185.286 163.302 185.594 164.089 185.064 164.944C184.489 165.875 183.557 166.024 182.454 165.692C181.489 165.37 181.267 164.66 181.365 163.916C181.487 162.985 182.122 162.407 183.19 162.209C183.519 162.209 183.739 162.21 184.04 162.211C184.191 162.177 184.26 162.144 184.414 162.185Z" fill="#74A4D2"/>
<path d="M223.992 170.609C225.494 170.603 226.876 170.59 228.258 170.597C228.64 170.598 229.127 170.501 229.191 171.073C229.255 171.64 228.911 172.09 228.396 172.111C226.662 172.18 224.922 172.165 223.185 172.133C222.775 172.125 222.338 171.823 222.408 171.389C222.535 170.6 223.228 170.598 223.992 170.609Z" fill="#72787B"/>
<path d="M223.708 164.027C223.003 164.021 222.324 164.083 222.317 163.262C222.309 162.449 222.976 162.468 223.566 162.469C225.12 162.472 226.674 162.479 228.227 162.488C228.642 162.49 229.079 162.53 229.155 163.026C229.244 163.608 228.803 163.699 228.335 163.817C226.843 164.193 225.33 163.94 223.708 164.027Z" fill="#72787B"/>
<path d="M183.224 162.123C181.375 163.536 181.242 163.958 182.327 165.547C181.562 165.625 180.748 165.621 179.813 165.616C179.599 164.316 179.189 163.092 178.829 161.79C180.307 161.832 181.779 161.292 183.224 162.123Z" fill="#72787B"/>
<path d="M212.003 162.943C212.743 162.475 213.418 161.828 214.196 162.574C214.985 163.331 214.974 164.332 214.645 165.265C214.401 165.957 213.674 165.922 213.035 165.894C212.259 165.86 211.764 165.408 211.604 164.737C211.467 164.165 211.391 163.511 212.003 162.943Z" fill="#74A4D2"/>
<path d="M178.773 161.699C179.416 162.887 180.333 163.984 179.694 165.511C179.216 166.041 178.607 166.149 178.013 166.301C177.191 166.511 176.354 166.501 175.835 165.803C175.277 165.052 175.124 164.162 175.826 163.277C176.308 163.572 176.249 164.027 176.309 164.447C176.425 165.248 176.925 165.566 177.702 165.438C178.381 165.326 178.872 164.965 178.748 164.21C178.611 163.387 178.059 163.053 177.223 163.171C176.838 163.225 176.49 163.49 176.005 163.305C175.938 163.05 175.941 162.858 175.944 162.569C176.2 161.996 176.739 162.028 177.217 161.773C177.743 161.71 178.201 161.699 178.773 161.699Z" fill="#6C7376"/>
<path d="M177.171 161.708C177.171 162.369 176.529 162.224 176.04 162.462C175.71 162.341 175.677 162.122 175.683 161.801C176.142 161.71 176.6 161.703 177.171 161.708Z" fill="#72787B"/>
<path d="M184.503 162.173C184.437 162.253 184.374 162.245 184.217 162.224C184.202 162.137 184.281 162.062 184.432 161.948C184.505 161.967 184.506 162.026 184.503 162.173Z" fill="#72787B"/>
<path d="M199.78 233.823C191.76 233.825 183.873 233.802 175.987 233.852C174.705 233.86 174.175 233.484 174.317 232.21C174.393 231.52 174.325 230.815 174.328 230.117C174.332 228.514 174.487 228.336 176.177 228.334C185.089 228.321 194 228.337 202.911 228.307C204.199 228.302 204.696 228.823 204.613 230.039C204.566 230.734 204.556 231.439 204.619 232.132C204.736 233.435 204.024 233.838 202.854 233.827C201.874 233.818 200.894 233.824 199.78 233.823Z" fill="#7C8285"/>
<path d="M211.134 229.237C212.912 228.048 213.834 228.052 214.961 229.169C215.761 229.963 215.848 231.818 215.129 232.778C214.434 233.706 213.242 233.859 211.903 233.192C210.598 232.543 210.255 231.723 210.706 230.293C210.809 229.963 210.952 229.645 211.134 229.237Z" fill="#74A4D2"/>
<path d="M198.288 238.812C196.996 238.812 196.791 238.08 196.833 237.144C196.877 236.169 197.483 235.918 198.358 235.928C199.871 235.947 201.384 235.943 202.897 235.927C203.814 235.918 204.357 236.286 204.319 237.233C204.281 238.163 203.922 238.825 202.815 238.814C201.346 238.8 199.878 238.812 198.288 238.812Z" fill="#7F8287"/>
<path d="M179.822 238.81C178.37 238.811 177.039 238.806 175.708 238.812C174.671 238.816 174.321 238.259 174.333 237.315C174.344 236.411 174.733 235.922 175.68 235.922C176.923 235.922 178.165 235.941 179.407 235.921C180.182 235.909 180.885 236.022 180.999 236.916C181.105 237.754 181.128 238.626 179.822 238.81Z" fill="#7C8285"/>
<path d="M191.75 237.008C191.886 238.411 191.352 238.953 189.984 238.835C188.793 238.732 187.584 238.794 186.384 238.817C185.444 238.835 185.28 238.287 185.317 237.541C185.354 236.804 185.24 235.958 186.371 235.94C187.838 235.916 189.306 235.934 190.773 235.929C191.436 235.927 191.755 236.249 191.75 237.008Z" fill="#7F8287"/>
<path d="M213.735 235.539C214.239 235.559 214.633 235.659 215.025 235.656C215.678 235.65 215.821 235.968 215.862 236.547C216.04 239.131 216.058 239.123 213.467 239.082C212.355 239.064 211.238 239.017 210.132 239.096C209.099 239.17 208.837 238.767 208.873 237.815C208.968 235.336 208.591 235.723 211.1 235.668C211.942 235.65 212.783 235.605 213.735 235.539Z" fill="#C1C5C8"/>
<path d="M228.705 238.439C228.217 239.076 227.682 239.244 226.874 239.131C225.66 238.961 224.403 239.072 223.165 239.084C222.406 239.091 221.684 239.077 221.759 238.038C221.827 237.092 221.284 235.827 222.978 235.697C223.374 235.667 223.773 235.684 224.287 235.678C224.567 235.837 224.622 236.032 224.562 236.347C224.28 236.856 223.355 236.707 223.506 237.276C223.664 237.869 224.412 237.645 224.918 237.665C225.76 237.697 226.604 237.669 227.55 237.682C228.101 237.743 228.515 237.851 228.705 238.439Z" fill="#C1C5C8"/>
<path d="M224.474 236.474C224.402 236.198 224.41 236.024 224.41 235.763C225.424 235.7 226.444 235.724 227.55 235.815C227.741 236.027 227.775 236.187 227.66 236.464C226.575 236.999 225.564 236.987 224.474 236.474Z" fill="#A4A8AD"/>
<path d="M228.795 238.48C228.43 238.356 228.269 237.939 227.717 238.021C227.482 237.842 227.427 237.645 227.503 237.326C227.814 236.948 228.152 236.861 228.631 236.936C229.13 237.426 229.005 237.92 228.795 238.48Z" fill="#A4A8AD"/>
<path d="M228.723 236.874C228.458 237.061 228.187 237.142 227.83 237.219C227.474 237.101 227.465 236.886 227.573 236.553C227.634 236.33 227.633 236.202 227.633 235.979C228.227 235.907 228.821 235.93 228.723 236.874Z" fill="#C1C5C8"/>
<path d="M178.554 94.9013C186.69 94.8142 194.769 94.8082 202.847 94.7832C204.007 94.7796 204.555 95.256 204.601 96.4166C204.738 99.8982 204.634 100.036 201.099 100.039C193.601 100.046 186.102 100.041 178.478 100.035C178.05 99.6355 178.374 99.4044 178.592 99.1451C179.834 97.67 179.842 97.324 178.656 95.6962C178.493 95.4723 178.397 95.249 178.554 94.9013Z" fill="#7C8285"/>
<path d="M199.286 105.281C197.174 105.277 196.766 104.981 196.832 103.658C196.875 102.797 197.305 102.387 198.178 102.388C199.829 102.39 201.481 102.407 203.132 102.373C204.13 102.352 204.312 102.938 204.339 103.72C204.367 104.553 204.181 105.242 203.163 105.27C201.915 105.305 200.664 105.28 199.286 105.281Z" fill="#7F8287"/>
<path d="M215.427 98.4538C214.512 99.7694 212.735 100.21 211.69 99.4656C210.793 98.8262 210.393 96.6952 210.998 95.7857C211.656 94.798 213.633 94.4575 214.744 95.2391C215.874 96.0334 215.618 97.2284 215.427 98.4538Z" fill="#74A4D2"/>
<path d="M191.764 102.877C192.277 104.843 191.936 105.286 190.021 105.292C188.908 105.296 187.794 105.292 186.68 105.295C185.428 105.298 185.327 104.506 185.279 103.531C185.225 102.43 185.82 102.341 186.686 102.369C187.977 102.409 189.271 102.368 190.563 102.389C190.979 102.395 191.484 102.229 191.764 102.877Z" fill="#7C8285"/>
<path d="M180.536 102.511C181.413 104.508 180.902 105.267 178.803 105.28C177.778 105.286 176.753 105.279 175.728 105.291C174.548 105.305 174.361 104.524 174.341 103.627C174.32 102.683 174.817 102.329 175.768 102.369C177.324 102.435 178.884 102.426 180.536 102.511Z" fill="#7F8287"/>
<path d="M222.332 99.7669C221.85 99.7608 221.493 99.7744 221.14 99.7441C220.673 99.7041 220.414 99.443 220.426 98.971C220.438 98.4975 220.716 98.237 221.181 98.2354C224.247 98.2244 227.312 98.2149 230.377 98.2401C230.91 98.2445 231.35 98.5877 231.312 99.147C231.267 99.7987 230.68 99.7748 230.189 99.7752C227.612 99.7771 225.035 99.7705 222.332 99.7669Z" fill="#72787B"/>
<path d="M214.69 105.54C212.975 105.446 211.371 105.741 209.79 105.309C208.141 104.858 208.975 103.576 208.951 102.695C208.927 101.811 209.733 101.97 210.456 102.038C211.779 102.162 213.12 102.111 214.454 102.122C215.145 102.127 215.966 102.102 215.815 103.061C215.677 103.929 216.633 105.306 214.69 105.54Z" fill="#C1C5C8"/>
<path d="M226.833 102.392C224.915 102.398 223.13 102.407 221.345 102.405C220.859 102.404 220.244 102.461 220.218 101.79C220.189 101.015 220.854 101.087 221.383 101.086C224.284 101.083 227.184 101.086 230.085 101.094C230.562 101.096 231.134 100.993 231.113 101.753C231.091 102.498 230.521 102.386 230.046 102.39C229.02 102.4 227.994 102.392 226.833 102.392Z" fill="#72787B"/>
<path d="M222.534 104.848C222.274 104.03 222.608 103.704 223.342 103.704C224.891 103.704 226.439 103.709 227.988 103.711C228.476 103.711 228.878 103.85 228.951 104.39C229.003 104.766 228.866 105.19 228.464 105.189C226.507 105.18 224.523 105.667 222.534 104.848Z" fill="#72787B"/>
<path d="M178.505 94.8169C178.666 95.0289 178.655 95.2921 178.784 95.4254C180.396 97.0897 180.358 98.0817 178.605 99.5425C178.511 99.6216 178.456 99.7473 178.368 99.9403C177.896 100.028 177.438 100.027 176.866 100.02C176.313 99.6307 175.627 99.4158 175.817 98.5476C176.316 98.2193 176.706 98.5826 177.135 98.598C177.92 98.6263 178.563 98.4058 178.741 97.5753C178.879 96.937 178.608 96.4493 177.92 96.3161C177.092 96.1557 176.557 96.5172 176.328 97.3097C176.232 97.6384 176.234 98.0029 175.854 98.2934C174.675 97.4674 174.911 96.0162 176.37 95.0644C177.109 94.9368 177.754 94.8723 178.505 94.8169Z" fill="#72787B"/>
<path d="M228.53 97.1283C226.86 97.1419 225.306 97.1359 223.751 97.1427C223.142 97.1454 222.436 97.083 222.423 96.3904C222.409 95.6371 223.176 95.8318 223.67 95.8247C225.179 95.8029 226.69 95.8134 228.2 95.8148C228.614 95.8152 229.029 95.8643 229.16 96.3335C229.276 96.7486 229.021 96.9819 228.53 97.1283Z" fill="#72787B"/>
<path d="M176.366 94.9632C175.829 95.9611 174.914 96.8571 175.812 98.1687C175.949 98.2304 175.987 98.2693 175.987 98.38C175.747 99.161 176.614 99.2924 176.739 99.9224C176.4 100.019 176.045 99.9996 175.696 100.036C174.647 100.147 174.254 99.6865 174.332 98.6824C174.388 97.9528 174.348 97.2155 174.343 96.4817C174.33 94.623 174.362 94.5957 176.366 94.9632Z" fill="#7C8285"/>
<path d="M182.104 144.893C189.058 144.894 195.877 144.892 202.697 144.895C204.411 144.896 204.598 145.087 204.605 146.789C204.619 150.155 204.619 150.153 201.145 150.152C192.854 150.149 184.564 150.152 176.273 150.143C174.515 150.141 174.361 149.972 174.349 148.273C174.325 144.907 174.325 144.906 177.825 144.899C179.207 144.897 180.588 144.895 182.104 144.893Z" fill="#7C8285"/>
<path d="M196.822 153.808C196.742 152.926 197.159 152.543 197.887 152.507C199.519 152.426 201.137 152.149 202.783 152.235C203.599 152.278 204.191 152.544 204.307 153.35C204.436 154.252 204.126 155.109 203.136 155.264C201.339 155.545 199.507 155.435 197.697 155.322C196.977 155.276 196.783 154.591 196.822 153.808Z" fill="#7F8287"/>
<path d="M212.377 145.051C213.583 144.76 214.653 144.782 215.295 145.858C215.879 146.835 215.639 147.899 215.23 148.87C214.789 149.917 213.227 150.252 211.966 149.658C210.863 149.138 210.343 147.628 210.956 146.503C211.262 145.942 211.578 145.327 212.377 145.051Z" fill="#74A4D2"/>
<path d="M174.432 152.935C174.771 152.385 175.193 152.231 175.729 152.24C176.931 152.26 178.133 152.25 179.336 152.25C180.334 152.25 181.019 152.708 180.999 153.702C180.978 154.717 180.472 155.437 179.253 155.389C178.363 155.354 177.472 155.381 176.581 155.381C174.361 155.382 174.251 155.264 174.432 152.935Z" fill="#7F8287"/>
<path d="M187.261 155.394C185.565 155.341 185.3 155.058 185.293 153.695C185.288 152.788 185.673 152.453 186.575 152.481C187.905 152.521 189.238 152.522 190.568 152.483C191.533 152.455 191.809 152.924 191.76 153.772C191.713 154.569 191.79 155.409 190.581 155.393C189.516 155.379 188.451 155.393 187.261 155.394Z" fill="#7C8285"/>
<path d="M212.45 152.207C213.192 152.223 213.846 152.341 214.428 152.192C215.503 151.916 215.787 152.397 215.845 153.297C215.992 155.595 215.959 155.662 213.625 155.631C212.3 155.614 210.967 155.787 209.648 155.496C207.912 155.114 208.896 153.725 208.694 152.834C208.479 151.881 209.442 151.979 210.093 151.988C210.842 151.998 211.607 151.881 212.45 152.207Z" fill="#C1C5C8"/>
<path d="M230.468 149.867C227.498 149.874 224.649 149.877 221.8 149.868C221.241 149.866 220.513 150.006 220.442 149.197C220.369 148.353 221.2 148.364 221.682 148.367C224.612 148.389 227.541 148.496 230.47 148.576C230.753 148.584 231.018 148.659 231.077 148.97C231.154 149.379 231.145 149.771 230.468 149.867Z" fill="#72787B"/>
<path d="M230.429 151.192C231.049 151.252 231.461 151.464 231.302 152.02C231.182 152.441 230.877 152.671 230.302 152.654C227.33 152.567 224.357 152.555 221.384 152.511C220.856 152.503 220.185 152.576 220.221 151.806C220.252 151.151 220.865 151.195 221.354 151.195C224.34 151.189 227.326 151.19 230.429 151.192Z" fill="#72787B"/>
<path d="M225.507 153.817C226.525 153.821 227.414 153.819 228.302 153.831C228.789 153.837 229.228 153.969 229.173 154.556C229.13 155.017 228.893 155.383 228.329 155.381C226.641 155.376 224.954 155.393 223.267 155.356C222.801 155.345 222.368 155.065 222.404 154.55C222.433 154.13 222.822 153.873 223.247 153.847C223.955 153.802 224.667 153.824 225.507 153.817Z" fill="#72787B"/>
<path d="M226.274 145.701C227.025 145.725 227.652 145.707 228.266 145.79C228.677 145.846 229.032 146.087 228.957 146.591C228.899 146.989 228.632 147.223 228.228 147.226C226.489 147.242 224.75 147.253 223.011 147.234C222.545 147.229 222.284 146.921 222.301 146.452C222.318 145.983 222.602 145.724 223.068 145.715C224.093 145.695 225.119 145.704 226.274 145.701Z" fill="#6C7376"/>
<path d="M193.889 111.577C196.964 111.578 199.906 111.627 202.845 111.558C204.159 111.528 204.614 112.108 204.594 113.271C204.592 113.358 204.593 113.445 204.594 113.533C204.63 116.719 204.53 116.82 201.253 116.821C192.876 116.825 184.5 116.828 176.123 116.829C174.343 116.829 174.342 116.826 174.337 115.078C174.336 114.598 174.334 114.117 174.341 113.637C174.375 111.319 174.021 111.591 176.512 111.584C182.26 111.568 188.008 111.578 193.889 111.577Z" fill="#7C8285"/>
<path d="M201.8 122.036C200.439 122.024 199.203 122.128 197.96 121.852C196.803 121.595 196.802 120.832 196.825 119.965C196.849 119.05 197.486 118.928 198.201 118.924C199.761 118.915 201.322 118.955 202.881 118.919C203.962 118.894 204.282 119.511 204.318 120.395C204.354 121.294 203.873 121.751 202.962 121.823C202.611 121.851 202.267 121.953 201.8 122.036Z" fill="#7F8287"/>
<path d="M211.546 112.046C212.765 111.579 213.921 111.427 214.845 112.345C215.615 113.109 215.714 114.08 215.391 115.137C214.992 116.44 214.003 116.606 212.87 116.54C211.746 116.476 211.029 115.785 210.827 114.792C210.639 113.869 210.61 112.855 211.546 112.046Z" fill="#74A4D2"/>
<path d="M179.314 118.925C180.624 118.935 181.134 119.575 181.012 120.677C180.905 121.654 180.264 122.081 179.274 122.065C178.211 122.049 177.146 122.097 176.085 122.047C174.924 121.992 174.277 121.265 174.371 120.167C174.463 119.108 175.149 118.846 176.137 118.907C177.152 118.968 178.174 118.923 179.314 118.925Z" fill="#7F8287"/>
<path d="M185.316 120.491C185.219 119.329 185.88 118.973 186.782 118.939C187.941 118.896 189.102 118.912 190.262 118.932C191.326 118.95 191.761 119.557 191.742 120.548C191.724 121.506 191.166 121.83 190.262 121.816C189.058 121.797 187.851 121.777 186.648 121.828C185.722 121.867 185.337 121.452 185.316 120.491Z" fill="#7F8287"/>
<path d="M208.913 119.1C210.316 118.714 211.71 119.03 213.097 118.917C213.627 118.874 214.173 118.917 214.688 118.809C215.404 118.659 215.697 119.026 215.815 119.588C215.894 119.966 215.805 120.376 215.858 120.762C215.999 121.793 215.585 122.159 214.518 122.098C213.097 122.017 211.664 122.021 210.242 122.094C209.209 122.146 208.736 121.846 208.877 120.779C208.944 120.264 208.892 119.733 208.913 119.1Z" fill="#C1C5C8"/>
<path d="M221.797 116.312C221.152 116.242 220.388 116.54 220.424 115.598C220.456 114.752 221.158 115 221.634 114.996C224.435 114.974 227.236 114.978 230.037 114.984C230.504 114.985 231.079 114.863 231.122 115.602C231.164 116.325 230.648 116.323 230.14 116.323C227.401 116.32 224.663 116.316 221.797 116.312Z" fill="#7C8285"/>
<path d="M220.246 118.393C220.515 117.807 220.985 117.864 221.423 117.863C224.31 117.858 227.196 117.853 230.082 117.86C230.503 117.861 231.06 117.742 231.096 118.391C231.131 119.021 230.683 119.184 230.127 119.184C227.152 119.182 224.177 119.176 221.202 119.191C220.672 119.194 220.364 118.989 220.246 118.393Z" fill="#72787B"/>
<path d="M226.814 112.359C227.43 112.366 227.917 112.364 228.403 112.385C228.859 112.404 228.993 112.694 228.976 113.092C228.96 113.456 228.765 113.661 228.397 113.663C226.628 113.673 224.858 113.679 223.089 113.673C222.703 113.671 222.378 113.507 222.346 113.084C222.306 112.579 222.66 112.391 223.1 112.382C224.294 112.36 225.489 112.365 226.814 112.359Z" fill="#72787B"/>
<path d="M222.75 120.635C224.568 120.54 226.294 120.518 228.019 120.499C228.514 120.494 228.92 120.651 228.947 121.203C228.98 121.862 228.46 121.811 228.019 121.813C226.512 121.821 225.006 121.802 223.5 121.829C222.633 121.845 222.364 121.496 222.75 120.635Z" fill="#72787B"/>
<path d="M179.083 178.347C180.352 178.022 181.52 178.477 182.72 178.476C185.521 178.475 188.318 178.314 191.114 178.262C195.202 178.188 199.294 178.401 203.385 178.453C204.325 178.464 204.657 178.854 204.613 179.729C204.574 180.512 204.56 181.303 204.616 182.084C204.704 183.317 204.02 183.716 202.916 183.72C201.49 183.725 200.064 183.725 198.638 183.724C191.196 183.719 183.754 183.718 176.312 183.706C174.476 183.703 174.256 183.492 174.523 181.998C174.921 181.541 175.311 181.675 175.791 181.881C175.932 181.968 175.985 182.007 176.109 182.113C177.094 182.897 178.224 182.857 179.001 182.289C179.815 181.696 179.762 180.599 179.328 179.646C179.151 179.256 178.853 178.894 179.083 178.347Z" fill="#7F8287"/>
<path d="M182.237 192.934C182.26 192.097 182.937 192.135 183.557 192.121C184.37 192.103 185.035 191.886 185.319 190.953C188.362 190.853 191.4 190.846 194.562 190.857C194.661 191.747 195.766 192.049 195.757 193.001C193.075 193.11 190.393 193.13 187.586 193.155C185.774 192.813 184.063 192.97 182.237 192.934Z" fill="#6C7376"/>
<path d="M203.39 188.68C201.716 188.7 200.162 188.67 198.61 188.719C197.506 188.754 196.807 188.487 196.812 187.228C196.816 185.916 197.627 185.778 198.671 185.806C199.913 185.84 201.156 185.811 202.399 185.826C202.996 185.833 203.77 185.629 203.943 186.448C204.104 187.205 204.475 188.084 203.39 188.68Z" fill="#7F8287"/>
<path d="M174.997 186.113C176.732 185.581 178.425 185.8 180.087 185.883C181.168 185.937 181.03 186.946 181.031 187.73C181.032 188.558 180.53 188.738 179.808 188.724C178.654 188.703 177.5 188.721 176.346 188.715C174.35 188.706 173.967 188.027 174.997 186.113Z" fill="#7F8287"/>
<path d="M190.794 188.686C189.342 188.7 188.009 188.682 186.677 188.708C185.537 188.731 185.289 188.135 185.282 187.137C185.274 186.082 185.721 185.756 186.727 185.804C187.88 185.86 189.037 185.839 190.192 185.819C190.924 185.807 191.596 185.941 191.691 186.756C191.776 187.482 192.064 188.387 190.794 188.686Z" fill="#7F8287"/>
<path d="M231.291 185.319C231.127 185.999 230.699 186.093 230.154 186.091C227.252 186.077 224.351 186.091 221.449 186.088C220.922 186.087 220.232 186.177 220.207 185.447C220.184 184.757 220.763 184.523 221.417 184.523C224.319 184.524 227.22 184.528 230.122 184.521C230.669 184.52 231.071 184.711 231.291 185.319Z" fill="#7C8285"/>
<path d="M212.854 188.979C212.37 188.977 212.013 188.975 211.656 188.975C209.079 188.968 209.106 188.964 208.737 186.595C208.628 185.894 208.844 185.577 209.525 185.571C211.31 185.557 213.094 185.573 214.878 185.567C215.554 185.565 215.853 185.894 215.846 186.536C215.841 186.929 215.857 187.323 215.847 187.716C215.813 189.123 215.551 189.326 214.174 189.081C213.783 189.012 213.379 189.011 212.854 188.979Z" fill="#C1C5C8"/>
<path d="M179.018 178.259C179.068 178.857 179.553 179.203 179.761 179.666C180.206 180.662 179.884 182.307 179.144 182.761C178.461 183.18 176.421 182.934 175.943 182.268C176.572 181.993 177.212 182.407 177.87 182.087C178.44 181.81 178.837 181.491 178.771 180.82C178.716 180.266 178.391 179.96 177.833 179.91C177.2 179.853 176.711 180.08 176.434 180.665C176.228 181.098 176.347 181.617 175.997 182.093C175.543 182.068 175.156 181.981 174.668 181.901C174.136 180.95 174.398 179.939 174.334 178.952C174.289 178.254 174.786 178.223 175.308 178.227C176.504 178.237 177.699 178.238 179.018 178.259Z" fill="#72787B"/>
<path d="M228.952 183.202C226.414 183.2 224.005 183.209 221.597 183.183C221.164 183.179 220.494 183.422 220.449 182.67C220.404 181.92 221.015 181.902 221.572 181.9C224.293 181.894 227.014 181.885 229.735 181.891C230.295 181.892 231.056 181.767 231.071 182.583C231.089 183.519 230.245 183.097 229.75 183.194C229.535 183.236 229.305 183.202 228.952 183.202Z" fill="#72787B"/>
<path d="M214.635 178.544C215.718 179.531 216.043 181.188 215.458 182.333C214.997 183.237 213.725 183.728 212.454 183.425C211.385 183.17 210.889 182.464 210.745 181.375C210.443 179.087 212.346 177.704 214.635 178.544Z" fill="#A0A7AA"/>
<path d="M226.025 179.253C226.913 179.257 227.67 179.247 228.426 179.271C228.808 179.283 229.142 179.44 229.176 179.866C229.209 180.286 228.93 180.578 228.541 180.549C226.771 180.416 225.018 181.098 223.241 180.619C222.791 180.498 222.296 180.445 222.344 179.872C222.392 179.305 222.891 179.264 223.356 179.261C224.202 179.256 225.048 179.255 226.025 179.253Z" fill="#6C7376"/>
<path d="M226.546 188.713C225.393 188.715 224.37 188.718 223.347 188.718C222.88 188.717 222.393 188.667 222.354 188.094C222.315 187.513 222.772 187.388 223.256 187.388C224.946 187.386 226.636 187.388 228.326 187.402C228.75 187.405 229.183 187.502 229.118 188.04C229.066 188.468 228.76 188.717 228.278 188.709C227.744 188.699 227.21 188.711 226.546 188.713Z" fill="#72787B"/>
<path d="M198.175 133.606C190.864 133.606 183.688 133.608 176.512 133.605C174.564 133.605 174.346 133.39 174.337 131.532C174.334 130.833 174.374 130.131 174.314 129.437C174.223 128.38 174.717 128.093 175.732 128.096C184.692 128.124 193.651 128.112 202.61 128.119C204.204 128.121 204.533 128.459 204.591 130.057C204.595 130.144 204.592 130.231 204.593 130.319C204.632 133.519 204.542 133.608 201.25 133.607C200.27 133.607 199.289 133.606 198.175 133.606Z" fill="#7F8287"/>
<path d="M214.591 132.998C214.18 133.059 213.866 133.058 213.559 133.105C212.027 133.337 211.225 132.987 210.867 131.911C210.44 130.628 210.902 129.076 211.871 128.532C213.014 127.891 214.387 128.001 215.045 128.786C215.953 129.87 215.788 131.804 214.591 132.998Z" fill="#74A4D2"/>
<path d="M204.327 137.015C204.329 138.152 203.786 138.612 202.76 138.604C201.252 138.592 199.745 138.581 198.238 138.598C197.098 138.612 196.85 137.979 196.826 137.006C196.801 135.999 197.324 135.713 198.21 135.714C199.806 135.715 201.402 135.706 202.998 135.709C203.806 135.71 204.406 135.95 204.327 137.015Z" fill="#7F8287"/>
<path d="M191.027 135.789C192.141 136.314 191.778 137.183 191.632 137.889C191.499 138.53 190.852 138.62 190.229 138.61C188.984 138.59 187.738 138.581 186.494 138.612C185.226 138.644 185.203 137.634 185.137 136.896C185.069 136.127 185.605 135.659 186.515 135.695C187.98 135.752 189.448 135.736 191.027 135.789Z" fill="#7F8287"/>
<path d="M179.824 138.595C178.463 138.596 177.221 138.579 175.979 138.594C174.897 138.608 174.428 137.944 174.392 137.048C174.354 136.127 174.896 135.652 175.917 135.702C177.067 135.758 178.223 135.686 179.376 135.717C180.019 135.735 180.872 135.699 180.97 136.5C181.068 137.308 181.128 138.298 179.824 138.595Z" fill="#7F8287"/>
<path d="M230.592 135.907C227.498 135.951 224.511 135.972 221.523 135.973C220.971 135.973 220.201 136.107 220.23 135.263C220.254 134.588 220.863 134.401 221.508 134.403C224.362 134.413 227.216 134.418 230.07 134.413C230.555 134.412 230.974 134.532 231.199 134.961C231.457 135.456 231.005 135.643 230.592 135.907Z" fill="#72787B"/>
<path d="M211.048 135.443C212.467 135.381 213.764 135.58 215.047 135.331C215.173 135.307 215.359 135.263 215.429 135.324C216.276 136.068 215.715 137.046 215.841 137.912C215.921 138.468 215.612 138.851 214.999 138.855C213.214 138.869 211.429 138.855 209.644 138.865C209.054 138.868 208.863 138.559 208.883 138.039C208.891 137.82 208.883 137.602 208.887 137.383C208.916 135.27 208.581 135.463 211.048 135.443Z" fill="#C1C5C8"/>
<path d="M224.425 133.097C223.312 133.093 222.332 133.091 221.352 133.086C220.895 133.084 220.43 133.099 220.407 132.457C220.386 131.825 220.813 131.777 221.294 131.777C224.277 131.776 227.26 131.772 230.244 131.77C230.72 131.769 231.151 131.81 231.117 132.455C231.084 133.097 230.627 133.079 230.169 133.081C228.299 133.086 226.429 133.091 224.425 133.097Z" fill="#72787B"/>
<path d="M226.8 137.032C227.646 137.227 228.936 136.536 228.924 137.859C228.911 139.198 227.643 138.496 226.945 138.566C225.796 138.68 224.627 138.606 223.467 138.597C222.927 138.593 222.42 138.38 222.419 137.818C222.417 137.26 222.916 137.033 223.458 137.028C224.529 137.019 225.601 137.03 226.8 137.032Z" fill="#72787B"/>
<path d="M227.817 130.47C226.267 130.467 224.84 130.452 223.414 130.466C222.842 130.472 222.387 130.283 222.407 129.698C222.427 129.099 222.997 129.149 223.434 129.145C224.949 129.133 226.465 129.133 227.981 129.136C228.514 129.137 229.189 129.08 229.172 129.824C229.155 130.576 228.457 130.437 227.817 130.47Z" fill="#72787B"/>
<path d="M221.21 246.145C224.015 246.161 226.686 246.174 229.35 245.916C229.699 245.883 230.068 245.907 230.41 245.981C230.895 246.087 231.188 246.386 231.125 246.923C231.059 247.48 230.671 247.661 230.186 247.628C225.598 247.313 221.005 247.574 216.416 247.478C215.865 247.467 215.093 247.628 215.132 246.766C215.166 246.036 215.873 246.146 216.391 246.143C217.952 246.133 219.514 246.143 221.21 246.145Z" fill="#72787B"/>
<path d="M181.306 246.146C184.071 246.143 186.703 246.135 189.334 246.143C189.85 246.145 190.556 246.026 190.599 246.757C190.649 247.619 189.887 247.483 189.33 247.484C184.825 247.493 180.319 247.498 175.814 247.48C175.29 247.478 174.459 247.714 174.466 246.862C174.471 246.145 175.165 245.899 175.845 245.921C177.622 245.98 179.397 246.069 181.306 246.146Z" fill="#72787B"/>
<path d="M179.694 250.11C178.225 250.11 176.891 250.119 175.557 250.105C175.084 250.101 174.45 250.185 174.457 249.494C174.462 248.915 174.95 248.768 175.511 248.769C180.136 248.781 184.762 248.777 189.388 248.775C189.923 248.774 190.451 248.93 190.542 249.458C190.661 250.148 189.943 250.153 189.527 250.226C188.836 250.347 188.098 250.423 187.411 250.318C184.887 249.933 182.354 250.195 179.694 250.11Z" fill="#72787B"/>
<path d="M209.12 247.723C205.008 247.234 200.996 247.586 196.993 247.489C196.592 247.479 196.19 247.487 195.789 247.488C195.359 247.488 194.95 247.436 194.976 246.879C194.998 246.414 195.292 246.173 195.757 246.152C196.157 246.133 196.559 246.137 196.96 246.137C200.125 246.139 203.29 246.158 206.455 246.133C207.384 246.125 208.31 245.96 209.239 245.926C209.847 245.904 210.652 245.84 210.713 246.66C210.784 247.597 210.017 247.746 209.12 247.723Z" fill="#72787B"/>
<path d="M217.243 248.783C221.374 248.78 225.377 248.776 229.381 248.773C229.693 248.773 230.005 248.769 230.315 248.786C230.769 248.809 231.101 249.02 231.118 249.489C231.142 250.134 230.64 250.115 230.187 250.115C228.719 250.115 227.251 250.108 225.783 250.107C222.891 250.104 219.999 250.123 217.108 250.084C216.475 250.075 215.388 250.454 215.392 249.438C215.396 248.426 216.483 248.905 217.243 248.783Z" fill="#72787B"/>
<path d="M206.743 250.11C203.175 250.108 199.741 250.109 196.306 250.099C195.79 250.098 195.078 250.229 195.04 249.496C194.994 248.63 195.77 248.79 196.319 248.788C200.69 248.773 205.061 248.769 209.432 248.77C209.95 248.771 210.659 248.651 210.697 249.38C210.741 250.231 209.975 250.091 209.419 250.103C208.572 250.121 207.724 250.108 206.743 250.11Z" fill="#72787B"/>
<path d="M198.34 252.954C197.734 252.79 197.257 252.608 197.423 251.962C197.563 251.416 198.039 251.401 198.494 251.401C201.302 251.401 204.11 251.403 206.918 251.409C207.472 251.41 208.076 251.424 208.053 252.174C208.031 252.886 207.415 252.95 206.881 252.954C204.073 252.973 201.265 252.964 198.34 252.954Z" fill="#72787B"/>
<path d="M218.487 252.915C217.99 252.634 217.603 252.346 217.821 251.835C218.03 251.344 218.536 251.396 218.981 251.396C221.693 251.399 224.406 251.4 227.119 251.41C227.69 251.412 228.411 251.322 228.409 252.145C228.407 252.912 227.717 252.958 227.134 252.959C224.288 252.968 221.442 252.955 218.487 252.915Z" fill="#72787B"/>
<path d="M187.663 251.575C188.036 252.56 187.546 252.956 186.703 252.962C183.946 252.984 181.188 252.971 178.432 252.943C177.896 252.938 177.3 252.843 177.319 252.114C177.333 251.558 177.763 251.405 178.254 251.414C181.361 251.472 184.472 251.253 187.663 251.575Z" fill="#6C7376"/>
<path d="M202.996 243.524C204.467 243.527 205.804 243.528 207.141 243.534C207.593 243.536 208.064 243.506 208.082 244.16C208.1 244.795 207.68 244.843 207.198 244.843C204.212 244.843 201.225 244.844 198.239 244.849C197.745 244.85 197.347 244.775 197.371 244.149C197.396 243.502 197.861 243.518 198.315 243.518C199.831 243.516 201.346 243.521 202.996 243.524Z" fill="#72787B"/>
<path d="M183.976 244.845C181.976 244.847 180.109 244.854 178.242 244.848C177.716 244.846 177.05 244.917 177.08 244.147C177.106 243.491 177.715 243.522 178.202 243.521C181.002 243.515 183.803 243.515 186.603 243.522C187.136 243.523 187.825 243.54 187.847 244.176C187.871 244.86 187.198 244.856 186.643 244.848C185.798 244.835 184.954 244.845 183.976 244.845Z" fill="#72787B"/>
<path d="M226.26 243.525C226.832 243.534 227.277 243.526 227.719 243.554C228.116 243.58 228.414 243.779 228.402 244.2C228.391 244.611 228.104 244.832 227.699 244.833C224.636 244.841 221.573 244.844 218.51 244.833C218.058 244.832 217.711 244.607 217.782 244.11C217.863 243.537 218.352 243.521 218.806 243.521C221.248 243.519 223.69 243.523 226.26 243.525Z" fill="#72787B"/>
<path d="M175.538 200.495C174.545 200.189 174.31 199.592 174.311 198.7C174.315 195.012 174.285 195.014 178.024 195.012C182.872 195.01 187.719 195.003 192.692 194.992C196.07 194.993 199.323 194.997 202.575 195.01C204.345 195.018 204.587 195.26 204.596 196.964C204.614 200.503 204.614 200.534 201.007 200.493C197.985 200.458 194.949 200.115 191.947 200.308C186.515 200.659 181.089 200.376 175.538 200.495Z" fill="#7C8285"/>
<path d="M200.848 205.493C199.963 205.492 199.205 205.445 198.456 205.502C197.268 205.592 196.876 204.96 196.844 203.942C196.811 202.909 197.414 202.595 198.366 202.609C199.829 202.63 201.292 202.621 202.755 202.603C203.702 202.592 204.306 202.974 204.316 203.942C204.326 204.96 203.885 205.597 202.707 205.505C202.135 205.46 201.555 205.494 200.848 205.493Z" fill="#7F8287"/>
<path d="M174.342 203.505C174.423 202.717 175.093 202.727 175.594 202.408C177.067 202.209 178.419 202.648 179.802 202.612C180.541 202.593 181.011 202.99 181.002 203.722C180.994 204.422 180.9 205.304 180.044 205.381C178.452 205.524 176.828 205.567 175.241 205.418C174.312 205.331 174.345 204.367 174.342 203.505Z" fill="#7F8287"/>
<path d="M189.551 202.613C190.461 202.635 191.355 202.424 191.703 203.439C192.167 204.794 191.634 205.493 190.15 205.499C188.945 205.504 187.74 205.5 186.534 205.498C185.425 205.497 185.283 204.826 185.284 203.921C185.285 202.979 185.612 202.542 186.614 202.595C187.548 202.645 188.488 202.611 189.551 202.613Z" fill="#7C8285"/>
<path d="M227.896 201.297C228.784 201.301 229.541 201.292 230.297 201.316C230.819 201.333 231.133 201.6 231.099 202.143C231.069 202.623 230.745 202.838 230.295 202.839C227.314 202.842 224.333 202.848 221.353 202.814C220.85 202.808 220.39 202.575 220.416 201.935C220.447 201.186 221.026 201.317 221.491 201.314C223.582 201.3 225.673 201.301 227.896 201.297Z" fill="#72787B"/>
<path d="M211.787 199.516C210.721 198.575 210.775 197.476 211.324 196.503C211.91 195.464 213.066 195.363 214.152 195.581C214.944 195.739 215.27 196.436 215.29 197.159C215.313 197.989 215.628 199.017 214.615 199.489C213.763 199.886 212.807 200.278 211.787 199.516Z" fill="#74A4D2"/>
<path d="M212.393 202.345C213.055 202.345 213.59 202.344 214.124 202.345C215.85 202.35 215.851 202.351 215.854 204.01C215.858 205.753 215.858 205.756 214.076 205.759C212.74 205.761 211.404 205.732 210.069 205.762C209.222 205.781 208.894 205.453 208.868 204.607C208.795 202.271 208.764 202.273 211.196 202.342C211.552 202.352 211.908 202.345 212.393 202.345Z" fill="#C1C5C8"/>
<path d="M227.635 199.982C225.542 199.98 223.584 199.986 221.625 199.975C221.102 199.972 220.427 200.049 220.47 199.27C220.507 198.613 221.117 198.668 221.605 198.668C224.365 198.666 227.125 198.669 229.885 198.672C230.428 198.672 231.063 198.641 231.088 199.369C231.117 200.219 230.381 199.966 229.904 199.988C229.194 200.021 228.48 199.988 227.635 199.982Z" fill="#72787B"/>
<path d="M224.207 205.499C223.727 205.492 223.37 205.508 223.019 205.473C222.555 205.426 222.305 205.155 222.32 204.688C222.334 204.215 222.616 203.956 223.074 203.951C224.846 203.93 226.618 203.928 228.39 203.935C228.912 203.937 229.226 204.207 229.209 204.744C229.193 205.297 228.819 205.487 228.32 205.49C226.991 205.5 225.662 205.497 224.207 205.499Z" fill="#72787B"/>
<path d="M227.073 197.359C225.792 197.363 224.642 197.353 223.492 197.378C222.943 197.391 222.439 197.259 222.408 196.686C222.37 195.996 222.994 196.049 223.471 196.046C224.931 196.038 226.392 196.035 227.852 196.058C228.3 196.065 228.911 195.891 228.962 196.632C229.02 197.455 228.383 197.34 227.866 197.362C227.645 197.371 227.423 197.361 227.073 197.359Z" fill="#6C7376"/>
<path d="M208.21 191.186C208.221 191.176 208.198 191.195 208.21 191.186Z" fill="#6C7376"/>
<path d="M183.65 212.605C184.721 212.886 185.23 213.57 185.251 214.506C185.265 215.149 184.842 215.635 184.184 215.851C183.323 216.132 182.641 215.823 182.025 215.238C181.589 214.825 181.428 214.302 181.692 213.824C182.071 213.137 182.591 212.515 183.65 212.605Z" fill="#74A4D2"/>
<path d="M210.348 221.205C209.707 219.918 209.831 219.684 211.068 219.663C211.911 219.648 212.755 219.671 213.598 219.656C214.234 219.645 214.758 219.723 214.773 220.526C214.789 221.364 214.177 221.237 213.662 221.24C212.597 221.247 211.532 221.235 210.348 221.205Z" fill="#7C8285"/>
<path d="M178.182 215.835C177.252 216.122 176.601 215.882 176.179 215.145C175.885 214.631 175.803 214.086 176.168 213.555C176.617 212.9 177.268 212.753 178.022 212.827C178.624 212.886 179.065 213.195 179.129 213.759C179.218 214.552 179.4 215.455 178.182 215.835Z" fill="#63D761"/>
<path d="M212.615 171.132C211.907 171.131 211.326 171.112 210.747 171.134C210.184 171.156 209.952 170.93 209.933 170.37C209.912 169.749 210.155 169.504 210.788 169.52C211.813 169.547 212.84 169.541 213.866 169.52C214.452 169.508 214.806 169.659 214.771 170.323C214.738 170.95 214.399 171.156 213.814 171.134C213.457 171.12 213.1 171.132 212.615 171.132Z" fill="#72787B"/>
<path d="M175.939 163.251C176.495 163.259 176.813 162.7 177.399 162.703C178.465 162.71 179.077 163.167 179.179 164.209C179.275 165.202 178.595 165.884 177.476 165.873C176.516 165.864 175.838 165.501 175.926 164.394C175.951 164.092 175.932 163.787 175.93 163.367C175.927 163.251 175.943 163.259 175.939 163.251Z" fill="#63D761"/>
<path d="M177.129 229.394C178.976 229.384 180.007 230.344 179.559 231.598C179.225 232.536 178.592 233.143 177.464 233.006C176.624 232.904 175.855 232.668 175.72 231.719C175.571 230.665 175.699 229.695 177.129 229.394Z" fill="#63D761"/>
<path d="M214.321 236.51C214.958 237.695 214.82 237.983 213.668 238.018C212.693 238.047 211.717 238.008 210.742 238.03C210.092 238.046 209.898 237.73 209.907 237.147C209.916 236.566 210.232 236.403 210.756 236.414C211.908 236.439 213.06 236.452 214.321 236.51Z" fill="#72787B"/>
<path d="M227.511 236.455C227.659 236.647 227.683 236.836 227.725 237.119C227.708 237.413 227.673 237.613 227.63 237.914C226.478 238.014 225.332 238.023 224.187 238.008C223.597 238 222.847 238.177 222.844 237.226C222.841 236.298 223.575 236.435 224.285 236.386C225.393 236.399 226.39 236.426 227.511 236.455Z" fill="#72787B"/>
<path d="M184.667 98.6556C182.907 99.2308 181.846 98.9114 181.631 97.7761C181.472 96.9361 181.528 96.1643 182.495 95.6815C183.53 95.1648 184.355 95.4995 184.958 96.2402C185.568 96.9902 185.505 97.8618 184.667 98.6556Z" fill="#74A4D2"/>
<path d="M213.61 102.683C214.579 102.628 214.8 103.086 214.767 103.824C214.728 104.683 214.084 104.462 213.599 104.476C212.711 104.502 211.819 104.447 210.932 104.494C210.163 104.535 209.929 104.217 209.922 103.501C209.916 102.73 210.36 102.669 210.953 102.68C211.798 102.695 212.643 102.683 213.61 102.683Z" fill="#7C8285"/>
<path d="M176.037 98.4948C175.946 98.4084 175.945 98.3644 175.927 98.2562C175.866 97.1884 175.91 96.1903 177.166 95.9244C178 95.7477 178.814 95.9246 179.101 96.8481C179.41 97.8398 179.002 98.5633 177.986 98.8902C177.316 99.1057 176.666 99.059 176.037 98.4948Z" fill="#63D761"/>
<path d="M178.603 148.914C178.297 149.014 178.083 149.068 177.864 149.093C176.95 149.195 176.015 149.015 175.813 148.085C175.65 147.335 175.834 146.428 176.736 145.967C177.484 145.585 178.157 145.558 178.776 146.231C179.511 147.03 179.617 147.827 178.885 148.674C178.828 148.74 178.757 148.795 178.603 148.914Z" fill="#63D761"/>
<path d="M184.302 148.964C183.438 149.047 182.583 149.339 182.107 148.411C181.726 147.668 181.584 146.906 182.329 146.304C183.063 145.71 183.958 145.718 184.625 146.291C185.335 146.9 185.176 147.764 184.762 148.538C184.683 148.685 184.52 148.788 184.302 148.964Z" fill="#74A4D2"/>
<path d="M210.838 154.34C209.872 154.392 209.936 153.827 209.968 153.287C210.002 152.69 210.468 152.778 210.853 152.772C211.834 152.758 212.816 152.773 213.797 152.751C214.386 152.738 214.734 152.928 214.734 153.563C214.735 154.223 214.339 154.355 213.773 154.346C212.836 154.331 211.9 154.341 210.838 154.34Z" fill="#6C7376"/>
<path d="M178.147 115.85C177.063 116.172 176.176 115.919 175.813 115.01C175.496 114.217 175.526 113.313 176.366 112.643C177.202 111.975 177.952 112.136 178.807 112.609C179.65 113.074 179.356 113.805 179.399 114.459C179.451 115.247 178.991 115.655 178.147 115.85Z" fill="#63D761"/>
<path d="M182.778 112.403C183.925 112.314 184.886 112.521 185.246 113.587C185.517 114.387 185.246 115.121 184.359 115.507C183.59 115.841 182.808 116.004 182.154 115.357C181.492 114.702 181.396 113.909 181.89 113.092C182.073 112.788 182.32 112.541 182.778 112.403Z" fill="#74A4D2"/>
<path d="M214.357 119.475C214.945 120.752 214.809 120.991 213.567 121.012C212.636 121.028 211.705 120.997 210.775 121.011C210.243 121.019 209.953 120.857 209.937 120.277C209.921 119.666 210.157 119.406 210.787 119.421C211.939 119.448 213.091 119.439 214.357 119.475Z" fill="#72787B"/>
<path d="M183.033 179.044C184.527 178.83 184.867 179.919 185.212 180.807C185.514 181.584 184.922 182.061 184.222 182.416C183.226 182.921 182.502 182.575 181.917 181.794C181.324 181.002 181.459 180.25 182.195 179.603C182.423 179.403 182.683 179.238 183.033 179.044Z" fill="#74A4D2"/>
<path d="M209.957 187.126C209.976 186.879 209.947 186.704 210.022 186.63C210.332 186.322 214.183 186.175 214.531 186.435C214.938 186.739 214.799 187.789 214.293 187.835C212.931 187.961 211.553 188.022 210.19 187.807C209.965 187.771 209.967 187.463 209.957 187.126Z" fill="#72787B"/>
<path d="M175.936 182.15C175.942 180.05 176.501 179.334 177.98 179.503C178.698 179.584 179.111 179.944 179.165 180.654C179.215 181.314 179.26 181.997 178.423 182.253C177.658 182.487 176.877 183.047 176.025 182.199C175.937 182.16 175.942 182.146 175.936 182.15Z" fill="#63D761"/>
<path d="M213.847 179.012C214.684 179.349 215.058 179.943 215.037 180.683C215.01 181.59 214.966 182.574 213.671 182.683C212.197 182.807 211.408 182.324 211.296 181.24C211.156 179.89 211.759 179.123 213.072 178.994C213.292 178.972 213.516 178.995 213.847 179.012Z" fill="#74A4D2"/>
<path d="M185.108 131.535C184.061 132.467 182.77 132.589 182.118 131.865C181.656 131.353 181.369 130.713 181.712 130.079C182.012 129.524 182.444 128.959 183.197 128.924C184.019 128.885 184.636 129.263 185.039 129.962C185.313 130.435 185.398 130.932 185.108 131.535Z" fill="#74A4D2"/>
<path d="M179.102 129.741C180.105 130.359 180.209 131.515 179.414 132.431C178.666 133.292 176.814 133.3 175.751 132.445C174.99 131.832 174.913 129.917 175.622 129.216C176.37 128.476 178.31 128.399 179.059 129.096C179.138 129.17 179.125 129.34 179.158 129.568C178.773 130.009 178.404 129.711 178.036 129.626C177.11 129.412 176.552 129.784 176.374 130.663C176.244 131.302 176.48 131.803 177.206 131.91C178.075 132.039 178.714 131.806 178.798 130.813C178.828 130.468 178.821 130.111 179.102 129.741Z" fill="#72787B"/>
<path d="M212.865 136.209C213.346 136.215 213.703 136.207 214.058 136.228C214.563 136.256 214.735 136.579 214.734 137.025C214.733 137.482 214.537 137.785 214.03 137.788C212.874 137.795 211.717 137.794 210.56 137.791C209.999 137.789 209.951 137.41 209.944 136.985C209.937 136.531 210.064 136.215 210.603 136.216C211.315 136.218 212.027 136.212 212.865 136.209Z" fill="#7C8285"/>
<path d="M175.901 198.946C175.41 197.847 175.087 196.894 176.425 196.197C177.341 195.719 178.172 195.533 178.965 196.312C179.648 196.982 179.989 197.84 179.43 198.674C178.815 199.59 177.831 199.887 176.734 199.525C176.452 199.433 176.22 199.196 175.901 198.946Z" fill="#63D761"/>
<path d="M184.7 196.392C185.658 197.289 185.362 198.153 184.722 198.887C184.219 199.464 182.573 199.283 182.026 198.69C181.395 198.004 181.398 197.29 182.002 196.582C182.828 195.613 183.503 195.547 184.7 196.392Z" fill="#74A4D2"/>
<path d="M213.614 202.883C214.585 202.827 214.814 203.295 214.775 204.025C214.73 204.861 214.099 204.672 213.6 204.681C212.711 204.697 211.82 204.664 210.932 204.689C210.308 204.708 209.933 204.593 209.93 203.846C209.928 203.095 210.221 202.84 210.957 202.874C211.8 202.914 212.646 202.883 213.614 202.883Z" fill="#7F8287"/>
<path d="M179.162 129.677C179.17 130.021 179.165 130.368 179.18 130.714C179.213 131.471 179.054 132.156 178.168 132.281C177.443 132.384 176.587 132.552 176.128 131.762C175.69 131.01 175.881 130.237 176.453 129.602C177 128.996 177.684 129.015 178.384 129.345C178.581 129.437 178.768 129.55 179.061 129.662C179.162 129.671 179.158 129.679 179.162 129.677Z" fill="#63D761"/>
</svg>
